<svg id="SvgjsSvg1145" width="288" height="288" xmlns="http://www.w3.org/2000/svg" version="1.1" xmlns:xlink="http://www.w3.org/1999/xlink" xmlns:svgjs="http://svgjs.com/svgjs"><defs id="SvgjsDefs1146"></defs><g id="SvgjsG1147" transform="matrix(1,0,0,1,0,0)"><svg xmlns="http://www.w3.org/2000/svg" width="288" height="288" viewBox="0 0 100 100"><g transform="translate(0 -952.362)" fill="#000000" class="color000 svgShape"><path fill="none" stroke="#c38f17" stroke-width="2" d="M 67.1096,1041.3921 94.7543,1024.532" class="colorStroke065fff svgStroke"></path><path fill="none" stroke="#c38f17" stroke-linecap="square" stroke-width="2" d="m 94.2775,1023.3324 -1e-4,-59.84854 -2,0" class="colorStroke065fff svgStroke"></path><path fill="none" stroke="#c38f17" stroke-width="2" d="m 94.2772,1024.2804 0,1.0496" class="colorStroke065fff svgStroke"></path><path fill="none" stroke="#c38f17" stroke-linecap="square" stroke-width="2" d="m 92.2774,963.48386 -58.9039,0 0,0 0,0" class="colorStroke065fff svgStroke"></path><path fill="none" stroke="#c38f17" stroke-width="2.021" d="m 5.2486,980.20226 26.3401,-16.0623 1.3077,-0.7878" class="colorStroke065fff svgStroke"></path><path fill="none" stroke="#c38f17" stroke-width="2" d="M66.0413 980.62736l28.6575-16.5375M94.2772 1024.3351l0 1.0496" class="colorStroke065fff svgStroke"></path><path fill="none" stroke="#c38f17" stroke-linecap="square" stroke-width="2" d="m 26.3711,980.34026 -20.6465,0 0,60.90434 60.9024,0 0,-60.90434 -25.461,0 -4.2071,-9e-4" class="colorStroke065fff svgStroke"></path><path fill="none" stroke="#0e9ef1" stroke-linecap="square" stroke-width="2" d="m 53.34375,963.47942 -26.972656,16.42968 0,22.5156 5.21875,-6.06833 5.36914,6.06833 0,-22.5195 27.105469,-16.42578 -10.720703,0 z" class="colorStrokee41e1e svgStroke"></path></g></svg></g></svg>