<svg id="SvgjsSvg1167" width="288" height="288" xmlns="http://www.w3.org/2000/svg" version="1.1" xmlns:xlink="http://www.w3.org/1999/xlink" xmlns:svgjs="http://svgjs.com/svgjs"><defs id="SvgjsDefs1168"></defs><g id="SvgjsG1169" transform="matrix(1,0,0,1,0,0)"><svg xmlns="http://www.w3.org/2000/svg" width="288" height="288" viewBox="0 0 100 100"><g transform="translate(0 -952.362)" fill="#000000" class="color000 svgShape"><path fill="none" stroke="#66ccff" stroke-width="2" d="M51.74604 1025.4999l28.7007-.2803M66.23644 1039.7101l-.2801-28.7007" class="colorStrokee41e1e svgStroke"></path><path fill="none" stroke="#c38f17" stroke-width="2" d="m 87.08904,1024.0526 7.6653,-4.6749" class="colorStroke065fff svgStroke"></path><path fill="none" stroke="#c38f17" stroke-linecap="square" stroke-width="2" d="m 94.27754,1018.1781 -1e-4,-59.8485 -2,0" class="colorStroke065fff svgStroke"></path><path fill="none" stroke="#c38f17" stroke-width="2" d="m 94.27724,1019.1261 0,1.0496" class="colorStroke065fff svgStroke"></path><path fill="none" stroke="#c38f17" stroke-linecap="square" stroke-width="2" d="m 92.27744,958.3296 -58.9039,0 0,0 0,0" class="colorStroke065fff svgStroke"></path><path fill="none" stroke="#c38f17" stroke-width="2.021" d="m 5.24864,975.048 26.3401,-16.0623 1.3077,-0.7878" class="colorStroke065fff svgStroke"></path><path fill="none" stroke="#c38f17" stroke-width="2" d="M66.04134 975.4731l28.6575-16.5375M94.27724 1019.1808l0 1.0496" class="colorStroke065fff svgStroke"></path><path fill="none" stroke="#c38f17" stroke-linecap="square" stroke-width="2" d="m 26.37024,975.18557 -20.6465,0 0,3e-4 0,0 0,60.90423 42.3027,0 a 21.040194,21.040194 0 0 1 -2.9707,-10.7304 21.040194,21.040194 0 0 1 21.041,-21.041 21.040194,21.040194 0 0 1 0.5293,0.027 l 0,-29.16013 -25.4609,0 -4.20505,0" class="colorStroke065fff svgStroke"></path><path fill="none" stroke="#66ccff" stroke-width="2" d="m 26.37064,974.7541 26.9733,-16.4297 10.7207,0 -27.1059,16.4258 0,22.5206 -5.3693,-6.0694 -5.2188,6.0694 z" class="colorStrokee41e1e svgStroke"></path><circle cx="66.096" cy="1025.36" r="21.04" fill="none" stroke="#66ccff" stroke-linecap="round" stroke-linejoin="round" stroke-width="2" class="colorStrokee41e1e svgStroke"></circle></g></svg></g></svg>