<svg id="SvgjsSvg1235" width="288" height="288" xmlns="http://www.w3.org/2000/svg" version="1.1" xmlns:xlink="http://www.w3.org/1999/xlink" xmlns:svgjs="http://svgjs.com/svgjs"><defs id="SvgjsDefs1236"></defs><g id="SvgjsG1237" transform="matrix(1,0,0,1,0,0)"><svg xmlns="http://www.w3.org/2000/svg" width="288" height="288" viewBox="0 0 100 100"><g transform="translate(0 -952.362)" fill="#c38f17" class="color000 svgShape"><path fill="#ff1818" fill-rule="evenodd" d="m 79.632515,1017.0686 -20.322265,13.8047 -6.22265,-9.1504 -1.65235,1.125 7.34571,10.8027 21.976555,-14.9277 -1.125,-1.6543 z" color="#000" enable-background="accumulate" font-family="sans-serif" font-weight="400" overflow="visible" style="line-height:normal;text-indent:0;text-align:start;text-decoration-line:none;text-decoration-style:solid;text-decoration-color:#000;text-transform:none;block-progression:tb;white-space:normal;isolation:auto;mix-blend-mode:normal;solid-color:#000;solid-opacity:1" class="colore41e1e svgShape"></path><path fill="none" stroke="#c38f17" stroke-width="2" d="m 87.08904,1024.0527 7.6653,-4.6749" class="colorStroke065fff svgStroke"></path><path fill="none" stroke="#c38f17" stroke-linecap="square" stroke-width="2" d="m 94.27754,1018.1782 -1e-4,-59.84848 -2,0" class="colorStroke065fff svgStroke"></path><path fill="none" stroke="#c38f17" stroke-width="2" d="m 94.27724,1019.1262 0,1.0496" class="colorStroke065fff svgStroke"></path><path fill="none" stroke="#c38f17" stroke-linecap="square" stroke-width="2" d="m 92.27744,958.32972 -29.051376,0 m -11.066746,0 -18.785778,0 0,0 0,0" class="colorStroke065fff svgStroke"></path><path fill="none" stroke="#c38f17" stroke-width="2.021" d="m 5.24864,975.04812 26.3401,-16.0623 1.3077,-0.7878" class="colorStroke065fff svgStroke"></path><path fill="none" stroke="#c38f17" stroke-width="2" d="M66.04134 975.47322l28.6575-16.5375M94.27724 1019.1809l0 1.0496" class="colorStroke065fff svgStroke"></path><path fill="none" stroke="#c38f17" stroke-linecap="square" stroke-width="2" d="m 25.554796,975.18572 -19.831056,0 0,3e-4 0,0 0,60.90418 41.254271,0 m 19.648029,-32.9093 0,-27.99518 -25.4609,0 -2.981883,0" class="colorStroke065fff svgStroke"></path><path fill="none" stroke="#66ccff" stroke-width="2" d="m 26.37064,974.75422 26.9733,-16.4297 10.7207,0 -27.1059,16.4258 0,22.5206 -5.3693,-6.0694 -5.2188,6.0694 z" class="colorStrokee41e1e svgStroke"></path><circle cx="66.096" cy="1025.36" r="21.04" fill="none" stroke="#66ccff" stroke-linecap="round" stroke-linejoin="round" stroke-width="2" class="colorStrokee41e1e svgStroke"></circle></g></svg></g></svg>