<svg id="SvgjsSvg1195" width="288" height="288" xmlns="http://www.w3.org/2000/svg" version="1.1" xmlns:xlink="http://www.w3.org/1999/xlink" xmlns:svgjs="http://svgjs.com/svgjs"><defs id="SvgjsDefs1196"></defs><g id="SvgjsG1197" transform="matrix(1,0,0,1,0,0)"><svg xmlns="http://www.w3.org/2000/svg" width="288" height="288" viewBox="0 0 100 100"><g transform="translate(0 -952.362)" fill="#000000" class="color000 svgShape"><path fill="none" stroke="#c38f17" stroke-linecap="square" stroke-width="2" d="M94.27754 1018.3886l-.0001-59.84852-2 0M92.27744 958.54008l-28.99313 0m-11.29973 0l-18.61104 0 0 0 0 0" class="colorStroke065fff svgStroke"></path><path fill="none" stroke="#c38f17" stroke-width="2.021" d="m 5.24864,975.25848 26.3401,-16.0623 1.3077,-0.7878" class="colorStroke065fff svgStroke"></path><path fill="none" stroke="#c38f17" stroke-width="2" d="m 66.04134,975.68358 28.6575,-16.5375" class="colorStroke065fff svgStroke"></path><path fill="none" stroke="#c38f17" stroke-linecap="square" stroke-width="2" d="m 25.586643,975.39638 -19.862003,0 0,0 0,60.90432 43.86484,0 m 17.03756,-28.0801 0,-32.82422 -25.461,0 -4.207,0 0.698165,0" class="colorStroke065fff svgStroke"></path><path fill="none" stroke="#66ccff" stroke-width="2" d="M26.37064 974.96458l26.9733-16.4297 10.7207 0-27.1059 16.4258 0 22.5206-5.3693-6.0694-5.2188 6.0694zM47.68684 1027.4635l4.5032 0M81.06644 1027.4635l4.5031 0M66.62814 1008.5222l0 4.5031M66.62814 1041.9017l0 4.5032" class="colorStrokee41e1e svgStroke"></path><circle cx="66.628" cy="1027.525" r="18.664" fill="none" stroke="#66ccff" stroke-linecap="round" stroke-linejoin="round" stroke-width="2" class="colorStrokee41e1e svgStroke"></circle><circle cx="66.628" cy="1027.525" r="1.313" fill="none" stroke="#66ccff" stroke-linecap="round" stroke-linejoin="round" stroke-width="2" class="colorStrokee41e1e svgStroke"></circle><path fill="none" stroke="#66ccff" stroke-width="2" d="M66.62784 1014.7135l.0005 12.4627M58.43624 1027.5295l9.0077-.01" class="colorStrokee41e1e svgStroke"></path><path fill="none" stroke="#c38f17" stroke-width="2" d="M85.15454 1025.443l9.5998-5.8548M94.27724 1019.3366l0 1.0496M94.27724 1019.3913l0 1.0496" class="colorStroke065fff svgStroke"></path></g></svg></g></svg>