<svg xmlns="http://www.w3.org/2000/svg" width="40" height="40" viewBox="0 0 40 40">
    <g fill="none" fill-rule="evenodd">
        <circle cx="20" cy="20" r="20" fill="#FF5230"/>
        <path fill="#FFF" d="M12 28h16v-4h-3.382l-.723 1.447c-.17.339-.516.553-.895.553h-6c-.379 0-.725-.214-.895-.553L15.382 24H12v4zm17-17c.552 0 1 .448 1 1v17c0 .552-.448 1-1 1H11c-.552 0-1-.448-1-1V12c0-.552.448-1 1-1h4c.552 0 1 .448 1 1s-.448 1-1 1h-3v9h4c.379 0 .725.214.895.553L17.618 24h4.764l.723-1.447c.17-.339.516-.553.895-.553h4v-9h-3c-.552 0-1-.448-1-1s.448-1 1-1h4zm-12.707 5.707c-.391-.391-.391-1.023 0-1.414s1.023-.391 1.414 0L19 16.586V11c0-.552.448-1 1-1s1 .448 1 1v5.586l1.293-1.293c.391-.391 1.023-.391 1.414 0s.391 1.023 0 1.414l-3 3c-.195.195-.451.293-.707.293-.256 0-.512-.098-.707-.293l-3-3z"/>
    </g>
</svg>
