<svg xmlns="http://www.w3.org/2000/svg" width="56" height="56" viewBox="0 0 56 56">
    <g fill="none" fill-rule="evenodd">
        <circle cx="28" cy="28" r="28" fill="#EAE6FF" opacity=".4"/>
        <g fill="#8777D9" fill-rule="nonzero">
            <path d="M23.04 0H1.28C.573 0 0 .573 0 1.28v21.76c0 .707.573 1.28 1.28 1.28h21.76c.707 0 1.28-.573 1.28-1.28V1.28c0-.707-.573-1.28-1.28-1.28zm-1.28 21.76H2.56V2.56h19.2v19.2zM29.44 26.24v3.2h-3.2V32h4.48c.707 0 1.28-.573 1.28-1.28v-4.48h-2.56zM16.397 29.44H23.282999999999998V32H16.397zM10.24 29.44v-3.2H7.68v4.48c0 .707.573 1.28 1.28 1.28h4.48v-2.56h-3.2zM30.72 7.68h-4.48v2.56h3.2v3.2H32V8.96c0-.707-.573-1.28-1.28-1.28zM29.44 16.397H32V23.282999999999998H29.44z" transform="translate(12 12)"/>
        </g>
    </g>
</svg>
