<svg xmlns="http://www.w3.org/2000/svg" width="231" height="158" viewBox="0 0 231 158">
    <g fill="none">
        <g fill="#091E42" fill-opacity=".04" opacity=".6">
            <path d="M83.144 69H37.463h-17.23C10.162 69 2 60.802 2 50.69c0-10.114 8.163-18.312 18.232-18.312 4.14 0 7.96 1.386 11.02 3.722V36c0-18.225 14.711-33 32.858-33 16.928 0 30.867 12.857 32.662 29.378 10.068.003 18.228 8.2 18.228 18.311C115 60.802 106.837 69 96.768 69H83.144z" transform="translate(53 25)"/>
            <path d="M146.527 98h-40.83-15.401C81.296 98 74 90.671 74 81.631s7.296-16.369 16.296-16.369c3.701 0 7.114 1.24 9.85 3.327V68.5c0-16.292 13.148-29.5 29.368-29.5 15.13 0 27.589 11.493 29.194 26.262 8.998.002 16.292 7.33 16.292 16.37C175 90.671 167.704 98 158.704 98h-12.177zM147.84 25h23.383c3.743 0 6.777-3.105 6.777-6.936 0-3.83-3.034-6.936-6.777-6.936-1.539 0-2.958.525-4.095 1.41V12.5c0-6.904-5.468-12.5-12.213-12.5-6.292 0-11.473 4.87-12.14 11.128-3.742.001-6.775 3.106-6.775 6.936S139.034 25 142.777 25h5.064zM6.827 9.857c1.59-1.59 4.304-.862 4.885 1.31l2.185 8.154c.582 2.171-1.405 4.158-3.576 3.576l-8.155-2.185c-2.171-.581-2.898-3.296-1.309-4.885l5.97-5.97zM110.84 108.867c1.608-1.608 4.353-.872 4.942 1.324l5.114 19.087c.589 2.197-1.421 4.207-3.618 3.618l-19.087-5.114c-2.196-.589-2.932-3.335-1.324-4.943l13.972-13.972zM58.094 122c2.234 0 3.63 2.564 2.513 4.615l-2.094 3.847c-1.117 2.05-3.909 2.05-5.026 0l-2.094-3.847c-1.117-2.051.28-4.615 2.513-4.615h4.188z" transform="translate(53 25)"/>
        </g>
        <path fill="#6554C0" d="M105.07 62.59c.827 4.271-.045 8.503-2.846 12.142-.183.237-.321.554-.137.83.596.99.092 6.487 3.305 5.26 2.524-.948.505-4.548-1.01-6.011 2.57-3.836 3.35-8.148 1.882-12.498-.23-.554-1.285-.317-1.194.277zM152.64 4.145c-.704.536-1.368 1.149-2.072 1.723l-.042.038c-.248-.306-.621-.574-1.119-.804h-.04c-.333-.46-.747-.842-1.203-1.033-.331-.115-.621-.192-.911-.23.083-.995.207-1.99.33-3.024.125-.92-1.325-1.149-1.532-.23-.29 1.148-.622 2.526-.498 3.752-.746.65-1.035 1.76-.58 2.794.87 1.914 2.03.766.29 3.981-.497.92-1.409 1.761-2.072 2.527-1.906 2.22-4.144 4.173-6.05 6.393-.456.536.29 1.263.87.842 3.357-2.297 6.216-5.627 8.703-8.728.414-.536.994-1.148 1.326-1.8.994-.459 1.99-1.263 2.528-2.143l1.202-1.11c.663-.613 1.367-1.187 2.03-1.8.622-.689-.331-1.799-1.16-1.148zM51.295 89.95c-2.662 2.457-.86 5.356 2.153 2.86 3.563-2.457 13.936-7.37 22.666 1.328 2.858 2.819 7.125-1.973 9.239-4.389 1.565-1.772 4.15-4.59 3.562-7.409-.822-3.744-8.104-4.187-10.844-4.308-4.658-.242-8.886.926-12.526 2.376-4.815 1.932-8.691 4.71-12.058 7.57-.743.644-1.487 1.288-2.192 1.973zM84.384 149.805c-3.477 1.002-4.9-2.125-1.225-3.407 3.99-1.764 13.63-8.098 11.18-20.284-.79-3.968 5.492-5.09 8.653-5.652 2.331-.4 6.045-1.122 8.06.882 2.647 2.686-.948 9.22-2.292 11.665-2.291 4.169-5.61 7.175-8.77 9.54-4.189 3.127-8.613 5.011-12.801 6.374-.948.32-1.897.602-2.805.882z"/>
        <path fill="#5243AA" d="M74.583 97.713l-4.915 4.039c-.674.56-.872 1.52-.436 2.28l12.525 23.034c.436.76 1.308 1.12 2.14.84l6.025-2c25.883-8.678 48.475-25.434 63.894-48.108.397-.56.753-1.12 1.15-1.72l2.734-4.199c.793-1.24-.079-2.879-1.545-2.879l-4.994.08c-.674 0-1.348.04-2.022.04-27.27.96-53.39 11.197-74.556 28.593z"/>
        <path fill="#C0B6F2" d="M89.771 81.618c-3.108 2.204-6.136 4.528-9.124 6.973l-5.26 4.288-1.474 1.202c-.916.761-1.195 2.083-.597 3.125l17.172 31.497c.558 1.041 1.833 1.563 2.949 1.162l1.314-.441 6.933-2.324c3.546-1.162 7.013-2.445 10.44-3.847 27.89-11.3 52.472-29.653 71-53.456 1.075-1.402 2.151-2.805 3.187-4.248.319-.4.598-.841.916-1.282.2-.28.4-.56.598-.801.478-.682.957-1.403 1.474-2.124.518-.761 1.036-1.563 1.554-2.324l3.745-5.73c1.116-1.683-.239-4.208-2.27-4.168l-6.933-.12c-.717.4-1.714.28-2.67.32-.837.04-1.633.2-2.47.24-.398 0-.797.12-1.275.12-.398 0-.797.081-1.235.081-1.753.12-3.506.28-5.26.441-29.842 2.965-58.29 13.945-82.714 31.416z"/>
        <path fill="#EAE6FF" d="M152.5 84c5.247 0 9.5-4.477 9.5-10s-4.253-10-9.5-10-9.5 4.477-9.5 10 4.253 10 9.5 10z"/>
        <path fill="#8777D9" d="M151.5 81c3.59 0 6.5-2.91 6.5-6.5s-2.91-6.5-6.5-6.5-6.5 2.91-6.5 6.5 2.91 6.5 6.5 6.5z"/>
        <path fill="#6554C0" d="M93.033 101.049c-12.289 6.985-14.634 11.127-25.508 17.527-4.407 2.593-2.588 6.066 1.94 3.555 11.077-6.065 15.685-5.814 27.975-12.8 7.034-3.932 2.627-12.257-4.407-8.282z"/>
        <path fill="#FFDC5E" d="M27.108 125.434l4.666 3.78-17.002 11.066c-.988.637-.949 1.751.04 1.91l4.665.677-18.82 13.254c-1.265.915-.554 2.309.87 1.751l18.425-7.084-.87 3.383c-.237.875.751 1.313 1.7.836l24.791-12.697-1.423 7.522c-.198.956 1.226 1.234 2.174.478l18.11-14.528c.632-.517.75-1.234.276-1.592-3.637-2.627-9.845-13.97-10.043-18.468-.04-.597-.711-.876-1.463-.637l-25.107 8.359c-.989.358-1.621 1.512-.989 1.99z"/>
        <path fill="#FFF" d="M31.235 139.808c-.557.5-.04 1.385.675 1.154 5.124-1.424 17.677-4.811 24.946-6.852.238-.077.159-.423-.08-.384-9.612.5-18.113 4.234-10.01-6.968.398-.423-.238-1.039-.675-.616l-14.856 13.666z"/>
        <path fill="#8777D9" d="M177 49.625c3.038 3.792 7.308 11.709 8.869 16.375.41-.5.82-.958 1.15-1.417.205-.291.41-.583.615-.833.493-.708 6.94-10.541 6.94-10.541 1.149-1.75-.165-4.25-2.26-4.208h-7.061s-4.558.333-5.42.375c-.41 0-.862.083-1.314.125-.492-.042-.985.041-1.519.124z"/>
        <path fill="#6554C0" d="M153.073 60.831c.13-.405.518-.774.647-1.143.302-.774.475-1.585.82-2.36.259-.59 1.122-.295 1.251.184.13.59.044 1.291-.13 1.918.087-.258 1.166-.406 1.468-.48.993-.22 2.028-.331 2.978-.626.776-.259 1.726-.59 2.545-.221.303.147.475.479.216.737-.474.443-1.165.664-1.812.848-.345.11-.82.258-1.036.48-.431.405.259.479.604.553.734.184 1.51.369 2.158.774.432.295.173.885-.345.959-.777.11-1.554-.11-2.33-.258-.389-.074-1.942-.111-1.424.553.086.11.258.147.388.184.69.221 1.596.738 1.985 1.29.216.296.043.775-.432.775-1.078.037-1.985-.48-2.89-.922-1.468-.663-5.309-1.217-4.661-3.245z"/>
        <path fill="#6554C0" d="M127.621 54.826c2.748 1.242 5.495 2.404 8.322 3.286 3.026.962 5.614 1.122 8.76 1.603 3.145.521 6.569.481 9.714.802.558.04.837 1.483.28 1.483-3.226 0-6.451-.12-9.636-.561-3.186-.441-6.371-1.082-9.516-1.964-2.907-.842-5.774-1.844-8.56-3.006-1.354-.561-2.867-1.122-4.34-1.643-1.474-.522-2.867-1.043-4.141-1.604-.677-.32-.717-1.162.159-1.202 1.513-.12 3.105.32 4.578.882 1.593.56 3.026 1.322 4.38 1.924zM109.356 57.065c.115.04.23.159.307.238 2.843 2.7 4.995 6.354 5.302 10.325.307 3.97-1.421 8.22-4.764 10.244 1.306.715 2.497 1.59 3.573 2.661.307.278.576.596.692.993.422 1.27-1.115 1.668-1.998 1.39-.577-.199-1.076-.596-1.537-.993-.653-.556-1.306-1.152-1.921-1.787-.576-.556-1.19-1.35-.96-2.144.153-.517.615-.874 1.037-1.152 1.422-1.032 2.728-2.263 3.496-3.852 1.191-2.422 1.037-5.36.192-7.902-.845-2.541-2.344-4.844-3.803-7.068-.192-.278-.346-.675-.077-.873.115-.199.307-.16.46-.08z"/>
        <path fill="#DCD6F9" d="M94.333 59.614c2.546 2.428 6.245 3.185 9.348 1.95.239 3.663 3.182 7.364 6.762 8.638 2.705.956 5.291.717 7.081-1.592.557-.716 1.034-1.512 1.392-2.348.557.637 1.194 1.194 1.79 1.671 2.586 2.07 5.729 3.503 8.99 2.946 3.063-.478 5.25-2.667 6.046-5.692 3.223 1.433 7.797.557 9.547-2.15 1.393-2.11 1.592-4.895.915-7.562.12.04.239.04.358.079 1.233.12 2.427-.159 3.46-.756 2.308-1.314 3.263-4.06 2.905-6.687-.279-2.07-1.352-4.02-2.864-5.573 1.591-1.473 2.227-4.339 1.273-6.448-.477-1.075-1.194-1.99-2.03-2.667 1.83-3.9-.675-11.106-4.375-13.335-2.386-1.433-4.813-1.034-6.762.28-.795-2.39-2.586-4.26-5.37-3.942-2.427.279-3.859 1.672-4.654 3.583-.16-.2-.279-.398-.438-.637-1.63-2.11-4.336-4.856-7.24-4.299-2.426.478-3.699 2.667-4.256 4.936-.398-.358-.835-.717-1.352-1.035-2.427-1.513-6.007-2.786-8.075-.2-.597.757-.915 1.673-.995 2.628-2.028-1.115-4.892-1.87-6.762-.398-2.188 1.712-2.387 5.254-1.83 7.802.08.358.16.716.278 1.035-.437-.04-.914-.08-1.431 0-5.132.517-7.916 8.398-4.615 12.458.756.916 1.631 1.752 2.586 2.468-1.074.956-1.91 2.309-2.387 3.781-1.233 3.822-.278 8.24 2.705 11.066z"/>
        <path fill="#C0B6F2" d="M96.31 31.18c.79-.123 1.786 0 2.742.288-.166-.576-.25-1.234-.25-1.768-.083-1.48.167-3.124.915-4.398.374-.617 1.412-.206 1.163.493-.457 1.315-.83 2.507-.706 3.905.041.781.415 1.644.415 2.467.956.657 1.579 1.644 1.371 2.877-.083.411-.623.493-.872.246-.457-.452-.665-1.068-1.122-1.52-.748-.74-1.911-1.07-2.908-.987-2.286.206-3.324 2.507-3.573 4.522-.083.74-1.205 1.027-1.372.164-.664-2.63 1.704-5.92 4.197-6.29z" opacity=".2"/>
        <path fill="#FFB5C7" d="M102.28 23.18c.37-.15.808-.126 1.211-.176.404-.05.74.403.303.555-.336.15-.673.378-1.076.428-.27.05-.573-.05-.673-.277-.102-.177-.034-.429.235-.53z"/>
        <path fill="#C0B6F2" d="M107.038 23.976c.745-2.06 2.069-3.855 4.552-3.97 1.986-.076 4.551.497 5.379 2.405.165.344-.372.535-.62.344-1.035-.916-3.063-1.374-4.47-1.26-2.027.153-2.524 1.603-3.269 3.13-.413.802-1.862.191-1.572-.649zM108.69 31.082c.49 0 1.022-.985 1.268-1.34.123-.197.245-.433.327-.67 0-.157.04-.315.123-.433.082-.355.123-.749 0-1.143-.123-.512.654-.709.818-.197.123.394.204.788.204 1.222 2.291.59 4.132 1.97 5.319 3.979 1.431-1.379 3.558-1.655 5.522-.71 1.964.946 4.91 3.744 3.232 5.99-.327.433-1.145.196-.982-.434.9-3.467-5.318-6.225-7.282-3.191-.368.551-1.063.354-1.309-.197-.9-2.128-2.577-3.546-4.704-4.216-.082.355-.245.67-.409.985-.409.749-1.473 2.403-2.536 1.615-.491-.354-.328-1.26.409-1.26zM122.748 18c2.625-.042 4.894 2.187 5.25 4.63.044.385-.534.514-.712.171-.445-.857-1.157-1.629-1.913-2.229-.845-.685-1.78-.857-2.803-1.114-.89-.129-.667-1.415.178-1.457zM128.052 24.075c.493-1.367 1.025-2.733 2.202-3.63 1.253-.977 2.734-1.445 4.291-1.445.494 0 .646.82.152.898-1.063.156-2.24.859-3.152 1.483-1.101.742-1.595 1.874-2.012 3.123-.38.898-1.823.469-1.481-.43zM125.235 27.662c1.195-1.504 2.595-1.934 4.202-1.504 1.441.376 3.006 1.181 3.542 3.115.124.483-.33.913-.618.644-1.359-1.181-3.295-2.416-4.902-1.611-.576.269-1.77 2.256-2.348.698-.164-.43-.164-.966.124-1.342zM144.484 23.018c1.306-.175 2.706.96 3.452 1.921.933 1.135 1.167 2.402 1.026 3.799-.046.35-.653.35-.746 0-.233-1.048-.793-2.052-1.54-2.838-.746-.786-1.772-1.048-2.472-1.747-.327-.35-.28-1.048.28-1.135zM140.113 33.308c.08-.29.441-.414.681-.166.401.413.401.661.722 1.198.441.744 1.243 1.24 2.046 1.446 1.203.29 3.168.042 4.01-1.115-.04-.124-.04-.248 0-.33.32-1.323.441-2.645.602-4.008.08-.537.842-.372.882.124.08.743.04 1.446-.04 2.19-.12 1.115-.281 1.322.36 2.23.683.992 1.445 1.695 1.605 2.975.2 1.529-1.203 4.752-3.008 4.05-.481-.166-.521-.869-.04-1.034 1.484-.495 2.045-2.437 1.484-3.842-.281-.661-.762-1.198-1.283-1.694-.802 1.487-2.647 1.983-4.332 1.777-1.484-.124-4.411-1.818-3.69-3.801zM139.316 26.41c1.865-1.131 5.118.147 5.674 2.998.079.492-.318.787-.635.443-.635-.738-1.27-1.475-2.064-1.868-.872-.394-1.587-.295-2.46-.099-.674.148-1.19-1.081-.515-1.474zM144.382 44.405c2.906-1.332 8.253.666 7.556 5.328-.039.356-.581.356-.62 0-.31-1.687-1.318-3.197-2.713-3.818-1.356-.622-2.634-.222-3.99-.089-.776.089-.776-1.155-.233-1.42z" opacity=".2"/>
        <path fill="#C0B6F2" d="M149.123 52.04c.12-.162.24-.08.36-.203.095-.122.119-.285.095-.488-.024-.407.36-.488.407-.081.096.773-.287 2.116-.838 1.628-.216-.204-.168-.652-.024-.855z"/>
        <path fill="#C0B6F2" d="M141.906 51.401c.832-.872 2.955-2.18 4.038-.799.208.29-.209.69-.5.472-.749-.508-2.54 1.38-2.706 1.853-.416 1.053 0 2.18.25 3.233.208.872-1.166 1.199-1.457.327-.624-1.671-.916-3.742.375-5.086zM136.802 61.786c.624.084.98.211 1.56.423 1.16.464 1.784.422 2.898.126 1.962-.592 3.88-1.69 3.79-3.973 0-.422.625-.507.758-.084.67 2.07-.49 3.803-2.273 4.776-2.453 1.31-4.281 1.098-6.956.338-.847-.296-.758-1.733.223-1.606zM131.444 50.24c1.147-.28 2.633-.28 3.78.24.084-2.164 1.23-4.248 3.269-4.809-2.76-1.162-3.355-5.49-1.359-7.454.68-.681 1.783.4 1.104 1.042-.892.882-1.062 2.364-.637 3.527.425 1.202 1.401 1.883 2.335 2.725.085.08.085.2 0 .32 0 .08 0 .16-.085.2-1.231 1.043-2.59 1.564-3.057 3.287-.51 1.884.467 3.246 1.104 4.97.212.6-.552.921-.976.56-.85-.761-1.359-1.803-1.571-2.925-1.19-.24-2.208-.601-3.482-.28-.807.2-1.486.64-2.08 1.202-.425.44-.553.64-1.147.801-.34.08-.594-.16-.637-.48-.127-1.524 2.123-2.606 3.44-2.926zM100.039 45.34c-.368-3.377 1.92-5.978 5.188-6.133-.286-1.941.45-3.998 2.37-4.852 1.96-.893 4.861-.078 5.392 2.174.082.31-.326.582-.571.31-1.185-1.126-2.534-2.29-4.331-1.358-1.594.815-1.88 2.678-1.39 4.23.123.389-.244.855-.653.816-2.941-.194-4.984 1.94-4.657 4.852.081.854-1.267.815-1.348-.04zM95.442 51.37c.217-.658 1.048-.37.868.33-1.121 4.358 2.277 9.417 6.218 7.69.434-.206.651.616.29.863-1.917 1.44-4.484.658-6.074-1.151-1.772-2.015-2.17-5.1-1.302-7.732zM107.03 61.698c-1.254-.884-2.265-2.61-1.982-4.21.121-.757 1.052-.547 1.254.043.405 1.136.648 2.189 1.7 2.904.93.59 2.144.59 3.155.337.405-.126.81.505.445.842-.93.8-2.022 1.052-3.155.8.526 2.062.97 3.83 3.115 4.588.81.253 1.66.505 2.509.505 1.456.043 2.387-1.052 3.277-2.146.283-.38.809.126.607.547-1.376 3.2-3.763 3.578-6.757 2.652-2.792-.842-3.925-3.494-4.208-6.483 0-.21.04-.295.04-.379z" opacity=".2"/>
        <path fill="#C0B6F2" d="M113.015 59.836c-.157-.882.944-1.191 1.101-.308.944 4.5 5.19 3.574 7.55 1.809.314-.265.746.044.864.44 1.848 6.796 9.948 7.811 10.734.045.04-.485.669-.309.708.132.314 3.619-2.045 6.664-5.072 7.017-3.303.352-6.095-2.516-7.235-5.958-3.145 1.854-7.785 2.119-8.65-3.177z" opacity=".2"/>
        <path fill="#FFB5C7" d="M124.01 53.685c.04-.839 1.014-.923 1.297-.167.73 1.93 1.5 3.314 3.607 3.65 1.864.335 4.052-.043 5.187-1.763.364-.545 1.093-.083.85.546-1.904 4.824-11.305 3.817-10.94-2.266z"/>
        <path fill="#C0B6F2" d="M116.002 49.295c-.085-2.512 2.892-3.769 4.806-4.202 2.68-.563 4.126 1.516 5.147 3.856.213.52-.383.91-.723.433-1.234-1.733-2.51-3.163-4.636-2.513-1.659.52-2.595 1.213-3.403 2.816-.298.607-1.149.26-1.191-.39z" opacity=".2"/>
        <path fill="#C0B6F2" d="M105.007 50.25c-.117-2.308 1.244-4.488 3.149-5.043 1.593-.47 4.236-.256 4.82 1.88.155.514-.467.727-.7.342-.7-1.11-2.8-1.11-3.77-.769-1.439.47-2.139 2.01-2.177 3.676-.04.94-1.283.855-1.322-.085z"/>
        <path fill="#C0B6F2" d="M128.034 43.239c-.155-1.258.231-2.515 1.042-3.367.695-.73 1.776-1.218 2.703-.569.424.325.192.974-.31.853-.617-.163-1.273.527-1.582 1.014-.348.609-.464 1.339-.386 2.069.077 1.015-1.352 1.015-1.467 0z" opacity=".2"/>
        <path fill="#6554C0" d="M110.603 41.929c.454-.13.825-.474.907-.99.124-.602.454-.99.908-1.119.453-.129.907.087 1.32.517.494.56 1.318.602 1.855.086.536-.516.536-1.42.04-1.98-1.03-1.204-2.473-1.678-3.834-1.334-1.36.388-2.392 1.55-2.763 3.142-.165.731.248 1.506.949 1.72.206.044.412.044.618-.042zM138.704 34.914c.448-.13.814-.517.896-.991.122-.603.448-.99.896-1.12.449-.13.937.043 1.304.517.53.56 1.345.603 1.833.086.49-.517.49-1.421 0-1.981-1.1-1.207-2.525-1.68-3.91-1.293-1.345.388-2.364 1.551-2.69 3.145-.162.732.286 1.508.978 1.723.285 0 .49-.043.693-.086z"/>
        <path fill="#8777D9" d="M122.988 38c.295-.082.507-.286.55-.571.421-1.878 1.647-3.266 3.294-3.674 1.605-.408 3.422.204 4.774 1.633.296.327.802.367 1.14.04.339-.285.339-.816 0-1.142-1.774-1.878-4.14-2.653-6.336-2.123-2.197.572-3.844 2.368-4.394 4.817-.084.449.17.857.592.98.126.04.253.04.38.04z"/>
        <path fill="#6554C0" d="M104.333 37.973c.248-.083.455-.208.578-.458.206-.457.041-1.039-.371-1.288l-6.89-3.825c-.825-.457-1.733-.54-2.517-.166-.908.415-1.609 1.413-1.94 2.744l-.164.706c-.124.499.165.998.619 1.164.453.125.949-.166 1.073-.665l.164-.706c.207-.79.537-1.33.95-1.497.288-.125.618-.084.99.124l6.89 3.825c.206.083.454.083.618.042z"/>
        <path fill="#8777D9" d="M105.912 47.788c-.37-.202-1.397-.769-2.916-7.001-1.52-6.152-.903-7.083-.698-7.447.123-.162.246-.283.41-.405 2.752-1.7 14.948-4.33 18.151-3.885.164.04.329.08.452.162.41.243 1.232.647 2.464 5.302.698 2.59 1.766 7.163.903 8.499-.246.404-.78 1.295-9.157 3.44-8.295 2.064-9.24 1.538-9.61 1.335zm16.384-7.81c-.287-2.024-1.026-5.14-1.683-7.083-.288-.81-1.027-1.336-1.848-1.255-3.367.324-9.61 1.66-12.935 2.752-.822.284-1.314 1.133-1.15 1.983.328 2.145 1.19 5.545 1.93 7.568.287.85 1.109 1.377 1.97 1.215 3.204-.526 9.61-2.186 12.608-3.238.739-.243 1.232-1.093 1.108-1.943zM133.31 38.772c-1.398-.743-2.756-5.083-3.475-7.586-1.239-4.497-.8-5.2-.56-5.591.08-.118.2-.235.32-.352 2.517-1.838 14.221-5.357 17.417-5.24.2 0 .4.039.56.156.359.196 1.398.704 3.155 6.648 1.798 5.983 1.239 6.92.999 7.273-.24.39-.76 1.251-8.948 3.324-8.15 2.111-9.068 1.603-9.468 1.368zm15.94-7.742c-.4-1.994-1.32-5.044-2.078-6.96-.36-.9-1.318-1.447-2.237-1.252-3.356.626-9.028 2.346-12.064 3.637-.84.352-1.278 1.251-1.079 2.15.4 1.877 1.279 4.654 2.038 6.452.36.86 1.278 1.369 2.157 1.213 3.076-.509 9.068-2.034 12.064-3.05.879-.313 1.398-1.252 1.198-2.19z"/>
        <path fill="#FFF" d="M108.6 50.398c.56-.222 1.249-.333 1.895-.389.603-.055 1.335.14 1.464.611.172.472-.215.833-.861 1-.474.111-1.034.305-1.55.361-.604.083-1.25-.111-1.465-.528-.216-.388 0-.833.517-1.055zM143.71 43.004c-.62-.03-1.32.118-1.857.267-.578.148-1.031.563-.784 1.067.248.504.825.711 1.485.652.496-.06 1.114-.06 1.568-.178.578-.118.949-.533.867-.978-.124-.475-.66-.8-1.28-.83z"/>
        <path fill="#6554C0" d="M120.015 51.442c-.349 4.92 5.32 7.872 9.745 7.531 4.115-.34 9.201-4.314 9.24-8.59 0-1.893-.893-4.202-2.717-5.072-1.942-.909-3.184.378-4.62 1.249-1.592.757-3.262.908-5.28.757-1.165-.076-2.213-.34-3.34.075-1.746.568-2.91 2.271-3.028 4.05z"/>
        <path fill="#6554C0" d="M124.39 55.022c.821.854 2.112 1.424 3.208 1.71 2.816.772 5.867-.164 7.94-2.28 1.096-1.14 2.19-2.727 2.426-4.315.39-2.767-2.465-3.785-4.538-2.727-2.66 1.303-5.242.774-8.058.692-.274 0-.548 0-.822.082-2.503.977-1.525 5.372-.156 6.838z"/>
        <path fill="#FF3B86" d="M129.964 53.725c1.012.787 2.024 1.573 3.036 2.4-1.855.87-4.006 1.119-6.03.622-1.18-.29-2.572-.87-3.458-1.739-.97-.993-1.77-3.27-1.434-5.008 2.784.704 5.314 1.821 7.886 3.725z"/>
        <path fill="#E6E1F5" d="M145.489 122.182l-3.326.98-.98 3.326c-.214.683-1.195.683-1.365 0l-.98-3.325-3.326-.98c-.683-.214-.683-1.195 0-1.365l3.325-.98.98-3.326c.214-.683 1.194-.683 1.365 0l.98 3.325 3.327.98c.681.214.681 1.152 0 1.365z"/>
        <path fill="#C0B6F2" d="M25.615 79.494l-2.41.71-.711 2.41c-.158.514-.83.514-.988 0l-.71-2.41-2.41-.71c-.514-.158-.514-.83 0-.988l2.41-.711.71-2.41c.158-.513.83-.513.988 0l.71 2.41 2.41.711c.514.119.514.83 0 .988zM181.643 112.494l-2.419.711-.713 2.41c-.16.513-.833.513-.992 0l-.714-2.41-2.418-.711c-.516-.158-.516-.83 0-.988l2.418-.71.714-2.41c.16-.514.833-.514.992 0l.713 2.41 2.42.71c.475.158.475.87 0 .988z"/>
        <path fill="#FFDC5E" d="M51.767 64.812l-1.511.43-.465 1.524c-.078.312-.543.312-.62 0l-.427-1.524-1.511-.43c-.31-.078-.31-.546 0-.625l1.511-.43.427-1.523c.077-.312.542-.312.62 0l.465 1.524 1.511.43c.31.078.31.507 0 .624zM173.767 36.812l-1.511.43-.465 1.524c-.078.312-.543.312-.62 0l-.427-1.524-1.511-.43c-.31-.078-.31-.546 0-.625l1.511-.43.427-1.523c.077-.312.542-.312.62 0l.465 1.524 1.511.43c.31.078.31.507 0 .624zM75.767 29.813l-1.511.43-.466 1.523c-.077.312-.542.312-.62 0l-.426-1.524-1.512-.43c-.31-.078-.31-.546 0-.625l1.512-.43.427-1.523c.077-.312.542-.312.62 0l.465 1.524 1.511.43c.31.078.31.546 0 .625z"/>
        <path fill="#E6E1F5" d="M64.643 54.494l-2.419.71-.713 2.41c-.16.514-.833.514-.992 0l-.714-2.41-2.418-.71c-.516-.158-.516-.83 0-.988l2.418-.71.714-2.41c.159-.514.833-.514.992 0l.713 2.41 2.419.71c.476.158.476.83 0 .988z"/>
    </g>
</svg>
