<svg xmlns="http://www.w3.org/2000/svg" width="56" height="56" viewBox="0 0 56 56">
    <g fill="none" fill-rule="evenodd">
        <circle cx="28" cy="28" r="28" fill="#FFEBE6" opacity=".4"/>
        <path fill="#FF7452" fill-rule="nonzero" d="M24.781 40.663v3.24l-.783-.632c-.122-.098-3.003-2.437-5.924-5.792C14.044 32.852 12 28.7 12 25.135v-.354C12 17.734 17.734 12 24.781 12c7.048 0 12.781 5.734 12.781 12.781v.354c0 .299-.015.603-.044.91l-2.5-2.28c-.512-5.197-4.907-9.271-10.237-9.271-5.672 0-10.287 4.615-10.287 10.287v.354c0 6.022 7.76 13.314 10.287 15.528zm7.669-1.791h3.74V35.13h-3.74v3.74zm-7.669-19.39c2.922 0 5.3 2.377 5.3 5.3 0 2.921-2.378 5.299-5.3 5.299-2.922 0-5.3-2.378-5.3-5.3 0-2.922 2.378-5.3 5.3-5.3zm0 2.494c-1.547 0-2.805 1.258-2.805 2.805 0 1.547 1.258 2.806 2.805 2.806 1.547 0 2.806-1.259 2.806-2.806 0-1.547-1.259-2.805-2.806-2.805zM42.32 37.177l-.7-.64v4.004c0 1.864-1.518 3.38-3.382 3.38h-7.896c-1.864 0-3.38-1.516-3.38-3.38v-4.004l-.702.64-1.68-1.842 9.71-8.86L44 35.336l-1.68 1.842zm-3.195-2.915l-4.835-4.41-4.835 4.41v6.279c0 .489.398.887.887.887h7.896c.49 0 .887-.398.887-.887v-6.279z"/>
    </g>
</svg>
