<svg id="SvgjsSvg1220" width="288" height="288" xmlns="http://www.w3.org/2000/svg" version="1.1" xmlns:xlink="http://www.w3.org/1999/xlink" xmlns:svgjs="http://svgjs.com/svgjs"><defs id="SvgjsDefs1221"></defs><g id="SvgjsG1222" transform="matrix(1,0,0,1,0,0)"><svg xmlns="http://www.w3.org/2000/svg" width="288" height="288" viewBox="0 0 100 100"><g transform="translate(0 -952.362)" fill="#6666ff" class="color000 svgShape"><path fill="none" stroke="#66ccff" stroke-width="2" d="M56.04824 1035.6061l20.0963-20.4927M55.85016 1015.3115l20.49246 20.0965" class="colorStrokee41e1e svgStroke"></path><path fill="none" stroke="#c38f17" stroke-width="2" d="m 87.08904,1024.0526 7.6653,-4.6749" class="colorStroke065fff svgStroke"></path><path fill="none" stroke="#c38f17" stroke-linecap="square" stroke-width="2" d="m 94.27754,1018.1781 -1e-4,-59.84849 -2,0" class="colorStroke065fff svgStroke"></path><path fill="none" stroke="#c38f17" stroke-width="2" d="m 94.27724,1019.1261 0,1.0496" class="colorStroke065fff svgStroke"></path><path fill="none" stroke="#c38f17" stroke-linecap="square" stroke-width="2" d="m 92.27744,958.32961 -28.498039,0 m -11.532714,0 -18.873147,0 0,0 0,0" class="colorStroke065fff svgStroke"></path><path fill="none" stroke="#c38f17" stroke-width="2.021" d="m 5.24864,975.04801 26.3401,-16.0623 1.3077,-0.7878" class="colorStroke065fff svgStroke"></path><path fill="none" stroke="#c38f17" stroke-width="2" d="M66.04134 975.47311l28.6575-16.5375M94.27724 1019.1808l0 1.0496" class="colorStroke065fff svgStroke"></path><path fill="none" stroke="#c38f17" stroke-linecap="square" stroke-width="2" d="m 25.438304,975.18561 -19.714564,0 0,3e-4 0,0 0,60.90419 41.149487,0 m 19.752813,-33.0624 0,-27.84209 -25.4609,0 -4.495303,0 1.744454,0" class="colorStroke065fff svgStroke"></path><path fill="none" stroke="#66ccff" stroke-width="2" d="m 26.37064,974.75411 26.9733,-16.4297 10.7207,0 -27.1059,16.4258 0,22.5206 -5.3693,-6.0694 -5.2188,6.0694 z" class="colorStrokee41e1e svgStroke"></path><circle cx="66.096" cy="1025.36" r="21.04" fill="none" stroke="#66ccff" stroke-linecap="round" stroke-linejoin="round" stroke-width="2" class="colorStrokee41e1e svgStroke"></circle></g></svg></g></svg>