<svg id="SvgjsSvg1250" width="288" height="288" xmlns="http://www.w3.org/2000/svg" version="1.1" xmlns:xlink="http://www.w3.org/1999/xlink" xmlns:svgjs="http://svgjs.com/svgjs"><defs id="SvgjsDefs1251"></defs><g id="SvgjsG1252" transform="matrix(1,0,0,1,0,0)"><svg xmlns="http://www.w3.org/2000/svg" xmlns:xlink="http://www.w3.org/1999/xlink" width="288" height="288" viewBox="0 0 100 100"><defs><linearGradient id="a"><stop offset="0" stop-color="#c38f17" class="stopColor2000ee svgShape"></stop><stop offset="1" stop-color="#66ccff" class="stopColorff00f3 svgShape"></stop></linearGradient><linearGradient id="b" x1="5.862" x2="90.781" y1="1002.91" y2="1002.91" gradientUnits="userSpaceOnUse" xlink:href="#a"></linearGradient></defs><g stroke="url(#b)" transform="translate(0 -952.362)" fill="#c38f17" class="color000 svgShape"><path fill="none" stroke-width="1.896" d="m 6.271842,1006.4089 0,4.6613 7.139605,0 0,-4.6613 -7.139605,0 z"></path><rect width="53.622" height="6.249" x="35.44" y="1007.021" fill="none" stroke-width="1.896"></rect><ellipse cx="61.078" cy="1025.565" fill="none" stroke-width="1.896" rx="7.132" ry="7.16"></ellipse><ellipse cx="18.101" cy="1025.565" fill="none" stroke-width="1.896" rx="7.132" ry="7.16"></ellipse><ellipse cx="77.066" cy="1025.565" fill="none" stroke-width="1.896" rx="7.132" ry="7.16"></ellipse><ellipse cx="18.101" cy="1025.565" fill="none" stroke-width="1.896" rx="2.809" ry="2.82"></ellipse><ellipse cx="61.078" cy="1025.565" fill="none" stroke-width="1.896" rx="2.809" ry="2.82"></ellipse><ellipse cx="77.066" cy="1025.565" fill="none" stroke-width="1.896" rx="2.809" ry="2.82"></ellipse><rect width="8.201" height="1.611" x="24.419" y="1006.234" fill="none" stroke-width="1.896" ry=".805"></rect><rect width="6.148" height="1.697" x="82.818" y="1013.171" fill="none" stroke-width="1.896" ry=".849"></rect><path fill="none" stroke-linecap="round" stroke-linejoin="round" stroke-width="1.896" d="m 5.863502,1002.1291 0,21.4929 3.014327,0 c 0.9181403,-4.3549 4.765439,-7.4727 9.222613,-7.4739 4.4544,0 8.297656,3.1217 9.215223,7.4739 l 24.523809,0 c 0.91728,-4.3509 4.758514,-7.4675 9.211527,-7.4739 3.241448,0 6.254901,1.6653 7.979118,4.4059 1.722801,-2.7384 4.732849,-4.402 7.971636,-4.4059 4.456497,0 8.302809,3.1196 9.22081,7.4739 l 3.01243,0 0,-21.4929 -5.64381,0 c -3.723992,0.032 -6.248044,0.031 -9.93687,0 z"></path><path fill="none" stroke-width="1.896" d="M35.446465 981.15077l0 25.82473 26.97385 0 0-25.82473-26.97385 0zM15.416198 984.52657l-9.554306 16.90413 0 .6837c9.858713.022 19.713732.015 29.572636.01l0-17.59023z"></path><path fill="none" stroke-width="1.896" d="m 61.446465,1006.9755 26.97385,0 0,-15.48044 m -20.272462,-10.34429 -6.701388,0"></path><path fill="none" stroke-width="2" d="M67.794083 984.58921l2.732422 0M88.048184 984.58921l2.732354 0M79.28728 973.09593l0 2.7324M79.28728 993.35002l0 2.73241"></path><circle cx="79.287" cy="984.627" r="11.325" fill="none" stroke-linecap="round" stroke-linejoin="round" stroke-width="2"></circle><circle cx="79.287" cy="984.627" r=".797" fill="none" stroke-linecap="round" stroke-linejoin="round" stroke-width="1.656"></circle><path fill="none" stroke-width="2" d="M79.287078 977.26075l.000332 7.15371M74.316592 984.62921l5.465675-.007"></path></g></svg></g></svg>