<svg id="SvgjsSvg1277" width="288" height="288" xmlns="http://www.w3.org/2000/svg" version="1.1" xmlns:xlink="http://www.w3.org/1999/xlink" xmlns:svgjs="http://svgjs.com/svgjs"><defs id="SvgjsDefs1278"></defs><g id="SvgjsG1279" transform="matrix(1,0,0,1,0,0)"><svg xmlns="http://www.w3.org/2000/svg" width="288" height="288" viewBox="0 0 100 100"><g transform="translate(0 -952.362)" fill="#ffbf66" class="color000 svgShape"><path fill="none" stroke="#c38f17" stroke-width="2" d="m 87.7391,1024.6759 7.0137,-4.2774" class="colorStroke065fff svgStroke"></path><path fill="none" stroke="#c38f17" stroke-linecap="square" stroke-width="2" d="m 94.276,1019.1989 -1e-4,-59.84849 -2,0" class="colorStroke065fff svgStroke"></path><path fill="none" stroke="#c38f17" stroke-width="2" d="m 94.2757,1020.1469 0,1.0496" class="colorStroke065fff svgStroke"></path><path fill="none" stroke="#c38f17" stroke-linecap="square" stroke-width="2" d="m 92.2759,959.35041 -28.724678,0 m -11.291612,0 -18.88761,0 0,0 0,0" class="colorStroke065fff svgStroke"></path><path fill="none" stroke="#c38f17" stroke-width="2" d="M5.2471 976.06881l26.3401-16.0623 1.3077-.7878M66.0398 976.49391l28.6575-16.5375M94.2757 1020.2016l0 1.0496" class="colorStroke065fff svgStroke"></path><path fill="none" stroke="#c38f17" stroke-linecap="square" stroke-width="2" d="m 25.374878,976.20751 -19.650178,0 c -0.00122,21.21277 -7e-4,42.74879 -7e-4,60.90409 l 42.9824,0 m 17.9206,-35.576 0,-25.32809 -25.4609,0 -4.207,0 0.329456,0" class="colorStroke065fff svgStroke"></path><circle cx="66.513" cy="1023.889" r="11.933" fill="none" stroke="#66ccff" stroke-width="2" class="colorStrokee41e1e svgStroke"></circle><circle cx="66.513" cy="1023.889" r="8.664" fill="none" stroke="#66ccff" stroke-width="2" class="colorStrokee41e1e svgStroke"></circle><path fill="none" stroke="#66ccff" stroke-width="2" d="M61.4607 1002.6957l.94 3.6262c-.2188.059-.4365.1219-.653.1888-.055.014-.1093.028-.1642.041-.166.043-.3315.088-.4963.1351-.058.021-.1168.043-.1745.064-.267.091-.5317.1879-.7941.2912-.084.03-.1688.062-.2529.093-.1562.058-.3115.1169-.4661.1788-.067.031-.1333.064-.1997.097-.2208.1018-.4396.2076-.6561.3179-.1094.052-.2184.1043-.3268.1582-.1456.07-.2904.1437-.434.2185-.2677.1446-.5317.296-.7918.4541l-1.9842-3.2036-7.0251 7.0249 3.2011 1.9828c-.2346.3885-.4545.7857-.6593 1.1907-.036.065-.073.1312-.1093.1972-.078.1679-.1534.3371-.2262.5072-.06.1275-.1206.2556-.1783.3846-.028.067-.055.1331-.083.1998-.05.1106-.1005.2216-.1485.333-.033.075-.065.1498-.097.2251-.057.1639-.1118.3285-.1635.4939-.05.1394-.099.2794-.1457.42-.023.073-.045.1463-.067.2195-.035.1056-.07.2115-.1043.3177-.031.095-.062.1903-.09.2858-.037.1361-.072.2727-.1043.4097-.02.077-.04.1528-.059.2293l-3.6685-.8621 0 9.9348 3.6656-.8614c.013.036.021.073.031.1094.067.2512.1381.501.2153.7492.058.2052.1181.4093.1825.6124.036.1257.074.2502.1131.3748.078.2056.1593.4098.2445.6123.099.2591.2049.5157.3161.7698.04.098.08.1958.1219.2932.08.1593.1622.3175.2469.4745.2343.4824.4899.9542.7662 1.4138l-3.2036 1.9845 7.0249 7.0248 1.9828-3.2008c.8435.5121 1.7276.9539 2.6434 1.3214l.024.013c.023.013.044.019.067.028.4736.1897.9552.3589 1.4432.5077.1504.049.3016.097.4533.1417.2606.078.523.1489.7869.2144l-.8673 3.6899 9.9349 0-.8662-3.6859c.3879-.097.7726-.2074 1.1533-.3302.023-.013.045-.013.068-.019 1.4696-.4533 2.8751-1.0928 4.1823-1.9028l1.9977 3.2252 7.0251-7.0248-3.238-2.0059.053-.079c.078-.1288.1551-.2587.2303-.3894.2018-.3482.3918-.703.5699-1.0639.1156-.2362.2267-.475.3321-.7161.1169-.2644.2271-.5315.3311-.8012.1344-.351.2578-.7062.3701-1.065.1438-.4498.2355-.8553.3421-1.2846l3.7169.8735 0-9.9349-3.7062.8712c-.1366-.5789-.3017-1.1507-.4949-1.7132-.012-.028-.02-.054-.03-.082-.1713-.4961-.3641-.9846-.578-1.4639-.1005-.2159-.2043-.4297-.3128-.6414-.1497-.3119-.3083-.6196-.4755-.9224-.077-.1346-.155-.2682-.235-.4008-.035-.06-.07-.1219-.1069-.182l3.2279-1.9991-7.025-7.0251-1.9935 3.2181c-.2374-.1392-.4779-.2729-.7215-.4011-.1999-.1169-.4021-.2287-.6063-.3373-.1633-.084-.3278-.165-.4934-.2438l-.034-.015c-.026-.013-.054-.021-.08-.033-.536-.2495-1.0839-.4726-1.6417-.6684l-.028-.013-.049-.015c-.5718-.2033-1.1534-.3777-1.7428-.5225l.8229-3.6684c-3.405935 0-6.911142.033-9.975.035zM26.3691 975.77491l26.9733-16.4297 10.7207 0-27.1059 16.4258 0 22.5206-5.3693-6.0694-5.2188 6.0694z" class="colorStrokee41e1e svgStroke"></path></g></svg></g></svg>