<svg xmlns="http://www.w3.org/2000/svg" data-name="Layer 1" viewBox="0 0 168 168"><path fill="#2d4356" d="M62,31h-.05371a31,31,0,0,0,.05078,62h.0556A31,31,0,0,0,62,31Zm.05078,61h-.05371a30,30,0,0,1-.04889-60H62a30,30,0,0,1,.05078,60Z"/><path fill="#2d4356" d="M70.13177 50.60736a.49913.49913 0 0 0-.70209.083l-17.34674 22a.5.5 0 1 0 .78522.6192l17.34662-22A.5001.5001 0 0 0 70.13177 50.60736zM71.60736 59.51367L61.43353 72.41406a.5.5 0 0 0 .78522.61914L72.39258 60.13281a.5.5 0 0 0-.78522-.61914zM61.47559 51.11041a.49873.49873 0 0 0-.70221.08295l-10.166 12.8999a.5.5 0 0 0 .78522.61914l10.166-12.8999A.5.5 0 0 0 61.47559 51.11041z"/><path fill="#2d4356" d="M152 146H139.45276a13.1113 13.1113 0 0 0 1.66827-1.45123l3.59772-3.68939c3.97162-4.06738 4.72943-9.79486.08594-14.39551L107.97656 90l-3.25592 3.34076-7.999-7.71375A41.9972 41.9972 0 0 0 62.001 20h-.0733a42 42 0 0 0 .06836 84h.07623a41.78937 41.78937 0 0 0 23.3916-7.16412l8.1709 7.87988L90 108.44531l36.834 36.46387A12.53651 12.53651 0 0 0 128.10492 146H16a1 1 0 0 0 0 2H152a1 1 0 0 0 0-2zM62.06836 102H61.996a40 40 0 0 1-.06445-80H62.002a40 40 0 0 1 .06641 80zM87.123 95.6582a42.28555 42.28555 0 0 0 8.42-8.38965l7.78119 7.50482-8.29687 8.5069zm41.11816 47.83008L92.81738 108.41986 108.002 92.83978l35.39551 35.045c4.19531 4.15619 2.69427 8.706-.11041 11.57813l-3.59857 3.69037A8.53936 8.53936 0 0 1 133.69727 146 7.70438 7.70438 0 0 1 128.24115 143.48828zM11 146H6a1 1 0 0 0 0 2h5a1 1 0 0 0 0-2z"/><circle cx="1" cy="147" r="1" fill="#2d4356"/><path fill="#2d4356" d="M162,146h-5a1,1,0,0,0,0,2h5a1,1,0,0,0,0-2Z"/><circle cx="167" cy="147" r="1" fill="#2d4356"/><path fill="#2d4356" d="M154 12.5a2 2 0 1 0 2 2A2.00229 2.00229 0 0 0 154 12.5zm0 3a1 1 0 1 1 1-1A1.001 1.001 0 0 1 154 15.5zM67 8.5a3 3 0 1 0-3-3A3.00344 3.00344 0 0 0 67 8.5zM67 4a1.5 1.5 0 1 1-1.5 1.5A1.50148 1.50148 0 0 1 67 4zM157 72.5a1 1 0 1 0-1-1A1.00115 1.00115 0 0 0 157 72.5zm0-1.5a.5.5 0 1 1-.5.5A.50049.50049 0 0 1 157 71zM116 69.5a2 2 0 1 0-2-2A2.00229 2.00229 0 0 0 116 69.5zm0-3a1 1 0 1 1-1 1A1.001 1.001 0 0 1 116 66.5zM8 14.5a2 2 0 1 0-2-2A2.00229 2.00229 0 0 0 8 14.5zm0-3a1 1 0 1 1-1 1A1.001 1.001 0 0 1 8 11.5z"/><path fill="#0bceb2" d="M100.70117 108.27246l2.8974-2.92a.50062.50062 0 0 0-.71094-.705L99.64545 107.917a.50009.50009 0 0 0-.00287.70209l30 30.73053a.5.5 0 0 0 .71478-.69922zM105 152H63a1 1 0 0 0 0 2H81v2H71a1 1 0 0 0 0 2H98a1 1 0 0 0 0-2H87v-2h18a1 1 0 0 0 0-2zM119 152H109a1 1 0 0 0 0 2h10a1 1 0 0 0 0-2zM59 152H49a1 1 0 0 0 0 2H59a1 1 0 0 0 0-2z"/><polygon fill="#0bceb2" points="9.583 69.511 11.07 67.556 10.131 67.024 9.177 69.214 9.145 69.214 8.175 67.039 7.22 67.587 8.691 69.496 8.691 69.527 6.391 69.23 6.391 70.294 8.707 69.997 8.707 70.028 7.22 71.936 8.112 72.5 9.13 70.294 9.16 70.294 10.099 72.484 11.085 71.921 9.583 70.043 9.583 70.012 11.945 70.294 11.945 69.23 9.583 69.542 9.583 69.511"/><polygon fill="#0bceb2" points="36.281 20.269 37.137 19.143 36.597 18.837 36.047 20.098 36.029 20.098 35.471 18.845 34.92 19.161 35.768 20.26 35.768 20.278 34.443 20.107 34.443 20.72 35.777 20.549 35.777 20.567 34.92 21.666 35.434 21.99 36.02 20.72 36.038 20.72 36.578 21.981 37.146 21.657 36.281 20.575 36.281 20.557 37.641 20.72 37.641 20.107 36.281 20.287 36.281 20.269"/><polygon fill="#0bceb2" points="154 48.213 154 47.17 151.683 47.477 151.683 47.446 153.142 45.528 152.221 45.006 151.285 47.154 151.253 47.154 150.302 45.021 149.365 45.559 150.808 47.431 150.808 47.462 148.552 47.17 148.552 48.213 150.823 47.922 150.823 47.953 149.365 49.825 150.24 50.378 151.238 48.213 151.268 48.213 152.189 50.362 153.156 49.81 151.683 47.968 151.683 47.937 154 48.213"/><polygon fill="#0bceb2" points="112.702 11.523 111.444 13.138 112.198 13.615 113.06 11.748 113.085 11.748 113.88 13.601 114.714 13.125 113.443 11.536 113.443 11.509 115.442 11.748 115.442 10.848 113.443 11.112 113.443 11.086 114.701 9.431 113.907 8.981 113.099 10.834 113.073 10.834 112.252 8.994 111.444 9.458 112.689 11.073 112.689 11.099 110.742 10.848 110.742 11.748 112.702 11.496 112.702 11.523"/></svg>