<?xml version="1.0" encoding="utf-8"?>
<!-- Generator: Adobe Illustrator 22.1.0, SVG Export Plug-In . SVG Version: 6.00 Build 0)  -->
<svg version="1.1" id="Layer_1" xmlns="http://www.w3.org/2000/svg" xmlns:xlink="http://www.w3.org/1999/xlink" x="0px" y="0px"
	 viewBox="0 0 512 512" style="enable-background:new 0 0 512 512;" xml:space="preserve">
<style type="text/css">
	.st0{fill:#999999;}
</style>
<g>
	<g>
		<path class="st0" d="M437,75C388.7,26.6,324.4,0,256,0S123.3,26.6,75,75C26.6,123.3,0,187.6,0,256s26.6,132.7,75,181
			c48.4,48.4,112.6,75,181,75s132.7-26.6,181-75c48.4-48.4,75-112.6,75-181S485.4,123.3,437,75z M256,491.6
			C126.1,491.6,20.4,385.9,20.4,256S126.1,20.4,256,20.4S491.6,126.1,491.6,256S385.9,491.6,256,491.6z"/>
	</g>
</g>
<g>
	<g>
		<path class="st0" d="M401.6,146.1c-13.9-13.9-36.6-13.9-50.5,0L200.9,296.3l-49.2-49.2c-13.9-13.9-36.6-13.9-50.5,0
			s-13.9,36.6,0,50.5l74.5,74.5c6.7,6.7,15.7,10.5,25.2,10.5s18.5-3.7,25.2-10.5l175.4-175.4C415.5,182.7,415.5,160,401.6,146.1z
			 M387.2,182.2L211.7,357.6c-2.9,2.9-6.7,4.5-10.8,4.5s-7.9-1.6-10.8-4.5l-74.5-74.5c-6-6-6-15.7,0-21.6c3-3,6.9-4.5,10.8-4.5
			c3.9,0,7.8,1.5,10.8,4.5l56.4,56.4c4,4,10.4,4,14.4,0l157.4-157.4c6-6,15.7-6,21.6,0C393.1,166.5,393.1,176.2,387.2,182.2z"/>
	</g>
</g>
<g>
	<g>
		<path class="st0" d="M462.1,298.1c-5.5-1.4-11,1.9-12.4,7.4C427.2,394.1,347.5,455.9,256,455.9c-5.6,0-10.2,4.6-10.2,10.2
			s4.6,10.2,10.2,10.2c100.8,0,188.6-68.2,213.5-165.8C470.9,305.1,467.6,299.5,462.1,298.1z"/>
	</g>
</g>
<g>
	<g>
		<path class="st0" d="M466.1,245.8c-5.6,0-10.2,4.6-10.2,10.2c0,2.9-0.1,5.9-0.2,8.7c-0.2,5.6,4.1,10.4,9.7,10.6c0.1,0,0.3,0,0.4,0
			c5.4,0,9.9-4.3,10.2-9.8c0.1-3.2,0.2-6.4,0.2-9.6C476.3,250.4,471.7,245.8,466.1,245.8z"/>
	</g>
</g>
<g>
	<g>
		<g>
			<path d="M-659.1,39.3c-48.4-48.4-112.6-75-181-75s-132.7,26.6-181,75c-48.4,48.4-75,112.6-75,181s26.6,132.7,75,181
				c48.4,48.4,112.6,75,181,75s132.7-26.6,181-75c48.4-48.4,75-112.6,75-181S-610.8,87.6-659.1,39.3z M-840.2,455.9
				c-129.9,0-235.6-105.7-235.6-235.6S-970.1-15.3-840.2-15.3s235.6,105.7,235.6,235.6S-710.3,455.9-840.2,455.9z"/>
		</g>
	</g>
	<g>
		<g>
			<path d="M-694.6,110.4c-13.9-13.9-36.6-13.9-50.5,0l-150.2,150.2l-49.2-49.2c-13.9-13.9-36.6-13.9-50.5,0
				c-13.9,13.9-13.9,36.6,0,50.5l74.5,74.5c6.7,6.7,15.7,10.5,25.2,10.5s18.5-3.7,25.2-10.5l175.4-175.4
				C-680.7,147-680.7,124.3-694.6,110.4z M-709,146.5l-175.4,175.4c-2.9,2.9-6.7,4.5-10.8,4.5s-7.9-1.6-10.8-4.5l-74.5-74.5
				c-6-6-6-15.7,0-21.6c3-3,6.9-4.5,10.8-4.5c3.9,0,7.8,1.5,10.8,4.5l56.4,56.4c4,4,10.4,4,14.4,0l157.4-157.4c6-6,15.7-6,21.6,0
				C-703,130.8-703,140.5-709,146.5z"/>
		</g>
	</g>
	<g>
		<g>
			<path d="M-634,262.4c-5.5-1.4-11,1.9-12.4,7.4c-22.6,88.6-102.2,150.4-193.7,150.4c-5.6,0-10.2,4.6-10.2,10.2s4.6,10.2,10.2,10.2
				c100.8,0,188.6-68.2,213.5-165.8C-625.3,269.4-628.6,263.8-634,262.4z"/>
		</g>
	</g>
	<g>
		<g>
			<path d="M-630.1,210.1c-5.6,0-10.2,4.6-10.2,10.2c0,2.9-0.1,5.9-0.2,8.7c-0.2,5.6,4.1,10.4,9.7,10.6c0.2,0,0.3,0,0.4,0
				c5.4,0,9.9-4.3,10.2-9.8c0.1-3.2,0.2-6.4,0.2-9.6C-619.9,214.7-624.4,210.1-630.1,210.1z"/>
		</g>
	</g>
</g>
</svg>
