<svg xmlns="http://www.w3.org/2000/svg" xmlns:xlink="http://www.w3.org/1999/xlink" viewBox="0 0 800 600"><defs><style>.cls-1{fill:none;}.cls-2{isolation:isolate;}.cls-3{fill:url(#linear-gradient);}.cls-4{fill:url(#radial-gradient);}.cls-5{fill:url(#linear-gradient-2);}.cls-6{fill:#3cd3b6;}.cls-7{fill:#5e7ae4;}.cls-8{fill:#41daed;}.cls-9{fill:url(#linear-gradient-3);}.cls-10{fill:url(#linear-gradient-4);}.cls-11,.cls-52{fill:#fff;}.cls-12{fill:#83cfca;}.cls-13{fill:#225d6b;}.cls-14{fill:#00aac4;}.cls-15,.cls-16,.cls-27,.cls-29,.cls-41,.cls-43,.cls-49,.cls-55,.cls-56,.cls-57,.cls-60,.cls-61,.cls-62,.cls-64,.cls-67{mix-blend-mode:multiply;}.cls-15{fill:url(#linear-gradient-5);}.cls-16{fill:url(#linear-gradient-6);}.cls-17{fill:#fdc8a8;}.cls-18{fill:url(#linear-gradient-7);}.cls-19{fill:#0f3871;}.cls-20{fill:#fbda70;}.cls-21{fill:#00a8ce;}.cls-22{fill:#94d4cb;}.cls-23{fill:#0c5c8e;}.cls-24{fill:#f9dcc3;}.cls-25{fill:#c7e5cc;}.cls-26{fill:#3d5b69;}.cls-27{fill:url(#linear-gradient-8);}.cls-28{fill:url(#linear-gradient-9);}.cls-30{fill:#fcf6f2;}.cls-31{fill:#37447f;}.cls-32{fill:#bcbcbc;}.cls-33{clip-path:url(#clip-path);}.cls-34{fill:#6cdaea;}.cls-35{fill:#fa7561;}.cls-36{fill:#fdc9a3;}.cls-37{fill:#f6f1ec;}.cls-38{clip-path:url(#clip-path-2);}.cls-39{fill:#ff9975;}.cls-40{fill:#f2ebdd;}.cls-41{fill:#f48baa;}.cls-42{fill:#d3c6ae;}.cls-43{fill:#e2d6d3;}.cls-44{clip-path:url(#clip-path-3);}.cls-45{fill:url(#linear-gradient-10);}.cls-46{fill:#a13518;}.cls-47{fill:#358dff;}.cls-48{fill:#83a1b7;}.cls-49,.cls-50{fill:#22a2ff;}.cls-51{fill:#a9e1ea;opacity:0.55;}.cls-52{opacity:0.77;}.cls-53{fill:#b5cee5;}.cls-54{fill:#e5a67c;}.cls-55{fill:#aacaf9;}.cls-56{fill:url(#linear-gradient-11);}.cls-57{fill:url(#linear-gradient-12);}.cls-58{fill:url(#linear-gradient-13);}.cls-59{fill:url(#linear-gradient-14);}.cls-60{fill:url(#linear-gradient-15);}.cls-61{fill:#c591a5;}.cls-62{fill:#db967f;}.cls-63{fill:#bac8e2;}.cls-64{fill:#f48bbf;}.cls-65{fill:#7b4842;}.cls-66{fill:#d33c70;}.cls-67,.cls-68{fill:#ffbc5e;}.cls-69{fill:url(#linear-gradient-16);}.cls-70{fill:#f7c651;}.cls-71{fill:#ffd675;}</style><linearGradient id="linear-gradient" x1="29.03" y1="144.58" x2="136.69" y2="144.58" gradientUnits="userSpaceOnUse"><stop offset="0" stop-color="#f6f7fc"/><stop offset="0.31" stop-color="#f3f6fc"/><stop offset="0.51" stop-color="#ebf2fc"/><stop offset="0.68" stop-color="#dcebfc"/><stop offset="0.83" stop-color="#c7e1fc"/><stop offset="0.97" stop-color="#acd4fc"/><stop offset="1" stop-color="#a6d1fc"/></linearGradient><radialGradient id="radial-gradient" cx="375.07" cy="110.65" r="412.78" gradientTransform="translate(-54.31 4.29) scale(1.15 1.1)" xlink:href="#linear-gradient"/><linearGradient id="linear-gradient-2" x1="657.87" y1="62.42" x2="722.55" y2="62.42" xlink:href="#linear-gradient"/><linearGradient id="linear-gradient-3" x1="672.96" y1="222.07" x2="770.97" y2="222.07" xlink:href="#linear-gradient"/><linearGradient id="linear-gradient-4" x1="638.77" y1="192.21" x2="717.35" y2="192.21" gradientUnits="userSpaceOnUse"><stop offset="0" stop-color="#22b8c2"/><stop offset="1" stop-color="#0c5c8e"/></linearGradient><linearGradient id="linear-gradient-5" x1="100.71" y1="515.63" x2="227.91" y2="515.63" gradientUnits="userSpaceOnUse"><stop offset="0" stop-color="#fff"/><stop offset="0.35" stop-color="#e9f5ff"/><stop offset="0.7" stop-color="#dbefff"/><stop offset="1" stop-color="#d6edff"/></linearGradient><linearGradient id="linear-gradient-6" x1="170.65" y1="527.12" x2="297.86" y2="527.12" xlink:href="#linear-gradient-5"/><linearGradient id="linear-gradient-7" x1="362.52" y1="399.47" x2="365.4" y2="414.74" gradientTransform="translate(-231.53)" gradientUnits="userSpaceOnUse"><stop offset="0" stop-color="#e83f3e"/><stop offset="0.05" stop-color="#e94645"/><stop offset="0.7" stop-color="#f99e95"/><stop offset="1" stop-color="#ffc1b5"/></linearGradient><linearGradient id="linear-gradient-8" x1="209.68" y1="511.42" x2="627.3" y2="511.42" xlink:href="#linear-gradient-5"/><linearGradient id="linear-gradient-9" x1="102.92" y1="186.65" x2="238.24" y2="186.65" xlink:href="#linear-gradient-4"/><clipPath id="clip-path"><circle class="cls-1" cx="275.78" cy="190.08" r="54.59" transform="translate(-33.23 60.86) rotate(-11.88)"/></clipPath><clipPath id="clip-path-2"><circle class="cls-1" cx="481.32" cy="175.13" r="54.59" transform="translate(170 581.84) rotate(-72.56)"/></clipPath><clipPath id="clip-path-3"><circle class="cls-1" cx="371.28" cy="156.17" r="54.59"/></clipPath><linearGradient id="linear-gradient-10" x1="360.64" y1="128.17" x2="325.96" y2="29.91" xlink:href="#linear-gradient-4"/><linearGradient id="linear-gradient-11" x1="626.5" y1="521" x2="717.62" y2="521" xlink:href="#linear-gradient-5"/><linearGradient id="linear-gradient-12" x1="281.66" y1="582.84" x2="417.5" y2="582.84" xlink:href="#linear-gradient-5"/><linearGradient id="linear-gradient-13" x1="298.58" y1="529.06" x2="310.14" y2="460.66" xlink:href="#linear-gradient-4"/><linearGradient id="linear-gradient-14" x1="294.48" y1="426.55" x2="329.93" y2="426.55" xlink:href="#linear-gradient-4"/><linearGradient id="linear-gradient-15" x1="392.44" y1="583.11" x2="567.97" y2="583.11" xlink:href="#linear-gradient-5"/><linearGradient id="linear-gradient-16" x1="257.29" y1="25.25" x2="334.27" y2="25.25" xlink:href="#linear-gradient"/></defs><title>Ekyc</title><g class="cls-2"><g id="Layer_4" data-name="Layer 4"><path class="cls-3" d="M136.69,161.72a8.78,8.78,0,0,0-13.09-2.57,12.27,12.27,0,0,0-17.47-5,19.74,19.74,0,0,0-20.62-8.95,14.48,14.48,0,1,0-28.58-3.28c0,.17,0,.33,0,.49a14.47,14.47,0,0,0-10.58,11.64A13,13,0,0,0,29,161.72Z"/><path class="cls-4" d="M90.76,478.15H742c-24.18-44.43-98.76-97.92-97.65-171.91,1.39-92.64,66.55-134.3,58.76-170.59C673.05-4.53,524.8,177.27,347.23,103.94,84.55-4.53,174.26,266.49,115,327.4,55,389.17,98.95,390.16,90.76,478.15Z"/><path class="cls-5" d="M657.87,72.72a5.27,5.27,0,0,1,7.86-1.54,7.37,7.37,0,0,1,10.5-3,11.87,11.87,0,0,1,10.08-5.6,12,12,0,0,1,2.31.23,8.7,8.7,0,1,1,17.17-2c0,.1,0,.2,0,.3a8.7,8.7,0,0,1,6.35,7,7.83,7.83,0,0,1,10.43,4.61Z"/><circle class="cls-6" cx="586.72" cy="240.28" r="3.89" transform="translate(58.88 591.49) rotate(-55.91)"/><path class="cls-7" d="M727.17,111.94a4.78,4.78,0,1,1-5.95,3.21A4.78,4.78,0,0,1,727.17,111.94Zm-2.35,7.87a3.44,3.44,0,1,0-2.31-4.28A3.44,3.44,0,0,0,724.82,119.81Z"/><path class="cls-7" d="M634.7,106.68l-1.62.52a.73.73,0,1,1-.44-1.39l1.62-.52a.73.73,0,0,1,.44,1.39Z"/><path class="cls-7" d="M630.54,108l-1.62.52a.73.73,0,1,1-.44-1.39l1.62-.52a.73.73,0,0,1,.44,1.39Z"/><path class="cls-7" d="M632.73,110.5a.73.73,0,0,1-.92-.47l-.52-1.62a.73.73,0,1,1,1.39-.44l.52,1.62A.73.73,0,0,1,632.73,110.5Z"/><path class="cls-7" d="M631.4,106.34a.73.73,0,0,1-.92-.47l-.52-1.62a.73.73,0,1,1,1.39-.44l.52,1.62A.73.73,0,0,1,631.4,106.34Z"/><path class="cls-6" d="M578.19,158.69l1.39-1a.73.73,0,1,1,.84,1.19l-1.39,1a.73.73,0,0,1-.84-1.19Z"/><path class="cls-6" d="M581.76,156.17l1.39-1a.73.73,0,0,1,.84,1.19l-1.39,1a.73.73,0,0,1-.84-1.19Z"/><path class="cls-6" d="M578.92,154.46a.73.73,0,0,1,1,.17l1,1.39a.73.73,0,1,1-1.19.84l-1-1.39A.73.73,0,0,1,578.92,154.46Z"/><path class="cls-6" d="M581.44,158a.73.73,0,0,1,1,.17l1,1.39a.73.73,0,1,1-1.19.84l-1-1.39A.73.73,0,0,1,581.44,158Z"/><path class="cls-8" d="M741.2,180.43a4,4,0,1,1,5.72.17A4,4,0,0,1,741.2,180.43Zm4.6-4.33a2.27,2.27,0,1,0-.09,3.21A2.27,2.27,0,0,0,745.8,176.1Z"/><path class="cls-9" d="M771,237.68a8,8,0,0,0-11.91-2.34,11.17,11.17,0,0,0-15.91-4.56,18,18,0,0,0-18.77-8.14,13.18,13.18,0,1,0-26-3c0,.15,0,.3,0,.45a13.18,13.18,0,0,0-9.63,10.59,11.86,11.86,0,0,0-15.8,7Z"/><path class="cls-10" d="M638.77,214.45l3.71-29.05.29.2c3.08,2.43,5.88,5.09,8.73,7.63a1.06,1.06,0,0,0,.3.5c2.3,2.16,4.44,4.44,5.34,7.53.64,2.22.82,4.52,1.52,6.73,2.1,6.65,6.8,12.17,13.85,13.5a1.05,1.05,0,0,0,.41-2.07c-7.64-1.43-11.77-8.32-13.12-15.51a21.37,21.37,0,0,0-1.71-5.39,31.46,31.46,0,0,0,9.51,4.54c1.31.36,1.72-1.71.41-2.07-10.5-2.9-16.91-11.69-25.23-18v-.05a21.66,21.66,0,0,0,6.06-.73c5-1.31,10.5-5.49,15.48-2,1.1.77,2.53-.79,1.42-1.57-4.13-2.86-8.38-1.84-12.78-.14a29,29,0,0,1-9.89,2.24l3.19-25c6.84,1.85,14-3.61,28.19,12.76,6.38,7.34,20.46,24.89,26.27,27.43,5.65,2.06,17.51,8.15,16.56,14.65-1.58,10.77-16.58,6.7-22.19,10.86-20.38,15-42.53,3.27-50-2.76A37.31,37.31,0,0,0,638.77,214.45Z"/><path class="cls-11" d="M642.8,182.9l.29-2.24a29,29,0,0,0,9.89-2.24c4.4-1.7,8.65-2.72,12.78.14,1.11.78-.31,2.33-1.42,1.57-5-3.46-10.52.72-15.48,2A21.66,21.66,0,0,1,642.8,182.9Z"/><path class="cls-11" d="M658.67,208c-.7-2.21-.88-4.51-1.52-6.73-.9-3.09-3-5.37-5.34-7.53a1.06,1.06,0,0,1-.3-.5c-2.85-2.53-5.65-5.2-8.73-7.63l-.29-.2.31-2.44c8.33,6.34,14.73,15.13,25.23,18,1.31.36.9,2.43-.41,2.07a31.46,31.46,0,0,1-9.51-4.54,21.37,21.37,0,0,1,1.71,5.39c1.35,7.19,5.48,14.07,13.12,15.51a1.05,1.05,0,0,1-.41,2.07C665.47,220.16,660.77,214.64,658.67,208Z"/><path class="cls-12" d="M729.9,128.38c-9.83,23.35-34.89,24.54-44.4,23.17-21.91-3.16-27.95,12.17-29.72,18.62-.89,3.22-3.77,7.3-8,11.05l-46.15-25.54c1.84-.68,3.67-1.38,5.46-2.11a57.62,57.62,0,0,0,13.13-7.65c.93-.71,1.83-1.47,2.7-2.26a1,1,0,0,0,.47-.31c.28-.32.57-.62.85-.91l.46-.43c9.8-9.18,23.81-2.4,29.18,8.81.58,1.21,2.58.53,2-.7-3-6.24-8.24-11.74-15-13.83a17.51,17.51,0,0,0-10.45-.08c.71-.73,1.43-1.45,2.16-2.16,4-3.89,10.34-5.7,15.55-7.47a50.35,50.35,0,0,1,7.72-2H656a20.17,20.17,0,0,0,3.71-.47,34.1,34.1,0,0,1,6.91.18c3.89.51,7.65,1.37,11.4,2.1a1,1,0,0,0,.52.28c3.09.68,6.08,1.55,8.44,3.75,1.68,1.58,3,3.46,4.74,5,5.21,4.65,12.07,7,18.81,4.53a1.06,1.06,0,0,0-.71-2c-7.3,2.67-14.37-1.14-19.2-6.63a21.4,21.4,0,0,0-4.22-3.76,31.47,31.47,0,0,0,10.5-1c1.31-.36.61-2.35-.71-2-10.51,2.88-20.51-1.41-30.91-2.61h-.08a21.81,21.81,0,0,0,4.9-3.77c3.59-3.66,6.22-10.08,12.27-9.66,1.34.1,1.77-2,.41-2.07-5-.35-8.15,2.7-11.06,6.41-3.34,4.26-7.06,7.74-12.09,9a52.42,52.42,0,0,0-9.5,1.8,69.59,69.59,0,0,0-14.55,5.58c-4.63,2.51-8.17,6.81-11.76,10.6a20.79,20.79,0,0,0-1.88,1.86,53.86,53.86,0,0,1-12.32,8.28,69.32,69.32,0,0,1-8.17,3.32A23.48,23.48,0,0,0,607.13,138a22.15,22.15,0,0,0-1-6.57c-1-3.12-2.89-5.84-3.4-9.11-1.11-7.18,6.69-9.89,11.52-12.81,1.17-.7,0-2.44-1.19-1.74-4.13,2.49-8.88,4.17-11.3,8.63-3,5.55.6,10.53,2.37,15.73,2.56,7.51,0,16.63-6.05,21.54l-15.46-8.56c-1.07-11.64,1.25-23.22,7.27-32.18,22.35-33.26,45.64-16.91,61-15.75,9.75.74,10.47-11.65,34.3-3.78,9.24,3.05,30.31,10.95,36.59,10.16,5.92-1.12,19.22-1.94,21.72,4.14C747.57,117.77,732.6,121.93,729.9,128.38Z"/><path class="cls-13" d="M645.55,127.48c-4.59,1.54-9.55,3.34-12.92,6.59-.73.7-1.45,1.43-2.16,2.16a17.51,17.51,0,0,1,10.45.08,20.79,20.79,0,0,1,3.49,1.48c.1-.5.2-1,.32-1.63A44.87,44.87,0,0,0,645.55,127.48Z"/><path class="cls-13" d="M632.62,157.3a69.52,69.52,0,0,0-7,11.62l-23.93-13.25c1.84-.68,3.67-1.38,5.46-2.11a57.62,57.62,0,0,0,13.13-7.65c.93-.71,1.83-1.47,2.7-2.26a1,1,0,0,0,.47-.31c.28-.32.57-.62.85-.91l.46-.43c5.8-5.43,13.06-5.25,19.15-1.89a17,17,0,0,1-2.52,5.52C638.86,149.75,635.51,153.44,632.62,157.3Z"/><path class="cls-13" d="M623.84,140a20.79,20.79,0,0,0-1.88,1.86,53.86,53.86,0,0,1-12.32,8.28,69.32,69.32,0,0,1-8.17,3.32A23.48,23.48,0,0,0,607.13,138a22.15,22.15,0,0,0-1-6.57c-1-3.12-2.89-5.84-3.4-9.11-1.11-7.18,6.69-9.89,11.52-12.81,1.17-.7,0-2.44-1.19-1.74-4.13,2.49-8.88,4.17-11.3,8.63-3,5.55.6,10.53,2.37,15.73,2.56,7.51,0,16.63-6.05,21.54l-15.46-8.56c-1.07-11.64,1.25-23.22,7.27-32.18,16.66-24.8,33.84-22,47.86-18.52,2.51,8.21,5.1,16.41,6.91,24.82a41.16,41.16,0,0,1,.85,6,61.72,61.72,0,0,0-9.87,4.15C631,131.88,627.44,136.18,623.84,140Z"/><path class="cls-11" d="M691.73,135.46c-1.73-1.54-3.06-3.43-4.74-5-2.35-2.2-5.35-3.06-8.44-3.75a1,1,0,0,1-.52-.28c-3.75-.72-7.52-1.58-11.4-2.1a34.1,34.1,0,0,0-6.91-.18,20.17,20.17,0,0,1-3.71.47h-.11a50.35,50.35,0,0,0-7.72,2c-5.21,1.77-11.52,3.58-15.55,7.47-.73.7-1.45,1.43-2.16,2.16a17.51,17.51,0,0,1,10.45.08c6.76,2.08,12,7.59,15,13.83.59,1.23-1.41,1.91-2,.7-5.38-11.21-19.38-18-29.18-8.81l-.46.43c-.29.29-.57.59-.85.91a1,1,0,0,1-.47.31c-.87.78-1.76,1.54-2.7,2.26a57.62,57.62,0,0,1-13.13,7.65c-1.79.74-3.62,1.43-5.46,2.11l-3.62-2c6.07-4.9,8.61-14,6.05-21.54-1.77-5.2-5.39-10.18-2.37-15.73,2.42-4.46,7.17-6.14,11.3-8.63,1.16-.7,2.36,1,1.19,1.74-4.84,2.91-12.64,5.62-11.52,12.81.5,3.27,2.45,6,3.4,9.11a22.15,22.15,0,0,1,1,6.57,23.48,23.48,0,0,1-5.66,15.43,69.32,69.32,0,0,0,8.17-3.32A53.86,53.86,0,0,0,622,141.83a20.79,20.79,0,0,1,1.88-1.86c3.6-3.79,7.13-8.09,11.76-10.6a69.59,69.59,0,0,1,14.55-5.58,52.42,52.42,0,0,1,9.5-1.8c5-1.29,8.75-4.77,12.09-9,2.91-3.71,6-6.76,11.06-6.41,1.35.1.92,2.17-.41,2.07-6-.43-8.68,6-12.27,9.66a21.81,21.81,0,0,1-4.9,3.77h.08c10.4,1.2,20.39,5.48,30.91,2.61,1.31-.36,2,1.63.71,2a31.47,31.47,0,0,1-10.5,1,21.4,21.4,0,0,1,4.22,3.76c4.83,5.49,11.9,9.3,19.2,6.63a1.06,1.06,0,0,1,.71,2C703.8,142.45,696.93,140.11,691.73,135.46Z"/><path class="cls-14" d="M610.88,160.77l-23.22-12.85c1.5-1.11,3-2.2,4.5-3.31a1,1,0,0,0,.55-.2c2.59-1.82,5.25-3.45,8.46-3.7,2.3-.18,4.59.11,6.9-.13,6.94-.71,13.3-4.19,16-10.83a1.06,1.06,0,0,0-1.94-.82c-3,7.19-10.53,9.84-17.84,9.7a21.42,21.42,0,0,0-5.63.58,31.5,31.5,0,0,0,6.38-8.39c.62-1.21-1.32-2-1.94-.82-3.89,7.59-10.8,12-17.4,16.83l-5-2.76c-.52-4.94-2.92-10.75,1.22-14.69,1-.92-.26-2.64-1.25-1.7-3.64,3.46-3.5,7.84-2.73,12.49.14.87.26,1.73.35,2.58l-20.77-11.5c1.78-4.15,5.53-8.83,15-14.15,8.48-4.76,28.52-15,32.18-20.16,3.17-5.12,11.53-15.49,17.7-13.24,10.23,3.73,3.2,17.59,6.13,23.94,10.6,23-5.42,42.31-12.85,48.41A38.11,38.11,0,0,0,610.88,160.77Z"/><path class="cls-11" d="M580.72,144.08l-2.4-1.33c-.09-.85-.21-1.71-.35-2.58-.78-4.65-.91-9,2.73-12.49,1-.93,2.22.78,1.25,1.7C577.8,133.33,580.2,139.14,580.72,144.08Z"/><path class="cls-11" d="M608.06,140.59c-2.31.23-4.6,0-6.9.13-3.21.25-5.87,1.88-8.46,3.7a1,1,0,0,1-.55.2c-1.49,1.11-3,2.19-4.5,3.31l-2-1.08c6.61-4.84,13.52-9.24,17.4-16.83.62-1.21,2.56-.39,1.94.82a31.5,31.5,0,0,1-6.38,8.39,21.42,21.42,0,0,1,5.63-.58c7.31.14,14.89-2.51,17.84-9.7a1.06,1.06,0,0,1,1.94.82C621.36,136.4,615,139.89,608.06,140.59Z"/><path class="cls-15" d="M101.66,518c4.05,3.86,18.64,4,34.17,3.72,16.57-.33,98.19-1.37,91.72-3.72-7.71-2.8-37.2-8.64-63.15-8.64S93.62,510.37,101.66,518Z"/><path class="cls-16" d="M171.6,529.53c4.05,3.86,18.64,4,34.17,3.72,16.57-.33,98.19-1.37,91.72-3.72-7.71-2.8-37.2-8.64-63.15-8.64S163.56,521.86,171.6,529.53Z"/><path class="cls-17" d="M119.78,508.16s-3.47,2.76-3.46,1.1c.12-15.16.82-34.45.56-45.15-.07-2.89-.81-46.91,8.42-48.08,8.41-1.07,5-.07,7.34,5,2,4.23-4.67,40.59-6.2,44.11-.51,1.17-1.54,7.23-1.79,8.49C121.16,491.45,119.78,508.16,119.78,508.16Z"/><path class="cls-18" d="M118.68,394.21l2.48,14.31c1.63,3.62,1.63,5.18-.14,8-1,1.64,21.36,1.4,20.55-.29-1.86-3.85,1.39-7.44,1.39-9l.29-13Z"/><path class="cls-17" d="M179.26,395.42c.73.2,5.79.46,5.79.46.17-2.52-.77-2.71-.77-2.71l-21.62-7.28c-3.38-.83-6.25.54-6.42,3.05h0c-.17,2.52,3.08,3.51,6.46,4.35Z"/><path class="cls-19" d="M154.26,388.66c.53.51,3.43,4.4,6.12,2.12L160,391a6.27,6.27,0,0,0,2.33-5.18L145.64,370a7.32,7.32,0,0,0-9.42,0h0c-2.68,2.28-.45,4.68,2.07,7Z"/><path class="cls-17" d="M137.86,507.59s-3.22,3-3.35,1.4c-1.22-15.11-.48-34.39-1.68-45-.32-2.87-11-46.27-1.88-48.25,8.29-1.81,9.28-.89,12.07,3.95,2.33,4,.64,40.69-.57,44.34-.41,1.21-.91,7.34-1,8.61C139.48,490.66,137.86,507.59,137.86,507.59Z"/><path class="cls-17" d="M116.66,488.79c.55-.54,1.09-1.1,1.65-1.63,1.5-1.42,3.05-2.77,4.65-4.08.5-3.06,1.06-6.24,1.69-9.46.25-1.26,1.28-7.31,1.79-8.49,1.53-3.53,8.16-39.88,6.2-44.11-2.35-5.06,1.07-6.06-7.34-5-9.23,1.17-8.49,45.19-8.42,48.08C117,470.29,116.85,479.33,116.66,488.79Z"/><path class="cls-17" d="M133.47,475.22l.71-.5c2.51-1.76,5-3.48,7.52-5.27a42.81,42.81,0,0,1,.74-5.46c1.21-3.65,2.9-40.29.57-44.34-2.78-4.84-3.78-5.75-12.07-3.95-9.09,2,1.56,45.38,1.88,48.25C133.17,467.07,133.36,470.94,133.47,475.22Z"/><path class="cls-19" d="M133.71,509.76c.12,1.37-3.76,6.36-.14,6,9-.79,9.55-.92,9-2.12-1.33-2.84-2.85-1.46-3.62-5.8C138.48,505.3,133.59,508.39,133.71,509.76Z"/><path class="cls-19" d="M143.55,414.15c-1.55-6.57-.17-13,.93-18.24,1.51-7.13,2.39-12,2.39-12,0-8.53-1.68-15.66-13.91-15.66s-18.18,7-18.18,15.51c0,0,6.16,22.65,6.13,26.43-.08,10.8-7.77,24.1-5.84,54,.31,4.86,21.69-.86,28.61-1.16C144.33,462.93,147.4,430.48,143.55,414.15Z"/><path class="cls-19" d="M123.35,371.75a6.67,6.67,0,0,0-8.45,4.2L109,402.07a17.19,17.19,0,0,1,7.4,2.06,28.61,28.61,0,0,1,2.27-5l6.18-19.23C126,376.4,126.84,372.93,123.35,371.75Z"/><path class="cls-17" d="M97.16,428.13a4.88,4.88,0,0,1-5.92-.5c-.76-1,4.64-2.71,6.64-4.26s3.46-.76,4.22.21S100.45,426,97.16,428.13Z"/><path class="cls-17" d="M103.91,422.26a42.32,42.32,0,0,1-3.14,3.55c-2.09-2-2.12-2.34-2.12-2.34l10.16-21.77c1.73-3.08,4.84-4,6.94-2h0c2.09,2,.57,5.09-1.17,8.17Z"/><path class="cls-19" d="M115.46,510c0,1.38-4.31,6-.67,6,9,0,9.6-.07,9.13-1.32-1.08-2.94-2.71-1.71-3.09-6.1C120.61,505.94,115.46,508.59,115.46,510Z"/><path class="cls-17" d="M124.44,369.88c-4.84,1.72,3,2.32,6.31,2.28s12.21-1.49,7.84-3.63c-7.34-3.59-.1-12.69-7.36-12.6C124.83,356,132.49,367,124.44,369.88Z"/><path class="cls-17" d="M124.74,371.72c.09-.09.16-.18.25-.26,2.62-2.38,5.45-4.52,8.27-6.66a12.73,12.73,0,0,1,1.74-1.4c-.46-3.68,1-7.53-3.77-7.47-6.4.08,1.25,11.09-6.8,13.95C121.92,370.77,122.83,371.36,124.74,371.72Z"/><ellipse class="cls-20" cx="136.04" cy="344.19" rx="3.42" ry="3.37" transform="translate(-4.33 1.74) rotate(-0.72)"/><path class="cls-17" d="M122.1,352.74c0,3.64,7.93,9.24,9.68,9.21s7.88-1.88,7.18-8.74c-.66-6.44-1-13.95-5.93-13.89S122,345.89,122.1,352.74Z"/><path class="cls-20" d="M133.55,342.46c-7.62.1-7.11,13.53-13.26,13.61s-2.46-16.55,7.21-18.45C133.54,336.43,133.55,342.46,133.55,342.46Z"/><path class="cls-20" d="M137.63,340.79c0,1.83-2.21,3.34-5,3.37s-5.06-1.42-5.08-3.24,2.22-3.34,5-3.37S137.6,339,137.63,340.79Z"/><path class="cls-12" d="M140.2,508.54c-.46,3.18,1.13,6,3.55,6.4L164.81,518c2.43.34,4.78-1.94,5.23-5.13l3.13-21.41c.46-3.18-1.15-6-3.59-6.39l-21-3.07c-2.43-.37-4.77,1.94-5.24,5.11Z"/><polygon class="cls-21" points="189.94 381.75 176.17 476.35 144.91 471.82 158.68 377.2 189.94 381.75"/><polygon class="cls-22" points="189.94 381.75 176.17 476.35 166.97 475.03 180.75 380.41 189.94 381.75"/><path class="cls-20" d="M188.37,392.52c-.15-.2.49-.76.26-.76-1.08,0-.63,2-3.14,1.77-1-.1-1.2.6-1,1.8.07.46.27,1.26,2.89.71a1.14,1.14,0,0,0,.53-.17Z"/><path class="cls-17" d="M187.36,395.08c2.74-.58,2.58-4.28,1.26-4.28-1.08,0-.63,2-3.14,1.77-1-.1-1.2.6-1,1.8C184.54,394.83,184.75,395.64,187.36,395.08Z"/><path class="cls-17" d="M188.82,390.84a2.62,2.62,0,0,1,.07.38,3.12,3.12,0,0,1-4,3.39,2.31,2.31,0,0,1-.42-.2c.08.46.34,1.2,2.88.67S190,391.18,188.82,390.84Z"/><polygon class="cls-23" points="168.25 378.59 154.47 473.23 144.91 471.82 158.68 377.2 168.25 378.59"/><polygon class="cls-24" points="178.96 347.54 189.93 381.75 158.67 377.19 178.96 347.54"/><polygon class="cls-22" points="178.96 347.54 189.93 381.75 158.67 377.19 178.96 347.54"/><polygon class="cls-11" points="178.96 347.54 189.93 381.75 180.74 380.41 178.96 347.54"/><polyline class="cls-25" points="168.25 378.59 178.96 347.54 180.74 380.41"/><path class="cls-25" d="M140.84,476.06a4.62,4.62,0,0,0,3.72,5.36l29.06,4.24a4.61,4.61,0,0,0,5.08-4.08h0a4.61,4.61,0,0,0-3.71-5.37L145.94,472a4.62,4.62,0,0,0-5.1,4.08Z"/><path class="cls-25" d="M139.46,485.5a4.63,4.63,0,0,0,3.72,5.37l29,4.24a4.62,4.62,0,0,0,5.1-4.08h0a4.62,4.62,0,0,0-3.7-5.37l-29.06-4.24a4.64,4.64,0,0,0-5.1,4.08Z"/><path class="cls-26" d="M178.36,333.33a12,12,0,0,1,2.78-.75h0c.39,0,2.48.74,2.43,1.69l-1.73,21.29a4,4,0,0,1-4.55,3.39h0a4,4,0,0,1-3.38-4.54Z"/><path class="cls-27" d="M225.05,518.35c9.37.86-11.51-.43,167.38-1.42,12.27-.07,166.59,1,180.45.76,95.4-1.61,40.12-13.66,21.92-12.54-7.58.47-301.38-2.9-370.6.84C196.07,507.51,215.88,517.5,225.05,518.35Z"/><path class="cls-12" d="M241.14,126.59l-15.36,27.88c-.07-.11-.15-.21-.21-.32-2.14-3.68-3.91-7.49-5.78-11.2a1.16,1.16,0,0,0-.11-.63c-1.46-3.11-2.72-6.26-2.39-9.74.24-2.5,1-4.89,1.15-7.41.53-7.56-2-15-8.61-19.17a1.15,1.15,0,0,0-1.24,1.93c7.15,4.5,8.57,13.11,7.07,20.91a23.23,23.23,0,0,0-.43,6.13,34.19,34.19,0,0,0-7.8-8.39c-1.18-.89-2.42,1-1.24,1.93,9.46,7.12,12.42,18.57,18.3,28.3l0,0a23.55,23.55,0,0,0-6.42-1.68c-5.53-.65-12.8,1.35-16.46-4.13-.81-1.21-2.87-.21-2.06,1,3,4.54,7.74,5.21,12.86,5.25A31.48,31.48,0,0,1,223.28,159l-13.2,24c-6.17-4.6-15.55-1.92-23.4-24.16-3.52-10-10.73-33.33-15.59-38.22-4.89-4.34-14.44-15.23-10.88-21.42,5.9-10.25,19.43-.15,26.77-2.11,26.61-7.07,44.29,13.68,49.44,22.77A40.55,40.55,0,0,0,241.14,126.59Z"/><path class="cls-11" d="M224.47,156.87,223.28,159a31.48,31.48,0,0,0-10.89-1.69c-5.12,0-9.83-.7-12.86-5.25-.81-1.23,1.25-2.23,2.06-1,3.65,5.48,10.92,3.48,16.46,4.13A23.55,23.55,0,0,1,224.47,156.87Z"/><path class="cls-11" d="M218.45,125.18c-.18,2.51-.91,4.91-1.15,7.41-.33,3.49.92,6.64,2.39,9.74a1.16,1.16,0,0,1,.11.63c1.87,3.7,3.64,7.51,5.78,11.2.06.11.14.21.21.32l-1.29,2.34c-5.88-9.73-8.84-21.18-18.3-28.3-1.18-.89.06-2.82,1.24-1.93a34.19,34.19,0,0,1,7.8,8.39,23.23,23.23,0,0,1,.43-6.13c1.51-7.8.08-16.41-7.07-20.91a1.15,1.15,0,0,1,1.24-1.93C216.44,110.15,219,117.61,218.45,125.18Z"/><path class="cls-28" d="M130.66,121.41c26.87-6,43.7,15.46,48.48,24.75,11,21.4,28.37,17.1,35.21,14.61,3.42-1.24,8.84-1.25,14.8.08l6.43,57c-1.76-1.2-3.53-2.38-5.31-3.51a62.63,62.63,0,0,0-15-6.82c-1.22-.38-2.45-.69-3.7-1a1.12,1.12,0,0,0-.57-.22c-.46,0-.9-.11-1.34-.18l-.67-.13c-14.3-2.9-17.11-19.58-10.57-31.4.7-1.28-1.16-2.62-1.88-1.33-3.64,6.58-5.21,14.7-2.8,22a19,19,0,0,0,6.51,9.31c-1.09-.17-2.19-.35-3.27-.56-6-1.12-11.56-5.57-16.4-9.07a54.72,54.72,0,0,1-6.62-5.59l-.06-.11a22,22,0,0,0-2.75-3,37.06,37.06,0,0,1-4.19-6.24c-2-3.77-3.6-7.65-5.32-11.42a1.14,1.14,0,0,0-.08-.63c-1.34-3.16-2.46-6.36-2-9.83.34-2.48,1.17-4.85,1.45-7.35.84-7.54-1.4-15.09-7.83-19.51a1.15,1.15,0,0,0-1.32,1.88c7,4.78,8,13.45,6.22,21.18a23.26,23.26,0,0,0-.67,6.11,34.2,34.2,0,0,0-7.45-8.7c-1.14-.94-2.46.94-1.32,1.88,9.16,7.5,11.66,19.06,17.15,29l0,.08a23.71,23.71,0,0,0-6.42-2c-5.5-.87-12.85.83-16.28-4.79-.76-1.24-2.86-.32-2.1.94,2.85,4.66,7.52,5.52,12.64,5.76,5.88.28,11.3,1.39,15.61,5a57,57,0,0,0,7.57,7.28,75.66,75.66,0,0,0,14.1,9.38c5.14,2.52,11.18,2.95,16.8,3.75a22.62,22.62,0,0,0,2.84.49,58.54,58.54,0,0,1,15.09,5.7,75.43,75.43,0,0,1,8.08,5.15,25.52,25.52,0,0,0-17.23,4.7,24.08,24.08,0,0,0-5.16,5c-2.16,2.81-3.35,6.24-5.93,8.74-5.66,5.51-13,.3-18.6-2.15-1.36-.59-2.15,1.56-.8,2.15,4.81,2.09,9.28,5.24,14.76,4.58,6.82-.82,9-7.16,12.45-12,5-7,14.72-10.49,22.89-8.2l2.15,19.08c-9.64,8.28-21.36,13.51-33.09,13.82-43.54,1.14-43.71-29.78-52.34-44.09-5.48-9.1-16.91-1.94-24.94-28-3.11-10.11-9.38-33.74-14-38.81-4.71-4.54-13.81-15.8-10-21.84C110.14,112.43,123.25,123.06,130.66,121.41Z"/><path class="cls-11" d="M161,150.76c-.28,2.5-1.11,4.87-1.45,7.35-.47,3.47.65,6.67,2,9.83a1.14,1.14,0,0,1,.08.63c1.72,3.78,3.33,7.65,5.32,11.42a37.06,37.06,0,0,0,4.19,6.24,22,22,0,0,1,2.75,3l.06.11a54.72,54.72,0,0,0,6.62,5.59c4.84,3.5,10.43,8,16.4,9.07,1.08.2,2.18.39,3.27.56a19,19,0,0,1-6.51-9.31c-2.41-7.3-.84-15.41,2.8-22,.72-1.29,2.58,0,1.88,1.33-6.55,11.82-3.73,28.5,10.57,31.4l.67.13c.44.07.88.14,1.34.18a1.12,1.12,0,0,1,.57.22c1.24.28,2.48.59,3.7,1a62.63,62.63,0,0,1,15,6.82c1.78,1.12,3.55,2.3,5.31,3.51l.5,4.47c-8.17-2.29-17.85,1.21-22.89,8.2-3.49,4.84-5.63,11.18-12.45,12-5.48.66-9.95-2.48-14.76-4.58-1.35-.59-.56-2.75.8-2.15,5.62,2.45,12.94,7.66,18.6,2.15,2.58-2.51,3.77-5.94,5.93-8.74a24.08,24.08,0,0,1,5.16-5,25.52,25.52,0,0,1,17.23-4.7,75.43,75.43,0,0,0-8.08-5.15,58.54,58.54,0,0,0-15.09-5.7,22.62,22.62,0,0,1-2.84-.49c-5.62-.8-11.65-1.23-16.8-3.75a75.66,75.66,0,0,1-14.1-9.38,57,57,0,0,1-7.57-7.28c-4.31-3.64-9.73-4.75-15.61-5-5.12-.24-9.79-1.1-12.64-5.76-.76-1.26,1.34-2.18,2.1-.94,3.43,5.62,10.78,3.92,16.28,4.79a23.71,23.71,0,0,1,6.42,2l0-.08c-5.49-10-8-21.52-17.15-29-1.14-.94.18-2.81,1.32-1.88a34.2,34.2,0,0,1,7.45,8.7,23.26,23.26,0,0,1,.67-6.11c1.82-7.73.74-16.4-6.22-21.18a1.15,1.15,0,0,1,1.32-1.88C159.56,135.66,161.81,143.22,161,150.76Z"/><circle class="cls-1" cx="244.68" cy="198.73" r="9.49" transform="translate(-20.74 28.69) rotate(-6.44)"/><g class="cls-29"><path class="cls-1" d="M242.9,201.08a6.77,6.77,0,0,1-7.09,1,9.47,9.47,0,0,0,14.1,4.57,23.93,23.93,0,0,0-2.58-3.29,12.09,12.09,0,0,0-2.83-2.6c-.48-.23-.48-.5-.42-.66A8.87,8.87,0,0,1,242.9,201.08Z"/></g><path class="cls-30" d="M480.08,354.58A21.5,21.5,0,0,1,463.52,380L266.23,421.48a21.5,21.5,0,0,1-25.39-16.56L187.11,149.57a21.5,21.5,0,0,1,16.56-25.39L401,82.66a21.5,21.5,0,0,1,25.39,16.56Z"/><path class="cls-31" d="M410.14,256.83l-5.09-24.18,24.18-5.09,5.09,24.18Zm20.07-7.77-3.66-17.39-17.39,3.66,3.66,17.39Z"/><path class="cls-31" d="M433.18,251l-22.29,4.69L406.2,233.4l22.29-4.69Zm-21.1,2.87,19.28-4.06-4.06-19.28L408,234.58Z"/><polygon class="cls-31" points="410.94 243.46 412.83 240.56 418.77 244.43 424.11 233.41 427.23 234.92 420.18 249.49 410.94 243.46"/><polygon class="cls-31" points="419.79 248.08 412.27 243.18 413.11 241.89 419.17 245.84 424.56 234.7 425.94 235.37 419.79 248.08"/><path class="cls-31" d="M419.56,301.58l-5.09-24.18,24.18-5.09,5.09,24.18Zm20.07-7.77L436,276.42l-17.39,3.66,3.66,17.39Z"/><path class="cls-31" d="M442.59,295.75l-22.29,4.69-4.69-22.29,22.29-4.69Zm-21.1,2.87,19.28-4.06-4.06-19.28-19.28,4.06Z"/><polygon class="cls-31" points="420.35 288.21 422.25 285.31 428.19 289.19 433.53 278.17 436.65 279.68 429.6 294.24 420.35 288.21"/><polygon class="cls-31" points="429.2 292.84 421.69 287.93 422.53 286.65 428.58 290.6 433.98 279.45 435.36 280.12 429.2 292.84"/><path class="cls-31" d="M428.81,345.54l-5.09-24.18,24.18-5.09L453,340.45Zm20.07-7.77-3.66-17.39L427.83,324l3.66,17.39Z"/><path class="cls-31" d="M451.84,339.7l-22.29,4.69-4.69-22.29,22.29-4.69Zm-21.1,2.87L450,338.51,446,319.24l-19.28,4.06Z"/><polygon class="cls-31" points="429.6 332.17 431.5 329.27 437.44 333.14 442.78 322.12 445.9 323.63 438.85 338.2 429.6 332.17"/><polygon class="cls-31" points="438.45 336.79 430.94 331.89 431.78 330.6 437.83 334.55 443.22 323.41 444.61 324.08 438.45 336.79"/><path class="cls-31" d="M304.51,257a3.37,3.37,0,0,1-2.74,3.9l-60.64,12.76a3.37,3.37,0,0,1-4.08-2.46h0a3.37,3.37,0,0,1,2.74-3.89l60.64-12.76a3.37,3.37,0,0,1,4.08,2.46Z"/><path class="cls-32" d="M269.17,276.09a2.26,2.26,0,0,1-1.84,2.61L242.14,284a2.26,2.26,0,0,1-2.73-1.65h0a2.26,2.26,0,0,1,1.84-2.61l25.19-5.3a2.26,2.26,0,0,1,2.73,1.65Z"/><path class="cls-32" d="M295.74,270.5a2.26,2.26,0,0,1-1.84,2.61l-14.7,3.09a2.26,2.26,0,0,1-2.73-1.65h0a2.26,2.26,0,0,1,1.84-2.61l14.7-3.09a2.26,2.26,0,0,1,2.73,1.65Z"/><path class="cls-32" d="M338.65,261.47a2.26,2.26,0,0,1-1.84,2.61l-32.1,6.75a2.26,2.26,0,0,1-2.73-1.65h0a2.26,2.26,0,0,1,1.84-2.61l32.1-6.75a2.26,2.26,0,0,1,2.73,1.65Z"/><path class="cls-32" d="M382.53,252.24a2.26,2.26,0,0,1-1.84,2.61l-33,6.94a2.26,2.26,0,0,1-2.73-1.65h0a2.26,2.26,0,0,1,1.84-2.61l33-6.94a2.26,2.26,0,0,1,2.73,1.65Z"/><path class="cls-32" d="M362.17,264.37a2.26,2.26,0,0,1-1.84,2.61l-12.94,2.72a2.26,2.26,0,0,1-2.73-1.65h0a2.26,2.26,0,0,1,1.84-2.61l12.94-2.72a2.26,2.26,0,0,1,2.73,1.65Z"/><path class="cls-32" d="M338.13,269.39a2.26,2.26,0,0,1-1.84,2.61L311,277.32a2.26,2.26,0,0,1-2.73-1.65h0a2.26,2.26,0,0,1,1.84-2.61l25.24-5.31a2.26,2.26,0,0,1,2.73,1.65Z"/><path class="cls-32" d="M301.74,277a2.26,2.26,0,0,1-1.84,2.61l-56.19,11.82a2.26,2.26,0,0,1-2.73-1.65h0a2.26,2.26,0,0,1,1.84-2.61L299,275.4a2.26,2.26,0,0,1,2.73,1.65Z"/><path class="cls-32" d="M282.3,288.88a2.26,2.26,0,0,1-1.84,2.61l-35.19,7.4a2.26,2.26,0,0,1-2.73-1.65h0a2.26,2.26,0,0,1,1.84-2.61l35.19-7.4a2.26,2.26,0,0,1,2.74,1.65Z"/><path class="cls-31" d="M314,301.87a3.37,3.37,0,0,1-2.74,3.9l-60.64,12.76a3.37,3.37,0,0,1-4.08-2.46h0a3.37,3.37,0,0,1,2.74-3.89l60.64-12.76a3.37,3.37,0,0,1,4.08,2.46Z"/><path class="cls-32" d="M278.61,321a2.26,2.26,0,0,1-1.84,2.61l-25.19,5.3a2.26,2.26,0,0,1-2.73-1.65h0a2.26,2.26,0,0,1,1.84-2.61l25.19-5.3a2.26,2.26,0,0,1,2.73,1.65Z"/><path class="cls-32" d="M305.18,315.37a2.26,2.26,0,0,1-1.84,2.61l-14.7,3.09a2.26,2.26,0,0,1-2.73-1.65h0a2.26,2.26,0,0,1,1.84-2.61l14.7-3.09a2.26,2.26,0,0,1,2.73,1.65Z"/><path class="cls-32" d="M348.09,306.34a2.26,2.26,0,0,1-1.84,2.61l-32.1,6.75a2.26,2.26,0,0,1-2.73-1.65h0a2.26,2.26,0,0,1,1.84-2.61l32.1-6.75a2.26,2.26,0,0,1,2.73,1.65Z"/><path class="cls-32" d="M392,297.1a2.26,2.26,0,0,1-1.84,2.61l-33,6.94a2.26,2.26,0,0,1-2.73-1.65h0a2.26,2.26,0,0,1,1.84-2.61l33-6.94A2.26,2.26,0,0,1,392,297.1Z"/><path class="cls-32" d="M371.61,309.24a2.26,2.26,0,0,1-1.84,2.61l-12.94,2.72a2.26,2.26,0,0,1-2.73-1.65h0a2.26,2.26,0,0,1,1.84-2.61l12.94-2.72a2.26,2.26,0,0,1,2.73,1.65Z"/><path class="cls-32" d="M347.57,314.26a2.26,2.26,0,0,1-1.84,2.61l-25.24,5.31a2.26,2.26,0,0,1-2.73-1.65h0a2.26,2.26,0,0,1,1.84-2.61l25.24-5.31a2.26,2.26,0,0,1,2.73,1.65Z"/><path class="cls-32" d="M311.18,321.91a2.26,2.26,0,0,1-1.84,2.61l-56.19,11.82a2.26,2.26,0,0,1-2.73-1.65h0a2.26,2.26,0,0,1,1.84-2.61l56.19-11.82a2.26,2.26,0,0,1,2.73,1.65Z"/><path class="cls-32" d="M291.74,333.75a2.26,2.26,0,0,1-1.84,2.61l-35.19,7.4a2.26,2.26,0,0,1-2.73-1.65h0a2.26,2.26,0,0,1,1.84-2.61L289,332.1a2.26,2.26,0,0,1,2.74,1.65Z"/><path class="cls-31" d="M323.2,345.83a3.37,3.37,0,0,1-2.74,3.9l-60.64,12.76a3.37,3.37,0,0,1-4.08-2.46h0a3.37,3.37,0,0,1,2.74-3.89l60.64-12.76a3.37,3.37,0,0,1,4.08,2.46Z"/><path class="cls-32" d="M287.86,364.91a2.26,2.26,0,0,1-1.84,2.61l-25.19,5.3a2.26,2.26,0,0,1-2.73-1.65h0a2.26,2.26,0,0,1,1.84-2.61l25.19-5.3a2.26,2.26,0,0,1,2.73,1.65Z"/><path class="cls-32" d="M314.43,359.32a2.26,2.26,0,0,1-1.84,2.61L297.88,365a2.26,2.26,0,0,1-2.73-1.65h0a2.26,2.26,0,0,1,1.84-2.61l14.7-3.09a2.26,2.26,0,0,1,2.73,1.65Z"/><path class="cls-32" d="M357.34,350.29a2.26,2.26,0,0,1-1.84,2.61l-32.1,6.75a2.26,2.26,0,0,1-2.73-1.65h0a2.26,2.26,0,0,1,1.84-2.61l32.1-6.75a2.26,2.26,0,0,1,2.73,1.65Z"/><path class="cls-32" d="M401.22,341.06a2.26,2.26,0,0,1-1.84,2.61l-33,6.94a2.26,2.26,0,0,1-2.73-1.65h0a2.26,2.26,0,0,1,1.84-2.61l33-6.94a2.26,2.26,0,0,1,2.73,1.65Z"/><path class="cls-32" d="M380.86,353.19A2.26,2.26,0,0,1,379,355.8l-12.94,2.72a2.26,2.26,0,0,1-2.73-1.65h0a2.26,2.26,0,0,1,1.84-2.61l12.94-2.72a2.26,2.26,0,0,1,2.73,1.65Z"/><path class="cls-32" d="M356.81,358.21a2.26,2.26,0,0,1-1.84,2.61l-25.24,5.31a2.26,2.26,0,0,1-2.73-1.65h0a2.26,2.26,0,0,1,1.84-2.61l25.24-5.31a2.26,2.26,0,0,1,2.73,1.65Z"/><path class="cls-32" d="M320.43,365.87a2.26,2.26,0,0,1-1.84,2.61L262.4,380.31a2.26,2.26,0,0,1-2.73-1.65h0A2.26,2.26,0,0,1,261.5,376l56.19-11.82a2.26,2.26,0,0,1,2.73,1.65Z"/><path class="cls-32" d="M301,377.7a2.26,2.26,0,0,1-1.84,2.61L264,387.72a2.26,2.26,0,0,1-2.73-1.65h0a2.26,2.26,0,0,1,1.84-2.61l35.19-7.4A2.26,2.26,0,0,1,301,377.7Z"/><path class="cls-31" d="M391,131.2a3.37,3.37,0,0,1-2.74,3.9l-40.13,8.44a3.37,3.37,0,0,1-4.08-2.46h0a3.37,3.37,0,0,1,2.74-3.89l40.13-8.44A3.37,3.37,0,0,1,391,131.2Z"/><path class="cls-32" d="M411.73,136.3a2.26,2.26,0,0,1-1.84,2.61l-61,12.83a2.26,2.26,0,0,1-2.73-1.65h0a2.26,2.26,0,0,1,1.84-2.61l61-12.83a2.26,2.26,0,0,1,2.73,1.65Z"/><path class="cls-32" d="M413.3,143.78a2.26,2.26,0,0,1-1.84,2.61l-61,12.83a2.26,2.26,0,0,1-2.73-1.65h0a2.26,2.26,0,0,1,1.84-2.61l61-12.83a2.26,2.26,0,0,1,2.73,1.65Z"/><path class="cls-32" d="M373.72,159.85a2.26,2.26,0,0,1-1.84,2.61L352,166.64a2.26,2.26,0,0,1-2.73-1.65h0a2.26,2.26,0,0,1,1.84-2.61L371,158.2a2.26,2.26,0,0,1,2.74,1.65Z"/><path class="cls-31" d="M400.06,174.19a3.37,3.37,0,0,1-2.74,3.9l-40.13,8.44a3.37,3.37,0,0,1-4.08-2.46h0a3.37,3.37,0,0,1,2.74-3.89L396,171.73a3.37,3.37,0,0,1,4.08,2.46Z"/><path class="cls-32" d="M420.77,179.29a2.26,2.26,0,0,1-1.84,2.61l-61,12.83a2.26,2.26,0,0,1-2.73-1.65h0a2.26,2.26,0,0,1,1.84-2.61l61-12.83a2.26,2.26,0,0,1,2.73,1.65Z"/><path class="cls-32" d="M422.35,186.77a2.26,2.26,0,0,1-1.84,2.61l-61,12.83a2.26,2.26,0,0,1-2.73-1.65h0a2.26,2.26,0,0,1,1.84-2.61l61-12.83a2.26,2.26,0,0,1,2.73,1.65Z"/><path class="cls-32" d="M382.77,202.84a2.26,2.26,0,0,1-1.84,2.61l-19.86,4.18a2.26,2.26,0,0,1-2.73-1.65h0a2.26,2.26,0,0,1,1.84-2.61L380,201.19a2.26,2.26,0,0,1,2.74,1.65Z"/><g class="cls-33"><g class="cls-29"><circle class="cls-34" cx="275.35" cy="190.75" r="62.93" transform="translate(-33.38 60.78) rotate(-11.88)"/></g><path class="cls-35" d="M314.81,237.65c-1.07-.66,7-4.33,5.8-5-5.58-2.88-21-5.75-31.48-3.55C274,232.32,268.66,239,267.54,247.6Z"/><path class="cls-35" d="M292.52,242.34l-6.84-7.81c-7.81-3.93-22.06,4.17-25.66,13.42-.89,2.29-1.4-.8-1.47,1.54Z"/><path class="cls-17" d="M277.84,231.86c-.58,5.48.55,9,8.15,7.34s17.48-.39,12.92-6.54c-9.73-13.12-3.11-34.4-19.61-30.71C264.73,205.19,279.86,212.66,277.84,231.86Z"/><path class="cls-36" d="M260.28,191.63c1.18,6.36,3.85,17.34,9,25.54,3.24,5.21,18.58,7.5,19.23,7.32,5.19-1.36,16.29-12,16.26-16.49a106.84,106.84,0,0,0-4.36-30.48c-4.5-15.15-18-24-30.15-19.73S257,174.17,260.28,191.63Z"/><path class="cls-37" d="M292.14,204.26l0,.07c1.9,4.07-.26,8.35-4.83,9.57s-9.8-1.08-11.7-5.15a.35.35,0,0,1,0-.07Z"/><path class="cls-17" d="M300.38,177.52c-4.5-15.15-18-24-30.15-19.73a15.45,15.45,0,0,0-9.5,8.34,29.1,29.1,0,0,1,6.83.68c6.2,1.38,11.21,4.39,16.76,7.31a3.61,3.61,0,0,1,2.1,3.61c.21.16,2.53-.52,2.71-.33,2.29,2.35,4.72,4,6.52,6.81,5.3,8.33,7.86,20.3,6.95,23.6a27.1,27.1,0,0,1-4.83,9.64,29.83,29.83,0,0,1-9.29,7c5.19-1.36,16.29-12,16.26-16.49A106.84,106.84,0,0,0,300.38,177.52Z"/><circle class="cls-20" cx="260.94" cy="164.84" r="12.13" transform="translate(-25.43 49.7) rotate(-10.38)"/><path class="cls-20" d="M302.22,193.61c.53,1.81,2.08,11.47,2.51,13.37,1.69-1.76,6.62,18.5,8.26,16.68-1.1-40.19-16.09-66.72-20.64-67.08-5.17-2.79-24-10.33-39.19,10.23-3.65,4.93-2.81,20.75-.44,36.68,6.31,13.23,11.66,12.79,17.17,13.28-10.66-13.39-1.15-33.29,7-35.89,3.38-1.07,9.82-1.74,13.36-4.19C290.17,176.36,299.12,183.06,302.22,193.61Z"/></g><path class="cls-30" d="M578.9,418.61a21.5,21.5,0,0,1-26.87,14L359.68,372.22a21.5,21.5,0,0,1-14-26.87l78.2-249a21.5,21.5,0,0,1,26.87-14l192.34,60.42a21.5,21.5,0,0,1,14,26.87Z"/><path class="cls-31" d="M565.79,299.13l7.4-23.57,23.57,7.4-7.4,23.57Zm21.3,3.06,5.33-17-17-5.33-5.33,17Z"/><path class="cls-31" d="M588.73,305.32,567,298.49l6.83-21.73,21.73,6.83Zm-19.8-7.83,18.79,5.9,5.9-18.8-18.79-5.9Z"/><polygon class="cls-31" points="573.02 287.86 576.1 286.26 579.38 292.55 589.43 285.55 591.41 288.4 578.13 297.65 573.02 287.86"/><polygon class="cls-31" points="578.48 296.23 574.33 288.27 575.69 287.56 579.03 293.97 589.19 286.89 590.07 288.16 578.48 296.23"/><path class="cls-31" d="M552.08,342.76l7.4-23.57,23.57,7.4-7.4,23.57Zm21.3,3.06,5.33-17-17-5.33-5.33,17Z"/><path class="cls-31" d="M575,349l-21.73-6.83,6.83-21.73,21.73,6.83Zm-19.8-7.83L574,347l5.9-18.8-18.79-5.9Z"/><polygon class="cls-31" points="559.32 331.49 562.39 329.89 565.68 336.18 575.73 329.18 577.71 332.03 564.42 341.28 559.32 331.49"/><polygon class="cls-31" points="564.77 339.86 560.62 331.9 561.98 331.19 565.33 337.6 575.49 330.53 576.36 331.79 564.77 339.86"/><path class="cls-31" d="M538.62,385.61,546,362l23.57,7.4L562.19,393Zm21.3,3.06,5.33-17-17-5.33-5.33,17Z"/><path class="cls-31" d="M561.56,391.81,539.83,385l6.83-21.73,21.73,6.83ZM541.76,384l18.79,5.9,5.9-18.8-18.79-5.9Z"/><polygon class="cls-31" points="545.86 374.35 548.93 372.74 552.22 379.03 562.26 372.04 564.25 374.88 550.96 384.13 545.86 374.35"/><polygon class="cls-31" points="551.31 382.71 547.16 374.76 548.52 374.05 551.87 380.45 562.02 373.38 562.9 374.64 551.31 382.71"/><path class="cls-31" d="M473.6,247.56a3.37,3.37,0,0,1-4.3,2.05L410.19,231a3.37,3.37,0,0,1-2.35-4.14h0a3.37,3.37,0,0,1,4.3-2.05l59.12,18.57a3.37,3.37,0,0,1,2.35,4.14Z"/><path class="cls-32" d="M433.44,246.89a2.26,2.26,0,0,1-2.88,1.38L406,240.55a2.26,2.26,0,0,1-1.58-2.78h0a2.26,2.26,0,0,1,2.88-1.38l24.56,7.71a2.26,2.26,0,0,1,1.58,2.78Z"/><path class="cls-32" d="M459.34,255a2.26,2.26,0,0,1-2.88,1.38l-14.33-4.5a2.26,2.26,0,0,1-1.58-2.78h0a2.26,2.26,0,0,1,2.88-1.38l14.33,4.5a2.26,2.26,0,0,1,1.58,2.78Z"/><path class="cls-32" d="M501.18,268.17a2.26,2.26,0,0,1-2.88,1.38L467,259.72a2.26,2.26,0,0,1-1.58-2.78h0a2.26,2.26,0,0,1,2.88-1.38l31.29,9.83a2.26,2.26,0,0,1,1.58,2.78Z"/><path class="cls-32" d="M544,281.61a2.26,2.26,0,0,1-2.88,1.38l-32.15-10.1a2.26,2.26,0,0,1-1.58-2.78h0a2.26,2.26,0,0,1,2.88-1.38l32.15,10.1a2.26,2.26,0,0,1,1.58,2.78Z"/><path class="cls-32" d="M520.26,282.21a2.26,2.26,0,0,1-2.88,1.38l-12.61-4a2.26,2.26,0,0,1-1.58-2.78h0a2.26,2.26,0,0,1,2.88-1.38l12.61,4a2.26,2.26,0,0,1,1.58,2.78Z"/><path class="cls-32" d="M496.84,274.82a2.26,2.26,0,0,1-2.88,1.38l-24.61-7.73a2.26,2.26,0,0,1-1.58-2.78h0a2.26,2.26,0,0,1,2.88-1.38L495.27,272a2.26,2.26,0,0,1,1.58,2.78Z"/><path class="cls-32" d="M461.37,263.67a2.26,2.26,0,0,1-2.88,1.38L403.7,247.84a2.26,2.26,0,0,1-1.58-2.78h0a2.26,2.26,0,0,1,2.88-1.38l54.78,17.21a2.26,2.26,0,0,1,1.58,2.78Z"/><path class="cls-32" d="M438.62,264.47a2.26,2.26,0,0,1-2.88,1.38l-34.31-10.78a2.26,2.26,0,0,1-1.58-2.78h0a2.26,2.26,0,0,1,2.88-1.38L437,261.69a2.26,2.26,0,0,1,1.58,2.78Z"/><path class="cls-31" d="M459.86,291.3a3.37,3.37,0,0,1-4.3,2.05l-59.12-18.57a3.37,3.37,0,0,1-2.35-4.14h0a3.37,3.37,0,0,1,4.3-2.05l59.12,18.57a3.37,3.37,0,0,1,2.35,4.14Z"/><path class="cls-32" d="M419.7,290.63a2.26,2.26,0,0,1-2.88,1.38l-24.56-7.71a2.26,2.26,0,0,1-1.58-2.78h0a2.26,2.26,0,0,1,2.88-1.38l24.56,7.71a2.26,2.26,0,0,1,1.58,2.78Z"/><path class="cls-32" d="M445.6,298.77a2.26,2.26,0,0,1-2.88,1.38l-14.33-4.5a2.26,2.26,0,0,1-1.58-2.78h0a2.26,2.26,0,0,1,2.88-1.38L444,296a2.26,2.26,0,0,1,1.58,2.78Z"/><path class="cls-32" d="M487.44,311.91a2.26,2.26,0,0,1-2.88,1.38l-31.29-9.83a2.26,2.26,0,0,1-1.58-2.78h0a2.26,2.26,0,0,1,2.88-1.38l31.29,9.83a2.26,2.26,0,0,1,1.58,2.78Z"/><path class="cls-32" d="M530.22,325.35a2.26,2.26,0,0,1-2.88,1.38l-32.15-10.1a2.26,2.26,0,0,1-1.58-2.78h0a2.26,2.26,0,0,1,2.88-1.38l32.15,10.1a2.26,2.26,0,0,1,1.58,2.78Z"/><path class="cls-32" d="M506.52,326a2.26,2.26,0,0,1-2.88,1.38l-12.61-4a2.26,2.26,0,0,1-1.58-2.78h0a2.26,2.26,0,0,1,2.88-1.38l12.61,4a2.26,2.26,0,0,1,1.58,2.78Z"/><path class="cls-32" d="M483.1,318.56a2.26,2.26,0,0,1-2.88,1.38l-24.61-7.73a2.26,2.26,0,0,1-1.58-2.78h0a2.26,2.26,0,0,1,2.88-1.38l24.61,7.73a2.26,2.26,0,0,1,1.58,2.78Z"/><path class="cls-32" d="M447.63,307.41a2.26,2.26,0,0,1-2.88,1.38L390,291.58a2.26,2.26,0,0,1-1.58-2.78h0a2.26,2.26,0,0,1,2.88-1.38l54.78,17.21a2.26,2.26,0,0,1,1.58,2.78Z"/><path class="cls-32" d="M424.88,308.21a2.26,2.26,0,0,1-2.88,1.38l-34.31-10.78a2.26,2.26,0,0,1-1.58-2.78h0a2.26,2.26,0,0,1,2.88-1.38l34.31,10.78a2.26,2.26,0,0,1,1.58,2.78Z"/><path class="cls-31" d="M446.4,334.15a3.37,3.37,0,0,1-4.3,2.05L383,317.63a3.37,3.37,0,0,1-2.35-4.14h0a3.37,3.37,0,0,1,4.3-2.05L444.05,330a3.37,3.37,0,0,1,2.35,4.14Z"/><path class="cls-32" d="M406.24,333.48a2.26,2.26,0,0,1-2.88,1.38l-24.56-7.71a2.26,2.26,0,0,1-1.58-2.78h0A2.26,2.26,0,0,1,380.1,323l24.56,7.71a2.26,2.26,0,0,1,1.58,2.78Z"/><path class="cls-32" d="M432.14,341.62a2.26,2.26,0,0,1-2.88,1.38l-14.33-4.5a2.26,2.26,0,0,1-1.58-2.78h0a2.26,2.26,0,0,1,2.88-1.38l14.33,4.5a2.26,2.26,0,0,1,1.58,2.78Z"/><path class="cls-32" d="M474,354.76a2.26,2.26,0,0,1-2.88,1.38l-31.29-9.83a2.26,2.26,0,0,1-1.58-2.78h0a2.26,2.26,0,0,1,2.88-1.38L472.4,352a2.26,2.26,0,0,1,1.58,2.78Z"/><path class="cls-32" d="M516.76,368.2a2.26,2.26,0,0,1-2.88,1.38l-32.15-10.1a2.26,2.26,0,0,1-1.58-2.78h0a2.26,2.26,0,0,1,2.88-1.38l32.15,10.1a2.26,2.26,0,0,1,1.58,2.78Z"/><path class="cls-32" d="M493.06,368.8a2.26,2.26,0,0,1-2.88,1.38l-12.61-4a2.26,2.26,0,0,1-1.58-2.78h0a2.26,2.26,0,0,1,2.88-1.38l12.61,4a2.26,2.26,0,0,1,1.58,2.78Z"/><path class="cls-32" d="M469.64,361.41a2.26,2.26,0,0,1-2.88,1.38l-24.61-7.73a2.26,2.26,0,0,1-1.58-2.78h0a2.26,2.26,0,0,1,2.88-1.38l24.61,7.73a2.26,2.26,0,0,1,1.58,2.78Z"/><path class="cls-32" d="M434.17,350.27a2.26,2.26,0,0,1-2.88,1.38L376.5,334.44a2.26,2.26,0,0,1-1.58-2.78h0a2.26,2.26,0,0,1,2.88-1.38l54.78,17.21a2.26,2.26,0,0,1,1.58,2.78Z"/><path class="cls-32" d="M411.42,351.06a2.26,2.26,0,0,1-2.88,1.38l-34.31-10.78a2.26,2.26,0,0,1-1.58-2.78h0a2.26,2.26,0,0,1,2.88-1.38l34.31,10.78a2.26,2.26,0,0,1,1.58,2.78Z"/><path class="cls-31" d="M610.63,180.23a3.37,3.37,0,0,1-4.3,2.05L567.21,170a3.37,3.37,0,0,1-2.35-4.14h0a3.37,3.37,0,0,1,4.3-2.05l39.13,12.29a3.37,3.37,0,0,1,2.35,4.14Z"/><path class="cls-32" d="M626.19,194.82a2.26,2.26,0,0,1-2.88,1.38l-59.47-18.68a2.26,2.26,0,0,1-1.58-2.78h0a2.26,2.26,0,0,1,2.88-1.38L624.61,192a2.26,2.26,0,0,1,1.58,2.78Z"/><path class="cls-32" d="M623.9,202.11a2.26,2.26,0,0,1-2.88,1.38L561.55,184.8A2.26,2.26,0,0,1,560,182h0a2.26,2.26,0,0,1,2.88-1.38l59.47,18.68a2.26,2.26,0,0,1,1.58,2.78Z"/><path class="cls-32" d="M581.52,196.74a2.26,2.26,0,0,1-2.88,1.38L559.28,192a2.26,2.26,0,0,1-1.58-2.78h0a2.26,2.26,0,0,1,2.88-1.38L579.95,194a2.26,2.26,0,0,1,1.58,2.78Z"/><path class="cls-31" d="M597.46,222.14a3.37,3.37,0,0,1-4.3,2.05L554,211.91a3.37,3.37,0,0,1-2.35-4.14h0a3.37,3.37,0,0,1,4.3-2.05L595.11,218a3.37,3.37,0,0,1,2.35,4.14Z"/><path class="cls-32" d="M613,236.73a2.26,2.26,0,0,1-2.88,1.38l-59.47-18.68a2.26,2.26,0,0,1-1.58-2.78h0a2.26,2.26,0,0,1,2.88-1.38L611.45,234a2.26,2.26,0,0,1,1.58,2.78Z"/><path class="cls-32" d="M610.73,244a2.26,2.26,0,0,1-2.88,1.38l-59.47-18.68a2.26,2.26,0,0,1-1.58-2.78h0a2.26,2.26,0,0,1,2.88-1.38l59.47,18.68a2.26,2.26,0,0,1,1.58,2.78Z"/><path class="cls-32" d="M568.36,238.65a2.26,2.26,0,0,1-2.88,1.38l-19.36-6.08a2.26,2.26,0,0,1-1.58-2.78h0a2.26,2.26,0,0,1,2.88-1.38l19.36,6.08a2.26,2.26,0,0,1,1.58,2.78Z"/><g class="cls-38"><circle class="cls-39" cx="480.62" cy="175.51" r="62.93" transform="translate(169.14 581.44) rotate(-72.56)"/><polygon class="cls-40" points="455.88 273.26 483.8 282.03 481.75 247.94 490.86 207.82 454.96 198.91 444.52 238 455.88 273.26"/><path class="cls-17" d="M454.51,199.57c-1,4.7,4.14,8.43,11.91,10.1l.24,1.45c7.75,1.7,14.89-.74,15.95-5.43l6.71-35.79c1-4.69-3.13-9.57-10.89-11.26h0c-7.75-1.69-12.38,1.32-13.44,6Z"/><path class="cls-17" d="M484.13,194.31,459.46,183l-2,7c4.67,6.18,12.24,13.65,15,14.87,2.59,1.13,10-.78,10.42-2.32Z"/><path class="cls-17" d="M497.83,165.83l3.33-.55c2.76-.44,4.38,1.48,3.91,4.39-.81,5-4.91,4.25-5.78,8.08l-6-2.46Z"/><path class="cls-17" d="M461,164.89l-3-1.58c-2.48-1.28-4.62,0-5.1,2.93-.8,5,3.18,5.35,3.09,9.83l6.28-.79Z"/><path class="cls-17" d="M495.17,189.49c-3.9,6.12-12,14.13-17,13.92-5.53-.25-19.27-12-20.5-17.16-3.39-14.33,1.08-49.42,26.38-44,6.75,1.45,19.12.59,19.56,13.78C503.92,164.45,499.57,182.58,495.17,189.49Z"/><path class="cls-17" d="M495.17,189.49c4.4-6.91,8.75-25,8.47-33.44-.44-13.19-12.81-12.33-19.56-13.78a22.64,22.64,0,0,0-12,.33,5.53,5.53,0,0,1,.59.62,49.14,49.14,0,0,1,8,13.9c.14.39,1.41-.67,1.44-.32a28.17,28.17,0,0,0,6.59,5.22c2.22.92,11.73.58,11.7,4.65-.05,8.35-1.87,15.28-5.1,20.67-8.27,13.81-17.06,16.08-17.06,16.08C483.14,203.62,491.27,195.62,495.17,189.49Z"/><path class="cls-19" d="M489.62,135.8c2.37-1.68-3.55,9.27,2.55,7.06,2.73-1,7.87,2,9.42,8.13l-24.8-.1c-1.46-.37-2.93-.74-4.4-1.06-3.47-.76-7.21,1.45-8.65,5.08-1.67-1.53-3.36-3-5-4.71C465.09,129.71,481.47,141.57,489.62,135.8Z"/><path class="cls-19" d="M503.33,140c.13,2.81-3,5.71-7.08,6.49s-9.38-4.21-9.51-7,3.4.5,7.9-2C498.36,135.38,503.19,137.22,503.33,140Z"/><path class="cls-19" d="M497.05,161.26c5.76,1.09,3.65,12.81,3.65,12.81,1.64.19,4.19-8.24,4.07-15.48C504.69,154.06,492.89,160.47,497.05,161.26Z"/><path class="cls-41" d="M497.05,161.26c5.76,1.09,3.65,12.81,3.65,12.81,1.64.19,4.19-8.24,4.07-15.48C504.69,154.06,492.89,160.47,497.05,161.26Z"/><path class="cls-19" d="M505.94,153.49c-.34,4-2.51,8-9.23,8.8-12.06,1.52-12.75-6.5-28.9-6.66-1.38,0,.1,3.78-5,6.31s-5.75,10.13-5.75,10.13c-2.21-.56,1.13-17,1.28-18.78.73-8.54,12-15.42,25.1-15.36S506.66,144.95,505.94,153.49Z"/><path class="cls-41" d="M458.26,167.36s1.82-13.32,3.05-17c1.73-5.12,3-8.67,8.58-10.22,2.7-.75,9.89.31,12.62.61,3.44.38,5.79-.76,8.74-2.31a10.46,10.46,0,0,1-1.53,0c.42-1.84.89-3.36-.11-2.65-8.15,5.77-24.53-6.09-30.85,14.4l.26.26a10.75,10.75,0,0,0-.66,2.83c-.15,1.76-3.49,18.22-1.28,18.78A39.77,39.77,0,0,1,458.26,167.36Z"/><path class="cls-40" d="M458.94,274.22l-11.27-57.71c1.82-6.34,3.77-9.2,8-14.48-26-1-23,7.64-29.47,17.64l-3.83,43Z"/><path class="cls-42" d="M453.33,205a31.6,31.6,0,0,0-5.67,11.5l1.1,5.61Z"/><path class="cls-42" d="M495.6,213.94c2.71,3.43,6.16,7.76,9.2,11.56A29.26,29.26,0,0,0,495.6,213.94Z"/><path class="cls-42" d="M495.6,213.94c-2.82-3.56-4.84-6.14-4.74-6.11h-.06l-.25-.09v0l-11.68-2.9c.47.7.94,1.41,1.45,2.12A33.42,33.42,0,0,1,495.6,213.94Z"/><path class="cls-42" d="M463.58,255.89a1.65,1.65,0,1,0,2-1.05A1.58,1.58,0,0,0,463.58,255.89Z"/><path class="cls-42" d="M465.73,231.8a1.65,1.65,0,1,0,2-1.06A1.58,1.58,0,0,0,465.73,231.8Z"/><polygon class="cls-42" points="493.04 255.5 483.93 262.12 476.82 253.39 478.68 239.15 494.89 241.26 493.04 255.5"/><polygon class="cls-40" points="492.27 255.07 484.07 261.02 477.68 253.16 479.35 240.35 493.94 242.25 492.27 255.07"/><path class="cls-19" d="M510.7,235.51l.33-3.4a16.5,16.5,0,0,0-2.42-9c-3.8-6.35-9.4-10.89-18.07-15.37-6.9-1.69-9.46-2.82-10.42,1l-1.29,5c1.54,16.53-1.71,41.32-6.08,64.83l22.19,7c3.21-11.89,5.4-20.36,5.4-20.36C504,252.68,509.32,243.56,510.7,235.51Z"/><path class="cls-41" d="M478.83,213.73c1.54,16.53-1.71,41.32-6.08,64.83l7,2.19c1.67-4.3,3.41-9.36,5.52-16.55,4.83-16.5,1.92-17.76-.92-33.71-1-5.84,9.12-11,6.67-22.54l-.46-.24c-6.9-1.69-9.46-2.82-10.42,1Z"/><polygon class="cls-42" points="486.28 207.58 471.08 220.73 470.41 210.25 487.59 201.31 486.28 207.58"/><polygon class="cls-40" points="486.28 207.58 471.64 217.95 470.55 209.76 487.89 199.84 486.28 207.58"/><path class="cls-19" d="M455.12,273a210.24,210.24,0,0,0,5.94-26.38c4-29.63,2.66-36.3-6.09-45.52,2.82.5-13.14-6.44-34.28,3.95-4.62,12.26-4.41,40.26-3.87,55.93Z"/><path class="cls-19" d="M449.74,199.86c-7.66-6.88-37.55,6.91-37.55,6.91l-8,25.53c2.81,13.86,13,2.11,12.38,11.09,4.79,3.58,5.74-29.76,9.52-25.23,7.86,9.4,6.13-2.84,11.39,8.25C439,219.62,452.12,206.93,449.74,199.86Z"/><path class="cls-41" d="M457.93,225.89c1.73,5.59-5.74,10.48-7.64,25.51-.42,3.3-.47,9.89-1.36,19.67l6.19,1.94a210.27,210.27,0,0,0,5.94-26.38c4-29.63,2.66-36.3-6.09-45.52,1.67.29-3.25-2-11.93-1.79C442.16,207.71,455.56,218.22,457.93,225.89Z"/><polygon class="cls-42" points="452.43 202.27 464.66 219.85 470.13 210.76 453.01 195.05 452.43 202.27"/><polygon class="cls-40" points="452.43 202.27 464.81 218.16 470.45 210.31 453.16 193.37 452.43 202.27"/></g><path class="cls-43" d="M536.22,376.44a21.5,21.5,0,0,1-22.77,20L312.26,383.53a21.5,21.5,0,0,1-20-22.77L309,100.35a21.5,21.5,0,0,1,22.77-20L493.92,94.86,553,115Z"/><path class="cls-43" d="M538,362.08a21.5,21.5,0,0,1-20.26,22.55L316.44,395.36a21.5,21.5,0,0,1-22.55-20.26L280,108.08l61.9-12.65,159.69-14.2a21.5,21.5,0,0,1,22.55,20.26Z"/><rect class="cls-30" x="292.86" y="76.84" width="244.48" height="303.82" rx="21.44" ry="21.44"/><path class="cls-31" d="M489,249.16V224.45h24.71v24.71Zm21.24-3.47V227.92H492.49v17.77Z"/><path class="cls-31" d="M512.76,248.19H490V225.42h22.78Zm-21.24-1.54h19.7V227h-19.7Z"/><polygon class="cls-31" points="492.55 236.24 495 233.79 500.02 238.81 507.51 229.12 510.26 231.24 500.36 244.05 492.55 236.24"/><polygon class="cls-31" points="500.26 242.59 493.92 236.24 495 235.16 500.12 240.27 507.69 230.48 508.9 231.41 500.26 242.59"/><path class="cls-31" d="M489,294.89V270.19h24.71v24.71Zm21.24-3.47V273.65H492.49v17.77Z"/><path class="cls-31" d="M512.76,293.93H490V271.15h22.78Zm-21.24-1.54h19.7v-19.7h-19.7Z"/><polygon class="cls-31" points="492.55 281.98 495 279.52 500.02 284.54 507.51 274.85 510.26 276.98 500.36 289.78 492.55 281.98"/><polygon class="cls-31" points="500.26 288.32 493.92 281.98 495 280.89 500.12 286 507.69 276.21 508.9 277.15 500.26 288.32"/><path class="cls-31" d="M489,339.81V315.1h24.71v24.71Zm21.24-3.47V318.57H492.49v17.77Z"/><path class="cls-31" d="M512.76,338.84H490V316.07h22.78Zm-21.24-1.54h19.7v-19.7h-19.7Z"/><polygon class="cls-31" points="492.55 326.89 495 324.44 500.02 329.46 507.51 319.77 510.26 321.89 500.36 334.7 492.55 326.89"/><polygon class="cls-31" points="500.26 333.24 493.92 326.89 495 325.81 500.12 330.92 507.69 321.13 508.9 322.07 500.26 333.24"/><path class="cls-31" d="M385.62,227.58a3.37,3.37,0,0,1-3.48,3.25h-62a3.37,3.37,0,0,1-3.48-3.25h0a3.37,3.37,0,0,1,3.48-3.25h62a3.37,3.37,0,0,1,3.48,3.25Z"/><path class="cls-32" d="M347.1,239a2.26,2.26,0,0,1-2.34,2.18H319a2.26,2.26,0,0,1-2.34-2.18h0a2.26,2.26,0,0,1,2.34-2.18h25.74A2.26,2.26,0,0,1,347.1,239Z"/><path class="cls-32" d="M374.25,239a2.26,2.26,0,0,1-2.34,2.18h-15a2.26,2.26,0,0,1-2.34-2.18h0a2.26,2.26,0,0,1,2.34-2.18h15a2.26,2.26,0,0,1,2.34,2.18Z"/><path class="cls-32" d="M418.11,239a2.26,2.26,0,0,1-2.34,2.18H383a2.26,2.26,0,0,1-2.34-2.18h0a2.26,2.26,0,0,1,2.34-2.18h32.8a2.26,2.26,0,0,1,2.34,2.18Z"/><path class="cls-32" d="M463,239a2.26,2.26,0,0,1-2.34,2.18h-33.7a2.26,2.26,0,0,1-2.34-2.18h0a2.26,2.26,0,0,1,2.34-2.18h33.7A2.26,2.26,0,0,1,463,239Z"/><path class="cls-32" d="M440.52,246.66a2.26,2.26,0,0,1-2.34,2.18H425a2.26,2.26,0,0,1-2.34-2.18h0a2.26,2.26,0,0,1,2.34-2.18h13.22a2.26,2.26,0,0,1,2.34,2.18Z"/><path class="cls-32" d="M416,246.63a2.26,2.26,0,0,1-2.34,2.18h-25.8a2.26,2.26,0,0,1-2.34-2.18h0a2.26,2.26,0,0,1,2.34-2.18h25.8a2.26,2.26,0,0,1,2.34,2.18Z"/><path class="cls-32" d="M378.78,246.63a2.26,2.26,0,0,1-2.34,2.18H319a2.26,2.26,0,0,1-2.34-2.18h0a2.26,2.26,0,0,1,2.34-2.18h57.42a2.26,2.26,0,0,1,2.34,2.18Z"/><path class="cls-32" d="M357.32,254.2a2.26,2.26,0,0,1-2.34,2.18H319a2.26,2.26,0,0,1-2.34-2.18h0A2.26,2.26,0,0,1,319,252h36a2.26,2.26,0,0,1,2.34,2.18Z"/><path class="cls-31" d="M385.62,273.43a3.37,3.37,0,0,1-3.48,3.25h-62a3.37,3.37,0,0,1-3.48-3.25h0a3.37,3.37,0,0,1,3.48-3.25h62a3.37,3.37,0,0,1,3.48,3.25Z"/><path class="cls-32" d="M347.1,284.83a2.26,2.26,0,0,1-2.34,2.18H319a2.26,2.26,0,0,1-2.34-2.18h0a2.26,2.26,0,0,1,2.34-2.18h25.74a2.26,2.26,0,0,1,2.34,2.18Z"/><path class="cls-32" d="M374.25,284.83a2.26,2.26,0,0,1-2.34,2.18h-15a2.26,2.26,0,0,1-2.34-2.18h0a2.26,2.26,0,0,1,2.34-2.18h15a2.26,2.26,0,0,1,2.34,2.18Z"/><path class="cls-32" d="M418.11,284.83a2.26,2.26,0,0,1-2.34,2.18H383a2.26,2.26,0,0,1-2.34-2.18h0a2.26,2.26,0,0,1,2.34-2.18h32.8a2.26,2.26,0,0,1,2.34,2.18Z"/><path class="cls-32" d="M463,284.83a2.26,2.26,0,0,1-2.34,2.18h-33.7a2.26,2.26,0,0,1-2.34-2.18h0a2.26,2.26,0,0,1,2.34-2.18h33.7a2.26,2.26,0,0,1,2.34,2.18Z"/><path class="cls-32" d="M440.52,292.51a2.26,2.26,0,0,1-2.34,2.18H425a2.26,2.26,0,0,1-2.34-2.18h0a2.26,2.26,0,0,1,2.34-2.18h13.22a2.26,2.26,0,0,1,2.34,2.18Z"/><path class="cls-32" d="M416,292.47a2.26,2.26,0,0,1-2.34,2.18h-25.8a2.26,2.26,0,0,1-2.34-2.18h0a2.26,2.26,0,0,1,2.34-2.18h25.8a2.26,2.26,0,0,1,2.34,2.18Z"/><path class="cls-32" d="M378.78,292.47a2.26,2.26,0,0,1-2.34,2.18H319a2.26,2.26,0,0,1-2.34-2.18h0A2.26,2.26,0,0,1,319,290.3h57.42a2.26,2.26,0,0,1,2.34,2.18Z"/><path class="cls-32" d="M357.32,300.05a2.26,2.26,0,0,1-2.34,2.18H319a2.26,2.26,0,0,1-2.34-2.18h0a2.26,2.26,0,0,1,2.34-2.18h36a2.26,2.26,0,0,1,2.34,2.18Z"/><path class="cls-31" d="M385.62,318.35a3.37,3.37,0,0,1-3.48,3.25h-62a3.37,3.37,0,0,1-3.48-3.25h0a3.37,3.37,0,0,1,3.48-3.25h62a3.37,3.37,0,0,1,3.48,3.25Z"/><path class="cls-32" d="M347.1,329.75a2.26,2.26,0,0,1-2.34,2.18H319a2.26,2.26,0,0,1-2.34-2.18h0a2.26,2.26,0,0,1,2.34-2.18h25.74a2.26,2.26,0,0,1,2.34,2.18Z"/><path class="cls-32" d="M374.25,329.75a2.26,2.26,0,0,1-2.34,2.18h-15a2.26,2.26,0,0,1-2.34-2.18h0a2.26,2.26,0,0,1,2.34-2.18h15a2.26,2.26,0,0,1,2.34,2.18Z"/><path class="cls-32" d="M418.11,329.75a2.26,2.26,0,0,1-2.34,2.18H383a2.26,2.26,0,0,1-2.34-2.18h0a2.26,2.26,0,0,1,2.34-2.18h32.8a2.26,2.26,0,0,1,2.34,2.18Z"/><path class="cls-32" d="M463,329.75a2.26,2.26,0,0,1-2.34,2.18h-33.7a2.26,2.26,0,0,1-2.34-2.18h0a2.26,2.26,0,0,1,2.34-2.18h33.7a2.26,2.26,0,0,1,2.34,2.18Z"/><path class="cls-32" d="M440.52,337.43a2.26,2.26,0,0,1-2.34,2.18H425a2.26,2.26,0,0,1-2.34-2.18h0a2.26,2.26,0,0,1,2.34-2.18h13.22a2.26,2.26,0,0,1,2.34,2.18Z"/><path class="cls-32" d="M416,337.39a2.26,2.26,0,0,1-2.34,2.18h-25.8a2.26,2.26,0,0,1-2.34-2.18h0a2.26,2.26,0,0,1,2.34-2.18h25.8a2.26,2.26,0,0,1,2.34,2.18Z"/><path class="cls-32" d="M378.78,337.39a2.26,2.26,0,0,1-2.34,2.18H319a2.26,2.26,0,0,1-2.34-2.18h0a2.26,2.26,0,0,1,2.34-2.18h57.42a2.26,2.26,0,0,1,2.34,2.18Z"/><path class="cls-32" d="M357.32,345a2.26,2.26,0,0,1-2.34,2.18H319a2.26,2.26,0,0,1-2.34-2.18h0a2.26,2.26,0,0,1,2.34-2.18h36a2.26,2.26,0,0,1,2.34,2.18Z"/><path class="cls-31" d="M496.17,122.28a3.37,3.37,0,0,1-3.48,3.25h-41a3.37,3.37,0,0,1-3.48-3.25h0a3.37,3.37,0,0,1,3.48-3.25h41a3.37,3.37,0,0,1,3.48,3.25Z"/><path class="cls-32" d="M515.39,131.54a2.26,2.26,0,0,1-2.34,2.18H450.72a2.26,2.26,0,0,1-2.34-2.18h0a2.26,2.26,0,0,1,2.34-2.18h62.33a2.26,2.26,0,0,1,2.34,2.18Z"/><path class="cls-32" d="M515.39,139.18a2.26,2.26,0,0,1-2.34,2.18H450.72a2.26,2.26,0,0,1-2.34-2.18h0a2.26,2.26,0,0,1,2.34-2.18h62.33a2.26,2.26,0,0,1,2.34,2.18Z"/><path class="cls-32" d="M473.35,146.76a2.26,2.26,0,0,1-2.34,2.18h-20.3a2.26,2.26,0,0,1-2.34-2.18h0a2.26,2.26,0,0,1,2.34-2.18H471a2.26,2.26,0,0,1,2.34,2.18Z"/><path class="cls-31" d="M496.17,166.22a3.37,3.37,0,0,1-3.48,3.25h-41a3.37,3.37,0,0,1-3.48-3.25h0a3.37,3.37,0,0,1,3.48-3.25h41a3.37,3.37,0,0,1,3.48,3.25Z"/><path class="cls-32" d="M515.39,175.48a2.26,2.26,0,0,1-2.34,2.18H450.72a2.26,2.26,0,0,1-2.34-2.18h0a2.26,2.26,0,0,1,2.34-2.18h62.33a2.26,2.26,0,0,1,2.34,2.18Z"/><path class="cls-32" d="M515.39,183.12a2.26,2.26,0,0,1-2.34,2.18H450.72a2.26,2.26,0,0,1-2.34-2.18h0a2.26,2.26,0,0,1,2.34-2.18h62.33a2.26,2.26,0,0,1,2.34,2.18Z"/><path class="cls-32" d="M473.35,190.69a2.26,2.26,0,0,1-2.34,2.18h-20.3a2.26,2.26,0,0,1-2.34-2.18h0a2.26,2.26,0,0,1,2.34-2.18H471a2.26,2.26,0,0,1,2.34,2.18Z"/><g class="cls-44"><circle class="cls-45" cx="370.72" cy="156.75" r="62.93"/><path class="cls-17" d="M432.35,212.85c-7.18-5.83-13.56-10.71-15.54-11.58l.26,11.58Z"/><polygon class="cls-31" points="392.02 212.85 394.14 189.37 353.26 191.33 352.45 212.85 392.02 212.85"/><path class="cls-31" d="M387.33,212.85h25.15l.3-3.58C412.88,202.74,389,192,389,192,387.31,199.22,389.23,206.56,387.33,212.85Z"/><path class="cls-31" d="M368.48,212.85l-1.21-5.25c.21-6.61-13.43-16-13.43-16-22.41,4.7-26.67,12-28.07,21.29Z"/><path class="cls-31" d="M383.86,212.85h55.91l-4.44-4.63c-19.49-19.44-44.9-18.73-41.67-18.12C385.24,194.19,387.13,199.15,383.86,212.85Z"/><path class="cls-46" d="M387,140.15c6-.23,7.18,10,7.18,10,1.66-.17,1.79-7.7-.37-13.72C392.48,132.63,382.73,140.31,387,140.15Z"/><path class="cls-41" d="M387,140.15c6-.23,7.18,10,7.18,10,1.66-.17,1.79-7.7-.37-13.72C392.48,132.63,382.73,140.31,387,140.15Z"/><path class="cls-17" d="M358.5,191.83c0,4.7,8.07,6.65,15.82,6.67h0c7.75,0,14.06-3.74,14.11-8.43l-.87-35.51c0-4.69-4.93-8.5-12.68-8.54h0c-7.74,0-11.54,3.77-11.59,8.49Z"/><path class="cls-17" d="M388,175.32,361.5,177.5v1.88c4.36,5,16.28,9.85,19.24,10.18,2.74.31,7.43-2.31,7.43-6.35Z"/><path class="cls-17" d="M354,153.72l-3.21-.76c-2.66-.6-4.35,1.17-4.08,4,.47,4.9,4.31,4.26,5.34,8.52l5.74-2.29Z"/><path class="cls-17" d="M395.48,168.39c-1.83,5-7.75,11.21-12.55,11.67-5,.48-26.1-3.84-28.54-8.43-6.74-12.69-9-48.35,16.24-49.46,6.73-.29,15.05-3.8,19.75,8.19C393.88,139.29,397.08,164,395.48,168.39Z"/><path class="cls-46" d="M374.1,115.32c1.89-2.07-1,9.53,4.45,6.22,2.43-1.48,8.33.33,11.55,5.89l-24.57,4.8c-1.55-.07-3.1-.12-4.65-.14a7.27,7.27,0,0,0-7.17,6.56c-2.08-1.13-4.16-2.24-6.2-3.51C348.15,114.36,367.61,122.42,374.1,115.32Z"/><path class="cls-46" d="M388.83,116.64c.9,2.65-1.44,6-5.23,7.58s-10.43-2.16-11.33-4.81,3.5-.2,7.26-3.49C382.64,113.2,387.93,114,388.83,116.64Z"/><path class="cls-46" d="M395.09,129c.75,3.86-.31,8.08-6.73,10.21-11.52,3.82-14.39-3.68-30.42-.64-1.37.26,1.14,3.58-3.2,7s-2.92,10.78-2.92,10.78c-2.34-.09-3.54-16.44-3.87-18.15-1.62-8.28,7.62-17.06,20.64-19.6S393.47,120.67,395.09,129Z"/><path class="cls-41" d="M347.51,135.13c.64-20.77,20.1-12.7,26.59-19.81.79-.87.75.67.83,2.51a8.08,8.08,0,0,0,4.59-1.91,7.29,7.29,0,0,1,5.89-1.59c-5,.4-5.6,3.51-9.82,5.13-5.76,2.2-11.91.14-20,4.84-4.05,2.34-4.72,9.06-5.22,13.63-.47,4.28,1.11,8.3,1.07,12.59a14.8,14.8,0,0,0,.18,2.4,16.21,16.21,0,0,0,.23,3.39c-2.34-.09-3.54-16.44-3.87-18.15a10,10,0,0,1-.13-2.84Z"/><path class="cls-46" d="M396,159c3.16,5.66-3.5,23-9,25.3-6.13,2.54-27.94-3.7-30.87-9.38-5.35-10.36-5.45-12.18-2.32-12.68,2-.33,8.87,6.62,14,6.51,3.67-.08,1-6.61,12.77-8.08,8.67-1.08,7.44.79,10,1.67C394.39,163.62,394.34,155.94,396,159Z"/><path class="cls-17" d="M389,164.65l0,.07c1.58,4.06-.79,8.08-5.29,9s-9.43-1.68-11-5.74c0,0,0,0,0-.07Z"/><path class="cls-37" d="M388,165.15l0,.06c1.43,3.69-.72,7.33-4.8,8.13a9.09,9.09,0,0,1-10-5.21.3.3,0,0,1,0-.06Z"/></g><path class="cls-47" d="M650.78,519.17c0,2.74-3.72,3.85-6.69,3.74s-9.8.61-9.78-1.5c0-2.75,3.81-2.42,7.69-7.06,1.32-1.58,5-4.32,7-2.55C650.08,512.74,650.78,518.21,650.78,519.17Z"/><path class="cls-11" d="M638.11,522c.27,0,1.68-.06,1.72-.08a13.55,13.55,0,0,0,3-.15c1.37-.25,3.28-.35,4.63-.62s2.26-1.35,3.32-2.41c0,.2,0,.37,0,.47,0,2.74-3.72,3.85-6.69,3.74s-9.8.61-9.78-1.5c0,0,0-.06,0-.09A8.05,8.05,0,0,0,638.11,522Z"/><g class="cls-29"><path class="cls-48" d="M628.42,413.71l-34.3-58.31.23-.25a22.2,22.2,0,0,0,5.35-14.81A58.47,58.47,0,1,0,558.52,357c1.23,0,2.45,0,3.67-.11.24.22.47.45.72.67a22.22,22.22,0,0,0,15.19,5.34l35.12,59.71a3.84,3.84,0,0,0,5.25,1.36l8.59-5.05A3.84,3.84,0,0,0,628.42,413.71ZM507.84,298.32a51,51,0,1,1,50.72,51.2A51,51,0,0,1,507.84,298.32Z"/></g><path class="cls-17" d="M629.28,394.49s18.42,5.06,24.83,4.92c4.22-.1,5.52-2.71,5.84-5.11s-1.67-3-4.68-3.57l-20.9-1.14c-.69-.12-1.32-.26-1.9-.38a17.41,17.41,0,0,1-2.27-1.32l-14.15-13c-2-2.41-6.88-5.79-7-5.15a38.94,38.94,0,0,0,3.89,6.1l12.76,16.36A8.61,8.61,0,0,0,629.28,394.49Z"/><path class="cls-19" d="M630.39,401.33,590,332.64c-.2.3-.41.6-.63.89a14.14,14.14,0,0,1-9.29,5.16,14.73,14.73,0,0,1-5.62,2.32l40.74,69.26a3.84,3.84,0,0,0,5.25,1.36l8.59-5.05A3.84,3.84,0,0,0,630.39,401.33Z"/><path class="cls-49" d="M613.51,398c-5.86-8.27-19-30.25-21-36.86-2-6.86,2.19-8.32,7-12.32L590,332.64c-.2.3-.41.6-.63.89a14.14,14.14,0,0,1-9.29,5.16,14.73,14.73,0,0,1-5.62,2.32l40.74,69.26a3.84,3.84,0,0,0,5.25,1.36l8.59-5.05a3.81,3.81,0,0,0,1.74-2.28C619.1,407.34,619.94,407,613.51,398Z"/><path class="cls-50" d="M600.39,320.94a16.27,16.27,0,0,1-6.14,8.71c-10.17,7.1-21.54,12.4-34,10.09a22.3,22.3,0,0,0,40.14-18.8Z"/><path class="cls-19" d="M600.49,321.1a16.27,16.27,0,0,1-6.14,8.71c-10.17,7.1-21.54,12.4-34,10.09a22.3,22.3,0,0,0,40.14-18.8Z"/><path class="cls-19" d="M619.24,286.46a58.47,58.47,0,1,0-58.75,58.2A58.47,58.47,0,0,0,619.24,286.46Zm-58.71,50.68a51,51,0,1,1,51.2-50.72A51,51,0,0,1,560.53,337.14Z"/><circle class="cls-51" cx="560.77" cy="286.18" r="50.96" transform="translate(271.95 845.59) rotate(-89.73)"/><path class="cls-52" d="M605.31,310.28a51,51,0,0,0-.43-49.43Q605.13,285.56,605.31,310.28Z"/><path class="cls-52" d="M581.71,239.61a51.11,51.11,0,0,0-31.88-3.47c.38,33.26.6,66.53.84,99.8a51.11,51.11,0,0,0,31.75-4C582.33,301.18,582,270.39,581.71,239.61Z"/><path class="cls-52" d="M527.7,248.31c-.91.8-1.81,1.62-2.67,2.5a51,51,0,0,0,.48,72.06c.92.9,1.86,1.75,2.83,2.57Q528.08,286.87,527.7,248.31Z"/><path class="cls-34" d="M653,408.37l6.63-9c1.92-2.64,4.18-6.68,6.59-5s4.53,7.46,2.73,11.64a28.26,28.26,0,0,1-3.05,6.33C661.91,411.7,656.87,409.56,653,408.37Z"/><g class="cls-29"><path class="cls-53" d="M653.54,408.37l6.63-9c1.92-2.64,4.18-6.68,6.59-5s4.53,7.46,2.73,11.64a28.26,28.26,0,0,1-3.05,6.33C662.46,411.7,657.41,409.56,653.54,408.37Z"/></g><path class="cls-17" d="M612.75,400.07c-2.76,0-5.22.91-4.78,2.8l-.66-.12c.44,1.88,3.13,2.93,5.88,2.94l21.35,0c2.77,0,4.65-1.53,4.21-3.41h0c-.44-1.88-3-3.41-5.8-3.41Z"/><path class="cls-34" d="M642,398.35l2.55,4.27c5.31,3.12.66,5,.52,4.91-2.14-1.05-9.65.37-9.81.52l-3.55-9s5.17-2,7-2.73l4-2.34C644.4,393.27,640.41,396.05,642,398.35Z"/><path class="cls-17" d="M609.35,401.76a4.33,4.33,0,0,1,3-.69c-.5-1-1.41-1.7-1.81-2.42l-11.23-16.36a62,62,0,0,1-4.91-7.84s-2.9,2.34-1.61,4.87l12.9,21.35a26.76,26.76,0,0,0,2,3A5.23,5.23,0,0,1,609.35,401.76Z"/><path class="cls-17" d="M649.86,480.59c.08,3.11-.9,5.54-3.12,5.5l.5-.15c-2.22,0-4.08-2.6-4.16-5.71,0,0-1.15-11.59-.19-43.44l15.74.42c2.22,0-4.35,8.34-4.27,11.46Z"/><path class="cls-47" d="M700.4,503.16c1.74,2.12-.4,5.34-2.75,7.15s-7.14,6.73-8.49,5.1c-1.74-2.12,1.38-4.3,1.4-10.34,0-2.05,1.1-6.53,3.76-6.45C695.75,498.66,699.79,502.43,700.4,503.16Z"/><path class="cls-11" d="M692.44,513.41c.19-.19,1.25-1.12,1.27-1.16a13.4,13.4,0,0,0,2.19-2c.89-1.07,2.29-2.36,3.17-3.44s.87-2.48,1-4c.13.14.25.27.32.35,1.74,2.12-.4,5.34-2.75,7.15s-7.14,6.73-8.49,5.1l0-.07A8.1,8.1,0,0,0,692.44,513.41Z"/><path class="cls-17" d="M645.27,514.49a5.47,5.47,0,0,0,1.37.28A3,3,0,0,0,649,514l1.85-23.84-1.2-8.77c.16-3.09.74-6.09-1.48-6.45l-1-.16c-2.21-.36-4.13,1.86-4.28,5l2.31,32A10,10,0,0,0,645.27,514.49Z"/><path class="cls-17" d="M661.75,479.15c.24,3.11.72,5.65,2.93,5.5l1-.06c2.21-.15,4-2.62,3.75-5.73l-1.64-32c-.24-3.11-.32-12.78-2.53-12.63l-8,3.2c-2.21.15-9.4,11.64-1.14,11.83Z"/><path class="cls-17" d="M692.07,503.17a8.09,8.09,0,0,0,2.42-.31c.71-.24,1.89-.89,1.5-1.85a10.87,10.87,0,0,0-.53-1.05l-18.63-15.6s-12.66-5.37-13.56-5l-.67.75c-1.51,1.64.17,4.33,2.6,6.29L692,503.06Z"/><path class="cls-17" d="M695.62,500.24c-2.51,5.72-30.55-16.21-31-18-1.83-7.75-3.18-12.57,4.3-12.68l-1.17-22.75c-.24-3.11-.32-12.78-2.53-12.63l-8,3.2c-2.21.15-9.4,11.64-1.14,11.83l5.63,29.93a23.85,23.85,0,0,0,.28,2.39c0,1.52,1.38,3.36,3.16,4.81L692,503.06l.11.1a8.09,8.09,0,0,0,2.42-.31c.71-.24,1.89-.89,1.5-1.85A8.2,8.2,0,0,0,695.62,500.24Z"/><path class="cls-17" d="M644.57,514.19a5.31,5.31,0,0,0,2.07.58H647a2.58,2.58,0,0,0-.13-1.55c-1.28-3.26-1.79-16.72-1.9-35.59,0-4.94,1-7.36,5.44-7.57,6.54-.32,14.88-28.75,17-30-.29-3.37-.79-6-2.09-5.91l-7.51,3-14.87-.4c-.77,25.73-.17,38.23.09,42.09,0,.28-.07.56-.09.85l1.45,32.11A5.91,5.91,0,0,0,644.57,514.19Z"/><path class="cls-34" d="M638.38,467.1c-1,4.48,35.58,2.19,34.34-2.09-5.41-18.79-5.66-58.65-8.65-71-.56-2.32-4-2.89-7.88-4.66-2.26-1-6.24-.53-8.74.31-5.06,1.69-8.2,1.46-8.65,6C636.55,418.73,644.24,440,638.38,467.1Z"/><g class="cls-29"><path class="cls-53" d="M672.73,465c-5.41-18.79-5.66-58.65-8.65-71-.56-2.32-4-2.89-7.88-4.66-1.61-.73-4.08-.68-6.27-.3,0,.32,0,.63,0,.94,2.83.27,3.62,3.52,7.21,3.88,1,.1,5.78,1.22,6.71,3.4,1.18,2.75.91,7.53,1.23,12.5,1.27,20.11,3.71,49.89,2.21,52.4-4.64,7.77-19,4.2-27.52,6.38C646.24,470.95,673.8,468.74,672.73,465Z"/></g><path class="cls-17" d="M656.27,392.23c.13,1.44-1.6,2.77-3.85,2.95h0c-2.25.18-4.18-.85-4.29-2.3L647.19,382c-.12-1.45,1.6-2.77,3.85-3h0c2.25-.18,4.17.85,4.3,2.3Z"/><path class="cls-54" d="M656,389.74l-.69-8.45c-.13-1.45-2.06-2.47-4.3-2.3s-4,1.51-3.85,3l1,11.38C653.15,394.26,656.05,389.88,656,389.74Z"/><path class="cls-19" d="M647.3,405.63c-16-3.57-6.37-41.91-2.91-43.41,1.74-2,8.32-7.92,16.61-.35,4,3.67,9.63,30-1.31,32.12C649.47,396,652.92,406.88,647.3,405.63Z"/><g class="cls-29"><path class="cls-50" d="M661,361.87c-4-3.69-7.67-4.16-10.54-3.45,9,.39,13.66,10.68,12.55,20.72a18.34,18.34,0,0,1-7.47,13.1,20.49,20.49,0,0,0-4.25,3.61c.33-.06-1,4-1.33,4.79a7.7,7.7,0,0,1-3.66,4.69,9.56,9.56,0,0,0,1,.3c5.62,1.25,2.17-9.62,12.4-11.63C670.63,391.85,665,365.54,661,361.87Z"/></g><path class="cls-55" d="M206.57,116.05a16.85,16.85,0,0,0-2.17-.14C201.78,115.91,202.82,116,206.57,116.05Z"/><path class="cls-56" d="M628.42,522.35c7.41.88,21.82,1.38,40.19,1.19,19.6-.21,55.61-.81,48-2.29-9.12-1.76-23-2.83-53.69-2.83S621.77,521.57,628.42,522.35Z"/><path class="cls-57" d="M284.53,584.41c11.05,1,32.53,1.61,59.92,1.38,29.22-.24,82.9-.94,71.49-2.66-13.6-2.05-34.29-3.3-80-3.3S274.62,583.5,284.53,584.41Z"/><path class="cls-17" d="M299.81,578.29s-4.1,3.26-4.09,1.3c.14-17.91,1-44.3.66-56.94-.08-3.41-1-55.42,10-56.81,9.94-1.26,5.9-.09,8.68,5.9,2.32,5-5.52,48-7.32,52.12-.6,1.39-1.82,8.54-2.12,10A420.13,420.13,0,0,0,299.81,578.29Z"/><path class="cls-17" d="M314.59,578.2s-3.8,1.21-4-.74c-1.44-17.85-.57-42.43-2-55-.38-3.39-13-54.67-2.22-57,9.79-2.13,11-1.05,14.26,4.66,2.75,4.78.76,48.07-.67,52.39-.48,1.43-1.07,8.67-1.23,10.17C316.51,554,314.59,578.2,314.59,578.2Z"/><path class="cls-17" d="M323.85,476.49c.2.81.25,6.37.25,6.37-3.13.17-3.31-.86-3.31-.86L313,458.17c-.85-3.72,1-6.87,4.13-7h0c3.13-.17,4.19,3.42,5,7.14Z"/><path class="cls-17" d="M327.1,484c5.67,5.09-2.89,9.2-6,5.48-1.14-1.38-2.5-14.1-2.5-14.1l5.08-.53S325.31,482.4,327.1,484Z"/><path class="cls-58" d="M321.32,463.62c-1.83-7.76-.21-15.37,1.1-21.55,1.78-8.43,2.82-14.22,2.82-14.22,0-6.3-2-9.56-6.08-12.91-2.47-2-4.94-5.59-10.35-5.59-14.45,0-13.71,9.44-13.71,19.52,0,0-.45,24-.53,30-.19,12.76-5,28.47-2.72,63.77.37,5.75,21.44-1,29.62-1.37C322.24,521.26,325.87,482.91,321.32,463.62Z"/><path class="cls-17" d="M356.07,449c.86.31-1.75-.92-1.75-.92.29-3.38,0-3.73,0-3.73l-26.13-11.09c-4-1.33-7.4.33-7.69,3.7h0c-.29,3.38,3.52,4.92,7.49,6.25Z"/><path class="cls-59" d="M296.21,412.92c-2.75,4.21-2.16,9.86,1.31,12.63l27.08,16.93a27,27,0,0,1,5.33-9.06,31.8,31.8,0,0,1-4.74-4.74L306,413.83C302.53,411.07,299,408.71,296.21,412.92Z"/><path class="cls-19" d="M294.83,576.83c0,1.63-3.59,6.5,3,6.5,16.23,0,14.93.51,14.09-1-2-3.48-10.27-.82-11-6C301,576.36,294.83,575.2,294.83,576.83Z"/><path class="cls-19" d="M308.59,576.83c0,1.63-3.59,6.5,3,6.5,16.23,0,14.93.51,14.09-1-2-3.48-9.07-.82-9.76-6C315.9,576.36,308.59,575.2,308.59,576.83Z"/><path class="cls-17" d="M302.93,409.51c-.86,2.66-.67,4.54,3.28,4.49s13.78,1.67,9.26-1.9c-6.49-5.14-.12-17.39-8.69-17.28C299.21,394.92,305.93,400.2,302.93,409.51Z"/><path class="cls-17" d="M305.28,414c.1-.1,1.68,0,1.54,0-4.27-1.84-.39-9.75,2.94-12.29.64-.63.73,2.43,1.45,1.93-.55-4.35,1.14-8.89-4.45-8.82-7.57.09-1,4.28-3.84,14.69C301.93,413.22,303,413.59,305.28,414Z"/><path class="cls-36" d="M298.42,387.73c-.08,3.28.1,9,1.78,13.61,1.06,2.92,8.43,5.66,8.77,5.64,2.72-.13,9.33-4.26,9.79-6.48a54.16,54.16,0,0,0,1-15.57c-.65-8-6.42-13.77-12.9-12.93S298.63,378.73,298.42,387.73Z"/><path class="cls-17" d="M319.78,384.91c-.65-8-6.42-13.77-12.9-12.93a7.83,7.83,0,0,0-5.58,3.15,14.75,14.75,0,0,1,3.32,1c2.93,1.33,5.1,3.35,7.55,5.38a1.83,1.83,0,0,1,.67,2c.09.1,1.31,0,1.38.12a22,22,0,0,1,2.52,4.06c1.76,4.69,1.78,10.89,1,12.43a13.74,13.74,0,0,1-3.4,4.28A15.12,15.12,0,0,1,309,407c2.72-.13,9.33-4.26,9.79-6.48A54.16,54.16,0,0,0,319.78,384.91Z"/><circle class="cls-46" cx="301.54" cy="374.51" r="6.15" transform="translate(-80.76 666.11) rotate(-88.49)"/><path class="cls-46" d="M319,393.09c.07,1-.17,5.91-.15,6.89,1-.7,1.35,9.87,2.36,9.13,3.65-20-1-34.77-3.24-35.43-2.27-1.92-10.81-7.62-20.51,1-2.33,2.07-3.56,10-4,18.15,1.75,7.22,4.45,7.56,7.13,8.38-3.89-7.75,2.91-16.63,7.23-17.07,1.79-.18,5.05.16,7.06-.68A17.26,17.26,0,0,1,319,393.09Z"/><path class="cls-60" d="M393.64,583.41c-4.11.22-1.71,3.8,74.58,2.76,5.23-.07,14.1,1,20,.79,40.68-1.69,79.74.38,79.74-3,0-3-71.07-7.06-100.6-3.15C455.37,582.42,403.43,582.88,393.64,583.41Z"/><path class="cls-19" d="M416.06,523c-.22,4.37,2.64,1.42,5.72,2.27l2,5.52c3.08.85,5.26-7,6.44-11l16.6-40c1.18-4,.34-11.21-2.74-12.06l-6,2.57c-3.07-.85-11.64.27-12.82,4.24Z"/><polygon class="cls-17" points="415.14 580.73 419.77 581.35 420.89 574.17 416.26 573.55 415.14 580.73"/><path class="cls-17" d="M420.89,574.17l-.39,2.5a1.82,1.82,0,0,0-.86-.18c-1.23,0-2.31.08-2.87,1.28a3.83,3.83,0,0,0,.11,2.24c.07.33.13.65.19,1l-1.94-.26,1.12-7.18Z"/><path class="cls-19" d="M399.28,583.09c-.06-.08,0-.29,0-.86.07-.81,5.78-1.62,9.3-2a7,7,0,0,0,2.6-.82c.47-.4.18-.38.49-.23.93.47,1.76,0,2.54.1l-.65,6c-4.72-.35-12-.94-13.51-1.06-1-.07-.91-.46-.87-.94A.74.74,0,0,1,399.28,583.09Z"/><path class="cls-61" d="M399.28,583.09c-.06-.08,0-.29,0-.86.07-.81,5.78-1.62,9.3-2a7,7,0,0,0,2.6-.82c.47-.4.18-.38.49-.23.93.47,1.59,0,2.54.1l-.65,6c-4.72-.35-12-.94-13.51-1.06-1-.07-.91-.46-.87-.94A.74.74,0,0,1,399.28,583.09Z"/><path class="cls-19" d="M413.72,584.18l-.12,1.11c-4.73-.35-12-.94-13.51-1.06-1-.07-.91-.46-.87-.94a.82.82,0,0,1,.06-.18Z"/><path class="cls-62" d="M413.71,584.23l-.11,1.06c-4.72-.35-12-.94-13.51-1.06-1-.07-.91-.46-.87-.94a.58.58,0,0,1,0-.13Z"/><path class="cls-19" d="M401.92,583.49c0,.48-.09.87.86.94,2.27.18,16.92,1.38,17.66,1.31.41,0,1-.32,1-.8h0a.9.9,0,0,0-.87-.94l-17.65-1.31a.92.92,0,0,0-1,.8Z"/><path class="cls-19" d="M421.49,584.59c0,.31-6-.23-19.3-1.23-.32,0-.26,0-.18-.93s5.79-1.62,9.3-2a7,7,0,0,0,2.6-.82c.48-.4.19-.38.49-.23,5.78,2.91,5.65-.28,6.58.15C422.09,580,421.48,584,421.49,584.59Z"/><path class="cls-19" d="M413.28,581.5c0,.06.12.08.22,0h0c.09,0,.16-.11.13-.17l-.59-1.53c0-.06-.12-.08-.22-.05h0c-.1,0-.16.11-.13.17Z"/><path class="cls-19" d="M411.88,581.42s.1.07.21,0h0c.1,0,.17-.08.16-.13l-.33-1.24s-.1-.07-.21,0h0c-.1,0-.17.08-.16.13Z"/><path class="cls-19" d="M410.72,581.11s.09,0,.19,0h0c.1,0,.18-.06.17-.09l-.18-.78s-.09,0-.2,0h0c-.1,0-.18.06-.17.09Z"/><path class="cls-19" d="M422.3,517.46l1.46,0c3.23-.08,5,2.09,4.73,6.65l-7,48.11-.7,4-6.26-1,1.32-50.59C416.07,520.1,419.07,517.54,422.3,517.46Z"/><path class="cls-19" d="M442.67,526.33c-.17,4.16,2.62.08,6,.24l1.55.07c3.42.17,5.59-3.13,5.76-7.29l4.07-42.41c.17-4.16-.06-11.63-3.48-11.8L451.12,469c-3.41-.17-12,2.8-12.17,7Z"/><polygon class="cls-17" points="447.03 580.05 451.69 580.34 452.21 573.1 447.54 572.81 447.03 580.05"/><path class="cls-17" d="M452.21,573.1l-.18,2.51a1.85,1.85,0,0,0-.87-.11c-1.23.13-2.3.25-2.75,1.49a3.85,3.85,0,0,0,.3,2.22c.09.32.19.64.27,1l-2-.12.52-7.24Z"/><path class="cls-19" d="M463.05,583.94a3,3,0,0,0,.1-.86c.06-.81-4.62-2.11-7.51-2.83a5.08,5.08,0,0,1-2.06-1c-.34-.43-.1-.39-.37-.27-.85.38-1.48-.11-2.15-.12l-.32,6c4,.07,10.17.12,11.48.13.81,0,.83-.38.86-.86A.85.85,0,0,0,463.05,583.94Z"/><path class="cls-61" d="M463.05,583.94a3,3,0,0,0,.1-.86c.06-.81-4.62-2.11-7.51-2.83a5.08,5.08,0,0,1-2.06-1c-.34-.43-.1-.39-.37-.27-.85.38-1.34-.11-2.15-.12l-.32,6c4,.07,10.17.12,11.48.13.81,0,.83-.38.86-.86A.85.85,0,0,0,463.05,583.94Z"/><path class="cls-19" d="M450.79,583.76l-.06,1.11c4,.07,10.17.12,11.48.13.81,0,.83-.38.86-.86a.68.68,0,0,0,0-.19Z"/><path class="cls-62" d="M450.79,583.81l-.06,1.06c4,.07,10.17.12,11.48.13.81,0,.83-.38.86-.86a.5.5,0,0,0,0-.14Z"/><path class="cls-19" d="M459.27,584.08c0,.48,0,.87-.74.86-1.64,0-12.25,0-12.77-.16a.87.87,0,0,1-.62-.88h0a.85.85,0,0,1,.74-.86l12.78.16c.38,0,.66.4.62.88Z"/><path class="cls-19" d="M445.15,583.55c0,.31,4.34.27,13.94.37.23,0,.19,0,.25-.91s-3.92-2.09-6.38-2.78a4,4,0,0,1-1.75-1c-.29-.43-.09-.39-.32-.27-4.5,2.41-4-.75-4.72-.39S445.23,583,445.15,583.55Z"/><path class="cls-19" d="M451.41,581.17a.11.11,0,0,1-.16,0h0a.16.16,0,0,1-.07-.18l.62-1.46a.11.11,0,0,1,.16,0h0a.16.16,0,0,1,.07.18Z"/><path class="cls-19" d="M452.79,581.37s-.08.06-.15,0h0c-.07,0-.11-.1-.09-.14l.39-1.21s.08-.06.15,0h0c.07,0,.11.1.1.14Z"/><path class="cls-19" d="M454,581.5s-.07,0-.14,0h0c-.07,0-.12-.07-.11-.1l.23-.76s.07,0,.14,0h0c.07,0,.12.07.11.1Z"/><path class="cls-19" d="M451.92,579.71a.11.11,0,0,1-.12-.11h0a.19.19,0,0,1,.15-.15l1.91-.25a.1.1,0,0,1,.13.11h0a.18.18,0,0,1-.15.15Z"/><path class="cls-19" d="M453.06,580.25a.1.1,0,0,1-.12-.11h0a.15.15,0,0,1,.12-.15l1.64-.26a.11.11,0,0,1,.12.11h0a.15.15,0,0,1-.12.15Z"/><path class="cls-19" d="M454.07,580.81a.1.1,0,0,1-.13-.09h0a.15.15,0,0,1,.09-.16l1.57-.49a.11.11,0,0,1,.14.09h0a.15.15,0,0,1-.09.16Z"/><path class="cls-19" d="M448.75,516.46l1.55-.14c3.41-.32,5.46,1.72,5.61,6.28l-3.18,48.47-.38,4.06-6.73-.51-3.1-50.53C442.38,519.54,445.33,516.77,448.75,516.46Z"/><path class="cls-41" d="M439,480.56c.34.17,2.34,17.11,2.46,20.17.19,5,4.91,66.09,5.91,74l-1.68-.13-3-48.3a10.56,10.56,0,0,1-.14-2.23l-2.22-28.62Z"/><path class="cls-41" d="M439,480.56l1.42,14.74-10.15,24.48c-.48,1.61-1.13,3.87-1.93,5.93,0-2,3.83-13.47,8.07-24.59C440,491.54,437.33,481.6,439,480.56Z"/><path class="cls-41" d="M415.83,524.65a10,10,0,0,1,.23-1.67h0l9.24-48.47c1.18-4,9.75-5.09,12.82-4.24l6-2.57a4,4,0,0,1,2.33,2.61,13.54,13.54,0,0,1,4.69-.94l1.55.07c2.36.11,6,5.43,7.39,8.09l-.24,1.33s-11.38.41-18.28-2.92c0,0-.34,1-7.46,2.81-4.82,1.23-13.05,40-13.75,43.9-2.64,14.68-2.85,40-3,52.81l-2.84-.23Z"/><polygon class="cls-40" points="432.39 403.6 431.16 423.03 441.26 439.47 450.2 423.03 450.2 403.03 432.39 403.6"/><path class="cls-17" d="M462.7,483.22c-5.79,5.13,2.69,9.51,5.86,5.74,1.17-1.39,3.18-12.61,3.18-12.61L466,474.13S464.53,481.6,462.7,483.22Z"/><path class="cls-17" d="M359.71,444.38c6.6-1.56,7.73,5.64,3.24,6.1-1.66.17-12.52-3.19-12.52-3.19l-.07-4.59S357.62,444.87,359.71,444.38Z"/><path class="cls-17" d="M364.81,443.23c-7.1-3-7.45,6.49-2.69,7.75,1.76.47,12.76-2.5,12.76-2.5l-.46-6.18S367.05,444.2,364.81,443.23Z"/><path class="cls-19" d="M373,441.82l35.41-5.53a10.49,10.49,0,0,0,3.51,7c1,5.55-9.3,6.35-12.83,6l-26.17,1.85c-1.35-.15-1.94-5.13-1.35-8C372,441.21,373,441.82,373,441.82Z"/><path class="cls-19" d="M405.57,431.77l7.53-11.55c2-3.62,5.69-14.5,9.73-15.93l12.93,18.39c-5.77-.84-12.83,6.14-14.71,9.52L412.53,444c-.72,1.12-1,1.56-1.89,2.69l-10.91-6.54A100,100,0,0,0,405.57,431.77Z"/><path class="cls-41" d="M414.12,421.39c-4.61,7-9,15.67-11.43,16.85-2.62,1.27-13.94,1.18-14,1.14l13.21-2.06,11.25-17.09c.46-1,2.12-4.53,3.16-6.82,3.68-8.1,6.18-8.9,6.18-8.9C425,404.39,415.66,419,414.12,421.39Z"/><path class="cls-19" d="M449.41,402.7h0a25.44,25.44,0,0,1,2,9.67c0,2.2-10.18,27.1-10.18,27.1-1.37.26-3-11.7-4-12.37-2.14-1.37-.83-7.52-2.62-9.3-3.66-3.65-1.52-10.27-2.57-15.1h0c-10,.6-10.45,2.19-11.65,3.79-1.55,2.06-2,3-2,6.24l3.67,53.18c.23,2.9.61,10.79.61,10.79.53,1.12,17-1.55,20.18-4.56,0,0,1.87,4.56,16.89,6.15,1.93.2,1.06-10,1.37-11.82L465.27,412C463.47,406.36,455,402.7,449.41,402.7Z"/><path class="cls-41" d="M421.14,405.71c1.31-1.32,1.3-2.18,10.95-3a14.76,14.76,0,0,1,.25,1.72c-.85.61-2.6.09-3.67.23-3.43.43-7.09.11-6.86,4.17.3,5.5-.1,17.85.43,23.3,1,10.69,2.88,32.14,3,34.47.06,2.09.12,4.86,1.9,6.26,3.19,2.52,13.83-.64,15.09-.14-4.44,2.76-18.93,5-19.42,4,0,0-.37-7.9-.61-10.79l-3.67-53.18C418.46,409.09,419.32,407.55,421.14,405.71Z"/><path class="cls-19" d="M461.87,407a25.18,25.18,0,0,1,11,15.07l2.37,13.35c.92,4.07,1.16,9.94,1.67,13.46l-10.59,6c1.11-3.91.19-3.54-.14-4.83l-6.65-30c-.33-1.73-.67-3.48-1.12-5.28Z"/><path class="cls-19" d="M464.58,477.28l1.79-28.62c4.52,1.07,5.94-5.76,5.94-5.76,6.13.68,4.65,10.46,3.46,13.62l-4.12,23.93c-.47,1.21-3.09-.1-6-1.47C463.69,478.06,464.58,477.28,464.58,477.28Z"/><path class="cls-41" d="M471.56,422.87c.68,5.91,4.76,24.74,5,24.74-.08-3.08-1.27-12.18-1.27-12.18l-2.37-13.35a15.1,15.1,0,0,0-.83-2.52C469.66,418.65,471.24,420.08,471.56,422.87Z"/><path class="cls-17" d="M442.92,472c0,.07,0,.12,0,.12S442.92,472.1,442.92,472Z"/><path class="cls-19" d="M428.19,404.16c1.42-2.42,4.1-2.85,4.15-2.64,1.86,7.7,9,37,9.29,36.78,0,0,7-29.34,8.75-36.78a7,7,0,0,1,3.54,2.07s2.21,2.82,1.59,3.72a12.33,12.33,0,0,1-2.67,1.37s2.08,2.56,1.83,3.21c-.9,2.31-6.51,10.46-12.43,27.66.16,8.59.58,30.21.67,32.48-.18-2.49-2.21-31.92-2.26-32.13-3.8-15.34-11.58-24.25-12.61-26.87-.26-.65,1.83-3.21,1.83-3.21a12.32,12.32,0,0,1-2.67-1.37C426.6,407.54,428.19,404.16,428.19,404.16Z"/><path class="cls-41" d="M428.19,404.16c1.42-2.42,4.1-2.85,4.15-2.64,1.86,7.7,9,37,9.29,36.78,0,0,7-29.34,8.75-36.78a7,7,0,0,1,3.54,2.07s2.21,2.82,1.59,3.72a12.33,12.33,0,0,1-2.67,1.37s2.08,2.56,1.83,3.21c-.9,2.31-6.51,10.46-12.43,27.66.16,8.59.58,30.21.67,32.48-.18-2.49-2.21-31.92-2.26-32.13-3.8-15.34-11.58-24.25-12.61-26.87-.26-.65,1.83-3.21,1.83-3.21a12.32,12.32,0,0,1-2.67-1.37C426.6,407.54,428.19,404.16,428.19,404.16Z"/><path class="cls-17" d="M448.67,404.43c-.21,2.49-3.36,3.52-7.45,3.14l-.34.68c-4.1-.36-7.24-2.68-7-5.16l2.24-18.73c.21-2.48,3-4.25,7.13-3.88h0c4.09.37,5.91,2.57,5.71,5.07Z"/><path class="cls-17" d="M434.85,394.12,449,392.64l-.05,3c-3.27,2.33-8.41,5.25-10,5.42s-4.81-1.94-4.79-2.76Z"/><polygon class="cls-63" points="449.92 403.45 443.13 411.57 440.83 406.86 449.95 399.87 449.92 403.45"/><polygon class="cls-40" points="449.92 403.45 443.13 410.74 440.69 406.63 449.95 399.04 449.92 403.45"/><polygon class="cls-63" points="432.74 403.45 439.52 412.32 441.02 406.65 432.71 399.87 432.74 403.45"/><polygon class="cls-40" points="432.74 403.45 439.52 410.74 441 406.37 432.71 399.04 432.74 403.45"/><path class="cls-17" d="M430.68,378.54l-1.6-.7c-1.33-.57-2.39.19-2.52,1.71-.23,2.6,1.93,2.76,1.87,4.79l3.31-.47Z"/><path class="cls-17" d="M449.28,382.75l1.7-.41c1.41-.33,2.32.6,2.19,2.12-.23,2.6-2.28,2.28-2.81,4.54l-3.05-1.2Z"/><path class="cls-17" d="M429,390.75c1.18,3.57,4.24,8.63,6.75,9.15,2.81.58,11.2-3.55,12.48-6,3.53-6.76,5.76-24.95-7.64-25.44-3.57-.13-9.68-2.14-11.58,4.43C427.8,377.06,427.67,386.72,429,390.75Z"/><path class="cls-17" d="M429,390.75c-1.33-4-1.2-13.69,0-17.87,1.9-6.57,8-4.56,11.58-4.43a11.73,11.73,0,0,1,6,1.7,2.88,2.88,0,0,0-.37.23,25.45,25.45,0,0,0-5.77,6c-.12.18-.62-.52-.68-.34a14.58,14.58,0,0,1-4,1.78c-1.23.18-6-1.2-6.47.84a20.91,20.91,0,0,0-.07,11c2.39,8,6.52,10.25,6.52,10.25C433.24,399.38,430.18,394.32,429,390.75Z"/><path class="cls-19" d="M438.63,364.5c-1-1.15.6,5.1-2.18,3.22-1.25-.84-4.21,0-5.76,2.88l12.46,3.11c.78,0,1.56,0,2.35,0a4.07,4.07,0,0,1,3.7,3.65c1-.55,2.07-1.1,3.09-1.73C451.72,364.57,442,368.44,438.63,364.5Z"/><path class="cls-19" d="M431.2,364.88c-.42,1.39.8,3.25,2.73,4.16s5.24-.92,5.67-2.31-1.77-.18-3.71-2C434.29,363.18,431.63,363.49,431.2,364.88Z"/><path class="cls-19" d="M431.65,376.34c-3-.19-3.47,6-3.47,6-.85-.11-1.06-4.67-.07-8.29C428.73,371.75,433.84,376.47,431.65,376.34Z"/><path class="cls-41" d="M431.65,376.34c-3-.19-3.47,6-3.47,6-.85-.11-1.06-4.67-.07-8.29C428.73,371.75,433.84,376.47,431.65,376.34Z"/><path class="cls-19" d="M428.18,371.3c-.34,2,.25,4.32,3.51,5.59,5.86,2.3,7.23-1.64,15.36.34.7.17-.53,1.88,1.69,3.8s1.6,5.82,1.6,5.82c1.18,0,1.6-8.69,1.75-9.59.72-4.38-4-9.27-10.65-10.91S428.9,366.92,428.18,371.3Z"/><path class="cls-41" d="M450.35,384.34a88.7,88.7,0,0,0,.63-8.9c-.21-2.79-.41-4.73-3-6.22-1.26-.72-5-1.11-6.41-1.3a7.25,7.25,0,0,1-4.09-2.28,5.43,5.43,0,0,0,.77.19c0-1,0-1.8.39-1.32,3.36,3.94,13.09.07,13.65,11.16l-.16.1a5.58,5.58,0,0,1,0,1.51c-.15.9-.57,9.59-1.75,9.59A20.63,20.63,0,0,0,450.35,384.34Z"/><ellipse class="cls-41" cx="443.25" cy="454.68" rx="0.81" ry="0.75"/><ellipse class="cls-41" cx="438.95" cy="443.73" rx="0.81" ry="0.75"/><ellipse class="cls-41" cx="440.53" cy="464.39" rx="0.81" ry="0.75"/><path class="cls-17" d="M211.7,523.94c1.52-15.42,5-23.8,6.38-34.64,0-.28-1.92-12.23-1.73-13.19-3.91,1.6-5-9.17-8.8-10.93a17.22,17.22,0,0,0-2.12,8c-.05,1.31-.23,12.2-.12,13.5,1.63,18.48,3,35.8,3,35.8S211.53,525.62,211.7,523.94Z"/><path class="cls-17" d="M230.32,523.83c-1.2-15.44-2.69-24-3.88-34.88,0-.28-.41-10.23-.57-11.2,3.88,1.68,6-10.91,9.8-12.6a17.21,17.21,0,0,1,2,8c0,1.31,0,12.21-.16,13.5-2,18.45-3.71,35.74-3.71,35.74S230.45,525.52,230.32,523.83Z"/><path class="cls-19" d="M206.8,514.88h7c1.7-10.07,3.16-17.08,4.27-25.59,0-.28-1.92-12.23-1.73-13.19-3.91,1.6-5-9.17-8.8-10.93a17.22,17.22,0,0,0-2.12,8c-.05,1.31-.23,12.2-.12,13.5C206.28,497.58,206.25,508.11,206.8,514.88Z"/><path class="cls-19" d="M210.24,412.44c-.05.86-2.94-.38-6.9-.71l.42-.05a8.12,8.12,0,0,1-5.89-3.37L202.25,378c.33-4,3.38-7.79,7.35-7.46l4.79,4c4,.33,8.14,4.76,7.81,8.73Z"/><path class="cls-17" d="M190.52,444.1a2.84,2.84,0,0,1-4.89-.24c-.67-1.31,3.67-4.15,5.22-6.48s2.81-1.34,3.48,0S193.11,440.88,190.52,444.1Z"/><path class="cls-19" d="M193.73,442a44.85,44.85,0,0,0-3.87-4.69l8.8-31.14c1.26-4.45,2.81-2.54,4.64,0l4.53,6.74C205.56,419.46,193.73,442,193.73,442Z"/><path class="cls-64" d="M214.39,374.46l-4.79-4c-4-.33-7,3.49-7.35,7.46l-4.37,30.35.12.17-8.13,28.8a44.85,44.85,0,0,1,3.87,4.69s11.82-22.52,14.1-29.06l-.37-.55c1.69.35,2.75.59,2.78.07l11.95-29.26C222.52,379.22,218.35,374.79,214.39,374.46Z"/><path class="cls-19" d="M216.38,477.05c-1.16-.39-10.93,5.76-11,5.1-.53-2.9-1.14-47.27,2.14-58.33,2.47-8.31,14.1-3.42,15.28,2.17C227.08,446.43,216.43,476.26,216.38,477.05Z"/><path class="cls-65" d="M212.83,520.85c0,1.4,2.6,6.08-1.49,6.17-10.08.23-15.91.11-15.08-1,2.29-3.06,10.21-1,10.53-5.46C207,517.88,212.8,519.44,212.83,520.85Z"/><path class="cls-19" d="M227.73,514.88h6.77c.69-6.76,1.77-17.28,3-28.21.14-1.29.19-12.19.16-13.5a17.21,17.21,0,0,0-2-8c-3.8,1.69-5.93,14.28-9.8,12.6.17,1,.54,10.92.57,11.2C227.38,497.52,226.7,504.67,227.73,514.88Z"/><path class="cls-65" d="M229.2,521.9c0,1.47-4.79,6.26-.91,6.38,9.58.3,10.22.24,9.78-1.1-1.06-3.17-2.83-1.91-3.09-6.6C234.82,517.78,229.25,520.43,229.2,521.9Z"/><path class="cls-19" d="M236.91,476.35c-1.18-.32-10.66,5.55-10.82,4.9-.71-2.87-4.8-42.22-9.34-42.62-8.63-.75,18.81-18.74,20.34-13.25C242.68,445.51,236.91,475.55,236.91,476.35Z"/><path class="cls-19" d="M237.09,425.38c-.75-2.71-7.82.3-13.75,4.13-.15-1.2-.34-2.37-.58-3.52-1.18-5.59-12.81-10.47-15.28-2.17-3.29,11.05-2.67,55.42-2.14,58.33.12.67,9.89-5.49,11-5.1a195.54,195.54,0,0,0,5.69-22.59c2.09,11.43,3.61,25.13,4,26.78.16.66,9.64-5.21,10.82-4.9C236.91,475.55,242.68,445.51,237.09,425.38Z"/><path class="cls-64" d="M222,454.63a1,1,0,0,1-.07-.11c-2.4,4-5.83,16.05-6.75,21.58-1.13,6.77,2.86,8.48,1.65,16.21-.86,5.45-4,17.11-4.83,22.57h1.77c1.7-10.07,3.16-17.08,4.27-25.59,0-.24-1.42-9.19-1.7-12.24A196,196,0,0,0,222,454.63Z"/><path class="cls-64" d="M237.57,472c1.33-9.18,3.89-30.91-.48-46.62-.75-2.71-7.82.3-13.75,4.13-.15-1.2-.34-2.37-.58-3.52-1.18-5.59-12.81-10.47-15.28-2.17-.85,2.86-1.44,8-1.84,14,15.86,5.19,30.66-2,30.5,10.8-.08,6-2.16,34.23-2.25,40.62-.14,8.76.56,17.55-2.72,25.66h3.33c.69-6.76,1.77-17.28,3-28.21.14-1.29.19-12.19.16-13.5C237.61,472.76,237.59,472.37,237.57,472Z"/><path class="cls-66" d="M207.24,422.83l.26-.29c-.5,10.9,1.25,10.75,12.54,11.26s18.45-2.53,18.95-13.43l-11.49.7Z"/><path class="cls-11" d="M213.33,366.26v69c5,.6,11.27,1.16,16.74,1.33v-70.7C224.74,364.85,218.63,365.4,213.33,366.26Z"/><path class="cls-17" d="M213.32,366.87c-2,3.66,5.47,1.71,8.69,1.86s10.16.33,7.38-2.78c-1-1.14-4-4.73-2.54-8.49,2.17-5.61-10.68-8-11-4C215.63,356.63,216.53,360.88,213.32,366.87Z"/><path class="cls-19" d="M239.86,402.93c3.1-28.31-.19-32.09-.19-32.09a16.12,16.12,0,0,0-9.19-4.91c-4.81-1-7.1,4.68-7.59,10.64-.25,3-1.31,5.75-2.19,8.64-1.23,4.07-1.43,8.49-1.53,12.72a131.61,131.61,0,0,0,.27,14.81c.34,3.87.91,7.91.36,11.78a97.42,97.42,0,0,1-2.86,13.81c8.66.89,20.14,1.5,24.69.34C239.65,425.41,239,410.88,239.86,402.93Z"/><path class="cls-19" d="M218.19,421.43c-.15-8.45-3-16.74-2.54-25.22.18-3.42-.68-7.12.32-10.42.88-2.91.77-6.22.65-9.3-.21-5.29-2-5.43-3.21-10.23l-.54.09c-2.05.34-8,3.25-8.95,7.07,0,.15-1.54,60.82-.45,63.16,1.39.37,6.55,1,11.76,1.59A57.46,57.46,0,0,0,218.19,421.43Z"/><path class="cls-64" d="M236.88,376.71,234.45,371l-.34-.19v11.88H218.45L208.19,397l-4.35,0,1.23,8.86c4.15,1.29,7.88,2.37,10,2.77l.11-.1c.28.14.48.14.58,0l24.07-20.48C241.92,384.68,240.25,378.83,236.88,376.71Z"/><path class="cls-19" d="M214.78,404.35c-.55.66-2.14-2-5.14-4.66l.37.21a8.12,8.12,0,0,1-2.76-6.2l21.5-21.87c2.62-3,7.34-4.28,10.34-1.66l1.52,6c3.06,4.71.15,12.25-2.47,15.24Z"/><path class="cls-17" d="M183.06,386.77a2.84,2.84,0,0,1,.29-4.89c1.31-.66,4.12,3.7,6.43,5.28s1.31,2.82,0,3.48S186.26,389.39,183.06,386.77Z"/><path class="cls-19" d="M185.15,390a44.7,44.7,0,0,0,4.73-3.83l31.06,9.08c4.44,1.3,2.52,2.83-.08,4.64l-6.78,4.47C207.57,402,185.15,390,185.15,390Z"/><path class="cls-17" d="M228,350.51c.37,3.08.2,8-4.72,10.16-5.73,2.55-11.24.2-11-2.41.42-5.28,0-16.53,3.94-17C223,340.45,227.33,344.72,228,350.51Z"/><path class="cls-67" d="M212.58,345.92c1-8.59,7.8-7,11.6-6.23,3,.59,7.85,2.57,5.71,10.4a24.16,24.16,0,0,1-1.78,5.08c-1.59.26,1.06-5.91-1.59-6.93-2.88-1.1-6-.65-9.05-.75C213.5,347.34,212.63,346.87,212.58,345.92Z"/><path class="cls-68" d="M224.18,339.68c2.57.5,6.43,2,6.23,7.23-1.13.35-1.53,1.36-2.69,1.59-.41.08-3.29-.25-3.77-.27a21.78,21.78,0,0,0-6.49-.76c-4-.13-5.41-.28-5.46-1.24C210.19,333.35,220.38,339,224.18,339.68Z"/><path class="cls-7" d="M383.78,40a3.06,3.06,0,1,1,4.24-.82A3.06,3.06,0,0,1,383.78,40Zm2.67-3.95a1.71,1.71,0,1,0,.46,2.38A1.72,1.72,0,0,0,386.45,36.09Z"/><path class="cls-69" d="M334.27,37.51a6.28,6.28,0,0,0-9.36-1.84,8.77,8.77,0,0,0-12.49-3.58,14.11,14.11,0,0,0-14.74-6.4,10.35,10.35,0,1,0-20.43-2.34c0,.12,0,.24,0,.35A10.35,10.35,0,0,0,269.7,32a9.31,9.31,0,0,0-12.41,5.48Z"/><circle class="cls-7" cx="565.79" cy="61.21" r="2.91" transform="translate(345.27 585.83) rotate(-73.38)"/><path class="cls-70" d="M265.46,138.82l1.32,1.07a.73.73,0,0,1-.92,1.13L264.54,140a.73.73,0,0,1,.92-1.13Z"/><path class="cls-70" d="M268.86,141.57l1.32,1.07a.73.73,0,0,1-.91,1.13l-1.32-1.07a.73.73,0,1,1,.91-1.13Z"/><path class="cls-70" d="M269.72,138.37a.73.73,0,0,1,.11,1l-1.07,1.32a.73.73,0,1,1-1.13-.92l1.07-1.32A.73.73,0,0,1,269.72,138.37Z"/><path class="cls-70" d="M267,141.77a.73.73,0,0,1,.11,1L266,144.11a.73.73,0,0,1-1.13-.91l1.07-1.32A.73.73,0,0,1,267,141.77Z"/><circle class="cls-70" cx="130.81" cy="101.58" r="4.07" transform="matrix(0.96, -0.29, 0.29, 0.96, -23.59, 41.67)"/><path class="cls-6" d="M460.05,53.69l1.39-1a.73.73,0,1,1,.84,1.19l-1.39,1a.73.73,0,0,1-.84-1.19Z"/><path class="cls-6" d="M463.62,51.16l1.39-1a.73.73,0,1,1,.84,1.19l-1.39,1a.73.73,0,0,1-.84-1.19Z"/><path class="cls-6" d="M460.78,49.46a.73.73,0,0,1,1,.17l1,1.39a.73.73,0,1,1-1.19.84l-1-1.39A.73.73,0,0,1,460.78,49.46Z"/><path class="cls-6" d="M463.3,53a.73.73,0,0,1,1,.18l1,1.39a.73.73,0,1,1-1.19.84l-1-1.39A.73.73,0,0,1,463.3,53Z"/><polygon class="cls-71" points="187.45 62.84 183.51 63.22 181.59 66.67 180.02 63.04 176.13 62.28 179.1 59.66 178.63 55.74 182.03 57.75 185.62 56.08 184.76 59.95 187.45 62.84"/></g></g></svg>