<svg xmlns="http://www.w3.org/2000/svg" viewBox="0 0 70 70" width="70" height="70">
	<defs>
		<linearGradient id="grd1" gradientUnits="userSpaceOnUse"  x1="54.992" y1="23.695" x2="54.992" y2="47.446">
			<stop offset="0" stop-color="#fdcf2d"  />
			<stop offset="1" stop-color="#fea40a"  />
		</linearGradient>
		<linearGradient id="grd2" gradientUnits="userSpaceOnUse"  x1="54.913" y1="26.674" x2="54.913" y2="36.641">
			<stop offset="0" stop-color="#e3e8eb"  />
			<stop offset="1" stop-color="#b8c8cf"  />
		</linearGradient>
		<linearGradient id="grd3" gradientUnits="userSpaceOnUse"  x1="54.92" y1="26.691" x2="54.92" y2="36.645">
			<stop offset="0" stop-color="#e3e8eb"  />
			<stop offset="1" stop-color="#b8c8cf"  />
		</linearGradient>
		<linearGradient id="grd4" gradientUnits="userSpaceOnUse"  x1="23.763" y1="11.771" x2="23.763" y2="47.457">
			<stop offset="0" stop-color="#299eff"  />
			<stop offset="1" stop-color="#2d6ffe"  />
		</linearGradient>
		<linearGradient id="grd5" gradientUnits="userSpaceOnUse"  x1="35.002" y1="42.791" x2="35.002" y2="51.922">
			<stop offset="0" stop-color="#fdcf2d"  />
			<stop offset="1" stop-color="#fea40a"  />
		</linearGradient>
		<linearGradient id="grd6" gradientUnits="userSpaceOnUse"  x1="54.992" y1="45.559" x2="54.992" y2="58.222">
			<stop offset="0" stop-color="#1664bb"  />
			<stop offset="1" stop-color="#1a2fba"  />
		</linearGradient>
		<linearGradient id="grd7" gradientUnits="userSpaceOnUse"  x1="17.815" y1="45.559" x2="17.815" y2="58.23">
			<stop offset="0" stop-color="#1664bb"  />
			<stop offset="1" stop-color="#1a2fba"  />
		</linearGradient>
	</defs>
	<style>
		tspan { white-space:pre }
		.shp0 { fill: url(#grd1) } 
		.shp1 { fill: #84dbff } 
		.shp2 { fill: url(#grd2) } 
		.shp3 { fill: url(#grd3) } 
		.shp4 { fill: url(#grd4) } 
		.shp5 { fill: url(#grd5) } 
		.shp6 { fill: url(#grd6) } 
		.shp7 { fill: #ffffff } 
		.shp8 { fill: url(#grd7) } 
	</style>
	<path id="Layer" class="shp0" d="M57.36 23.7L44.26 23.7L44.26 47.45L65.73 47.45L65.73 36.75L63.22 28.09C62.85 26.83 62.08 25.71 61.03 24.92C59.97 24.12 58.68 23.69 57.36 23.7Z" />
	<path id="Layer" class="shp1" d="M62.59 36.65L60.36 28.95C60.17 28.3 59.77 27.73 59.23 27.32C58.69 26.92 58.03 26.7 57.36 26.69L47.25 26.69L47.25 36.65L62.59 36.65Z" />
	<path id="Layer" class="shp2" d="M62.59 36.64L47.23 36.64L47.23 26.67L62.59 36.64Z" />
	<path id="Layer" class="shp3" d="M62.59 36.65L60.36 28.95C60.17 28.3 59.77 27.73 59.23 27.32C58.69 26.92 58.03 26.7 57.36 26.69L47.25 26.69L62.59 36.65Z" />
	<path id="Layer" class="shp4" d="M7.23 11.77L40.29 11.77C40.81 11.77 41.33 11.87 41.81 12.07C42.29 12.27 42.73 12.57 43.1 12.94C43.47 13.31 43.76 13.74 43.96 14.23C44.16 14.71 44.26 15.23 44.26 15.75L44.26 47.46L3.27 47.46L3.27 15.75C3.27 15.23 3.37 14.71 3.57 14.23C3.77 13.75 4.06 13.31 4.43 12.94C4.79 12.57 5.23 12.27 5.71 12.07C6.2 11.87 6.71 11.77 7.23 11.77Z" />
	<path id="Layer" class="shp5" d="M66.73 47.44L66.73 51.92L3.27 51.92L3.27 47.44L9.9 47.44C10.69 46.03 11.84 44.86 13.24 44.05C14.63 43.23 16.22 42.8 17.83 42.8C19.45 42.8 21.03 43.23 22.43 44.05C23.82 44.86 24.97 46.03 25.76 47.44L47.08 47.44C47.86 46.03 49.01 44.86 50.4 44.04C51.8 43.22 53.38 42.79 55 42.79C56.61 42.79 58.2 43.22 59.59 44.04C60.99 44.86 62.14 46.03 62.92 47.44L66.73 47.44Z" />
	<path id="Layer" class="shp6" d="M61.32 51.89C61.32 53.15 60.95 54.37 60.26 55.41C59.56 56.45 58.57 57.26 57.41 57.74C56.26 58.22 54.98 58.35 53.76 58.1C52.53 57.86 51.4 57.25 50.51 56.37C49.63 55.48 49.03 54.35 48.78 53.13C48.54 51.9 48.66 50.63 49.14 49.47C49.62 48.31 50.43 47.32 51.47 46.63C52.51 45.93 53.74 45.56 54.99 45.56C56.67 45.56 58.28 46.23 59.47 47.41C60.66 48.6 61.32 50.21 61.32 51.89Z" />
	<path id="Layer" class="shp7" d="M57.54 51.89C57.54 52.4 57.39 52.89 57.11 53.31C56.83 53.73 56.43 54.05 55.97 54.25C55.5 54.44 54.99 54.49 54.5 54.39C54 54.29 53.55 54.05 53.19 53.69C52.84 53.34 52.59 52.88 52.5 52.39C52.4 51.9 52.45 51.39 52.64 50.92C52.83 50.46 53.16 50.06 53.58 49.78C54 49.5 54.49 49.35 54.99 49.35C55.67 49.35 56.31 49.62 56.79 50.1C57.27 50.57 57.54 51.22 57.54 51.89Z" />
	<path id="Layer" class="shp8" d="M24.15 51.89C24.15 53.15 23.78 54.37 23.08 55.41C22.39 56.46 21.4 57.27 20.24 57.75C19.08 58.23 17.81 58.35 16.58 58.11C15.35 57.86 14.22 57.26 13.34 56.37C12.45 55.49 11.85 54.36 11.6 53.13C11.36 51.9 11.48 50.63 11.96 49.47C12.44 48.31 13.25 47.32 14.3 46.63C15.34 45.93 16.56 45.56 17.82 45.56C19.5 45.56 21.11 46.23 22.29 47.41C23.48 48.6 24.15 50.21 24.15 51.89Z" />
	<path id="Layer" class="shp7" d="M20.37 51.89C20.37 52.4 20.22 52.89 19.94 53.31C19.66 53.73 19.26 54.05 18.79 54.25C18.33 54.44 17.82 54.49 17.32 54.39C16.83 54.29 16.38 54.05 16.02 53.69C15.67 53.34 15.42 52.88 15.33 52.39C15.23 51.89 15.28 51.38 15.47 50.92C15.67 50.45 15.99 50.06 16.41 49.78C16.83 49.5 17.32 49.35 17.83 49.35C18.16 49.35 18.49 49.42 18.8 49.54C19.11 49.67 19.39 49.86 19.62 50.1C19.86 50.33 20.05 50.61 20.18 50.92C20.3 51.23 20.37 51.56 20.37 51.89" />
</svg>