<svg xmlns="http://www.w3.org/2000/svg" xmlns:xlink="http://www.w3.org/1999/xlink" viewBox="0 0 800 600"><defs><style>.cls-1{isolation:isolate;}.cls-2{fill:url(#linear-gradient);}.cls-3{fill:url(#radial-gradient);}.cls-4{fill:url(#linear-gradient-2);}.cls-5{fill:#3cd3b6;}.cls-6{fill:#5e7ae4;}.cls-7{fill:#41daed;}.cls-8{fill:url(#linear-gradient-3);}.cls-9{fill:url(#linear-gradient-4);}.cls-10{fill:#fff;}.cls-11{fill:#83cfca;}.cls-12{fill:#225d6b;}.cls-13{fill:#00aac4;}.cls-14{fill:url(#linear-gradient-5);}.cls-15{fill:none;}.cls-16,.cls-17{mix-blend-mode:multiply;}.cls-17{fill:#aacaf9;}.cls-18{fill:url(#linear-gradient-6);}.cls-19{fill:#f7c651;}.cls-20{fill:#ffd675;}.cls-21{fill:#738598;}.cls-22{fill:#3c415e;}.cls-23{fill:#faf9f9;}.cls-24{fill:#d5daeb;}.cls-25{fill:#008db8;}.cls-26{fill:#2298c2;}.cls-27{fill:#aa7d00;}.cls-28{fill:#6e5a00;}.cls-29{fill:#ffda32;}.cls-30{fill:#00aeef;}.cls-31{fill:#004372;}.cls-32{fill:#333;}.cls-33{fill:#a67c52;}.cls-34{fill:#ff666a;}.cls-35{fill:#c69c6d;}.cls-36{fill:#00663e;}.cls-37{fill:url(#linear-gradient-7);}.cls-38{fill:#00bb5f;}.cls-39{fill:#4c78ff;}.cls-40{opacity:0.35;}</style><linearGradient id="linear-gradient" x1="314.68" y1="173.93" x2="450.16" y2="173.93" gradientUnits="userSpaceOnUse"><stop offset="0" stop-color="#f6f7fc"/><stop offset="0.31" stop-color="#f3f6fc"/><stop offset="0.51" stop-color="#ebf2fc"/><stop offset="0.68" stop-color="#dcebfc"/><stop offset="0.83" stop-color="#c7e1fc"/><stop offset="0.97" stop-color="#acd4fc"/><stop offset="1" stop-color="#a6d1fc"/></linearGradient><radialGradient id="radial-gradient" cx="339.45" cy="144.85" r="406.16" gradientTransform="translate(-54.31 67.98) scale(1.15 1.1)" xlink:href="#linear-gradient"/><linearGradient id="linear-gradient-2" x1="613.23" y1="123.43" x2="694.61" y2="123.43" xlink:href="#linear-gradient"/><linearGradient id="linear-gradient-3" x1="632.21" y1="324.33" x2="755.55" y2="324.33" xlink:href="#linear-gradient"/><linearGradient id="linear-gradient-4" x1="606.99" y1="306.49" x2="705.87" y2="306.49" gradientUnits="userSpaceOnUse"><stop offset="0" stop-color="#22b8c2"/><stop offset="1" stop-color="#0c5c8e"/></linearGradient><linearGradient id="linear-gradient-5" x1="27.05" y1="289.88" x2="197.32" y2="289.88" xlink:href="#linear-gradient-4"/><linearGradient id="linear-gradient-6" x1="109.15" y1="76.66" x2="206.01" y2="76.66" xlink:href="#linear-gradient"/><linearGradient id="linear-gradient-7" x1="84.98" y1="449.94" x2="116.23" y2="488.19" xlink:href="#linear-gradient-4"/></defs><title>Pickup</title><g class="cls-1"><g id="Layer_4" data-name="Layer 4"><path class="cls-2" d="M450.16,195.5a11.05,11.05,0,0,0-16.47-3.23,15.44,15.44,0,0,0-22-6.3,24.84,24.84,0,0,0-25.94-11.26,18.22,18.22,0,1,0-36-4.12c0,.21,0,.41,0,.62a18.21,18.21,0,0,0-13.31,14.64,16.39,16.39,0,0,0-21.83,9.64Z"/><path class="cls-3" d="M54.44,573.68h640.8c-23.79-43.71-97.18-96.35-96.09-169.15,1.37-91.16,65.48-132.14,57.82-167.85-29.58-137.94-175.45,40.94-350.18-31.21C48.33,98.74,136.61,365.41,78.35,425.35,19.27,486.13,62.5,487.1,54.44,573.68Z"/><path class="cls-4" d="M613.23,136.39a6.64,6.64,0,0,1,9.89-1.94,9.28,9.28,0,0,1,13.21-3.79,14.94,14.94,0,0,1,12.68-7,15.1,15.1,0,0,1,2.9.29,10.94,10.94,0,1,1,21.6-2.48c0,.13,0,.25,0,.37a10.94,10.94,0,0,1,8,8.8,9.85,9.85,0,0,1,13.12,5.8Z"/><circle class="cls-5" cx="523.69" cy="347.24" r="4.89" transform="matrix(0.56, -0.83, 0.83, 0.56, -57.41, 586.3)"/><path class="cls-6" d="M700.42,185.74a6,6,0,1,1-7.48,4A6,6,0,0,1,700.42,185.74Zm-3,9.91a4.32,4.32,0,1,0-2.9-5.38A4.33,4.33,0,0,0,697.47,195.64Z"/><path class="cls-6" d="M584.06,179.13l-2,.65a.92.92,0,1,1-.56-1.74l2-.65a.92.92,0,0,1,.56,1.75Z"/><path class="cls-6" d="M578.83,180.81l-2,.65a.92.92,0,1,1-.56-1.75l2-.65a.92.92,0,0,1,.56,1.75Z"/><path class="cls-6" d="M581.59,183.93a.92.92,0,0,1-1.15-.59l-.65-2a.92.92,0,1,1,1.75-.56l.65,2A.92.92,0,0,1,581.59,183.93Z"/><path class="cls-6" d="M579.91,178.69a.92.92,0,0,1-1.15-.59l-.65-2a.92.92,0,1,1,1.74-.56l.65,2A.92.92,0,0,1,579.91,178.69Z"/><path class="cls-5" d="M513,244.58l1.75-1.23a.92.92,0,1,1,1.06,1.5L514,246.07a.92.92,0,0,1-1.06-1.5Z"/><path class="cls-5" d="M517.45,241.4l1.75-1.23a.92.92,0,0,1,1.06,1.5l-1.75,1.23a.92.92,0,0,1-1.06-1.5Z"/><path class="cls-5" d="M513.88,239.25a.92.92,0,0,1,1.28.22l1.23,1.75a.92.92,0,1,1-1.5,1.06l-1.23-1.75A.92.92,0,0,1,513.88,239.25Z"/><path class="cls-5" d="M517,243.74a.92.92,0,0,1,1.28.22l1.23,1.75a.92.92,0,1,1-1.5,1.06L516.83,245A.92.92,0,0,1,517,243.74Z"/><path class="cls-7" d="M718.09,271.93a5.09,5.09,0,1,1,7.19.21A5.1,5.1,0,0,1,718.09,271.93Zm5.78-5.45a2.86,2.86,0,1,0-.12,4A2.86,2.86,0,0,0,723.87,266.48Z"/><path class="cls-8" d="M755.55,344a10.06,10.06,0,0,0-15-2.94,14.06,14.06,0,0,0-20-5.74A22.62,22.62,0,0,0,696.92,325a16.59,16.59,0,1,0-32.74-3.75c0,.19,0,.38,0,.57a16.58,16.58,0,0,0-12.12,13.33A14.93,14.93,0,0,0,632.21,344Z"/><path class="cls-9" d="M607,334.47l4.67-36.56c.12.09.25.16.36.26,3.88,3.05,7.4,6.41,11,9.6a1.34,1.34,0,0,0,.38.63c2.9,2.72,5.59,5.58,6.72,9.48.8,2.79,1,5.68,1.91,8.46,2.64,8.37,8.56,15.32,17.43,17a1.33,1.33,0,0,0,.52-2.6c-9.61-1.8-14.81-10.47-16.51-19.51a26.89,26.89,0,0,0-2.15-6.78,39.59,39.59,0,0,0,12,5.71c1.65.45,2.16-2.15.52-2.61-13.22-3.65-21.27-14.71-31.75-22.69v-.07a27.26,27.26,0,0,0,7.63-.92c6.24-1.65,13.21-6.91,19.48-2.56,1.39,1,3.18-1,1.78-2-5.2-3.6-10.55-2.32-16.08-.18A36.45,36.45,0,0,1,612.42,292l4-31.43C625,262.86,634,256,651.92,276.6c8,9.24,25.74,31.32,33.05,34.52,7.12,2.59,22,10.26,20.83,18.43-2,13.55-20.86,8.44-27.93,13.66-25.64,18.94-53.52,4.12-62.93-3.48A47,47,0,0,0,607,334.47Z"/><path class="cls-10" d="M612.06,294.78l.36-2.81a36.45,36.45,0,0,0,12.45-2.81c5.53-2.14,10.88-3.43,16.08.18,1.4,1-.4,2.94-1.78,2-6.27-4.35-13.24.9-19.48,2.56A27.26,27.26,0,0,1,612.06,294.78Z"/><path class="cls-10" d="M632,326.34c-.88-2.78-1.11-5.68-1.91-8.46-1.13-3.89-3.82-6.75-6.72-9.48a1.34,1.34,0,0,1-.38-.63c-3.59-3.19-7.11-6.54-11-9.6-.12-.09-.25-.17-.36-.26l.39-3.07c10.48,8,18.53,19,31.75,22.69,1.65.46,1.13,3.06-.52,2.61a39.59,39.59,0,0,1-12-5.71,26.89,26.89,0,0,1,2.15,6.78c1.7,9,6.9,17.71,16.51,19.51a1.33,1.33,0,0,1-.52,2.6C640.59,341.66,634.68,334.71,632,326.34Z"/><path class="cls-11" d="M721.66,226.16c-12.37,29.38-43.9,30.88-55.87,29.16-27.57-4-35.17,15.31-37.4,23.43-1.12,4.06-4.75,9.19-10,13.91L560.3,260.52c2.31-.85,4.62-1.73,6.87-2.66a72.51,72.51,0,0,0,16.53-9.63c1.17-.9,2.3-1.85,3.39-2.84a1.3,1.3,0,0,0,.59-.39c.35-.4.71-.77,1.07-1.14l.58-.54c12.33-11.55,30-3,36.72,11.09.73,1.52,3.25.66,2.51-.88-3.77-7.85-10.37-14.78-18.88-17.4a22,22,0,0,0-13.15-.1c.9-.92,1.8-1.83,2.72-2.71,5.07-4.89,13-7.17,19.56-9.4a63.36,63.36,0,0,1,9.72-2.49h.14a25.39,25.39,0,0,0,4.67-.59,42.91,42.91,0,0,1,8.69.23c4.89.65,9.63,1.73,14.35,2.64a1.32,1.32,0,0,0,.65.35c3.88.86,7.66,1.95,10.62,4.72,2.11,2,3.79,4.36,6,6.3,6.55,5.85,15.19,8.8,23.66,5.69a1.33,1.33,0,0,0-.89-2.5c-9.18,3.36-18.08-1.44-24.16-8.34a26.93,26.93,0,0,0-5.32-4.74,39.6,39.6,0,0,0,13.21-1.2c1.65-.45.76-3-.89-2.51-13.23,3.62-25.81-1.78-38.89-3.28h-.1a27.44,27.44,0,0,0,6.16-4.74c4.51-4.61,7.83-12.69,15.44-12.15,1.68.12,2.23-2.48.52-2.61-6.31-.44-10.25,3.4-13.91,8.07-4.2,5.36-8.89,9.73-15.21,11.36a66,66,0,0,0-12,2.26,87.56,87.56,0,0,0-18.31,7c-5.83,3.16-10.28,8.57-14.8,13.34a26.16,26.16,0,0,0-2.37,2.34,67.77,67.77,0,0,1-15.51,10.42,87.23,87.23,0,0,1-10.28,4.18,29.55,29.55,0,0,0,7.12-19.41,27.88,27.88,0,0,0-1.3-8.26c-1.2-3.93-3.64-7.35-4.28-11.46-1.4-9,8.42-12.45,14.5-16.12,1.47-.88,0-3.07-1.5-2.2-5.2,3.14-11.17,5.24-14.22,10.86-3.8,7,.75,13.26,3,19.8,3.22,9.45,0,20.93-7.62,27.1L536.3,247.23c-1.35-14.65,1.57-29.22,9.15-40.5,28.13-41.86,57.43-21.28,76.71-19.82,12.27.93,13.17-14.66,43.16-4.75,11.63,3.84,38.13,13.78,46,12.79,7.44-1.4,24.18-2.44,27.33,5.2C743.91,212.81,725.07,218.06,721.66,226.16Z"/><path class="cls-12" d="M615.53,225c-5.77,1.93-12,4.2-16.26,8.29-.92.89-1.83,1.8-2.72,2.71a22,22,0,0,1,13.15.1,26.16,26.16,0,0,1,4.4,1.87c.13-.63.25-1.29.4-2A56.46,56.46,0,0,0,615.53,225Z"/><path class="cls-12" d="M599.26,262.56a87.48,87.48,0,0,0-8.84,14.63L560.3,260.52c2.31-.85,4.62-1.73,6.87-2.66a72.51,72.51,0,0,0,16.53-9.63c1.17-.9,2.3-1.85,3.39-2.84a1.3,1.3,0,0,0,.59-.39c.35-.4.71-.77,1.07-1.14l.58-.54c7.3-6.84,16.44-6.61,24.1-2.38a21.44,21.44,0,0,1-3.16,6.94C607.1,253.06,602.89,257.7,599.26,262.56Z"/><path class="cls-12" d="M588.21,240.75a26.16,26.16,0,0,0-2.37,2.34,67.77,67.77,0,0,1-15.51,10.42,87.23,87.23,0,0,1-10.28,4.18,29.55,29.55,0,0,0,7.12-19.41,27.88,27.88,0,0,0-1.3-8.26c-1.2-3.93-3.64-7.35-4.28-11.46-1.4-9,8.42-12.45,14.5-16.12,1.47-.88,0-3.07-1.5-2.2-5.2,3.14-11.17,5.24-14.22,10.86-3.8,7,.75,13.26,3,19.8,3.22,9.45,0,20.93-7.62,27.1L536.3,247.23c-1.35-14.65,1.57-29.22,9.15-40.5,21-31.2,42.58-27.71,60.22-23.31,3.16,10.33,6.42,20.65,8.69,31.23a51.8,51.8,0,0,1,1.07,7.53A77.67,77.67,0,0,0,603,227.41C597.18,230.57,592.73,236,588.21,240.75Z"/><path class="cls-10" d="M673.63,235.08c-2.17-1.94-3.85-4.31-6-6.3-3-2.77-6.73-3.86-10.62-4.72a1.32,1.32,0,0,1-.65-.35c-4.72-.91-9.46-2-14.35-2.64a42.91,42.91,0,0,0-8.69-.23,25.39,25.39,0,0,1-4.67.59h-.14a63.36,63.36,0,0,0-9.72,2.49c-6.55,2.22-14.5,4.51-19.56,9.4-.92.89-1.83,1.8-2.72,2.71a22,22,0,0,1,13.15.1c8.5,2.62,15.11,9.55,18.88,17.4.74,1.55-1.78,2.4-2.51.88-6.76-14.11-24.39-22.63-36.72-11.09l-.58.54c-.36.37-.72.74-1.07,1.14a1.3,1.3,0,0,1-.59.39c-1.1,1-2.22,1.94-3.39,2.84a72.51,72.51,0,0,1-16.53,9.63c-2.25.92-4.56,1.8-6.87,2.66L555.75,258c7.64-6.17,10.83-17.65,7.62-27.1-2.23-6.54-6.78-12.81-3-19.8,3-5.62,9-7.73,14.22-10.86,1.46-.88,3,1.31,1.5,2.2-6.09,3.66-15.9,7.08-14.5,16.12.63,4.12,3.08,7.54,4.28,11.46a27.88,27.88,0,0,1,1.3,8.26,29.55,29.55,0,0,1-7.12,19.41,87.23,87.23,0,0,0,10.28-4.18,67.77,67.77,0,0,0,15.51-10.42,26.16,26.16,0,0,1,2.37-2.34c4.52-4.76,9-10.18,14.8-13.34a87.56,87.56,0,0,1,18.31-7,66,66,0,0,1,12-2.26c6.32-1.62,11-6,15.21-11.36,3.66-4.67,7.6-8.51,13.91-8.07,1.7.12,1.16,2.73-.52,2.61-7.61-.54-10.93,7.54-15.44,12.15a27.44,27.44,0,0,1-6.16,4.74h.1c13.08,1.5,25.66,6.9,38.89,3.28,1.65-.45,2.54,2.05.89,2.51a39.6,39.6,0,0,1-13.21,1.2,26.93,26.93,0,0,1,5.32,4.74c6.08,6.91,15,11.7,24.16,8.34a1.33,1.33,0,0,1,.89,2.5C688.82,243.87,680.18,240.92,673.63,235.08Z"/><path class="cls-13" d="M571.89,266.93l-29.22-16.17c1.89-1.4,3.79-2.77,5.66-4.16a1.31,1.31,0,0,0,.7-.25c3.25-2.29,6.6-4.34,10.64-4.65,2.89-.22,5.78.14,8.68-.16,8.73-.89,16.74-5.28,20.17-13.63a1.33,1.33,0,0,0-2.45-1c-3.71,9-13.26,12.38-22.46,12.21a27,27,0,0,0-7.08.73,39.64,39.64,0,0,0,8-10.56c.78-1.53-1.67-2.56-2.45-1-4.89,9.55-13.59,15.08-21.9,21.18l-6.27-3.47c-.66-6.22-3.68-13.53,1.54-18.49,1.22-1.16-.33-3.32-1.57-2.14-4.58,4.36-4.41,9.86-3.43,15.71.18,1.09.32,2.17.44,3.25l-26.14-14.47c2.24-5.22,7-11.11,18.89-17.81,10.68-6,35.89-18.86,40.5-25.37,4-6.44,14.51-19.5,22.28-16.66,12.87,4.69,4,22.14,7.72,30.12C607.51,229,587.35,253.31,578,261A48,48,0,0,0,571.89,266.93Z"/><path class="cls-10" d="M533.94,245.93l-3-1.67c-.12-1.07-.26-2.15-.44-3.25-1-5.85-1.15-11.35,3.43-15.71,1.24-1.17,2.79,1,1.57,2.14C530.27,232.4,533.29,239.71,533.94,245.93Z"/><path class="cls-10" d="M568.35,241.54c-2.9.29-5.78-.06-8.68.16-4,.32-7.39,2.37-10.64,4.65a1.31,1.31,0,0,1-.7.25c-1.87,1.39-3.77,2.76-5.66,4.16l-2.46-1.36c8.31-6.1,17-11.63,21.9-21.18.78-1.52,3.23-.49,2.45,1a39.64,39.64,0,0,1-8,10.56,27,27,0,0,1,7.08-.73c9.2.17,18.74-3.16,22.46-12.21a1.33,1.33,0,0,1,2.45,1C585.09,236.26,577.08,240.64,568.35,241.54Z"/><path class="cls-11" d="M201,214.31,181.65,249.4c-.08-.14-.18-.26-.27-.4-2.7-4.64-4.92-9.43-7.27-14.09a1.46,1.46,0,0,0-.13-.79c-1.84-3.91-3.42-7.88-3-12.26.3-3.14,1.22-6.16,1.45-9.32.67-9.52-2.53-18.9-10.84-24.13a1.44,1.44,0,0,0-1.56,2.42c9,5.66,10.79,16.5,8.89,26.32a29.23,29.23,0,0,0-.54,7.72,43,43,0,0,0-9.81-10.56c-1.49-1.12-3,1.31-1.57,2.43,11.9,9,15.63,23.36,23,35.61l0,.06a29.64,29.64,0,0,0-8.08-2.11c-7-.82-16.11,1.7-20.71-5.2-1-1.53-3.61-.26-2.59,1.28,3.81,5.72,9.74,6.56,16.18,6.6a39.61,39.61,0,0,1,13.7,2.13l-16.61,30.16c-7.77-5.79-19.57-2.42-29.44-30.4-4.43-12.54-13.51-41.94-19.62-48.09-6.16-5.47-18.17-19.17-13.69-27,7.42-12.9,24.45-.19,33.68-2.65,33.48-8.9,55.73,17.22,62.21,28.65A51,51,0,0,0,201,214.31Z"/><path class="cls-10" d="M180,252.41l-1.49,2.7A39.61,39.61,0,0,0,164.8,253c-6.45,0-12.37-.88-16.18-6.6-1-1.55,1.57-2.81,2.59-1.28,4.6,6.9,13.75,4.38,20.71,5.2A29.64,29.64,0,0,1,180,252.41Z"/><path class="cls-10" d="M172.42,212.53c-.23,3.16-1.14,6.18-1.45,9.32-.41,4.39,1.16,8.35,3,12.26a1.46,1.46,0,0,1,.13.79c2.35,4.66,4.57,9.45,7.27,14.09.08.14.18.27.27.4L180,252.34c-7.4-12.25-11.13-26.65-23-35.61-1.48-1.12.08-3.55,1.57-2.43a43,43,0,0,1,9.81,10.56,29.23,29.23,0,0,1,.54-7.72c1.9-9.82.1-20.66-8.89-26.32a1.44,1.44,0,0,1,1.56-2.42C169.89,193.63,173.09,203,172.42,212.53Z"/><path class="cls-14" d="M62,207.79c33.81-7.54,55,19.45,61,31.14,13.83,26.93,35.7,21.52,44.31,18.38,4.3-1.56,11.13-1.58,18.62.1L194,329.1c-2.21-1.51-4.44-3-6.68-4.41a78.82,78.82,0,0,0-18.93-8.58c-1.54-.47-3.09-.87-4.65-1.22a1.41,1.41,0,0,0-.72-.28c-.57-.06-1.13-.14-1.68-.23l-.84-.17c-18-3.65-21.54-24.64-13.3-39.51.89-1.61-1.46-3.3-2.36-1.67-4.58,8.28-6.56,18.49-3.53,27.68a24,24,0,0,0,8.19,11.71c-1.37-.22-2.75-.45-4.12-.7-7.52-1.41-14.54-7-20.64-11.41a68.85,68.85,0,0,1-8.33-7l-.08-.14a27.64,27.64,0,0,0-3.46-3.76,46.63,46.63,0,0,1-5.27-7.85c-2.51-4.74-4.53-9.62-6.7-14.37a1.43,1.43,0,0,0-.1-.8c-1.68-4-3.1-8-2.51-12.37.43-3.12,1.47-6.1,1.82-9.25,1.06-9.48-1.77-19-9.85-24.55a1.44,1.44,0,0,0-1.66,2.36c8.76,6,10.11,16.92,7.82,26.65a29.28,29.28,0,0,0-.85,7.69,43,43,0,0,0-9.38-10.95c-1.44-1.18-3.1,1.19-1.66,2.36,11.53,9.44,14.67,24,21.58,36.52a.52.52,0,0,1,.06.1,29.83,29.83,0,0,0-8.08-2.48c-6.92-1.1-16.17,1-20.48-6-1-1.57-3.6-.41-2.64,1.18,3.58,5.86,9.46,6.94,15.9,7.25,7.39.35,14.22,1.74,19.64,6.32a71.7,71.7,0,0,0,9.53,9.16,95.2,95.2,0,0,0,17.75,11.8c6.47,3.17,14.07,3.71,21.13,4.71a28.46,28.46,0,0,0,3.57.62,73.66,73.66,0,0,1,19,7.18,94.92,94.92,0,0,1,10.17,6.48c-7.46-.88-15.33,1.48-21.68,5.91a30.31,30.31,0,0,0-6.5,6.35c-2.72,3.53-4.22,7.85-7.46,11-7.13,6.93-16.33.38-23.41-2.7-1.71-.75-2.7,2-1,2.71,6.05,2.64,11.68,6.59,18.57,5.76,8.58-1,11.27-9,15.66-15.1,6.34-8.8,18.52-13.2,28.8-10.32l2.71,24c-12.13,10.42-26.88,17-41.63,17.39-54.79,1.44-55-37.47-65.86-55.48-6.9-11.45-21.28-2.44-31.38-35.24-3.92-12.72-11.8-42.46-17.66-48.84-5.93-5.71-17.38-19.88-12.59-27.48C36.13,196.49,52.63,209.87,62,207.79Z"/><path class="cls-10" d="M100.09,244.72c-.35,3.15-1.39,6.13-1.82,9.25-.59,4.37.82,8.39,2.51,12.37a1.43,1.43,0,0,1,.1.8c2.17,4.75,4.19,9.63,6.7,14.37a46.63,46.63,0,0,0,5.27,7.85,27.64,27.64,0,0,1,3.46,3.76l.08.14a68.85,68.85,0,0,0,8.33,7c6.1,4.4,13.12,10,20.64,11.41,1.36.26,2.74.49,4.12.7a24,24,0,0,1-8.19-11.71c-3-9.18-1.06-19.39,3.53-27.68.91-1.63,3.25.06,2.36,1.67-8.24,14.87-4.69,35.86,13.3,39.51l.84.17c.55.09,1.11.17,1.68.23a1.41,1.41,0,0,1,.72.28c1.56.35,3.12.75,4.65,1.22a78.82,78.82,0,0,1,18.93,8.58c2.24,1.41,4.47,2.9,6.68,4.41l.63,5.62c-10.28-2.89-22.46,1.52-28.8,10.32-4.39,6.09-7.08,14.07-15.66,15.1-6.89.84-12.52-3.12-18.57-5.76-1.7-.74-.7-3.45,1-2.71,7.08,3.08,16.28,9.63,23.41,2.7,3.25-3.15,4.74-7.47,7.46-11a30.31,30.31,0,0,1,6.5-6.35c6.35-4.43,14.22-6.79,21.68-5.91a94.92,94.92,0,0,0-10.17-6.48,73.66,73.66,0,0,0-19-7.18,28.46,28.46,0,0,1-3.57-.62c-7.07-1-14.66-1.54-21.13-4.71A95.2,95.2,0,0,1,120,300.31a71.7,71.7,0,0,1-9.53-9.16c-5.42-4.58-12.24-6-19.64-6.32-6.44-.3-12.32-1.38-15.9-7.25-1-1.59,1.69-2.74,2.64-1.18,4.31,7.08,13.56,4.93,20.48,6a29.83,29.83,0,0,1,8.08,2.48.52.52,0,0,0-.06-.1c-6.9-12.54-10-27.08-21.58-36.52-1.43-1.18.22-3.54,1.66-2.36a43,43,0,0,1,9.38,10.95,29.28,29.28,0,0,1,.85-7.69c2.29-9.73.94-20.63-7.82-26.65a1.44,1.44,0,0,1,1.66-2.36C98.32,225.73,101.15,235.24,100.09,244.72Z"/><circle class="cls-15" cx="205.43" cy="305.09" r="11.95" transform="translate(-32.91 24.96) rotate(-6.44)"/><g class="cls-16"><path class="cls-15" d="M203.19,308.05a8.52,8.52,0,0,1-8.93,1.25A11.92,11.92,0,0,0,212,315.05a30.11,30.11,0,0,0-3.24-4.14c-1-1.05-2.21-2.61-3.57-3.27-.6-.29-.61-.63-.52-.83A11.16,11.16,0,0,1,203.19,308.05Z"/></g><path class="cls-17" d="M45.33,190.92a21.2,21.2,0,0,0-2.73-.18C39.3,190.74,40.61,190.8,45.33,190.92Z"/><path class="cls-6" d="M268.32,95.26a3.84,3.84,0,1,1,5.34-1A3.85,3.85,0,0,1,268.32,95.26Zm3.36-5a2.16,2.16,0,1,0,.58,3A2.16,2.16,0,0,0,271.68,90.29Z"/><path class="cls-18" d="M206,92.08a7.9,7.9,0,0,0-11.77-2.31,11,11,0,0,0-15.72-4.5,17.76,17.76,0,0,0-18.55-8,13,13,0,1,0-25.71-2.95c0,.15,0,.3,0,.45a13,13,0,0,0-9.52,10.47,11.72,11.72,0,0,0-15.61,6.9Z"/><circle class="cls-6" cx="497.35" cy="121.9" r="3.66" transform="translate(238.26 563.59) rotate(-73.38)"/><path class="cls-19" d="M119.43,219.57l1.66,1.34a.92.92,0,0,1-1.15,1.43L118.27,221a.92.92,0,0,1,1.15-1.43Z"/><path class="cls-19" d="M123.7,223l1.66,1.34a.92.92,0,0,1-1.15,1.43l-1.66-1.34A.92.92,0,1,1,123.7,223Z"/><path class="cls-19" d="M124.79,219a.92.92,0,0,1,.14,1.29L123.59,222a.92.92,0,1,1-1.43-1.15l1.34-1.66A.91.91,0,0,1,124.79,219Z"/><path class="cls-19" d="M121.34,223.28a.92.92,0,0,1,.14,1.29l-1.34,1.66a.92.92,0,0,1-1.43-1.15l1.34-1.66A.92.92,0,0,1,121.34,223.28Z"/><circle class="cls-19" cx="34.01" cy="172.7" r="5.12" transform="translate(-47.99 16.95) rotate(-16.62)"/><path class="cls-5" d="M364.29,112.44,366,111.2a.92.92,0,1,1,1.06,1.5l-1.75,1.23a.92.92,0,0,1-1.06-1.5Z"/><path class="cls-5" d="M368.79,109.27l1.75-1.23a.92.92,0,1,1,1.06,1.5l-1.75,1.23a.92.92,0,0,1-1.06-1.5Z"/><path class="cls-5" d="M365.21,107.12a.92.92,0,0,1,1.28.22l1.23,1.75a.92.92,0,1,1-1.5,1.06L365,108.39A.92.92,0,0,1,365.21,107.12Z"/><path class="cls-5" d="M368.38,111.61a.92.92,0,0,1,1.28.22l1.23,1.75a.92.92,0,1,1-1.5,1.06l-1.23-1.75A.92.92,0,0,1,368.38,111.61Z"/><polygon class="cls-20" points="21.27 123.96 16.31 124.43 13.89 128.78 11.91 124.21 7.03 123.25 10.76 119.96 10.16 115.02 14.45 117.55 18.96 115.45 17.88 120.31 21.27 123.96"/><polygon class="cls-21" points="710.75 515.67 725.32 571.54 769.69 571.54 783.1 515.67 710.75 515.67"/><path class="cls-11" d="M781.75,447.71A17.52,17.52,0,0,0,774,433.16a15.33,15.33,0,0,0-12-24.91c-.22,0-.44,0-.66,0a15.35,15.35,0,1,0-29.38,0c-.22,0-.44,0-.66,0a15.33,15.33,0,0,0-12,24.91,17.54,17.54,0,0,0,0,29.1,15.33,15.33,0,0,0,12,24.91H762a15.33,15.33,0,0,0,12-24.91A17.52,17.52,0,0,0,781.75,447.71Z"/><path class="cls-22" d="M763.57,437.39a2.19,2.19,0,0,0-3.1,0L748.86,449V417a2.19,2.19,0,1,0-4.38,0v15.53l-10-10a2.19,2.19,0,0,0-3.1,3.1l13.06,13.06v30l-9.41-9.41a2.19,2.19,0,0,0-3.1,3.1l12.51,12.51v40.75a2.19,2.19,0,0,0,4.38,0V455a2.11,2.11,0,0,0,.45-.3l14.25-14.25a2.19,2.19,0,0,0,0-3.1Z"/><path class="cls-22" d="M783.94,517.86H709.4a2.19,2.19,0,0,1,0-4.38h74.54a2.19,2.19,0,0,1,0,4.38Z"/><rect class="cls-23" x="223.82" y="273.98" width="357.16" height="219.79"/><path class="cls-22" d="M576.8,246.5H228a31.64,31.64,0,0,0-31.64,31.57v250a6.86,6.86,0,0,0,6.87,6.87H601.59a6.86,6.86,0,0,0,6.87-6.87v-250A31.64,31.64,0,0,0,576.8,246.5Zm-353,240.39V280.84a6.87,6.87,0,0,1,6.87-6.87H574.11a6.87,6.87,0,0,1,6.87,6.87V486.9a6.87,6.87,0,0,1-6.87,6.87H230.69A6.87,6.87,0,0,1,223.82,486.9Z"/><path class="cls-21" d="M615.32,521.24H189.48a6.86,6.86,0,0,0-6.87,6.87h0a27.53,27.53,0,0,0,27.5,27.5H594.69a27.53,27.53,0,0,0,27.5-27.5h0A6.86,6.86,0,0,0,615.32,521.24Z"/><path class="cls-24" d="M374.93,535h54.95a13.74,13.74,0,0,0,13.74-13.74H361.19A13.74,13.74,0,0,0,374.93,535Z"/><path class="cls-25" d="M362.44,342h0a20,20,0,0,1-20-20V304.14h40v17.91A20,20,0,0,1,362.44,342Z"/><path class="cls-25" d="M442.36,342h0a20,20,0,0,1-20-20V304.14h40v17.91A20,20,0,0,1,442.36,342Z"/><path class="cls-25" d="M282.52,342h0a20,20,0,0,1-20-20V304.14h40v17.91A20,20,0,0,1,282.52,342Z"/><path class="cls-25" d="M202.6,342h0a20,20,0,0,1-20-20V304.14h40v17.91A20,20,0,0,1,202.6,342Z"/><path class="cls-25" d="M522.28,342h0a20,20,0,0,1-20-20V304.14h40v17.91A20,20,0,0,1,522.28,342Z"/><path class="cls-24" d="M322.48,342h0a20,20,0,0,1-20-20V304.14h40v17.91A20,20,0,0,1,322.48,342Z"/><path class="cls-24" d="M482.32,342h0a20,20,0,0,1-20-20V304.14h40v17.91A20,20,0,0,1,482.32,342Z"/><path class="cls-25" d="M602.21,342h0a20,20,0,0,1-20-20V304.14h40v17.91A20,20,0,0,1,602.21,342Z"/><path class="cls-24" d="M562.25,342h0a20,20,0,0,1-20-20V304.14h40v17.91A20,20,0,0,1,562.25,342Z"/><path class="cls-24" d="M242.56,342h0a20,20,0,0,1-20-20V304.14h40v17.91A20,20,0,0,1,242.56,342Z"/><path class="cls-24" d="M402.4,342h0a20,20,0,0,1-20-20V304.14h40v17.91A20,20,0,0,1,402.4,342Z"/><polygon class="cls-26" points="382.42 304.14 342.46 304.14 346.6 243.51 383.8 243.51 382.42 304.14"/><polygon class="cls-26" points="462.34 304.14 422.38 304.14 421 243.51 458.21 243.51 462.34 304.14"/><polygon class="cls-26" points="302.5 304.14 262.54 304.14 272.19 243.51 309.39 243.51 302.5 304.14"/><polygon class="cls-26" points="222.58 304.14 182.62 304.14 197.78 243.51 234.98 243.51 222.58 304.14"/><polygon class="cls-26" points="542.26 304.14 502.3 304.14 495.42 243.51 532.62 243.51 542.26 304.14"/><polygon class="cls-23" points="342.46 304.14 302.5 304.14 309.39 243.51 346.6 243.51 342.46 304.14"/><polygon class="cls-23" points="502.3 304.14 462.34 304.14 458.21 243.51 495.42 243.51 502.3 304.14"/><polygon class="cls-26" points="622.19 304.14 582.23 304.14 569.82 243.51 607.03 243.51 622.19 304.14"/><polygon class="cls-23" points="582.23 304.14 542.26 304.14 532.62 243.51 569.82 243.51 582.23 304.14"/><polygon class="cls-23" points="262.54 304.14 222.58 304.14 234.98 243.51 272.19 243.51 262.54 304.14"/><polygon class="cls-23" points="422.38 304.14 382.42 304.14 383.8 243.51 421 243.51 422.38 304.14"/><path class="cls-22" d="M207.27,224.4H597.53a10.94,10.94,0,0,1,10.94,10.94v9a0,0,0,0,1,0,0H196.33a0,0,0,0,1,0,0v-9A10.94,10.94,0,0,1,207.27,224.4Z"/><rect class="cls-27" x="317.16" y="446.85" width="60.75" height="60.75"/><rect class="cls-28" x="317.16" y="446.85" width="60.75" height="3.2"/><rect class="cls-28" x="317.16" y="475.63" width="60.75" height="3.2"/><rect class="cls-28" x="317.16" y="461.24" width="60.75" height="3.2"/><rect class="cls-28" x="317.16" y="490.02" width="60.75" height="3.2"/><rect class="cls-28" x="317.16" y="504.41" width="60.75" height="3.2"/><path class="cls-29" d="M304.37,445.26v-9.59a1.6,1.6,0,0,1,1.6-1.6H389.1a1.6,1.6,0,0,1,1.6,1.6v9.59a1.6,1.6,0,0,1-1.6,1.6H306A1.6,1.6,0,0,1,304.37,445.26Z"/><rect class="cls-27" x="315.56" y="434.06" width="4.8" height="12.79"/><rect class="cls-27" x="374.72" y="434.06" width="4.8" height="12.79"/><path class="cls-29" d="M304.37,518.8V509.2a1.6,1.6,0,0,1,1.6-1.6H389.1a1.6,1.6,0,0,1,1.6,1.6v9.59a1.6,1.6,0,0,1-1.6,1.6H306A1.6,1.6,0,0,1,304.37,518.8Z"/><rect class="cls-27" x="315.56" y="507.6" width="4.8" height="12.79"/><rect class="cls-27" x="374.72" y="507.6" width="4.8" height="12.79"/><path class="cls-29" d="M315.56,520.39H306a1.6,1.6,0,0,1-1.6-1.6V435.66a1.6,1.6,0,0,1,1.6-1.6h9.59a1.6,1.6,0,0,1,1.6,1.6V518.8A1.6,1.6,0,0,1,315.56,520.39Z"/><path class="cls-29" d="M389.1,520.39h-9.59a1.6,1.6,0,0,1-1.6-1.6V435.66a1.6,1.6,0,0,1,1.6-1.6h9.59a1.6,1.6,0,0,1,1.6,1.6V518.8A1.6,1.6,0,0,1,389.1,520.39Z"/><circle class="cls-28" cx="310.77" cy="440.46" r="1.6"/><circle class="cls-28" cx="310.77" cy="514" r="1.6"/><circle class="cls-28" cx="384.31" cy="440.46" r="1.6"/><circle class="cls-28" cx="384.31" cy="514" r="1.6"/><circle class="cls-28" cx="373.12" cy="498.81" r="1.6"/><circle class="cls-28" cx="373.12" cy="484.42" r="1.6"/><circle class="cls-28" cx="373.12" cy="470.04" r="1.6"/><circle class="cls-28" cx="373.12" cy="455.65" r="1.6"/><circle class="cls-28" cx="322.76" cy="498.81" r="1.6"/><circle class="cls-28" cx="322.76" cy="484.42" r="1.6"/><circle class="cls-28" cx="322.76" cy="470.04" r="1.6"/><circle class="cls-28" cx="322.76" cy="455.65" r="1.6"/><rect class="cls-27" x="352.41" y="360.3" width="60.75" height="60.75"/><rect class="cls-28" x="352.41" y="360.3" width="60.75" height="3.2"/><rect class="cls-28" x="352.41" y="389.08" width="60.75" height="3.2"/><rect class="cls-28" x="352.41" y="374.69" width="60.75" height="3.2"/><rect class="cls-28" x="352.41" y="403.46" width="60.75" height="3.2"/><rect class="cls-28" x="352.41" y="417.85" width="60.75" height="3.2"/><path class="cls-29" d="M339.62,358.7v-9.59a1.6,1.6,0,0,1,1.6-1.6h83.13a1.6,1.6,0,0,1,1.6,1.6v9.59a1.6,1.6,0,0,1-1.6,1.6H341.22A1.6,1.6,0,0,1,339.62,358.7Z"/><rect class="cls-27" x="350.81" y="347.51" width="4.8" height="12.79"/><rect class="cls-27" x="409.96" y="347.51" width="4.8" height="12.79"/><path class="cls-29" d="M339.62,432.24v-9.59a1.6,1.6,0,0,1,1.6-1.6h83.13a1.6,1.6,0,0,1,1.6,1.6v9.59a1.6,1.6,0,0,1-1.6,1.6H341.22A1.6,1.6,0,0,1,339.62,432.24Z"/><rect class="cls-27" x="350.81" y="421.05" width="4.8" height="12.79"/><rect class="cls-27" x="409.96" y="421.05" width="4.8" height="12.79"/><path class="cls-29" d="M350.81,433.84h-9.59a1.6,1.6,0,0,1-1.6-1.6V349.11a1.6,1.6,0,0,1,1.6-1.6h9.59a1.6,1.6,0,0,1,1.6,1.6v83.13A1.6,1.6,0,0,1,350.81,433.84Z"/><path class="cls-29" d="M424.35,433.84h-9.59a1.6,1.6,0,0,1-1.6-1.6V349.11a1.6,1.6,0,0,1,1.6-1.6h9.59a1.6,1.6,0,0,1,1.6,1.6v83.13A1.6,1.6,0,0,1,424.35,433.84Z"/><circle class="cls-28" cx="346.02" cy="353.9" r="1.6"/><circle class="cls-28" cx="346.02" cy="427.44" r="1.6"/><circle class="cls-28" cx="419.56" cy="353.9" r="1.6"/><circle class="cls-28" cx="419.56" cy="427.44" r="1.6"/><circle class="cls-28" cx="408.37" cy="412.26" r="1.6"/><circle class="cls-28" cx="408.37" cy="397.87" r="1.6"/><circle class="cls-28" cx="408.37" cy="383.48" r="1.6"/><circle class="cls-28" cx="408.37" cy="369.09" r="1.6"/><circle class="cls-28" cx="358.01" cy="412.26" r="1.6"/><circle class="cls-28" cx="358.01" cy="397.87" r="1.6"/><circle class="cls-28" cx="358.01" cy="383.48" r="1.6"/><circle class="cls-28" cx="358.01" cy="369.09" r="1.6"/><rect class="cls-27" x="422.91" y="447.25" width="60.75" height="60.75"/><rect class="cls-28" x="422.91" y="447.25" width="60.75" height="3.2"/><rect class="cls-28" x="422.91" y="476.02" width="60.75" height="3.2"/><rect class="cls-28" x="422.91" y="461.63" width="60.75" height="3.2"/><rect class="cls-28" x="422.91" y="490.41" width="60.75" height="3.2"/><rect class="cls-28" x="422.91" y="504.8" width="60.75" height="3.2"/><path class="cls-29" d="M410.12,445.65v-9.59a1.6,1.6,0,0,1,1.6-1.6h83.13a1.6,1.6,0,0,1,1.6,1.6v9.59a1.6,1.6,0,0,1-1.6,1.6H411.72A1.6,1.6,0,0,1,410.12,445.65Z"/><rect class="cls-27" x="421.31" y="434.46" width="4.8" height="12.79"/><rect class="cls-27" x="480.46" y="434.46" width="4.8" height="12.79"/><path class="cls-29" d="M410.12,519.19v-9.59a1.6,1.6,0,0,1,1.6-1.6h83.13a1.6,1.6,0,0,1,1.6,1.6v9.59a1.6,1.6,0,0,1-1.6,1.6H411.72A1.6,1.6,0,0,1,410.12,519.19Z"/><rect class="cls-27" x="421.31" y="508" width="4.8" height="12.79"/><rect class="cls-27" x="480.46" y="508" width="4.8" height="12.79"/><path class="cls-29" d="M421.31,520.79h-9.59a1.6,1.6,0,0,1-1.6-1.6V436.05a1.6,1.6,0,0,1,1.6-1.6h9.59a1.6,1.6,0,0,1,1.6,1.6v83.13A1.6,1.6,0,0,1,421.31,520.79Z"/><path class="cls-29" d="M494.85,520.79h-9.59a1.6,1.6,0,0,1-1.6-1.6V436.05a1.6,1.6,0,0,1,1.6-1.6h9.59a1.6,1.6,0,0,1,1.6,1.6v83.13A1.6,1.6,0,0,1,494.85,520.79Z"/><circle class="cls-28" cx="416.51" cy="440.85" r="1.6"/><circle class="cls-28" cx="416.51" cy="514.39" r="1.6"/><circle class="cls-28" cx="490.05" cy="440.85" r="1.6"/><circle class="cls-28" cx="490.05" cy="514.39" r="1.6"/><circle class="cls-28" cx="478.86" cy="499.2" r="1.6"/><circle class="cls-28" cx="478.86" cy="484.82" r="1.6"/><circle class="cls-28" cx="478.86" cy="470.43" r="1.6"/><circle class="cls-28" cx="478.86" cy="456.04" r="1.6"/><circle class="cls-28" cx="428.5" cy="499.2" r="1.6"/><circle class="cls-28" cx="428.5" cy="484.82" r="1.6"/><circle class="cls-28" cx="428.5" cy="470.43" r="1.6"/><circle class="cls-28" cx="428.5" cy="456.04" r="1.6"/><path class="cls-30" d="M166.91,489.85l30.15-50.24a10,10,0,0,1,8.62-4.88H276a10.05,10.05,0,0,1,10,10V545.25a10.05,10.05,0,0,1-10,10H175.53a10.05,10.05,0,0,1-10-10V495A9.9,9.9,0,0,1,166.91,489.85Z"/><polygon class="cls-24" points="245.87 454.82 211.37 454.82 187.25 495.01 245.87 495.01 245.87 454.82"/><path class="cls-31" d="M276,394.53H416.7a10,10,0,0,1,10,10v10H477a10,10,0,1,1,0,20.1H411a10,10,0,1,0,0,20.1h45.85a10,10,0,1,1,0,20.1H393.77a10,10,0,1,0,0,20.1h43a10,10,0,1,1,0,20.1h-10v30.15a10,10,0,0,1-10,10H266V404.57A10,10,0,0,1,276,394.53Z"/><circle class="cls-24" cx="215.73" cy="545.25" r="20.1"/><path class="cls-32" d="M185.58,545.25a30.15,30.15,0,1,1,30.15,30.15A30.18,30.18,0,0,1,185.58,545.25Zm20.1,0a10,10,0,1,0,10-10A10.08,10.08,0,0,0,205.68,545.25Z"/><path class="cls-30" d="M259.69,555.3h157a10.05,10.05,0,0,0,10-10V515.11H259.69Z"/><circle class="cls-24" cx="356.41" cy="545.25" r="20.1"/><path class="cls-32" d="M326.26,545.25a30.15,30.15,0,1,1,30.15,30.15A30.18,30.18,0,0,1,326.26,545.25Zm20.1,0a10,10,0,1,0,10-10A10.07,10.07,0,0,0,346.36,545.25Z"/><polygon class="cls-33" points="648.24 443.23 647.21 441.17 642.19 444.08 645.1 446.72 648.24 443.23"/><path class="cls-34" d="M666.47,463.86a11.73,11.73,0,0,0-.61-2.23c-1.23-3.22-5-12.16-9.94-15.17-6.08-3.7-6.08-4.23-9.51-2.38s-3.7,4-3.7,4l-2.38,51,32.24-2.38S670.27,486.42,666.47,463.86Z"/><path class="cls-22" d="M640.34,499l-7,27.87a7.68,7.68,0,0,0,.6,5.34l15.88,31.27,5.81-1.85L644.3,528.37l9-17.7,3.52,15.18a7.68,7.68,0,0,0,5.39,5.21L695,539.74v-6.87l-27.48-10L671,496.66Z"/><path class="cls-32" d="M695,532.87v6.87l5.45,9.08a1.54,1.54,0,0,0,2.86-.67l1.08-13.62a1.54,1.54,0,0,0-1.54-1.66Z"/><path class="cls-32" d="M649.06,563l-8,9.66a1.37,1.37,0,0,0,1.33,2.22l15-3.12a1.37,1.37,0,0,0,1-1.75l-2.73-8.86Z"/><path class="cls-35" d="M647.37,441.75s2-2.27.78-6.51-3.63-7.57-6.66-7.26-9.68,1.82-8.47,7,6.66,10.59,9.38,9.38A49.36,49.36,0,0,0,647.37,441.75Z"/><path class="cls-32" d="M648.27,440.12s4-5.28,2.91-11.36-7.66-8.19-13.74-5.55-5.55,5.55-12.16,6.34c0,0,5,5.55,9.51,3.7s6.34-5.81,7.4-5,.79,5.28.79,5.28,1.32-2.64,3.44-1.06S648.27,440.12,648.27,440.12Z"/><rect class="cls-27" x="641.62" y="467.72" width="32.2" height="32.2"/><rect class="cls-28" x="641.62" y="467.72" width="32.2" height="1.69"/><rect class="cls-28" x="641.62" y="482.97" width="32.2" height="1.69"/><rect class="cls-28" x="641.62" y="475.34" width="32.2" height="1.7"/><rect class="cls-28" x="641.62" y="490.6" width="32.2" height="1.69"/><rect class="cls-28" x="641.62" y="498.23" width="32.2" height="1.69"/><path class="cls-29" d="M680.61,466.87v-5.08a.85.85,0,0,0-.85-.85H635.69a.85.85,0,0,0-.85.85v5.08a.85.85,0,0,0,.85.85h44.07A.85.85,0,0,0,680.61,466.87Z"/><rect class="cls-27" x="672.13" y="460.94" width="2.54" height="6.78"/><rect class="cls-27" x="640.78" y="460.94" width="2.54" height="6.78"/><path class="cls-29" d="M680.61,505.85v-5.08a.85.85,0,0,0-.85-.85H635.69a.85.85,0,0,0-.85.85v5.08a.85.85,0,0,0,.85.85h44.07A.85.85,0,0,0,680.61,505.85Z"/><rect class="cls-27" x="672.13" y="499.92" width="2.54" height="6.78"/><rect class="cls-27" x="640.78" y="499.92" width="2.54" height="6.78"/><path class="cls-29" d="M674.68,506.7h5.08a.85.85,0,0,0,.85-.85V461.78a.85.85,0,0,0-.85-.85h-5.08a.85.85,0,0,0-.85.85v44.07A.85.85,0,0,0,674.68,506.7Z"/><path class="cls-29" d="M635.69,506.7h5.08a.85.85,0,0,0,.85-.85V461.78a.85.85,0,0,0-.85-.85h-5.08a.85.85,0,0,0-.85.85v44.07A.85.85,0,0,0,635.69,506.7Z"/><circle class="cls-28" cx="677.22" cy="464.33" r="0.85"/><circle class="cls-28" cx="677.22" cy="503.31" r="0.85"/><circle class="cls-28" cx="638.23" cy="464.33" r="0.85"/><circle class="cls-28" cx="638.23" cy="503.31" r="0.85"/><circle class="cls-28" cx="644.17" cy="495.26" r="0.85"/><circle class="cls-28" cx="644.17" cy="487.63" r="0.85"/><circle class="cls-28" cx="644.17" cy="480.01" r="0.85"/><circle class="cls-28" cx="644.17" cy="472.38" r="0.85"/><circle class="cls-28" cx="670.86" cy="495.26" r="0.85"/><circle class="cls-28" cx="670.86" cy="487.63" r="0.85"/><circle class="cls-28" cx="670.86" cy="480.01" r="0.85"/><circle class="cls-28" cx="670.86" cy="472.38" r="0.85"/><path class="cls-35" d="M659.63,452.8l6.33,9.49a7.41,7.41,0,0,1,1.16,5.26l-3.52,22.51S667,493,666,494.82s-3.44,6.34-6.34,2.91-1.32-13.48-1.32-13.48l-.53-15.33-7.93-9.78Z"/><path class="cls-33" d="M90.15,444.61c.26.12,1.11-5.55,1.11-5.55h7.65v5.67Z"/><path class="cls-36" d="M124.69,405.35s4,2.83,4.82,9.35C129.5,414.7,123.27,416.12,124.69,405.35Z"/><path class="cls-22" d="M85,487.79l3.4,29.74-15.3,44.76h7.65l17.71-38.11a10.53,10.53,0,0,0,1-4.44l1.42-11.55,3.12,13-1.7,41.07h6.8l8.21-44.78a12.08,12.08,0,0,0-.45-6.07l-8.05-23.65Z"/><path class="cls-37" d="M81.91,487.79h28.61l-3.12-31.16,12.18-5.38-7.65-9.91L92.44,444A10.92,10.92,0,0,0,83,454.49Z"/><path class="cls-35" d="M96.64,439.91s4-2,5.38-3.68-2-9.91-5.38-11.9-9.06-2.27-9.06,1.13-2.83,9.06,0,10.48S91.26,440.2,96.64,439.91Z"/><path class="cls-32" d="M94.66,426s4.53-5.67,1.7-11.33a6.84,6.84,0,0,1-4.82,3.68c-3.68.85-7.89,1.66-9.35,5.67-2.27,6.23-2.4,13.33,9.91,15,0,0-5.1-4.53-4-7.65S92.68,427.73,94.66,426Z"/><path class="cls-38" d="M97.21,424.33l27.48-19s1.42,7.65,4.82,9.35Z"/><path class="cls-35" d="M126.14,443.5l-2.2-26.72h0l0-.12v-.18h0c-.77-4.46-2.63-5.47-3.46-5.47a3.32,3.32,0,0,0-2.55,2.83c-.27,1.59,1.59,4.34,1.83,4.69l-.13,21.37-7.65,1.42,6.8,8.78,3.79-1.26A5.29,5.29,0,0,0,126.14,443.5Z"/><polygon class="cls-35" points="106.56 421.22 105.29 442.25 111.94 441.33 110.89 420.25 106.56 421.22"/><path class="cls-32" d="M73.13,562.29h7.65l7.57,5.93a1.28,1.28,0,0,1-.79,2.28H74.41a1.28,1.28,0,0,1-1.28-1.28Z"/><path class="cls-32" d="M102.31,562.29h6.8l8.33,5.9a1.28,1.28,0,0,1-.74,2.32H103.58a1.28,1.28,0,0,1-1.28-1.28Z"/><polygon class="cls-33" points="210.72 162.47 212.02 172.91 219.2 170.96 216.6 159.99 210.72 162.47"/><path class="cls-32" d="M209.41,213.37l-15.85,3.57a11.57,11.57,0,0,0-8.94,12.72L188.53,261h7.83l.33-33h37.19V213Z"/><path class="cls-33" d="M231.32,227.18s-7.54.55-9,1.2-1.5,2.61,0,2.61h10c1.46,0,2.49-1.87,2-3.68l-.06-.24Z"/><path class="cls-39" d="M218.61,168.85l-4.8,1.44a6.18,6.18,0,0,0-4.4,5.92v37.16l14.33,1.07,4.6,13.28h5.87L231.52,215l4,.3s2.3-25.91-10.4-44.2A5.86,5.86,0,0,0,218.61,168.85Z"/><polygon class="cls-40" points="235.65 208.47 225.07 192.49 231.92 215.06 235.51 215.33 235.65 208.47"/><path class="cls-21" d="M188.53,261l-9.62,5.55a2.27,2.27,0,0,0,1.14,4.24h15.66V261Z"/><path class="cls-35" d="M203.51,166.31s.48,2.2,6.09,1.34c4-.6,7-2.89,7.65-5.71,1.24-5.64-2.07-13.77-6-13.17s-5.18.34-7.34,4.3c-1.37,2.53-2.62,4.48-3.34,5.56a1.33,1.33,0,0,0,.14,1.68l1.33,1.22S202.29,166,203.51,166.31Z"/><path class="cls-32" d="M203.8,153.41s-4.52-2.69-4.67-7.79c0,0,4.52,2.69,6.09,1.34s6.3-5.37,12-2.42,3.45,7.52,3.45,7.52a6.18,6.18,0,0,1,1.37,5.37,11,11,0,0,1-6,7.77s2.46-8.25-.3-10.7-3,4.27-3,4.27S212.18,150.18,203.8,153.41Z"/></g></g></svg>