<svg xmlns="http://www.w3.org/2000/svg" viewBox="0 0 70 70" width="70" height="70">
	<defs>
		<linearGradient id="grd1" gradientUnits="userSpaceOnUse"  x1="33.395" y1="11.159" x2="33.395" y2="62.891">
			<stop offset="0" stop-color="#57b3ff"  />
			<stop offset="1" stop-color="#2d6ffe"  />
		</linearGradient>
		<linearGradient id="grd2" gradientUnits="userSpaceOnUse"  x1="21.19" y1="11.159" x2="21.19" y2="24.675">
			<stop offset="0" stop-color="#f8fafb"  />
			<stop offset="1" stop-color="#d8dee1"  />
		</linearGradient>
		<linearGradient id="grd3" gradientUnits="userSpaceOnUse"  x1="47.681" y1="41.594" x2="47.681" y2="56.087">
			<stop offset="0" stop-color="#fdcf2d"  />
			<stop offset="1" stop-color="#fea40a"  />
		</linearGradient>
	</defs>
	<style>
		tspan { white-space:pre }
		.shp0 { fill: url(#grd1) } 
		.shp1 { fill: url(#grd2) } 
		.shp2 { fill: url(#grd3) } 
	</style>
	<path id="Layer" fill-rule="evenodd" class="shp0" d="M62.73 14.2C62.73 12.52 61.37 11.16 59.69 11.16L43.38 11.16L41.61 11.16L25.2 11.16L22.31 11.16L7.1 11.16C5.42 11.16 4.06 12.52 4.06 14.2L4.06 57.62C4.06 59.02 4.5 60.36 5.27 61.35C6.05 62.34 7.11 62.89 8.21 62.89L58.58 62.89C59.68 62.89 60.74 62.34 61.51 61.35C62.29 60.36 62.73 59.02 62.73 57.62L62.73 14.2Z" />
	<path id="Layer" class="shp1" d="M16.01 24.67C16.43 24.67 16.84 24.51 17.14 24.21L21.19 20.17L25.22 24.21C25.45 24.43 25.73 24.58 26.04 24.64C26.35 24.7 26.67 24.67 26.96 24.55C27.25 24.43 27.5 24.23 27.67 23.97C27.85 23.7 27.94 23.4 27.94 23.08L27.94 11.16L14.44 11.16L14.44 23.08C14.44 23.5 14.6 23.9 14.9 24.2C15.19 24.5 15.59 24.67 16.01 24.67Z" />
	<path id="Layer" class="shp2" d="M55.63 46.4L50.99 41.77C50.87 41.65 50.74 41.59 50.58 41.59C50.42 41.59 50.29 41.65 50.17 41.77C50.06 41.88 50 42.02 50 42.17L50 44.49L47.97 44.49C43.67 44.49 41.02 45.71 40.05 48.14C39.73 48.95 39.57 49.96 39.57 51.16C39.57 52.16 39.95 53.52 40.72 55.24C40.73 55.29 40.77 55.36 40.81 55.46C40.86 55.56 40.9 55.66 40.93 55.73C40.97 55.81 41.01 55.88 41.05 55.93C41.12 56.04 41.21 56.09 41.3 56.09C41.39 56.09 41.47 56.06 41.52 56C41.57 55.94 41.59 55.86 41.59 55.77C41.59 55.72 41.59 55.64 41.57 55.53C41.56 55.42 41.55 55.35 41.55 55.32C41.52 54.91 41.5 54.54 41.5 54.2C41.5 53.59 41.56 53.05 41.66 52.56C41.77 52.08 41.91 51.66 42.1 51.31C42.29 50.96 42.53 50.65 42.83 50.39C43.12 50.14 43.44 49.93 43.78 49.76C44.12 49.6 44.52 49.47 44.99 49.38C45.45 49.29 45.91 49.22 46.38 49.19C46.85 49.15 47.38 49.13 47.97 49.13L50 49.13L50 51.45C50 51.61 50.06 51.74 50.17 51.86C50.29 51.97 50.42 52.03 50.58 52.03C50.74 52.03 50.87 51.97 50.99 51.86L55.63 47.22C55.74 47.1 55.8 46.97 55.8 46.81C55.8 46.65 55.74 46.52 55.63 46.4Z" />
</svg>