<?xml version="1.0" encoding="utf-8"?>
<!-- Generator: Adobe Illustrator 22.1.0, SVG Export Plug-In . SVG Version: 6.00 Build 0)  -->
<svg version="1.1" id="Layer_1" xmlns="http://www.w3.org/2000/svg" xmlns:xlink="http://www.w3.org/1999/xlink" x="0px" y="0px"
	 viewBox="0 0 480 480" style="enable-background:new 0 0 480 480;" xml:space="preserve">
<style type="text/css">
	.st0{fill:#999999;}
	.st1{fill:none;stroke:#999999;stroke-width:12;stroke-miterlimit:10;}
	.st2{fill:none;stroke:#999999;stroke-width:10;stroke-miterlimit:10;}
	.st3{fill:none;stroke:#999999;stroke-width:8;stroke-miterlimit:10;}
	.st4{fill:none;stroke:#999999;stroke-width:7;stroke-miterlimit:10;}
	.st5{fill:none;stroke:#999999;stroke-width:4.3;stroke-miterlimit:10;}
	.st6{fill:none;stroke:#999999;stroke-width:16.6683;stroke-linecap:round;stroke-linejoin:round;stroke-miterlimit:10;}
	.st7{fill:none;stroke:#999999;stroke-width:15.6878;stroke-linecap:round;stroke-linejoin:round;stroke-miterlimit:10;}
</style>
<g>
	<g>
		<path class="st0" d="M-919.5,122.3l-72-72c-1.4-1.5-3.4-2.4-5.7-2.4h-248c-22.1,0-40,17.9-40,40v400c0,22.1,17.9,40,40,40h288
			c22.1,0,40-17.9,40-40V128C-917.1,125.8-918,123.8-919.5,122.3z M-989.1,75.3l44.7,44.7h-44.7V75.3z M-933.1,488
			c0,13.2-10.8,24-24,24h-288c-13.2,0-24-10.8-24-24V88c0-13.2,10.8-24,24-24h240v64c0,4.4,3.6,8,8,8h64V488z"/>
	</g>
</g>
<g>
	<g>
		<path class="st0" d="M-1213.1,160c-17.6,0-32,14.4-32,32s14.4,32,32,32s32-14.4,32-32S-1195.5,160-1213.1,160z M-1213.1,208
			c-8.8,0-16-7.2-16-16s7.2-16,16-16s16,7.2,16,16S-1204.3,208-1213.1,208z"/>
	</g>
</g>
<g>
	<g>
		<path class="st0" d="M-1213.1,248c-17.6,0-32,14.4-32,32s14.4,32,32,32s32-14.4,32-32S-1195.5,248-1213.1,248z M-1213.1,296
			c-8.8,0-16-7.2-16-16s7.2-16,16-16s16,7.2,16,16S-1204.3,296-1213.1,296z"/>
	</g>
</g>
<g>
	<g>
		<path class="st0" d="M-1213.1,336c-17.6,0-32,14.4-32,32s14.4,32,32,32s32-14.4,32-32S-1195.5,336-1213.1,336z M-1213.1,384
			c-8.8,0-16-7.2-16-16s7.2-16,16-16s16,7.2,16,16S-1204.3,384-1213.1,384z"/>
	</g>
</g>
<g>
	<g>
		<path class="st0" d="M-1213.1,424c-17.6,0-32,14.4-32,32s14.4,32,32,32s32-14.4,32-32S-1195.5,424-1213.1,424z M-1213.1,472
			c-8.8,0-16-7.2-16-16s7.2-16,16-16s16,7.2,16,16S-1204.3,472-1213.1,472z"/>
	</g>
</g>
<g>
	<g>
		<rect x="-1165.1" y="200" class="st0" width="208" height="16"/>
	</g>
</g>
<g>
	<g>
		<rect x="-1157.1" y="88" class="st0" width="112" height="16"/>
	</g>
</g>
<g>
	<g>
		<rect x="-1181.1" y="120" class="st0" width="160" height="16"/>
	</g>
</g>
<g>
	<g>
		<rect x="-1165.1" y="288" class="st0" width="208" height="16"/>
	</g>
</g>
<g>
	<g>
		<rect x="-1165.1" y="376" class="st0" width="208" height="16"/>
	</g>
</g>
<g>
	<g>
		<rect x="-1165.1" y="464" class="st0" width="208" height="16"/>
	</g>
</g>
<g>
	<g>
		<rect x="-1101.1" y="168" class="st0" width="16" height="16"/>
	</g>
</g>
<g>
	<g>
		<rect x="-1133.1" y="168" class="st0" width="16" height="16"/>
	</g>
</g>
<g>
	<g>
		<rect x="-1165.1" y="168" class="st0" width="16" height="16"/>
	</g>
</g>
<g>
	<path class="st1" d="M-521.3,510.8"/>
	<path class="st1" d="M-521.3,503.5V666c0,14.6-11.9,26.5-26.5,26.5h-291c-14.6,0-26.5-11.9-26.5-26.5V313
		c0-14.6,11.9-26.5,26.5-26.5h291c14.6,0,26.5,11.9,26.5,26.5l-0.2,154.5"/>
	<path class="st2" d="M-579.5,652.5h-228c-11.3,0-20.5-9.2-20.5-20.5V344c0-11.3,9.2-20.5,20.5-20.5h228c11.3,0,20.5,9.2,20.5,20.5
		v288C-559,643.3-568.1,652.5-579.5,652.5z"/>
	<polyline class="st3" points="-784.3,356.5 -784.3,408.5 -733.3,408.5 	"/>
	<polyline class="st4" points="-767.3,379.5 -758.8,387.5 -728.3,367.5 	"/>
	<polyline class="st3" points="-784.3,451.5 -784.3,503.5 -733.3,503.5 	"/>
	<polyline class="st4" points="-767.3,474.5 -758.8,482.5 -728.3,462.5 	"/>
	<polyline class="st3" points="-784.3,546.5 -784.3,598.5 -733.3,598.5 	"/>
	<polyline class="st4" points="-767.3,569.5 -758.8,577.5 -728.3,557.5 	"/>
	<line class="st3" x1="-655.3" y1="408" x2="-590.3" y2="408"/>
	<line class="st3" x1="-693.3" y1="502" x2="-590.3" y2="502"/>
	<line class="st3" x1="-693.3" y1="598.5" x2="-590.3" y2="598.5"/>
	<path class="st1" d="M-763.6,322.5v-37c0-4.1,3.3-7.3,7.3-7.3h27c0,0,35.3-60,70,0h28.7c4.1,0,7.3,3.3,7.3,7.3v35.7L-763.6,322.5z"
		/>
	<rect x="-524.5" y="484" class="st0" width="6" height="6"/>
	<line class="st5" x1="-676" y1="401.8" x2="-676" y2="415.5"/>
	<line class="st5" x1="-682.8" y1="408.7" x2="-669.1" y2="408.7"/>
</g>
<g>
	<path class="st6" d="M-44.4,872c2.9,13.7,4.9,29.4,4.9,44.1c0,110.8-90.2,201-201,201s-201-90.2-201-201s90.2-201,201-201
		c42.2,0,80.4,12.7,112.8,34.3"/>
	<polyline class="st7" points="-281.7,825 -372.9,921 -281.7,1021 	"/>
	<line class="st7" x1="-335.6" y1="923" x2="-110.1" y2="923"/>
</g>
<g>
	<g>
		<g>
			<path class="st0" d="M120.8,311.5c-24.9,0-45.1,20.3-45.1,45.1s20.3,45.1,45.1,45.1s45.1-20.3,45.1-45.1
				C165.9,331.7,145.7,311.5,120.8,311.5z M120.8,386.7c-16.6,0-30.1-13.5-30.1-30.1c0-16.6,13.5-30.1,30.1-30.1
				s30.1,13.5,30.1,30.1S137.4,386.7,120.8,386.7z"/>
		</g>
	</g>
	<g>
		<g>
			<path class="st0" d="M376.5,311.5c-24.9,0-45.1,20.3-45.1,45.1s20.3,45.1,45.1,45.1s45.1-20.3,45.1-45.1
				C421.6,331.7,401.4,311.5,376.5,311.5z M376.5,386.7c-16.6,0-30.1-13.5-30.1-30.1c0-16.6,13.5-30.1,30.1-30.1
				c16.6,0,30.1,13.5,30.1,30.1S393.1,386.7,376.5,386.7z"/>
		</g>
	</g>
	<g>
		<g>
			<path class="st0" d="M465.5,269.8l-67.7-105.3c-1.4-2.1-3.8-3.4-6.3-3.4h-82.8c-4.1,0-7.5,3.3-7.5,7.5v188c0,4.1,3.3,7.5,7.5,7.5
				h30.1v-15.1h-22.6V176.1h71.2l64.3,100v73h-37.6v15.1h45.1c4.1,0,7.5-3.3,7.5-7.5v-82.8C466.8,272.4,466.3,271,465.5,269.8z"/>
		</g>
	</g>
	<g>
		<g>
			<path class="st0" d="M346.5,258.8v-52.6h60.2v-15.1H339c-4.1,0-7.5,3.3-7.5,7.5v67.7c0,4.1,3.3,7.5,7.5,7.5h112.8v-15.1
				L346.5,258.8L346.5,258.8z"/>
		</g>
	</g>
	<g>
		<g>
			<path class="st0" d="M308.8,108.4H23c-4.1,0-7.5,3.3-7.5,7.5v240.7c0,4.1,3.3,7.5,7.5,7.5h60.2V349H30.6V123.4h270.8V349h-143
				v15.1h150.5c4.1,0,7.5-3.3,7.5-7.5V115.9C316.3,111.8,313,108.4,308.8,108.4z"/>
		</g>
	</g>
	<g>
		<g>
			<rect x="23" y="319" class="st0" width="45.1" height="15.1"/>
		</g>
	</g>
	<g>
		<g>
			<rect x="173.4" y="319" class="st0" width="127.9" height="15.1"/>
		</g>
	</g>
	<g>
		<g>
			<rect x="429.1" y="319" class="st0" width="30.1" height="15.1"/>
		</g>
	</g>
	<g>
		<g>
			<rect x="45.5" y="138.5" class="st0" width="263.3" height="15.1"/>
		</g>
	</g>
	<g>
		<g>
			<rect x="113.2" y="349" class="st0" width="15.1" height="15.1"/>
		</g>
	</g>
	<g>
		<g>
			<rect x="369" y="349" class="st0" width="15.1" height="15.1"/>
		</g>
	</g>
	<g>
		<g>
			<rect x="45.5" y="78.3" class="st0" width="105.3" height="15.1"/>
		</g>
	</g>
	<g>
		<g>
			<rect x="15.5" y="78.3" class="st0" width="15.1" height="15.1"/>
		</g>
	</g>
</g>
</svg>
