<?xml version="1.0" encoding="utf-8"?>
<!-- Generator: Adobe Illustrator 22.1.0, SVG Export Plug-In . SVG Version: 6.00 Build 0)  -->
<svg version="1.1" id="Layer_1" xmlns="http://www.w3.org/2000/svg" xmlns:xlink="http://www.w3.org/1999/xlink" x="0px" y="0px"
	 viewBox="0 0 480 480" style="enable-background:new 0 0 480 480;" xml:space="preserve">
<style type="text/css">
	.st0{fill:#999999;}
	.st1{fill:none;stroke:#999999;stroke-width:12;stroke-miterlimit:10;}
	.st2{fill:none;stroke:#999999;stroke-width:10;stroke-miterlimit:10;}
	.st3{fill:none;stroke:#999999;stroke-width:8;stroke-miterlimit:10;}
	.st4{fill:none;stroke:#999999;stroke-width:7;stroke-miterlimit:10;}
	.st5{fill:none;stroke:#999999;stroke-width:4.3;stroke-miterlimit:10;}
	.st6{fill:none;stroke:#999999;stroke-width:16.6683;stroke-linecap:round;stroke-linejoin:round;stroke-miterlimit:10;}
	.st7{fill:none;stroke:#999999;stroke-width:15.6878;stroke-linecap:round;stroke-linejoin:round;stroke-miterlimit:10;}
	.st8{fill:none;stroke:#999999;stroke-width:12.2587;stroke-linecap:round;stroke-linejoin:round;stroke-miterlimit:10;}
	.st9{fill:none;stroke:#999999;stroke-width:12.2587;stroke-linecap:round;stroke-miterlimit:10;}
	.st10{fill:none;stroke:#999999;stroke-width:12.2587;stroke-miterlimit:10;}
	.st11{fill:none;stroke:#999999;stroke-width:10.6242;stroke-linecap:round;stroke-linejoin:round;stroke-miterlimit:10;}
	.st12{fill:none;stroke:#999999;stroke-width:8.1725;stroke-miterlimit:10;}
</style>
<g>
	<g>
		<path class="st0" d="M-919.5,122.3l-72-72c-1.4-1.5-3.4-2.4-5.7-2.4h-248c-22.1,0-40,17.9-40,40v400c0,22.1,17.9,40,40,40h288
			c22.1,0,40-17.9,40-40V128C-917.1,125.8-918,123.8-919.5,122.3z M-989.1,75.3l44.7,44.7h-44.7V75.3z M-933.1,488
			c0,13.2-10.8,24-24,24h-288c-13.2,0-24-10.8-24-24V88c0-13.2,10.8-24,24-24h240v64c0,4.4,3.6,8,8,8h64V488z"/>
	</g>
</g>
<g>
	<g>
		<path class="st0" d="M-1213.1,160c-17.6,0-32,14.4-32,32s14.4,32,32,32s32-14.4,32-32S-1195.5,160-1213.1,160z M-1213.1,208
			c-8.8,0-16-7.2-16-16s7.2-16,16-16s16,7.2,16,16S-1204.3,208-1213.1,208z"/>
	</g>
</g>
<g>
	<g>
		<path class="st0" d="M-1213.1,248c-17.6,0-32,14.4-32,32s14.4,32,32,32s32-14.4,32-32S-1195.5,248-1213.1,248z M-1213.1,296
			c-8.8,0-16-7.2-16-16s7.2-16,16-16s16,7.2,16,16S-1204.3,296-1213.1,296z"/>
	</g>
</g>
<g>
	<g>
		<path class="st0" d="M-1213.1,336c-17.6,0-32,14.4-32,32s14.4,32,32,32s32-14.4,32-32S-1195.5,336-1213.1,336z M-1213.1,384
			c-8.8,0-16-7.2-16-16s7.2-16,16-16s16,7.2,16,16S-1204.3,384-1213.1,384z"/>
	</g>
</g>
<g>
	<g>
		<path class="st0" d="M-1213.1,424c-17.6,0-32,14.4-32,32s14.4,32,32,32s32-14.4,32-32S-1195.5,424-1213.1,424z M-1213.1,472
			c-8.8,0-16-7.2-16-16s7.2-16,16-16s16,7.2,16,16S-1204.3,472-1213.1,472z"/>
	</g>
</g>
<g>
	<g>
		<rect x="-1165.1" y="200" class="st0" width="208" height="16"/>
	</g>
</g>
<g>
	<g>
		<rect x="-1157.1" y="88" class="st0" width="112" height="16"/>
	</g>
</g>
<g>
	<g>
		<rect x="-1181.1" y="120" class="st0" width="160" height="16"/>
	</g>
</g>
<g>
	<g>
		<rect x="-1165.1" y="288" class="st0" width="208" height="16"/>
	</g>
</g>
<g>
	<g>
		<rect x="-1165.1" y="376" class="st0" width="208" height="16"/>
	</g>
</g>
<g>
	<g>
		<rect x="-1165.1" y="464" class="st0" width="208" height="16"/>
	</g>
</g>
<g>
	<g>
		<rect x="-1101.1" y="168" class="st0" width="16" height="16"/>
	</g>
</g>
<g>
	<g>
		<rect x="-1133.1" y="168" class="st0" width="16" height="16"/>
	</g>
</g>
<g>
	<g>
		<rect x="-1165.1" y="168" class="st0" width="16" height="16"/>
	</g>
</g>
<g>
	<path class="st1" d="M-890.5,967"/>
	<path class="st1" d="M-890.5,959.7v162.5c0,14.6-11.9,26.5-26.5,26.5h-291c-14.6,0-26.5-11.9-26.5-26.5v-353
		c0-14.6,11.9-26.5,26.5-26.5h291c14.6,0,26.5,11.9,26.5,26.5l-0.2,154.5"/>
	<path class="st2" d="M-948.7,1108.7h-228c-11.3,0-20.5-9.2-20.5-20.5v-288c0-11.3,9.2-20.5,20.5-20.5h228
		c11.3,0,20.5,9.2,20.5,20.5v288C-928.2,1099.5-937.3,1108.7-948.7,1108.7z"/>
	<polyline class="st3" points="-1153.5,812.7 -1153.5,864.7 -1102.5,864.7 	"/>
	<polyline class="st4" points="-1136.5,835.7 -1128,843.7 -1097.5,823.7 	"/>
	<polyline class="st3" points="-1153.5,907.7 -1153.5,959.7 -1102.5,959.7 	"/>
	<polyline class="st4" points="-1136.5,930.7 -1128,938.7 -1097.5,918.7 	"/>
	<polyline class="st3" points="-1153.5,1002.7 -1153.5,1054.7 -1102.5,1054.7 	"/>
	<polyline class="st4" points="-1136.5,1025.7 -1128,1033.7 -1097.5,1013.7 	"/>
	<line class="st3" x1="-1024.5" y1="864.2" x2="-959.5" y2="864.2"/>
	<line class="st3" x1="-1062.5" y1="958.2" x2="-959.5" y2="958.2"/>
	<line class="st3" x1="-1062.5" y1="1054.7" x2="-959.5" y2="1054.7"/>
	<path class="st1" d="M-1132.8,778.7v-37c0-4.1,3.3-7.3,7.3-7.3h27c0,0,35.3-60,70,0h28.7c4.1,0,7.3,3.3,7.3,7.3v35.7L-1132.8,778.7
		z"/>
	<rect x="-893.7" y="940.2" class="st0" width="6" height="6"/>
	<line class="st5" x1="-1045.2" y1="858" x2="-1045.2" y2="871.7"/>
	<line class="st5" x1="-1052" y1="864.9" x2="-1038.3" y2="864.9"/>
</g>
<g>
	<path class="st6" d="M-131.2,1190.6c2.9,13.7,4.9,29.4,4.9,44.1c0,110.8-90.2,201-201,201s-201-90.2-201-201
		c0-110.8,90.2-201,201-201c42.2,0,80.4,12.7,112.8,34.3"/>
	<polyline class="st7" points="-368.5,1143.6 -459.6,1239.6 -368.5,1339.6 	"/>
	<line class="st7" x1="-422.4" y1="1241.6" x2="-196.9" y2="1241.6"/>
</g>
<g>
	<g>
		<g>
			<path class="st0" d="M474.3,1257c-24.9,0-45.1,20.3-45.1,45.1s20.3,45.1,45.1,45.1s45.1-20.3,45.1-45.1
				C519.5,1277.1,499.2,1257,474.3,1257z M474.3,1332.1c-16.6,0-30.1-13.5-30.1-30.1s13.5-30.1,30.1-30.1
				c16.6,0,30.1,13.5,30.1,30.1S490.9,1332.1,474.3,1332.1z"/>
		</g>
	</g>
	<g>
		<g>
			<path class="st0" d="M730,1257c-24.9,0-45.1,20.3-45.1,45.1s20.3,45.1,45.1,45.1s45.1-20.3,45.1-45.1
				C775.2,1277.1,754.9,1257,730,1257z M730,1332.1c-16.6,0-30.1-13.5-30.1-30.1s13.5-30.1,30.1-30.1c16.6,0,30.1,13.5,30.1,30.1
				S746.6,1332.1,730,1332.1z"/>
		</g>
	</g>
	<g>
		<g>
			<path class="st0" d="M819,1215.3l-67.7-105.3c-1.4-2.1-3.8-3.4-6.3-3.4h-82.8c-4.1,0-7.5,3.3-7.5,7.5v188c0,4.1,3.3,7.5,7.5,7.5
				h30.1v-15.1h-22.6v-172.8H741l64.3,100v73h-37.6v15.1h45.1c4.1,0,7.5-3.3,7.5-7.5v-82.8C820.3,1217.9,819.8,1216.5,819,1215.3z"
				/>
		</g>
	</g>
	<g>
		<g>
			<path class="st0" d="M700,1204.2v-52.6h60.2v-15.1h-67.7c-4.1,0-7.5,3.3-7.5,7.5v67.7c0,4.1,3.3,7.5,7.5,7.5h112.8v-15.1
				L700,1204.2L700,1204.2z"/>
		</g>
	</g>
	<g>
		<g>
			<path class="st0" d="M662.3,1053.9H376.5c-4.1,0-7.5,3.3-7.5,7.5v240.7c0,4.1,3.3,7.5,7.5,7.5h60.2v-15.1h-52.6v-225.6h270.8
				v225.6h-143v15.1h150.5c4.1,0,7.5-3.3,7.5-7.5v-240.7C669.8,1057.2,666.5,1053.9,662.3,1053.9z"/>
		</g>
	</g>
	<g>
		<g>
			<rect x="376.5" y="1264.4" class="st0" width="45.1" height="15.1"/>
		</g>
	</g>
	<g>
		<g>
			<rect x="527" y="1264.4" class="st0" width="127.9" height="15.1"/>
		</g>
	</g>
	<g>
		<g>
			<rect x="782.6" y="1264.4" class="st0" width="30.1" height="15.1"/>
		</g>
	</g>
	<g>
		<g>
			<rect x="399.1" y="1083.9" class="st0" width="263.3" height="15.1"/>
		</g>
	</g>
	<g>
		<g>
			<rect x="466.8" y="1294.5" class="st0" width="15.1" height="15.1"/>
		</g>
	</g>
	<g>
		<g>
			<rect x="722.5" y="1294.5" class="st0" width="15.1" height="15.1"/>
		</g>
	</g>
	<g>
		<g>
			<rect x="399.1" y="1023.7" class="st0" width="105.3" height="15.1"/>
		</g>
	</g>
	<g>
		<g>
			<rect x="369" y="1023.7" class="st0" width="15.1" height="15.1"/>
		</g>
	</g>
</g>
<g>
	<polyline class="st8" points="1214.6,226.8 1214.6,55.2 1400.9,-55.1 1584.8,47 1584.8,275.8 1400.9,369.8 1226,270.1 	"/>
	<polyline class="st9" points="1214.6,55.2 1400.9,153.3 1544,75.6 	"/>
	<line class="st10" x1="1400.9" y1="153.3" x2="1400.9" y2="369.8"/>
	<line class="st11" x1="1496.6" y1="200.7" x2="1546.4" y2="178.6"/>
	<line class="st11" x1="1466.3" y1="253.8" x2="1549.7" y2="214.5"/>
	<line class="st11" x1="1459.8" y1="291.4" x2="1549.7" y2="248.9"/>
	<path class="st12" d="M1271.8,143.4"/>
	<polyline class="st11" points="1274.3,84.6 1364.2,30.7 1427.1,69.9 1349.4,126.3 1345.4,225.2 1271.8,188.4 	"/>
</g>
<g>
	<g>
		<g>
			<path class="st0" d="M411.3,93.5l-65.9-65.9c-1.3-1.3-3.1-2.1-5.1-2.1H113.2c-20.2,0-36.6,16.4-36.6,36.6v366.3
				c0,20.2,16.4,36.6,36.6,36.6h263.7c20.2,0,36.6-16.4,36.6-36.6V98.7C413.5,96.7,412.7,94.9,411.3,93.5z M347.6,50.5l40.9,40.9
				h-40.9V50.5z M398.9,428.4c0,12.1-9.9,22-22,22H113.2c-12.1,0-22-9.9-22-22V62.1c0-12.1,9.9-22,22-22h219.8v58.6
				c0,4,3.3,7.3,7.3,7.3h58.6V428.4z"/>
		</g>
	</g>
	<g>
		<g>
			<path class="st0" d="M142.5,128c-16.1,0-29.3,13.2-29.3,29.3s13.2,29.3,29.3,29.3s29.3-13.2,29.3-29.3S158.6,128,142.5,128z
				 M142.5,172c-8.1,0-14.7-6.6-14.7-14.7c0-8.1,6.6-14.7,14.7-14.7c8.1,0,14.7,6.6,14.7,14.7C157.1,165.4,150.5,172,142.5,172z"/>
		</g>
	</g>
	<g>
		<g>
			<path class="st0" d="M142.5,208.6c-16.1,0-29.3,13.2-29.3,29.3s13.2,29.3,29.3,29.3s29.3-13.2,29.3-29.3S158.6,208.6,142.5,208.6
				z M142.5,252.6c-8.1,0-14.7-6.6-14.7-14.7c0-8.1,6.6-14.7,14.7-14.7c8.1,0,14.7,6.6,14.7,14.7C157.1,246,150.5,252.6,142.5,252.6
				z"/>
		</g>
	</g>
	<g>
		<g>
			<path class="st0" d="M142.5,289.2c-16.1,0-29.3,13.2-29.3,29.3s13.2,29.3,29.3,29.3s29.3-13.2,29.3-29.3S158.6,289.2,142.5,289.2
				z M142.5,333.1c-8.1,0-14.7-6.6-14.7-14.7s6.6-14.7,14.7-14.7c8.1,0,14.7,6.6,14.7,14.7S150.5,333.1,142.5,333.1z"/>
		</g>
	</g>
	<g>
		<g>
			<path class="st0" d="M142.5,369.8c-16.1,0-29.3,13.2-29.3,29.3c0,16.1,13.2,29.3,29.3,29.3s29.3-13.2,29.3-29.3
				C171.8,383,158.6,369.8,142.5,369.8z M142.5,413.7c-8.1,0-14.7-6.6-14.7-14.7c0-8.1,6.6-14.7,14.7-14.7c8.1,0,14.7,6.6,14.7,14.7
				C157.1,407.1,150.5,413.7,142.5,413.7z"/>
		</g>
	</g>
	<g>
		<g>
			<rect x="186.4" y="164.7" class="st0" width="190.5" height="14.7"/>
		</g>
	</g>
	<g>
		<g>
			<rect x="193.8" y="62.1" class="st0" width="102.6" height="14.7"/>
		</g>
	</g>
	<g>
		<g>
			<rect x="171.8" y="91.4" class="st0" width="146.5" height="14.7"/>
		</g>
	</g>
	<g>
		<g>
			<rect x="186.4" y="245.2" class="st0" width="190.5" height="14.7"/>
		</g>
	</g>
	<g>
		<g>
			<rect x="186.4" y="325.8" class="st0" width="190.5" height="14.7"/>
		</g>
	</g>
	<g>
		<g>
			<rect x="186.4" y="406.4" class="st0" width="190.5" height="14.7"/>
		</g>
	</g>
	<g>
		<g>
			<rect x="245" y="135.4" class="st0" width="14.7" height="14.7"/>
		</g>
	</g>
	<g>
		<g>
			<rect x="215.7" y="135.4" class="st0" width="14.7" height="14.7"/>
		</g>
	</g>
	<g>
		<g>
			<rect x="186.4" y="135.4" class="st0" width="14.7" height="14.7"/>
		</g>
	</g>
</g>
</svg>
