<svg xmlns="http://www.w3.org/2000/svg" width="64" height="64" enable-background="new 0 0 64 64" viewBox="0 0 64 64"><polygon fill="#FECC95" points="19.179 62.606 58.911 62.606 39.05 42.746"/><polygon fill="#78BFE8" points="64 58.23 64 17.776 43.768 38.008"/><path fill="#78BFE8" d="M7.112,43.737c2.89,0,5.419,1.28,7.092,3.314V8.496c0-3.912-3.179-7.102-7.102-7.102
		c-3.912,0-7.092,3.19-7.092,7.102V47.05C1.672,45.017,4.222,43.737,7.112,43.737z"/><path fill="#93CDBE" d="M16.268,19.179v33.755c0,0.568-0.465,1.032-1.032,1.032c-0.568,0-1.032-0.465-1.032-1.032
		c0-4.005-3.117-7.133-7.092-7.133c-3.984,0-7.102,3.128-7.102,7.133c0,0.031,0,0.072-0.01,0.103v1.497
		c0,4.449,3.623,8.072,8.062,8.072h1.652l24.991-24.991L16.268,19.179z"/><path fill="#919293" d="M63.783,11.448L40.155,35.076c-0.196,0.206-0.465,0.31-0.733,0.31c-0.258,0-0.526-0.103-0.723-0.31
		L16.268,12.645v3.623l20.635,20.635c0.289,0.299,0.361,0.733,0.217,1.104c-0.052,0.124-0.124,0.237-0.227,0.341l-0.01,0.01
		l-0.392,0.382L12.635,62.606h3.634L38.255,40.63c0.021-0.021,0.041-0.052,0.062-0.072h0.01c0.103-0.093,0.217-0.165,0.33-0.227
		c0.372-0.155,0.826-0.072,1.125,0.227l22.039,22.049H64v-1.445l-22.41-22.41v-0.01c-0.403-0.403-0.403-1.053,0-1.456L64,14.865
		v-3.417H63.783z"/><path fill="#EF6183" d="M48.403,10.488v-0.041c0-0.01,0-0.01,0-0.021v-0.062v-0.031c-0.052-4.914-4.057-8.888-8.981-8.888
		c-4.944,0-8.96,4.016-8.97,8.97v0.01c0,3.84,5.905,11.241,8.97,14.668C42.467,21.688,48.341,14.338,48.403,10.488z M33.744,10.426
		c0-3.138,2.55-5.677,5.677-5.677c3.138,0,5.678,2.539,5.678,5.677c0,3.128-2.539,5.677-5.678,5.677
		C36.294,16.103,33.744,13.554,33.744,10.426z"/><path fill="#FECC95" d="M60.872,11.448H50.374c-0.929,5.853-9.208,14.813-10.199,15.876c-0.196,0.206-0.464,0.33-0.754,0.33
		c-0.279,0-0.557-0.124-0.753-0.33c-0.991-1.063-9.259-10.023-10.188-15.876H17.982l21.45,21.45L60.872,11.448z"/><path fill="#EF6183" d="M43.035,10.426c0-1.992-1.621-3.613-3.613-3.613c-1.992,0-3.613,1.621-3.613,3.613
		c0,1.992,1.621,3.613,3.613,3.613C41.414,14.039,43.035,12.418,43.035,10.426z"/></svg>