<svg xmlns="http://www.w3.org/2000/svg" enable-background="new 0 0 24 24" viewBox="0 0 24 24"><path fill="none" stroke="#303c42" stroke-linecap="round" stroke-linejoin="round" d="M1.5,2.5h1.4c0.7,0,1.3,0.4,1.4,1.1l3.2,10.9l-1.8,2.2c-0.2,0.2-0.2,0.4-0.2,0.7l0,0   c0,0.6,0.5,1.1,1.1,1.1h13.9"/><path fill="none" stroke="#303c42" stroke-linecap="round" stroke-linejoin="round" d="M7.5,14.5h10c0.6,0,1.1-0.3,1.4-0.9l3.5-7.4c0.1-0.1,0.1-0.3,0.1-0.5V5.6c0-0.6-0.5-1.1-1.1-1.1   h-3"/><line x1="8.6" x2="4.6" y1="4.5" y2="4.5" fill="none" stroke="#303c42" stroke-linecap="round" stroke-linejoin="round"/><circle cx="7" cy="22" r="1.5" fill="none" stroke="#303c42" stroke-linecap="round" stroke-linejoin="round"/><circle cx="19" cy="22" r="1.5" fill="none" stroke="#303c42" stroke-linecap="round" stroke-linejoin="round"/><circle cx="13.5" cy="5.5" r="5" fill="none" stroke="#303c42" stroke-linecap="round" stroke-linejoin="round"/><line x1="11.5" x2="15.5" y1="5.5" y2="5.5" fill="none" stroke="#303c42" stroke-linecap="round" stroke-linejoin="round"/><line x1="13.5" x2="13.5" y1="3.5" y2="7.5" fill="none" stroke="#303c42" stroke-linecap="round" stroke-linejoin="round"/></svg>