<svg id="SvgjsSvg1271" width="288" height="288" xmlns="http://www.w3.org/2000/svg" version="1.1" xmlns:xlink="http://www.w3.org/1999/xlink" xmlns:svgjs="http://svgjs.com/svgjs"><defs id="SvgjsDefs1272"></defs><g id="SvgjsG1273"><svg xmlns="http://www.w3.org/2000/svg" data-name="Layer 1" viewBox="0 0 512 512" width="288" height="288"><path fill="#ffc166" d="M115.28345,218.55579c-2.49024.63-12.25342,3.90362-14.74341,4.53363a12.44066,12.44066,0,0,0-9.33008,13.12,1.63393,1.63393,0,0,0,.02.22,12.4314,12.4314,0,0,0,12.82007,11.37q16.875-.585,33.76-1.18,22.58349-10.48581,21.50561-17.14576Q157.89478,220.68519,115.28345,218.55579Z" class="colorffc166 svgShape"></path><path fill="#ffc570" d="M156.73389,233.36688l-27.93384,19.35254a13.49823,13.49823,0,0,0,11.93994,23.95l48.13013-16.47c.74194-2.90075,1.88574-9.2702-1.2107-15.41363C182.95044,235.44324,170.30566,230.33435,156.73389,233.36688Z" class="colorffc570 svgShape"></path><rect width="341.42" height="203.94" x="163.08" y="243.259" fill="#79ed97" rx="30" class="color79ed97 svgShape"></rect><path fill="#63ea86" d="M474.5,243.2594h-15a30,30,0,0,1,30,30v143.94a30,30,0,0,1-30,30h15a30,30,0,0,0,30-30v-143.94A30,30,0,0,0,474.5,243.2594Z" class="color63ea86 svgShape"></path><path fill="#ffffff" d="M193.08008,395.19952V295.25909a22,22,0,0,0,22-22H452.5a22,22,0,0,0,22,22v99.94043a22,22,0,0,0-22,22H215.08008A22,22,0,0,0,193.08008,395.19952Z" class="colorfff svgShape"></path><path fill="#eeeeee" d="M452.5,273.25909h-15a21.99992,21.99992,0,0,0,22,22v99.94043a21.99992,21.99992,0,0,0-22,22h15a21.99992,21.99992,0,0,1,22-22V295.25909A21.99992,21.99992,0,0,1,452.5,273.25909Z" class="coloreee svgShape"></path><path fill="#ffcd85" d="M259.42993,252.54l-11.78979-9.28-57-44.88a14.54617,14.54617,0,0,1-5.57007-11.48,14.16773,14.16773,0,0,1,.08984-1.59c.02-.22.05-.45.09009-.67a14.43066,14.43066,0,0,1,1.67993-4.86,14.60718,14.60718,0,0,1,20.72-5.1l6.44019,4.2L230.72,189.72l8.95,5.85,5.87053,47.68943h33.29964l-6.54-64.52946a65.44833,65.44833,0,0,0-7.25-23.75l-3.27-6.15c-.06006-.12-.12012-.23-.17993-.35l-.06006-.12q-13.71021-27.12-27.43018-54.25a19.74978,19.74978,0,0,0-16.78979-10.83Q158.745,87.255,100.17993,91.22q-6.80968.465-13.61987.93c-.79.05005-1.59009.11005-2.38013.16q-4.08-.12-8.34985-.39c-2.21-.14-13.85945-1.36915-15.98933-1.55915L35.373,179.84481,64.85986,199.78a39.76187,39.76187,0,0,0,9.83008,4.94L123.01,221.19l30.76,10.49,11.47,6.53,13.2,7.52L200.27,258.16l3.6001,2.04.15991.09,23.07007,13.14.41992.24,12.79,7.28a17.17967,17.17967,0,0,0,25.29-11.25,17.28933,17.28933,0,0,0-1.05-10.55A17.05573,17.05573,0,0,0,259.42993,252.54Z" class="colorffcd85 svgShape"></path><path fill="#ffc570" d="M190.64014 198.38a14.54617 14.54617 0 0 1-5.57007-11.48 14.16773 14.16773 0 0 1 .08984-1.59c.02-.22.05-.45.09009-.67a14.59915 14.59915 0 0 1 6.90186-10.24816A14.5942 14.5942 0 0 0 171.92993 179.78a14.43066 14.43066 0 0 0-1.67993 4.86c-.04.22-.07007.45-.09009.67a14.16773 14.16773 0 0 0-.08984 1.59 14.54617 14.54617 0 0 0 5.57007 11.48l57 44.88 14.99986-.00057zM219.10986 94.11q13.71021 27.12 27.43018 54.25l.06006.12c.05981.12.11987.23.17993.35l3.27 6.15a65.44833 65.44833 0 0 1 7.25 23.75l6.54 64.52942h15l-6.54-64.52942a65.44833 65.44833 0 0 0-7.25-23.75l-3.27-6.15c-.06006-.12-.12012-.23-.17993-.35l-.06006-.12q-13.71021-27.12-27.43018-54.25a19.74978 19.74978 0 0 0-16.78979-10.83q-5.27673.35806-10.553.71533A19.71957 19.71957 0 0 1 219.10986 94.11zM60.83008 91.92q4.27477.27 8.34985.39c.79-.05 1.59009-.11 2.38013-.16l3.83716-.262c-2.97681-.23468-13.53736-1.347-15.5564-1.5271l-.39551 1.446C60.04541 91.8606 60.53027 91.901 60.83008 91.92z" class="colorffc570 svgShape"></path><path fill="#ffc570" d="M259.42993,252.54l-11.78979-9.28-.00074-.00061h-15l.00074.00061,11.78979,9.28a17.05573,17.05573,0,0,1,5.12012,6.61A17.14678,17.14678,0,0,1,246.96,277.09a17.0823,17.0823,0,0,1-5.66162,4.38049A17.17868,17.17868,0,0,0,265.6001,269.7a17.28933,17.28933,0,0,0-1.05-10.55A17.05573,17.05573,0,0,0,259.42993,252.54Z" class="colorffc570 svgShape"></path><path fill="#ff6666" d="M0,64.80056,56.23366,77.00828a9,9,0,0,1,6.78769,10.76695l-24.274,107.08551a9,9,0,0,1-10.76695,6.78769L0,197.006" class="colorf66 svgShape"></path><path fill="#ff4e4e" d="M56.23364,77.00824,0,64.80054V76.33826l41.23364,8.95135a9.00022,9.00022,0,0,1,6.78784,10.767L24.227,201.0257l3.75342.62274a8.9999,8.9999,0,0,0,10.76684-6.78772L63.02148,87.77521A9.00022,9.00022,0,0,0,56.23364,77.00824Z" class="colorff4e4e svgShape"></path><path fill="#272a33" d="M304.6825,328.77639a7.49974,7.49974,0,0,0,7.5,7.5H334.243a16.08051,16.08051,0,0,1-14.20312,8.57129H312.1825a7.5003,7.5003,0,0,0-5.42383,12.68018l31.42871,32.90527A7.50014,7.50014,0,1,0,349.035,380.07278l-20.457-21.418a31.18741,31.18741,0,0,0,21.60987-22.37842h5.20947a7.5,7.5,0,0,0,0-15h-5.20679a30.8958,30.8958,0,0,0-3.56787-8.57129h8.77466a7.5,7.5,0,0,0,0-15H312.1825a7.5,7.5,0,0,0,0,15h7.85742a16.08053,16.08053,0,0,1,14.20312,8.57129H312.1825A7.49974,7.49974,0,0,0,304.6825,328.77639ZM474.49988,235.7593H285.6178l-5.864-57.81689a72.45419,72.45419,0,0,0-8.085-26.48731l-3.26562-6.1455-.001.00048-.12109-.23925c-.01563-.03223-.03223-.064-.04785-.09571L240.8075,90.73342a27.27862,27.27862,0,0,0-23.16211-14.94775,7.901,7.901,0,0,0-.833.01025l-11.72754.7959q-52.70948,3.57716-105.416,7.14453L84.04089,84.8013c-2.51172-.07764-5.1123-.20167-7.73632-.36719-1.83228-.11634-3.70289-.26074-5.667-.43122a16.46512,16.46512,0,0,0-12.65136-14.288L9.32214,57.52493A7.50013,7.50013,0,0,0,5.67761,72.07571L54.411,84.28323c.05469.01367.10938.02685.165.03906a1.501,1.501,0,0,1,1.13086,1.79443L31.4325,193.20266a1.4985,1.4985,0,0,1-1.794,1.13086L9.15808,189.69094a7.50006,7.50006,0,0,0-3.31641,14.62891l20.48145,4.64258a16.61975,16.61975,0,0,0,3.67871.41406A16.51459,16.51459,0,0,0,46.0614,196.51858l.12036-.5307,14.4187,9.96381a47.15379,47.15379,0,0,0,11.66993,5.86621l20.08984,6.84893a19.86474,19.86474,0,0,0-8.6377,17.99579c.00977.19678.02735.395.05274.59717a19.91277,19.91277,0,0,0,19.8291,18.04688c.2334,0,.46973-.00391.70508-.01221q6.56725-.22741,13.13891-.45923a20.98289,20.98289,0,0,0,25.71851,28.93091L155.58,279.52072v137.679a37.54225,37.54225,0,0,0,37.5,37.5H474.49988a37.54226,37.54226,0,0,0,37.5-37.5V273.2593A37.54227,37.54227,0,0,0,474.49988,235.7593Zm-370.71094,4.54395a4.94589,4.94589,0,0,1-5.085-4.5083c-.00488-.05762-.01074-.11524-.01758-.17334-.001-.01709-.002-.03467-.0039-.05225a4.92233,4.92233,0,0,1,3.69628-5.20947c1.36719-.3457,3.86231-1.13428,7.80957-2.3916,1.61939-.516,3.47876-1.10834,4.91138-1.54914l25.79859,8.79511-5.76514,3.994Q119.455,239.7633,103.78894,240.30325Zm53.16626,22.89386-18.65942,6.382a5.994,5.994,0,0,1-7.75782-4.25879,6.05708,6.05708,0,0,1,2.53321-6.43555l7.863-5.44757a7.49268,7.49268,0,0,0,2.12012-1.46893l14.07129-9.74878,8.9148,5.07562A37.34519,37.34519,0,0,0,156.9552,263.19711Zm.52515-38.036a7.49907,7.49907,0,0,0-1.29-.58106l-38.33448-13.069c-.03588-.01318-.07275-.02447-.10888-.03711L77.09167,197.6138a32.18766,32.18766,0,0,1-7.96777-4.00489L51.744,181.59915a7.49915,7.49915,0,0,0-2.07349-1.00251L68.20642,98.82638c.14893.02228.2959.04926.44775.06281,2.3418.209,4.53321.37744,6.70215.51464,2.918.18457,5.8125.31983,8.60254.40186.22852.00732.46485.00342.69727-.01172l16.02929-1.09228q52.71242-3.56324,105.415-7.144l11.26172-.76465a12.26684,12.26684,0,0,1,10.05469,6.69971l27.42578,54.24121.24024.47119c.02441.04786.04882.09571.07421.14356l3.2627,6.13965a57.48284,57.48284,0,0,1,6.41309,20.9956l5.70752,56.27539H252.1781l-5.06494-41.10742a7.49773,7.49773,0,0,0-3.34473-5.36426l-8.811-5.74878c-.04859-.03332-.09253-.07092-.14209-.10327l-23.07227-15.042a22.10805,22.10805,0,0,0-31.35351,7.71436,21.90675,21.90675,0,0,0-2.53711,7.29345c-.06543.377-.11719.7666-.15332,1.14453a21.42163,21.42163,0,0,0-.12891,2.353,21.918,21.918,0,0,0,8.42969,17.373l56.86377,44.77026.02.01557,11.90527,9.37335a9.5246,9.5246,0,0,1,2.8916,3.72754,9.79571,9.79571,0,0,1,.59375,5.93066,9.6929,9.6929,0,0,1-.74487,2.14569c-.01587.03613-.03589.07019-.051.10663a9.64691,9.64691,0,0,1-8.67871,5.35706,9.55268,9.55268,0,0,1-4.78027-1.26807Zm110.22754,56.74512q.47167-.563.90527-1.147H445.9657a29.61,29.61,0,0,0,21.03418,21.03418v86.87207a29.61,29.61,0,0,0-21.03418,21.03418H221.61414A29.61,29.61,0,0,0,200.58,388.66555V301.79348a29.61,29.61,0,0,0,21.03418-21.03418h3.20336l11.782,6.708a24.69791,24.69791,0,0,0,31.1084-5.561ZM235.64978,224.2709l-40.38916-31.79919a7.019,7.019,0,0,1-2.69043-5.57276,6.54866,6.54866,0,0,1,.041-.73828c.00781-.063.01171-.11377.01757-.17676.01172-.064.02247-.12793.03223-.19238a6.9468,6.9468,0,0,1,.81348-2.3501,7.108,7.108,0,0,1,10.07812-2.481l6.41065,4.17939c.00952.00641.01806.014.02783.02032l22.66113,14.78516Zm261.3501,192.92883a22.52554,22.52554,0,0,1-22.5,22.5H193.08a22.52554,22.52554,0,0,1-22.5-22.5V273.2593a22.54814,22.54814,0,0,1,9.2041-18.13934l28.10888,16.00348a7.48767,7.48767,0,0,0-.313,2.13586,14.51669,14.51669,0,0,1-14.5,14.5,7.49974,7.49974,0,0,0-7.5,7.5v99.94043a7.49974,7.49974,0,0,0,7.5,7.5,14.5167,14.5167,0,0,1,14.5,14.5,7.49974,7.49974,0,0,0,7.5,7.5H452.49988a7.49974,7.49974,0,0,0,7.5-7.5,14.51669,14.51669,0,0,1,14.5-14.5,7.49974,7.49974,0,0,0,7.5-7.5V295.2593a7.49974,7.49974,0,0,0-7.5-7.5,14.51669,14.51669,0,0,1-14.5-14.5,7.49974,7.49974,0,0,0-7.5-7.5H273.47229a24.74755,24.74755,0,0,0-2.0437-9.59765,24.34922,24.34922,0,0,0-3.24756-5.40235H474.49988a22.52554,22.52554,0,0,1,22.5,22.5Z" class="color272a33 svgShape"></path></svg></g></svg>