<svg xmlns="http://www.w3.org/2000/svg" width="32" height="32" viewBox="0 0 32 32"><g transform="translate(0 -1020.326)"><path fill="#2b4255" style="line-height:normal;text-indent:0;text-align:start;text-decoration-line:none;text-decoration-style:solid;text-decoration-color:#000;text-transform:none;block-progression:tb;isolation:auto;mix-blend-mode:normal" d="M7.9066312 1025.3436l.3430925.9079.6350365-.2387-.3412484-.9099zm1.186605.8966l.8966992.3715.3715296-.8985-.8966989-.3696zm-2.2898391-.4796l0 0-.013588.01-.6899702.2332.3108699.9193.7051109-.2387.015529-.01.2122612-.08-.3430925-.9081zm4.1096369 1.1999l.908055.3393.341151-.9079-.907958-.3413zm-6.147422-.5099l-.4891616.1384.2616627.9345.4890645-.1364.024264-.01.437819-.1498-.31087-.9194zm8.018465 1.1431l.261565.078.03203.01.6824.1497.208573-.9477-.650275-.1422-.0097 0-.253995-.074zm-10.1984369-.5972l-.011647 0-.1270461.017.1421868.961.1611128-.024.033969-.01.788579-.1744-.2104172-.9478zm12.1660509 1.0104l.796149.1081.04173 0 .168683.01.04562-.9687-.145972-.01-.773438-.1062zm-14.18869526-.8l.0533807.9687.96871466-.053-.053381-.9688zm15.90425426 1.2262l.970559.024.01844-.7487.01747-.4734-.480136-.025-.493335-.01zm-16.467275364967.1179l.03202843497.9705.96871463-.032-.0320284-.9687zM16.44881 1028.9562l-.0097.4475 0 .5263.485279-.01.947848 0 0-.9705-.947848 0zm2.395533.9691l.970558 0 0-.9706-.970558 0zm1.941117 0l.970559 0 0-.9706-.970559 0zm1.941117 0l.970559 0 0-.9706-.970559 0zm1.941118 0l.970559 0 0-.9706-.970559 0zm1.941117 0l.970559 0 0-.9706-.970559 0zm1.941118 0l.970558 0 0-.9706-.970558 0zm1.797086.01l.164898.051.274862.1858.07376.1099.805563-.5421-.126949-.1896-.130831-.1308-.411323-.2767-.127046-.06-.236913-.074zm-30.24464742.5933l.10045283.9648.96492949-.1004-.1004529-.9649zm30.92704742 1.3648l.970559 0 0-.9706-.970559 0zm-30.69391922.599l.17635052.9536.9534769-.1744-.1744094-.9554zm30.69391922 1.3421l.970559 0 0-.9706-.970559 0zm-30.30336639.599l.25399521.9365.93649208-.254-.2540923-.9365zm30.30336639 1.3421l.970559 0 0-.9705-.970559 0zm-29.734716.5574l.3355221.9099.9098988-.3355-.3355222-.9099zm29.734716 1.3837l.970559 0 0-.9705-.970559 0zm-28.9745745.4493l.3014556.6313.022323.04.1384017.2313.832157-.4985-.1288902-.2161-.2901-.6066zm28.9745745 1.4918l.970559 0 0-.9705-.970559 0zm-28.0134302.2446l.1080232.1801.024264.038.4492716.6123.7829497-.5725-.4379161-.599-.095115-.1573zm28.0134302 1.6966l.970559 0 0-.9706-.970559 0zm-27.1605032.6692l.9705587 0 0-.9706-.9705587 0zm27.1605032 1.2719l.970559 0 0-.9706-.970559 0zm-27.1605032.6692l.9705587 0 0-.9706-.9705587 0zm27.1605032 1.2719l.970559 0 0-.9706-.970559 0zm-27.1605032.6692l.9705587 0 0-.9706-.9705587 0zm27.1605032.3658l-.02135.201-.03591.1194-.163054.2426.807602.5403.199062-.2976.06017-.127.0757-.2446.01844-.095.02621-.2597 0-.05 0-.095-.970559 0zm-26.9443598.8531l.2444838.364.1308313.1307.4094787.2787.1288902.06.03397.012.1801357-.58.2009056-.2976-.3317369-.2237-.1913942-.2844zm26.1084178-.014l-.763927 0 0 .9706.794208 0 .0495 0 .176253-.018-.09851-.9649zm-24.057336.9706l.9705587 0 0-.9706-.9705587 0zm1.9411174 0l.9705587 0 0-.9706-.9705587 0zm1.9411176 0l.970559 0 0-.9706-.970559 0zm1.941117 0l.970559 0 0-.9706-.970559 0zm1.941118 0l.970558 0 0-.9706-.970558 0zm1.941117 0l.970559 0 0-.9706-.970559 0zm1.941117 0l.970559 0 0-.9706-.970559 0zm1.941118 0l.970559 0 0-.9706-.970559 0zm1.941117 0l.970559 0 0-.9706-.970559 0zm1.941118 0l.970558 0 0-.9706-.970558 0zm1.941117 0l.970559 0 0-.9706-.970559 0zm1.941118 0l.970558 0 0-.9706-.970558 0zM6.619189 1039.8499l-.8245866-.8057 0 5.8802c0 .837.6889025 1.526 1.5259124 1.526l21.2120462 0c.837009 0 1.526009-.689 1.526009-1.526l0-12.4788c0-.8371-.690164-1.5241-1.526009-1.5241l-14.06932 0-.04173.4398.875828.5307 13.235218 0c.316305 0 .55545.2382.55545.5536l0 12.4788c0 .3151-.24031.5555-.55545.5555l-21.2120462 0c-.3151405 0-.5553537-.2404-.5553537-.5555l0-3.7476z" color="#000" font-family="sans-serif" font-weight="400" overflow="visible" white-space="normal"/><path fill="#2b4255" style="line-height:normal;text-indent:0;text-align:start;text-decoration-line:none;text-decoration-style:solid;text-decoration-color:#000;text-transform:none;block-progression:tb;isolation:auto;mix-blend-mode:normal" d="m 14.228171,1032.8626 -0.07764,0.3924 c -0.208185,1.0547 -0.492365,1.9906 -0.837787,2.8188 l -0.280588,0.671 17.026511,0 0,-3.8822 -15.830395,0 z m 0.758298,0.9706 14.101538,0 0,1.9411 -14.6797,0 c 0.219929,-0.6079 0.422484,-1.2414 0.578162,-1.9411 z" color="#000" font-family="sans-serif" font-weight="400" overflow="visible" white-space="normal"/><path fill="#f8b84e" d="m 10.647683,1043.5387 -2.9116761,0 0,0.9706 2.9116761,0 0,-0.9706 z"/><path fill="#25b39e" fill-opacity=".976" style="line-height:normal;text-indent:0;text-align:start;text-decoration-line:none;text-decoration-style:solid;text-decoration-color:#000;text-transform:none;block-progression:tb;isolation:auto;mix-blend-mode:normal" d="m 23.361323,1037.7154 c -1.334324,0 -2.426397,1.0921 -2.426397,2.4264 0,1.3343 1.092073,2.4264 2.426397,2.4264 0.52546,2e-4 1.03743,-0.1718 1.457682,-0.4872 l 0.517502,-0.3886 -0.517502,-0.3867 c -0.36658,-0.2747 -0.583015,-0.7059 -0.583791,-1.1639 l 0,0 c 8.73e-4,-0.4573 0.21624,-0.8874 0.581947,-1.1621 l 0.515561,-0.3867 -0.515561,-0.3886 c -0.419379,-0.3158 -0.929019,-0.4861 -1.453994,-0.4871 l 0,0 z m 0,0.9706 c 0.132869,2e-4 0.241378,0.088 0.367744,0.1232 -0.269815,0.397 -0.464121,0.8391 -0.464412,1.3307 l 0,0 c 1.94e-4,0.4927 0.195471,0.935 0.466257,1.3327 -0.126561,0.035 -0.236526,0.1232 -0.369589,0.1232 -0.809834,0 -1.455838,-0.6461 -1.455838,-1.4559 0,-0.8097 0.646004,-1.4558 1.455838,-1.4558 z" color="#000" font-family="sans-serif" font-weight="400" overflow="visible" white-space="normal"/><path fill="#f8b84e" d="M14.529918 1043.5387l-2.911676 0 0 .9706 2.911676 0 0-.9706zM18.412153 1043.5387l-2.911676 0 0 .9706 2.911676 0 0-.9706zM22.294388 1043.5387l-2.911677 0 0 .9706 2.911677 0 0-.9706z"/><path fill="#cad1d8" style="line-height:normal;text-indent:0;text-align:start;text-decoration-line:none;text-decoration-style:solid;text-decoration-color:#000;text-transform:none;block-progression:tb;isolation:auto;mix-blend-mode:normal" d="m 11.818856,1038.686 -0.145972,0.1838 c -0.588352,0.7352 -1.235812,1.3359 -1.9088946,1.8596 l -1.1165308,0.8682 10.7349614,0 0,-2.9116 -7.563564,0 z m 0.426464,0.9705 6.166542,0 0,0.9706 -7.161656,0 c 0.33591,-0.3132 0.680653,-0.5968 0.995114,-0.9706 z" color="#000" font-family="sans-serif" font-weight="400" overflow="visible" white-space="normal"/><path fill="#f05542" style="line-height:normal;text-indent:0;text-align:start;text-decoration-line:none;text-decoration-style:solid;text-decoration-color:#000;text-transform:none;block-progression:tb;isolation:auto;mix-blend-mode:normal" d="m 25.691052,1037.7154 c -1.334324,0 -2.426397,1.0921 -2.426397,2.4264 0,1.3343 1.092073,2.4264 2.426397,2.4264 1.334227,0 2.426397,-1.0921 2.426397,-2.4264 0,-1.3343 -1.09217,-2.4264 -2.426397,-2.4264 z m 0,0.9706 c 0.809737,0 1.455838,0.646 1.455838,1.4558 0,0.8098 -0.646101,1.4558 -1.455838,1.4558 -0.809834,0 -1.455838,-0.646 -1.455838,-1.4558 0,-0.8098 0.646004,-1.4558 1.455838,-1.4558 z" color="#000" font-family="sans-serif" font-weight="400" overflow="visible" white-space="normal"/><path fill="#4bbfeb" style="line-height:normal;text-indent:0;text-align:start;text-decoration-line:none;text-decoration-style:solid;text-decoration-color:#000;text-transform:none;block-progression:tb;isolation:auto;mix-blend-mode:normal" d="m 8.6910367,1027.0146 a 0.48532785,0.48532785 0 0 0 -0.1535424,0.03 c -1.5978308,0.5972 -4.0761524,1.598 -6.1398514,1.598 a 0.48532785,0.48532785 0 0 0 -0.4852794,0.4853 c 0,7.7779 3.2864089,11.3769 6.5436039,13.3452 a 0.48532785,0.48532785 0 0 0 0.5023612,0 c 3.2220604,-1.9471 6.5418564,-5.5879 6.5418564,-13.3452 a 0.48532785,0.48532785 0 0 0 -0.485279,-0.4853 c -2.743187,0 -4.70488,-1.0429 -6.1323781,-1.5961 a 0.48532785,0.48532785 0 0 0 -0.1914912,-0.032 z m 0.00971,1.0028 c 1.2324155,0.4937 3.1965343,1.3748 5.7873443,1.5089 -0.117535,6.9572 -2.900127,10.111 -5.7796769,11.9273 -2.9146848,-1.836 -5.6668982,-4.9494 -5.7817153,-11.9311 2.1371703,-0.1355 4.3211215,-0.9564 5.7740479,-1.5051 z" color="#000" font-family="sans-serif" font-weight="400" overflow="visible" white-space="normal"/><path fill="#25b39e" fill-opacity=".976" fill-rule="evenodd" style="line-height:normal;text-indent:0;text-align:start;text-decoration-line:none;text-decoration-style:solid;text-decoration-color:#000;text-transform:none;block-progression:tb;isolation:auto;mix-blend-mode:normal" d="m 10.226558,1032.8361 -2.1421205,2.087 -0.9023284,-0.8776 -0.6766735,0.6938 1.5790019,1.5373 2.8187935,-2.7448 -0.676673,-0.6957 z" color="#000" font-family="sans-serif" font-weight="400" overflow="visible" white-space="normal"/></g></svg>