<?xml version="1.0" encoding="UTF-8" standalone="no"?>
<svg xmlns:dc="http://purl.org/dc/elements/1.1/" xmlns:cc="http://creativecommons.org/ns#" xmlns:rdf="http://www.w3.org/1999/02/22-rdf-syntax-ns#" xmlns:svg="http://www.w3.org/2000/svg" xmlns="http://www.w3.org/2000/svg" xmlns:sodipodi="http://sodipodi.sourceforge.net/DTD/sodipodi-0.dtd" xmlns:inkscape="http://www.inkscape.org/namespaces/inkscape" width="32px" height="32px" viewBox="0 0 32 32.000001" id="svg2" version="1.1" inkscape:version="0.48.4 r9939" sodipodi:docname="30 credit debit card protect safety secure lock transaction.svg">
  <defs id="defs4"/>
  <sodipodi:namedview id="base" pagecolor="#ffffff" bordercolor="#666666" borderopacity="1.0" inkscape:pageopacity="0.0" inkscape:pageshadow="2" inkscape:zoom="15.839192" inkscape:cx="10.474427" inkscape:cy="17.242889" inkscape:document-units="px" inkscape:current-layer="g5040" showgrid="true" units="px" inkscape:window-width="1366" inkscape:window-height="705" inkscape:window-x="-8" inkscape:window-y="-8" inkscape:window-maximized="1" inkscape:snap-bbox="true" inkscape:bbox-paths="true" inkscape:bbox-nodes="true" inkscape:snap-bbox-edge-midpoints="true" inkscape:snap-bbox-midpoints="true" showguides="true" inkscape:snap-global="false">
    <inkscape:grid type="xygrid" id="grid3336"/>
  </sodipodi:namedview>
  
  <g inkscape:label="Layer 1" inkscape:groupmode="layer" id="layer1" transform="translate(0,-1020.3622)">
    <g style="font-style:normal;font-weight:normal;font-size:35.48073959px;line-height:125%;font-family:sans-serif;letter-spacing:0px;word-spacing:0px;fill:#000000;fill-opacity:1;stroke:none;stroke-width:1px;stroke-linecap:butt;stroke-linejoin:miter;stroke-opacity:1" id="text11970">
      <g style="font-style:normal;font-weight:normal;font-size:44.40242004px;line-height:125%;font-family:sans-serif;letter-spacing:0px;word-spacing:0px;fill:#000000;fill-opacity:1;stroke:none;stroke-width:1px;stroke-linecap:butt;stroke-linejoin:miter;stroke-opacity:1" id="text12257">
        <g id="g3549">
          <g id="text12297" style="font-style:normal;font-weight:normal;font-size:45.12057877px;line-height:125%;font-family:sans-serif;letter-spacing:0px;word-spacing:0px;fill:#000000;fill-opacity:1;stroke:none;stroke-width:1px;stroke-linecap:butt;stroke-linejoin:miter;stroke-opacity:1">
            <g id="g4774">
              <g id="g5040">
                <path style="color:#000000;font-style:normal;font-variant:normal;font-weight:normal;font-stretch:normal;font-size:medium;line-height:125%;font-family:sans-serif;text-indent:0;text-align:start;text-decoration:none;text-decoration-line:none;text-decoration-style:solid;text-decoration-color:#000000;letter-spacing:0px;word-spacing:0px;text-transform:none;direction:ltr;block-progression:tb;writing-mode:lr-tb;baseline-shift:baseline;text-anchor:start;white-space:normal;clip-rule:nonzero;display:inline;overflow:visible;visibility:visible;opacity:1;isolation:auto;mix-blend-mode:normal;color-interpolation:sRGB;color-interpolation-filters:linearRGB;solid-color:#000000;solid-opacity:1;fill:#000000;fill-opacity:1;fill-rule:nonzero;stroke:none;stroke-width:0.99999994px;stroke-linecap:butt;stroke-linejoin:miter;stroke-miterlimit:4;stroke-dasharray:none;stroke-dashoffset:0;stroke-opacity:1;color-rendering:auto;image-rendering:auto;shape-rendering:auto;text-rendering:auto;enable-background:accumulate" d="M 8.53125 4.4375 L 7.90625 4.6875 L 8.25 5.59375 L 8.875 5.34375 L 8.53125 4.4375 z M 9.46875 4.6875 L 9.09375 5.5625 L 10 5.9375 L 10.375 5.03125 L 9.46875 4.6875 z M 7 5.03125 L 6.8125 5.09375 L 6.78125 5.09375 L 6.09375 5.34375 L 6.40625 6.25 L 7.125 6 L 7.34375 5.9375 L 7 5.03125 z M 11.25 5.375 L 10.90625 6.28125 L 11.8125 6.625 L 12.15625 5.71875 L 11.25 5.375 z M 5.1875 5.625 L 4.75 5.78125 L 4.28125 5.90625 L 4.53125 6.84375 L 5.03125 6.71875 L 5.0625 6.71875 L 5.5 6.5625 L 5.1875 5.625 z M 13.0625 6 L 12.78125 6.9375 L 13.03125 7 L 13.0625 7 L 13.75 7.15625 L 13.96875 6.21875 L 13.3125 6.0625 L 13.0625 6 z M 3.375 6.15625 L 2.59375 6.3125 L 2.5625 6.3125 L 2.4375 6.34375 L 2.59375 7.3125 L 2.75 7.28125 L 2.78125 7.28125 L 3.5625 7.09375 L 3.375 6.15625 z M 8.53125 6.34375 A 0.50004995 0.50004995 0 0 0 8.53125 6.375 C 6.9329099 6.9723 4.4654237 7.96875 2.40625 7.96875 A 0.50004995 0.50004995 0 0 0 1.90625 8.46875 C 1.90625 14.07479 3.6079946 17.497604 5.78125 19.71875 L 5.78125 24.25 C 5.78125 25.0949 6.4675792 25.78125 7.3125 25.78125 L 28.53125 25.78125 C 29.376171 25.78125 30.0625 25.0949 30.0625 24.25 L 30.0625 11.78125 C 30.0625 10.93625 29.375014 10.25 28.53125 10.25 L 15.4375 10.25 C 15.478689 9.6780987 15.53125 9.0925512 15.53125 8.46875 A 0.50004995 0.50004995 0 0 0 15.03125 7.96875 C 12.291778 7.96875 10.304164 6.9289 8.875 6.375 A 0.50004995 0.50004995 0 0 0 8.6875 6.34375 A 0.50004995 0.50004995 0 0 0 8.53125 6.34375 z M 14.875 6.375 L 14.75 7.34375 L 15.5625 7.4375 L 15.59375 7.4375 L 15.75 7.46875 L 15.8125 6.5 L 15.65625 6.46875 L 14.875 6.375 z M 1.53125 6.46875 L 0.5625 6.53125 L 0.625 7.5 L 1.59375 7.4375 L 1.53125 6.46875 z M 16.5 6.53125 L 16.46875 7.75 L 17.4375 7.78125 L 17.46875 7.03125 L 17.46875 6.5625 L 17 6.53125 L 16.5 6.53125 z M 8.6875 7.375 C 9.9159869 7.8675 11.88562 8.7374 14.46875 8.875 C 14.382608 13.820552 12.950636 16.829184 11.09375 18.8125 C 10.976698 18.936189 10.870292 19.07169 10.75 19.1875 C 10.709405 19.226735 10.665909 19.274131 10.625 19.3125 C 10.345895 19.57295 10.041594 19.835582 9.75 20.0625 C 9.7313372 20.076921 9.706198 20.079472 9.6875 20.09375 C 9.3669451 20.337277 9.0451183 20.574763 8.71875 20.78125 C 8.3671685 20.559508 7.9985719 20.294831 7.65625 20.03125 C 7.3072268 19.7692 6.9542374 19.4779 6.625 19.15625 C 4.6072025 17.183521 3.0264813 14.12439 2.9375 8.875 C 5.0715238 8.7361 7.2383497 7.9225 8.6875 7.375 z M 0.96875 7.84375 L 0 7.875 L 0.03125 8.84375 L 1 8.8125 L 0.96875 7.84375 z M 16.4375 8.28125 L 16.4375 8.71875 L 16.4375 9.25 L 16.9375 9.25 L 17.875 9.25 L 17.875 8.28125 L 16.9375 8.28125 L 16.4375 8.28125 z M 18.84375 8.28125 L 18.84375 9.25 L 19.8125 9.25 L 19.8125 8.28125 L 18.84375 8.28125 z M 20.78125 8.28125 L 20.78125 9.25 L 21.75 9.25 L 21.75 8.28125 L 20.78125 8.28125 z M 22.71875 8.28125 L 22.71875 9.25 L 23.6875 9.25 L 23.6875 8.28125 L 22.71875 8.28125 z M 24.65625 8.28125 L 24.65625 9.25 L 25.625 9.25 L 25.625 8.28125 L 24.65625 8.28125 z M 26.59375 8.28125 L 26.59375 9.25 L 27.59375 9.25 L 27.59375 8.28125 L 26.59375 8.28125 z M 28.5625 8.28125 L 28.5625 9.25 L 29.53125 9.25 L 29.53125 8.28125 L 28.5625 8.28125 z M 30.625 8.34375 L 30.34375 9.25 L 30.5 9.3125 L 30.78125 9.5 L 30.875 9.625 L 31.65625 9.0625 L 31.53125 8.875 L 31.40625 8.75 L 31 8.46875 L 30.875 8.40625 L 30.625 8.34375 z M 1.0625 9.75 L 0.09375 9.84375 L 0.1875 10.8125 L 1.15625 10.71875 L 1.0625 9.75 z M 8.71875 10.25 C 6.9241525 10.25 5.3437336 11.79915 5.34375 13.59375 C 5.3437966 15.38825 6.9241939 16.9375 8.71875 16.9375 C 10.513306 16.9375 12.062453 15.38825 12.0625 13.59375 C 12.062516 11.79915 10.513348 10.25 8.71875 10.25 z M 31.03125 10.25 L 31.03125 11.21875 L 32 11.21875 L 32 10.25 L 31.03125 10.25 z M 8.71875 11.25 C 9.6547175 11.25 10.559734 11.989637 10.90625 12.875 C 10.999566 13.113426 11.062502 13.34168 11.0625 13.59375 C 11.062469 14.78165 9.9067453 15.9375 8.71875 15.9375 C 7.5307547 15.9375 6.3437808 14.78165 6.34375 13.59375 C 6.3437391 12.40565 7.5307295 11.25 8.71875 11.25 z M 10.90625 12.875 L 10.21875 12.15625 L 8.09375 14.21875 L 7.1875 13.375 L 6.5 14.09375 L 8.09375 15.625 L 10.90625 12.875 z M 15.375 11.25 L 28.53125 11.25 C 28.839694 11.25 29.0625 11.47375 29.0625 11.78125 L 29.0625 12.1875 L 15.21875 12.1875 C 15.270108 11.879899 15.336655 11.574987 15.375 11.25 z M 1.28125 11.65625 L 0.34375 11.8125 L 0.5 12.78125 L 1.46875 12.59375 L 1.28125 11.65625 z M 31.03125 12.1875 L 31.03125 13.15625 L 32 13.15625 L 32 12.1875 L 31.03125 12.1875 z M 15 13.1875 L 29.0625 13.1875 L 29.0625 15.09375 L 14.46875 15.09375 C 14.680777 14.50573 14.847423 13.862369 15 13.1875 z M 1.65625 13.5 L 0.71875 13.75 L 0.96875 14.6875 L 1.90625 14.4375 L 1.65625 13.5 z M 31.03125 14.125 L 31.03125 15.09375 L 32 15.09375 L 32 14.125 L 31.03125 14.125 z M 2.21875 15.3125 L 1.28125 15.65625 L 1.625 16.5625 L 2.53125 16.25 L 2.21875 15.3125 z M 31.03125 16.0625 L 31.03125 17.0625 L 32 17.0625 L 32 16.0625 L 31.03125 16.0625 z M 14.0625 16.09375 L 29.0625 16.09375 L 29.0625 24.25 C 29.0625 24.5573 28.838537 24.78125 28.53125 24.78125 L 7.3125 24.78125 C 7.0052142 24.78125 6.78125 24.5573 6.78125 24.25 L 6.78125 20.625 C 7.3271461 21.073926 7.8763898 21.47343 8.4375 21.8125 A 0.50004995 0.50004995 0 0 0 8.5 21.84375 L 8.71875 21.96875 L 8.96875 21.8125 C 9.3191846 21.600725 9.6525498 21.381649 10 21.125 C 10.084815 21.06326 10.165614 21.002016 10.25 20.9375 L 19.40625 20.9375 L 19.40625 18 L 13.03125 18 C 13.413424 17.428674 13.750691 16.789098 14.0625 16.09375 z M 23.1875 17.03125 C 21.928484 17.11525 20.905832 18.20695 20.90625 19.46875 C 20.90855 20.79935 22.044523 21.92515 23.375 21.90625 C 23.793896 21.90625 24.171342 21.794103 24.53125 21.59375 C 24.880809 21.790633 25.267544 21.906282 25.6875 21.90625 C 27.007146 21.90635 28.124985 20.78835 28.125 19.46875 C 28.124985 18.14905 27.007146 17.03125 25.6875 17.03125 C 25.282677 17.03125 24.902896 17.159795 24.5625 17.34375 C 24.212084 17.148342 23.813944 17.034441 23.40625 17.03125 C 23.39685 17.03085 23.38436 17.03145 23.375 17.03125 L 23.1875 17.03125 z M 2.9375 17.0625 L 2.0625 17.5 L 2.34375 18.125 L 2.375 18.15625 L 2.53125 18.40625 L 3.34375 17.90625 L 3.21875 17.6875 L 2.9375 17.0625 z M 23.25 18.03125 L 23.34375 18.03125 L 23.375 18.03125 C 23.482365 18.03065 23.58123 18.101 23.6875 18.125 C 23.562737 18.307779 23.446906 18.507231 23.375 18.71875 C 23.371852 18.727694 23.378041 18.74102 23.375 18.75 C 23.34882 18.830259 23.330104 18.916685 23.3125 19 C 23.28031 19.14844 23.249515 19.311976 23.25 19.46875 C 23.249521 19.625492 23.28031 19.789075 23.3125 19.9375 C 23.314421 19.94719 23.31046 19.959097 23.3125 19.96875 C 23.329592 20.042672 23.350731 20.115833 23.375 20.1875 C 23.444957 20.406547 23.561124 20.623276 23.6875 20.8125 C 23.58123 20.8365 23.482365 20.90625 23.375 20.90625 C 22.656808 20.91625 21.907517 20.18695 21.90625 19.46875 C 21.906023 18.78315 22.565939 18.07665 23.25 18.03125 z M 25.6875 18.03125 C 26.400578 18.03125 27.124992 18.75565 27.125 19.46875 C 27.124992 20.18175 26.400578 20.90635 25.6875 20.90625 C 24.974422 20.90635 24.250008 20.18175 24.25 19.46875 C 24.249745 19.388851 24.266026 19.298575 24.28125 19.21875 C 24.429662 18.602355 25.063557 18.03125 25.6875 18.03125 z M 31.03125 18.03125 L 31.03125 19 L 32 19 L 32 18.03125 L 31.03125 18.03125 z M 3.84375 18.71875 L 3.03125 19.21875 L 3.125 19.40625 L 3.15625 19.4375 L 3.59375 20.0625 L 4.375 19.5 L 3.9375 18.90625 L 3.84375 18.71875 z M 12.25 19 C 12.254462 18.994649 12.276794 19.005364 12.28125 19 L 18.40625 19 L 18.40625 19.9375 L 11.40625 19.9375 C 11.621629 19.727109 11.824841 19.484352 12.03125 19.25 C 12.102556 19.167919 12.179986 19.085129 12.25 19 z M 31.03125 19.96875 L 31.03125 20.9375 L 32 20.9375 L 32 19.96875 L 31.03125 19.96875 z M 3.875 20.625 L 3.875 21.59375 L 4.84375 21.59375 L 4.84375 20.625 L 3.875 20.625 z M 31.03125 21.90625 L 31.03125 22.875 L 32 22.875 L 32 21.90625 L 31.03125 21.90625 z M 3.875 22.5625 L 3.875 23.53125 L 4.84375 23.53125 L 4.84375 22.5625 L 3.875 22.5625 z M 7.75 22.875 L 7.75 23.84375 L 10.65625 23.84375 L 10.65625 22.875 L 7.75 22.875 z M 11.625 22.875 L 11.625 23.84375 L 14.53125 23.84375 L 14.53125 22.875 L 11.625 22.875 z M 15.5 22.875 L 15.5 23.84375 L 18.40625 23.84375 L 18.40625 22.875 L 15.5 22.875 z M 19.375 22.875 L 19.375 23.84375 L 22.28125 23.84375 L 22.28125 22.875 L 19.375 22.875 z M 31.03125 23.84375 L 31.03125 24.8125 L 32 24.8125 L 32 23.84375 L 31.03125 23.84375 z M 3.875 24.5 L 3.875 25.46875 L 4.84375 25.46875 L 4.84375 24.5 L 3.875 24.5 z M 31.03125 25.78125 L 31.03125 25.84375 L 31 26.0625 L 30.96875 26.15625 L 30.8125 26.40625 L 31.625 26.9375 L 31.8125 26.65625 L 31.875 26.53125 L 31.9375 26.28125 L 31.96875 26.1875 L 32 25.9375 L 32 25.875 L 32 25.78125 L 31.03125 25.78125 z M 4.90625 26.15625 L 4.09375 26.6875 L 4.34375 27.0625 L 4.46875 27.1875 L 4.875 27.46875 L 5 27.53125 L 5.03125 27.53125 L 5.21875 26.96875 L 5.40625 26.65625 L 5.09375 26.4375 L 4.90625 26.15625 z M 6.125 26.6875 L 6.125 27.65625 L 7.09375 27.65625 L 7.09375 26.6875 L 6.125 26.6875 z M 8.0625 26.6875 L 8.0625 27.65625 L 9.0625 27.65625 L 9.0625 26.6875 L 8.0625 26.6875 z M 10.03125 26.6875 L 10.03125 27.65625 L 11 27.65625 L 11 26.6875 L 10.03125 26.6875 z M 11.96875 26.6875 L 11.96875 27.65625 L 12.9375 27.65625 L 12.9375 26.6875 L 11.96875 26.6875 z M 13.90625 26.6875 L 13.90625 27.65625 L 14.875 27.65625 L 14.875 26.6875 L 13.90625 26.6875 z M 15.84375 26.6875 L 15.84375 27.65625 L 16.8125 27.65625 L 16.8125 26.6875 L 15.84375 26.6875 z M 17.78125 26.6875 L 17.78125 27.65625 L 18.75 27.65625 L 18.75 26.6875 L 17.78125 26.6875 z M 19.71875 26.6875 L 19.71875 27.65625 L 20.6875 27.65625 L 20.6875 26.6875 L 19.71875 26.6875 z M 21.65625 26.6875 L 21.65625 27.65625 L 22.625 27.65625 L 22.625 26.6875 L 21.65625 26.6875 z M 23.59375 26.6875 L 23.59375 27.65625 L 24.5625 27.65625 L 24.5625 26.6875 L 23.59375 26.6875 z M 25.5625 26.6875 L 25.5625 27.65625 L 26.53125 27.65625 L 26.53125 26.6875 L 25.5625 26.6875 z M 27.5 26.6875 L 27.5 27.65625 L 28.46875 27.65625 L 28.46875 26.6875 L 27.5 26.6875 z M 29.4375 26.6875 L 29.4375 27.65625 L 30.21875 27.65625 L 30.28125 27.65625 L 30.4375 27.625 L 30.34375 26.6875 L 30.1875 26.6875 L 29.4375 26.6875 z " transform="translate(-5e-7,1020.3622)" id="path12859"/>
              </g>
            </g>
          </g>
        </g>
      </g>
    </g>
  </g>

	
	
	
	<metadata>
		<rdf:RDF xmlns:rdf="http://www.w3.org/1999/02/22-rdf-syntax-ns#" xmlns:rdfs="http://www.w3.org/2000/01/rdf-schema#" xmlns:dc="http://purl.org/dc/elements/1.1/">
			<rdf:Description about="https://iconscout.com/legal#licenses" dc:title="Credit, Debit, Card, Protect, Safety, Secure, Lock, Transaction" dc:description="Credit, Debit, Card, Protect, Safety, Secure, Lock, Transaction" dc:publisher="Iconscout" dc:date="2016-12-14" dc:format="image/svg+xml" dc:language="en">
				<dc:creator>
					<rdf:Bag>
						<rdf:li>Mohit Gandhi</rdf:li>
					</rdf:Bag>
				</dc:creator>
			</rdf:Description>
		</rdf:RDF>
    </metadata></svg>
