<svg id="SvgjsSvg1300" width="288" height="288" xmlns="http://www.w3.org/2000/svg" version="1.1" xmlns:xlink="http://www.w3.org/1999/xlink" xmlns:svgjs="http://svgjs.com/svgjs"><defs id="SvgjsDefs1301"></defs><g id="SvgjsG1302" transform="matrix(1,0,0,1,0,0)"><svg xmlns="http://www.w3.org/2000/svg" enable-background="new 0 0 32 32" viewBox="0 0 32 32" width="288" height="288"><path fill="#66ccff" d="M29,20v5H3v-5C3,12.83,8.83,7,16,7S29,12.83,29,20z" class="color45aaf2 svgShape"></path><path fill="#c5921c" d="M15.5 12h1c.2761 0 .5-.2239.5-.5v-1c0-.2761-.2239-.5-.5-.5h-1c-.2761 0-.5.2239-.5.5v1C15 11.7761 15.2239 12 15.5 12zM7.8682 14.2823l.707.707c.1953.1953.5118.1953.7071 0l.707-.707c.1953-.1953.1953-.5118 0-.7071l-.707-.707c-.1953-.1953-.5118-.1953-.7071 0l-.707.707C7.6729 13.7704 7.6729 14.087 7.8682 14.2823zM22.0108 14.2823l.707.707c.1953.1953.5118.1953.7071 0l.707-.707c.1953-.1953.1953-.5118 0-.7071l-.707-.707c-.1953-.1953-.5118-.1953-.7071 0l-.707.707C21.8155 13.7704 21.8155 14.087 22.0108 14.2823zM24.5 22h1c.2761 0 .5-.2239.5-.5v-1c0-.2761-.2239-.5-.5-.5h-1c-.2761 0-.5.2239-.5.5v1C24 21.7761 24.2239 22 24.5 22zM6.5 22h1C7.7761 22 8 21.7761 8 21.5v-1C8 20.2239 7.7761 20 7.5 20h-1C6.2239 20 6 20.2239 6 20.5v1C6 21.7761 6.2239 22 6.5 22z" class="color3867d6 svgShape"></path><path fill="#d1d8e0" d="M21,25H11c0-2.76,2.24-5,5-5S21,22.24,21,25z" class="colord1d8e0 svgShape"></path><path fill="#c5921c" d="M16,6C8.2803,6,2,12.2803,2,20v5c0,0.5527,0.4473,1,1,1h26c0.5527,0,1-0.4473,1-1v-5C30,12.2803,23.7197,6,16,6z M12.142,24c0.4471-1.7205,1.9993-3,3.858-3s3.4109,1.2795,3.858,3H12.142z M28,24h-6.0903c-0.4233-2.5071-2.4025-4.4864-4.9097-4.9097V14.5c0-0.2761-0.2239-0.5-0.5-0.5h-1c-0.2761,0-0.5,0.2239-0.5,0.5v4.5903c-2.5071,0.4233-4.4864,2.4025-4.9097,4.9097H4l0-3.649C4,14.1058,8.6262,8.6393,14.844,8.0545C21.9786,7.3834,28,13.0013,28,20V24z" class="color3867d6 svgShape"></path></svg></g></svg>