<svg xmlns="http://www.w3.org/2000/svg" data-name="Layer 1" viewBox="0 0 512 512"><path d="M148.02637,208.57227a31.59864,31.59864,0,1,0-31.59864,31.59863A31.63438,31.63438,0,0,0,148.02637,208.57227ZM116.42773,225.1709a16.59864,16.59864,0,1,1,16.59864-16.59863A16.61765,16.61765,0,0,1,116.42773,225.1709Zm22.04688,61.18115,2.1748-14.938a64.85944,64.85944,0,0,0,17.26075-10.7749l14.85351,5.91553a7.501,7.501,0,0,0,9.26953-3.21778l14.625-25.33056a7.50021,7.50021,0,0,0-1.84863-9.63721l-14.04883-11.08935a71.23261,71.23261,0,0,0,0-17.41456l14.04883-11.08935a7.5001,7.5001,0,0,0,1.84863-9.63721l-14.625-25.33105a7.50137,7.50137,0,0,0-9.26953-3.21778l-14.85449,5.91553a64.83874,64.83874,0,0,0-17.25977-10.7749l-2.1748-14.9375a7.50045,7.50045,0,0,0-7.42188-6.41895h-29.25a7.50044,7.50044,0,0,0-7.42187,6.41895l-2.17481,14.9375a64.83885,64.83885,0,0,0-17.25976,10.7749L60.0918,150.58984a7.498,7.498,0,0,0-9.26953,3.21778l-14.625,25.33105a7.50021,7.50021,0,0,0,1.84863,9.63721l14.04883,11.08935a71.22862,71.22862,0,0,0,0,17.41407L38.0459,228.36963a7.49946,7.49946,0,0,0-1.84863,9.63672l14.625,25.33056a7.50058,7.50058,0,0,0,9.26953,3.21778l14.85351-5.91553a64.85954,64.85954,0,0,0,17.26074,10.7749l2.17481,14.938a7.50044,7.50044,0,0,0,7.42187,6.41895h29.25A7.50045,7.50045,0,0,0,138.47461,286.35205Zm-12.03223-21.46777L124.56543,277.771H108.29l-1.877-12.88672a7.50089,7.50089,0,0,0-5.042-6.03125,49.61269,49.61269,0,0,1-19.43847-12.21094,7.50039,7.50039,0,0,0-8.11328-1.69971l-13.25,5.27686L52.43066,236.124l12.39454-9.78418a7.49811,7.49811,0,0,0,2.7207-7.28955,56.20334,56.20334,0,0,1,0-20.956,7.49931,7.49931,0,0,0-2.7207-7.29L52.43066,181.021l8.13868-14.09571,13.25,5.27686a7.49662,7.49662,0,0,0,8.1123-1.69971,49.63714,49.63714,0,0,1,19.43945-12.21094,7.50087,7.50087,0,0,0,5.042-6.03125L108.29,139.374h16.27539l1.87695,12.88623a7.50087,7.50087,0,0,0,5.042,6.03125,49.63714,49.63714,0,0,1,19.43945,12.21094,7.49737,7.49737,0,0,0,8.1123,1.69971l13.25-5.27686,8.13867,14.09522-12.3955,9.78369a7.49816,7.49816,0,0,0-2.72071,7.292,56.12776,56.12776,0,0,1,0,20.95215,7.49854,7.49854,0,0,0,2.72071,7.292l12.3955,9.78369-8.13867,14.09522-13.25-5.27686a7.50384,7.50384,0,0,0-8.11328,1.69971A49.61269,49.61269,0,0,1,131.48438,258.853,7.50089,7.50089,0,0,0,126.44238,264.88428ZM375.18555,220H264a7.5,7.5,0,0,0,0,15H375.18555a7.5,7.5,0,0,0,0-15ZM452,0c-.3772,0-.75.01794-1.12476.02856C450.68774.01453,450.50049,0,450.30957,0h-329a37.54227,37.54227,0,0,0-37.5,37.5V96.8017a116.43481,116.43481,0,0,0,0,223.54113V427H28.31445a7.49975,7.49975,0,0,0-7.5,7.5v40a37.54227,37.54227,0,0,0,37.5,37.5h333a7.57122,7.57122,0,0,0,.81519-.04608A37.54477,37.54477,0,0,0,427.81445,474.5V85h55.8711a7.49975,7.49975,0,0,0,7.5-7.5V39.186A39.22978,39.22978,0,0,0,452,0ZM15,208.57227A101.42774,101.42774,0,1,1,116.42773,310,101.54255,101.54255,0,0,1,15,208.57227ZM145.44043,95.80408V67.5a7.5082,7.5082,0,0,1,7.5-7.5h207.25a7.5082,7.5082,0,0,1,7.5,7.5v40a7.5082,7.5082,0,0,1-7.5,7.5h-174.564A116.0373,116.0373,0,0,0,145.44043,95.80408ZM58.31445,497a22.52554,22.52554,0,0,1-22.5-22.5V442h314v31a38.79527,38.79527,0,0,0,8.293,24Zm354.5-457.814V473a24,24,0,0,1-48,0V434.5a7.49974,7.49974,0,0,0-7.5-7.5c-.16894,0-.334.01422-.5.02521-.166-.011-.33105-.02521-.5-.02521H98.80957V323.66846A116.37836,116.37836,0,0,0,202.2666,130H360.19043a22.52554,22.52554,0,0,0,22.5-22.5v-40a22.52554,22.52554,0,0,0-22.5-22.5h-207.25a22.52554,22.52554,0,0,0-22.5,22.5V92.99048a116.89242,116.89242,0,0,0-31.63086.48559V37.5a22.52554,22.52554,0,0,1,22.5-22.5H421.20312A38.98129,38.98129,0,0,0,412.81445,39.186ZM476.18555,70h-48.3711V39.186a24.18555,24.18555,0,1,1,48.3711,0Zm-101,105H265a7.5,7.5,0,0,0,0,15H375.18555a7.5,7.5,0,0,0,0-15Zm0,135h-165a7.5,7.5,0,0,0,0,15h165a7.5,7.5,0,0,0,0-15Zm0-45H246a7.5,7.5,0,0,0,0,15H375.18555a7.5,7.5,0,0,0,0-15Zm0,90h-240a7.5,7.5,0,0,0,0,15h240a7.5,7.5,0,0,0,0-15Z"/></svg>