<svg xmlns="http://www.w3.org/2000/svg" data-name="Layer 1" viewBox="0 0 512 512"><circle cx="220.81" cy="37.65" r="7.5"/><rect width="356" height="437" x="42.81" y="67.5" fill="#f9a242" rx="30"/><path fill="#f69531" d="M398.8,97.5v377a30,30,0,0,1-30,30h-30a30,30,0,0,0,30-30V97.5a30,30,0,0,0-30-30h30A30,30,0,0,1,398.8,97.5Z"/><rect width="265" height="347" x="88.3" y="112.5" fill="#fff" rx="4"/><polygon fill="#f69531" points="368.8 280.77 368.8 343.2 353.3 371.48 353.3 309.06 368.8 280.77"/><polygon fill="#e1e1e3" points="353.3 309.06 353.3 371.48 343.84 388.75 317.53 374.33 353.3 309.06"/><path fill="#787681" d="M260.07,57.68a40.46,40.46,0,1,0-78.53,0H163.8a19.66,19.66,0,0,0-19.66,19.65v28.83a19.66,19.66,0,0,0,19.66,19.66h114a19.66,19.66,0,0,0,19.66-19.66V77.33a19.66,19.66,0,0,0-19.66-19.65Z"/><path fill="#57565c" d="M277.81,57.68H260.07a40.46,40.46,0,0,0-54.27-47.3,40.45,40.45,0,0,1,24.27,47.3h17.74a19.66,19.66,0,0,1,19.66,19.65v28.83a19.66,19.66,0,0,1-19.66,19.66h30a19.66,19.66,0,0,0,19.66-19.66V77.33A19.66,19.66,0,0,0,277.81,57.68Z"/><circle cx="133.31" cy="166" r="15" fill="#227fc0"/><path fill="#2370b5" d="M133.3,151a15,15,0,0,0-4.8.8,15,15,0,0,1,0,28.4,15,15,0,1,0,4.8-29.2Z"/><circle cx="133.31" cy="226" r="15" fill="#227fc0"/><path fill="#2370b5" d="M133.3,211a15,15,0,0,0-4.8.8,15,15,0,0,1,0,28.4,15,15,0,1,0,4.8-29.2Z"/><circle cx="133.31" cy="286" r="15" fill="#227fc0"/><path fill="#2370b5" d="M133.3,271a15,15,0,0,0-4.8.8,15,15,0,0,1,0,28.4,15,15,0,1,0,4.8-29.2Z"/><circle cx="133.31" cy="346" r="15" fill="#227fc0"/><path fill="#2370b5" d="M133.3,331a15,15,0,0,0-4.8.8,15,15,0,0,1,0,28.4,15,15,0,1,0,4.8-29.2Z"/><circle cx="133.31" cy="406" r="15" fill="#227fc0"/><path fill="#2370b5" d="M133.3,391a15,15,0,0,0-4.8.8,15,15,0,0,1,0,28.4,15,15,0,1,0,4.8-29.2Z"/><polygon fill="#e1e1e3" points="343.84 388.75 309.06 421 317.53 374.33 343.84 388.75"/><polygon fill="#f69531" points="398.8 226.03 398.8 288.45 368.8 343.2 368.8 280.77 398.8 226.03"/><path fill="#787681" d="M469.19,141.17a14.88,14.88,0,0,1-1.85,7.2l-8.17,14.91-26.3-14.42L441,134a15,15,0,0,1,28.15,7.22Z"/><polygon fill="#787681" points="343.84 373.75 309.06 406 317.53 359.33 343.84 373.75"/><polygon fill="#e4222e" points="459.17 163.28 343.84 373.75 317.53 359.33 432.87 148.86 459.17 163.28"/><path fill="#3c3b41" d="M193.3,293.43h115a7.5,7.5,0,0,0,0-15h-115a7.5,7.5,0,0,0,0,15Zm0,60h100a7.5,7.5,0,0,0,0-15h-100a7.5,7.5,0,0,0,0,15Zm0-120h115a7.5,7.5,0,0,0,0-15h-115a7.5,7.5,0,0,0,0,15ZM220.8,45.07a7.5,7.5,0,1,0-7.5-7.5A7.5,7.5,0,0,0,220.8,45.07ZM193.3,173.43h115a7.5,7.5,0,0,0,0-15h-115a7.5,7.5,0,0,0,0,15Zm-60,255a22.5,22.5,0,1,0-22.5-22.5A22.52,22.52,0,0,0,133.3,428.43Zm0-30a7.5,7.5,0,1,1-7.5,7.5A7.5,7.5,0,0,1,133.3,398.43Zm0-210a22.5,22.5,0,1,0-22.5-22.5A22.52,22.52,0,0,0,133.3,188.43Zm0-30a7.5,7.5,0,1,1-7.5,7.5A7.5,7.5,0,0,1,133.3,158.43Zm342.49-23.65a22.5,22.5,0,0,0-41.33-4.5l-8.17,14.9h0l-20,36.47V97.43a37.54,37.54,0,0,0-37.5-37.5H298.69a27.08,27.08,0,0,0-20.88-9.82H268.7a48,48,0,1,0-95.85-2.23c0,.74,0,1.49.05,2.23h-9.1a27.11,27.11,0,0,0-20.89,9.82H72.8a37.54,37.54,0,0,0-37.5,37.5v377a37.54,37.54,0,0,0,37.5,37.5h296a37.54,37.54,0,0,0,37.5-37.5V275.3l67.62-123.4A22.37,22.37,0,0,0,475.79,134.78Zm-107-59.85a22.52,22.52,0,0,1,22.5,22.5V209l-30.5,55.66V112.43a7.5,7.5,0,0,0-7.5-7.5H305V77.26c0-.78,0-1.56-.1-2.33ZM151.64,77.26A12.17,12.17,0,0,1,163.8,65.11h17.73a7.51,7.51,0,0,0,7.29-9.3A33,33,0,0,1,224,15.08a33,33,0,0,1,28.75,40.73,7.51,7.51,0,0,0,7.28,9.3h17.74A12.16,12.16,0,0,1,290,77.26v28.83a12.17,12.17,0,0,1-12.15,12.16h-114a12.17,12.17,0,0,1-12.16-12.16Zm12.16,56h114a27.16,27.16,0,0,0,23.35-13.32H345.8V292.06L311,355.65a8.07,8.07,0,0,0-.45,1,1.46,1.46,0,0,1-.07.19,8,8,0,0,0-.27,1,.06.06,0,0,0,0,0l-7.36,40.51H193.3a7.5,7.5,0,0,0,0,15h115l.42,0,.33,0a7.48,7.48,0,0,0,5.1-2l31.65-29.35v69.85H95.8v-332h44.64A27.16,27.16,0,0,0,163.8,133.25ZM323.05,370.84l8.06,4.41-10.66,9.88ZM391.3,474.43a22.52,22.52,0,0,1-22.5,22.5H72.8a22.52,22.52,0,0,1-22.5-22.5v-377a22.52,22.52,0,0,1,22.5-22.5h64c-.07.77-.11,1.55-.11,2.33v27.67H88.3a7.5,7.5,0,0,0-7.5,7.5v347a7.5,7.5,0,0,0,7.5,7.5h265a7.5,7.5,0,0,0,7.5-7.5V358.33l30.5-55.66Zm.9-204.63h0l-51.34,93.68-13.15-7.2,32.12-58.62.11-.2,45.4-82.85.09-.17L435.84,159,449,166.18Zm68.57-125.11L456.2,153l-13.15-7.21,4.56-8.33a7.5,7.5,0,1,1,13.16,7.2ZM133.3,368.43a22.5,22.5,0,1,0-22.5-22.5A22.52,22.52,0,0,0,133.3,368.43Zm0-30a7.5,7.5,0,1,1-7.5,7.5A7.5,7.5,0,0,1,133.3,338.43Zm0-30a22.5,22.5,0,1,0-22.5-22.5A22.52,22.52,0,0,0,133.3,308.43Zm0-30a7.5,7.5,0,1,1-7.5,7.5A7.5,7.5,0,0,1,133.3,278.43Zm0-30a22.5,22.5,0,1,0-22.5-22.5A22.52,22.52,0,0,0,133.3,248.43Zm0-30a7.5,7.5,0,1,1-7.5,7.5A7.5,7.5,0,0,1,133.3,218.43Z"/></svg>