<svg xmlns="http://www.w3.org/2000/svg" viewBox="0 0 64 64"><path fill="#ffb655" d="M61,3V45.5A4.494,4.494,0,0,1,56.5,50H21V3l4,3,4-3,4,3,4-3,4,3,4-3,4,3,4-3,4,3Z"/><path fill="#ffeb99" d="M47.5,17A4.494,4.494,0,0,0,43,21.5V61H3V22a5,5,0,0,1,5-5Z"/><path fill="#ff9811" d="M56.5,50H43V21.5a4.5,4.5,0,0,1,9,0v24A4.507,4.507,0,0,0,56.5,50Z"/><path fill="#bf720d" d="M48,17.05a4.576,4.576,0,0,0-.5-.05A4.494,4.494,0,0,0,43,21.5V50h1V21.5A4.478,4.478,0,0,1,48,17.05Z"/><rect width="30" height="2" x="8" y="35" fill="#1a6fb0"/><rect width="30" height="2" x="8" y="41" fill="#1a6fb0"/><rect width="30" height="2" x="8" y="47" fill="#1a6fb0"/><rect width="30" height="2" x="8" y="53" fill="#1a6fb0"/><rect width="30" height="2" x="8" y="23" fill="#1a6fb0"/><rect width="30" height="2" x="8" y="29" fill="#1a6fb0"/></svg>