<svg xmlns="http://www.w3.org/2000/svg" data-name="Layer 1" viewBox="0 0 512 512"><path d="M251.44,154.45a7.5,7.5,0,0,0,8.87.19,188.48,188.48,0,0,0,29-26.47C309,106.1,319,84.17,319,63a63,63,0,0,0-126,0C193,109.12,249.05,152.62,251.44,154.45ZM256,15a48.05,48.05,0,0,1,48,48c0,34.59-35.16,65.81-47.83,75.94a213.69,213.69,0,0,1-22.43-22.2C222,103.15,208,82.8,208,63A48.05,48.05,0,0,1,256,15ZM414.44,154.45a7.5,7.5,0,0,0,8.87.19,188.48,188.48,0,0,0,29-26.47C472,106.1,482,84.17,482,63a63,63,0,0,0-126,0C356,109.12,412.05,152.62,414.44,154.45ZM419,15a48.05,48.05,0,0,1,48,48c0,34.59-35.16,65.81-47.83,75.94a213.69,213.69,0,0,1-22.43-22.2C385,103.15,371,82.8,371,63A48.05,48.05,0,0,1,419,15Zm-8.13,81.12A31.13,31.13,0,0,0,419,97.2,31.68,31.68,0,0,0,434.69,93a31.42,31.42,0,1,0-42.87-11.49h0A31.3,31.3,0,0,0,410.87,96.12Zm-7.73-34.6A16.51,16.51,0,1,1,404.81,74,16.32,16.32,0,0,1,403.14,61.52ZM247.87,96.12A31.13,31.13,0,0,0,256,97.2,31.68,31.68,0,0,0,271.69,93a31.42,31.42,0,1,0-42.87-11.49h0A31.3,31.3,0,0,0,247.87,96.12Zm-7.73-34.6A16.51,16.51,0,1,1,241.81,74,16.32,16.32,0,0,1,240.14,61.52ZM504.5,473.07h-55a32.07,32.07,0,0,0-3.31-8.19,31.42,31.42,0,0,0-57.53,7.56c-.06.21-.1.42-.15.63h-102a32.07,32.07,0,0,0-3.31-8.19,31.42,31.42,0,0,0-57.53,7.56c-.06.21-.1.42-.15.63h-102a32.07,32.07,0,0,0-3.31-8.19,31.42,31.42,0,0,0-57.53,7.56c-.06.21-.1.42-.15.63H7.5a7.5,7.5,0,0,0,0,15h55a32.07,32.07,0,0,0,3.31,8.19h0A31.41,31.41,0,0,0,93,512a31.68,31.68,0,0,0,15.72-4.25,31.23,31.23,0,0,0,14.66-19.05c.06-.21.1-.42.15-.63h102a32.07,32.07,0,0,0,3.31,8.19h0A31.41,31.41,0,0,0,256,512a31.68,31.68,0,0,0,15.72-4.25,31.23,31.23,0,0,0,14.66-19.05c.06-.21.1-.42.15-.63h102a32.07,32.07,0,0,0,3.31,8.19h0A31.41,31.41,0,0,0,419,512a31.68,31.68,0,0,0,15.72-4.25,31.23,31.23,0,0,0,14.66-19.05c.06-.21.1-.42.15-.63h55a7.5,7.5,0,0,0,0-15ZM108.86,484.82a16.51,16.51,0,1,1-1.67-12.44A16.32,16.32,0,0,1,108.86,484.82Zm163,0a16.51,16.51,0,1,1-1.67-12.44A16.32,16.32,0,0,1,271.86,484.82Zm163,0a16.51,16.51,0,1,1-1.67-12.44A16.32,16.32,0,0,1,434.86,484.82ZM356,327.8c0,46.12,56.05,89.63,58.44,91.45a7.5,7.5,0,0,0,8.87.19,188.48,188.48,0,0,0,29-26.47C472,370.9,482,349,482,327.8a63,63,0,1,0-126,0Zm111,0c0,34.6-35.16,65.82-47.83,75.94a211.69,211.69,0,0,1-22.43-22.2C385,368,371,347.6,371,327.8a48,48,0,1,1,96,0ZM7.5,223.27h55a32.07,32.07,0,0,0,3.31,8.19h0A31.4,31.4,0,0,0,93,247.2,31.68,31.68,0,0,0,108.69,243a31.26,31.26,0,0,0,14.66-19c.06-.21.1-.42.15-.63h102a32.07,32.07,0,0,0,3.31,8.19h0A31.4,31.4,0,0,0,256,247.2,31.68,31.68,0,0,0,271.69,243a31.26,31.26,0,0,0,14.66-19c.06-.21.1-.42.15-.63h102a32.07,32.07,0,0,0,3.31,8.19h0A31.4,31.4,0,0,0,419,247.2,31.68,31.68,0,0,0,434.69,243a31.26,31.26,0,0,0,14.66-19c.06-.21.1-.42.15-.63h55a7.5,7.5,0,0,0,0-15h-55a32.07,32.07,0,0,0-3.31-8.19,31.42,31.42,0,0,0-57.53,7.56c-.06.21-.1.42-.15.63h-102a32.07,32.07,0,0,0-3.31-8.19,31.42,31.42,0,0,0-57.53,7.56c-.06.21-.1.42-.15.63h-102a32.07,32.07,0,0,0-3.31-8.19,31.42,31.42,0,0,0-57.53,7.56c-.06.21-.1.42-.15.63H7.5a7.5,7.5,0,0,0,0,15Zm395.64-11.75A16.51,16.51,0,1,1,404.81,224,16.32,16.32,0,0,1,403.14,211.52Zm-163,0A16.51,16.51,0,1,1,241.81,224,16.32,16.32,0,0,1,240.14,211.52Zm-163,0A16.51,16.51,0,1,1,78.81,224,16.32,16.32,0,0,1,77.14,211.52ZM388.65,322.44a31.26,31.26,0,0,0,3.17,23.82h0A31.41,31.41,0,0,0,419,362a31.68,31.68,0,0,0,15.72-4.25,31.38,31.38,0,1,0-46-35.31Zm22.16-6.06a16.31,16.31,0,1,1-7.67,9.94A16.34,16.34,0,0,1,410.81,316.38ZM30,327.8c0,46.12,56.05,89.63,58.44,91.45a7.5,7.5,0,0,0,8.87.19,188.48,188.48,0,0,0,29-26.47C146,370.9,156,349,156,327.8a63,63,0,0,0-126,0Zm111,0c0,34.6-35.16,65.82-47.83,75.94a211.69,211.69,0,0,1-22.43-22.2C59,368,45,347.6,45,327.8a48,48,0,0,1,96,0Zm84.65-5.36a31.26,31.26,0,0,0,3.17,23.82h0A31.41,31.41,0,0,0,256,362a31.68,31.68,0,0,0,15.72-4.25,31.38,31.38,0,1,0-46-35.31Zm22.16-6.06a16.31,16.31,0,1,1-7.67,9.94A16.34,16.34,0,0,1,247.81,316.38ZM193,327.8c0,46.12,56.05,89.63,58.44,91.45a7.5,7.5,0,0,0,8.87.19,188.48,188.48,0,0,0,29-26.47C309,370.9,319,349,319,327.8a63,63,0,1,0-126,0Zm111,0c0,34.6-35.16,65.82-47.83,75.94a211.69,211.69,0,0,1-22.43-22.2C222,368,208,347.6,208,327.8a48,48,0,1,1,96,0ZM62.65,322.44a31.26,31.26,0,0,0,3.17,23.82h0A31.41,31.41,0,0,0,93,362a31.68,31.68,0,0,0,15.72-4.25,31.38,31.38,0,1,0-46-35.31Zm22.16-6.06a16.31,16.31,0,1,1-7.67,9.94A16.34,16.34,0,0,1,84.81,316.38Zm.06-220.26A31.13,31.13,0,0,0,93,97.2,31.68,31.68,0,0,0,108.69,93,31.42,31.42,0,1,0,65.82,81.46h0A31.3,31.3,0,0,0,84.87,96.12Zm-7.73-34.6A16.51,16.51,0,1,1,78.81,74,16.32,16.32,0,0,1,77.14,61.52Zm11.3,92.93a7.5,7.5,0,0,0,8.87.19,188.48,188.48,0,0,0,29-26.47C146,106.1,156,84.17,156,63A63,63,0,0,0,30,63C30,109.12,86.05,152.62,88.44,154.45ZM93,15a48.05,48.05,0,0,1,48,48c0,34.59-35.16,65.81-47.83,75.94a213.69,213.69,0,0,1-22.43-22.2C59,103.15,45,82.8,45,63A48.05,48.05,0,0,1,93,15Z"/></svg>