<svg id="SvgjsSvg1287" width="288" height="288" xmlns="http://www.w3.org/2000/svg" version="1.1" xmlns:xlink="http://www.w3.org/1999/xlink" xmlns:svgjs="http://svgjs.com/svgjs"><defs id="SvgjsDefs1288"></defs><g id="SvgjsG1289" transform="matrix(1,0,0,1,0,0)"><svg xmlns="http://www.w3.org/2000/svg" width="288" height="288" viewBox="0 0 32 32"><path style="line-height:normal;text-indent:0;text-align:start;text-decoration-line:none;text-decoration-style:solid;text-decoration-color:#000;text-transform:none;block-progression:tb;isolation:auto;mix-blend-mode:normal" d="M 8.1621094 5 C 4.7634451 5 2 7.8056344 2 11.240234 C 2 12.943134 2.6900315 14.483211 3.7832031 15.607422 C 3.8003544 15.639118 3.8073131 15.66477 3.8652344 15.720703 L 3.8359375 15.691406 L 6.3144531 18.513672 L 6.3144531 18.347656 A 0.50005006 0.50005006 0 0 0 6.4375 18.675781 L 7.7832031 20.226562 A 0.50005006 0.50005006 0 0 0 7.8007812 20.244141 L 7.4238281 20.244141 L 7.421875 21.244141 L 8.421875 21.244141 L 8.4238281 20.335938 A 0.50005006 0.50005006 0 0 0 8.5585938 20.228516 L 9.9296875 18.677734 A 0.50005006 0.50005006 0 0 0 10.054688 18.359375 L 10.054688 18.511719 L 12.830078 15.320312 A 0.50005006 0.50005006 0 0 0 12.941406 15.097656 C 13.776606 14.035056 14.322266 12.709741 14.322266 11.244141 C 14.322266 7.8809406 11.662581 5.1582219 8.3613281 5.0449219 A 0.50005006 0.50005006 0 0 0 8.1621094 5.0019531 L 8.1621094 5 z M 8.1542969 6.0019531 A 0.50005006 0.50005006 0 0 0 8.15625 6.0019531 A 0.50005006 0.50005006 0 0 0 8.1621094 6.0019531 C 11.011796 6.0019531 13.322266 8.3415875 13.322266 11.242188 C 13.322266 12.550988 12.835464 13.747569 12.050781 14.667969 A 0.50005006 0.50005006 0 0 0 11.982422 14.771484 L 9.1777344 17.996094 A 0.50005006 0.50005006 0 0 0 9.0546875 18.314453 L 9.0546875 18.158203 L 8.1757812 19.152344 L 7.3144531 18.160156 L 7.3144531 18.324219 A 0.50005006 0.50005006 0 0 0 7.1894531 17.994141 L 4.5878906 15.03125 A 0.50005006 0.50005006 0 0 0 4.5761719 15.017578 C 4.5603285 14.991656 4.5514615 14.975322 4.5234375 14.945312 L 4.515625 14.933594 C 3.5852698 13.981486 3 12.683669 3 11.240234 C 3 8.3424344 5.3084703 6.0065531 8.1542969 6.0019531 z M 8.1621094 8.4960938 C 6.66619 8.4960938 5.4472656 9.7348344 5.4472656 11.240234 C 5.4472656 12.745634 6.6661627 13.986328 8.1621094 13.986328 C 9.6580483 13.986328 10.875 12.745634 10.875 11.240234 C 10.875 9.7348344 9.658021 8.4960938 8.1621094 8.4960938 z M 8.1621094 9.4960938 C 9.1080577 9.4960938 9.875 10.269934 9.875 11.240234 C 9.875 12.210634 9.1080304 12.986328 8.1621094 12.986328 C 7.2161761 12.986328 6.4472656 12.210634 6.4472656 11.240234 C 6.4472656 10.269934 7.2161488 9.4960938 8.1621094 9.4960938 z M 24.449219 11.236328 C 21.050554 11.236328 18.289063 14.041962 18.289062 17.476562 C 18.289062 19.177468 18.977397 20.715976 20.068359 21.839844 C 20.084417 21.871217 20.09231 21.89899 20.152344 21.957031 L 22.603516 24.748047 L 22.603516 24.582031 A 0.50005006 0.50005006 0 0 0 22.724609 24.910156 L 23.923828 26.289062 L 23.371094 26.289062 L 23.371094 27.289062 L 24.25 27.289062 L 24.25 26.589844 A 0.50005006 0.50005006 0 0 0 24.449219 26.632812 L 24.472656 26.632812 A 0.50005006 0.50005006 0 0 0 24.847656 26.464844 L 26.216797 24.914062 A 0.50005006 0.50005006 0 0 0 26.341797 24.59375 L 26.341797 24.746094 L 29.119141 21.554688 A 0.50005006 0.50005006 0 0 0 29.230469 21.328125 C 30.064922 20.265625 30.611328 18.941362 30.611328 17.476562 C 30.611328 14.113263 27.949689 11.390644 24.648438 11.277344 A 0.50005006 0.50005006 0 0 0 24.449219 11.236328 z M 24.449219 12.236328 C 27.298927 12.236328 29.611328 14.575863 29.611328 17.476562 C 29.611328 18.785363 29.122603 19.981744 28.337891 20.902344 A 0.50005006 0.50005006 0 0 0 28.271484 21.003906 L 25.464844 24.232422 A 0.50005006 0.50005006 0 0 0 25.341797 24.550781 L 25.341797 24.394531 L 24.464844 25.386719 L 23.603516 24.396484 L 23.603516 24.560547 A 0.50005006 0.50005006 0 0 0 23.478516 24.230469 L 20.876953 21.267578 A 0.50005006 0.50005006 0 0 0 20.867188 21.255859 C 20.850868 21.229018 20.842861 21.211906 20.810547 21.177734 C 19.874473 20.228534 19.289062 18.928969 19.289062 17.480469 C 19.289062 14.579869 21.599543 12.240234 24.449219 12.240234 L 24.449219 12.236328 z M 24.449219 14.730469 C 22.953307 14.730469 21.734375 15.971162 21.734375 17.476562 C 21.734375 18.981963 22.95328 20.220703 24.449219 20.220703 C 25.945165 20.220703 27.164063 18.981962 27.164062 17.476562 C 27.164064 15.971162 25.945138 14.730469 24.449219 14.730469 z M 24.449219 15.730469 C 25.395179 15.730469 26.164063 16.506162 26.164062 17.476562 C 26.164062 18.446962 25.395152 19.220703 24.449219 19.220703 C 23.503298 19.220703 22.734375 18.446962 22.734375 17.476562 C 22.734375 16.506163 23.50327 15.730469 24.449219 15.730469 z M 7.4199219 22.244141 L 7.4179688 23.244141 L 8.4179688 23.244141 L 8.4199219 22.244141 L 7.4199219 22.244141 z M 7.4160156 24.244141 L 7.4140625 25.244141 L 8.4140625 25.244141 L 8.4160156 24.244141 L 7.4160156 24.244141 z M 7.4121094 26.244141 L 7.4121094 26.785156 L 7.4101562 27.285156 L 7.9101562 27.285156 L 8.3691406 27.285156 L 8.3710938 26.785156 L 8.4121094 26.785156 L 8.4121094 26.244141 L 7.4121094 26.244141 z M 9.3710938 26.289062 L 9.3691406 27.289062 L 10.369141 27.289062 L 10.371094 26.289062 L 9.3710938 26.289062 z M 11.371094 26.289062 L 11.369141 27.289062 L 12.369141 27.289062 L 12.371094 26.289062 L 11.371094 26.289062 z M 13.371094 26.289062 L 13.369141 27.289062 L 14.097656 27.289062 L 14.371094 27.289062 L 14.371094 26.289062 L 14.099609 26.289062 L 14.097656 26.289062 L 13.371094 26.289062 z M 15.371094 26.289062 L 15.371094 27.289062 L 16.371094 27.289062 L 16.371094 26.289062 L 15.371094 26.289062 z M 17.371094 26.289062 L 17.371094 27.289062 L 18.371094 27.289062 L 18.371094 26.289062 L 17.371094 26.289062 z M 19.371094 26.289062 L 19.371094 27.289062 L 20.371094 27.289062 L 20.371094 26.289062 L 19.371094 26.289062 z M 21.371094 26.289062 L 21.371094 27.289062 L 22.371094 27.289062 L 22.371094 26.289062 L 21.371094 26.289062 z " color="#000" font-family="sans-serif" font-weight="400" overflow="visible" fill="#1e2a78" class="color000 svgShape"></path></svg></g></svg>