<svg xmlns="http://www.w3.org/2000/svg" width="32" height="32" viewBox="0 0 32 32"><g transform="translate(-350.424 -1332.362)"><g transform="translate(.712 1.866)"><path fill="#fcd062" d="m 364.07237,1354.7551 -2.7193,-9.9441 10e-6,0 10.60995,-2.9031 6e-5,10e-5 2.90308,10.61 -1e-5,0 -9.92007,2.7121"/><path fill="#f8b84e" d="m 364.07237,1354.7551 -0.20116,-0.7356 10.63207,-2.8278 0.36289,1.3263 -9.92008,2.7121"/><path fill="#e9eded" fill-rule="evenodd" d="m 365.21571,1343.7715 1.5772,5.7643 0.002,0.01 0.9734,-2.3399 1.9202,1.5481 -0.002,-0.01 -1.5794,-5.7722"/><rect width="9" height="9" x="-5.377" y="1383.498" fill="#fcd062" ry="0" transform="rotate(-15.303)"/><path fill="#e9eded" fill-rule="evenodd" d="m 362.83791,1335.0813 1.31956,4.8226 0.002,-0.01 0.92883,-2.3278 1.9845,1.5306 -0.0221,0.013 -1.31955,-4.8226"/><path fill="#f8b84e" d="m 3.6231118,1391.3735 1.4e-6,1.125 -8.9999853,0 0,-1.125 z" transform="rotate(-15.303)"/></g><ellipse cx="445.803" cy="1345.071" fill="#4bbfeb" rx="3.462" ry="3.538" transform="matrix(.99937 .03542 -.06133 .99812 0 0)"/><path fill="none" stroke="#2b4255" stroke-linecap="round" stroke-linejoin="round" d="M366.57262 1357.361l9.96873-2.7277.52745-.1443M352.93144 1334.666l3.06271-.1736c1.44792 5.6065 4.10066 15.0338 5.64079 20.6158"/><path fill="none" stroke="#2b4255" stroke-linecap="round" stroke-linejoin="round" d="M359.97267 1356.5688l-.0932-.3405-2.44479-8.935 1.33123-2.3088M358.59424 1351.5472l1.6641-1.0502"/><ellipse cx="445.803" cy="1345.071" fill="none" stroke="#2b4255" stroke-dashoffset=".4" stroke-linejoin="round" rx="3.462" ry="3.538" transform="matrix(.99937 .03542 -.06133 .99812 0 0)"/><circle cx="428.014" cy="1339.275" r="1.501" fill="#576d7e" transform="rotate(2.76)"/><circle cx="428.014" cy="1339.275" r="1.501" fill="none" stroke="#2b4255" stroke-dashoffset=".4" stroke-linejoin="round" transform="rotate(2.76)"/></g></svg>