<svg xmlns="http://www.w3.org/2000/svg" data-name="Layer 1" viewBox="0 0 512 512"><path d="M286,56.23c3.8.59,7.63,1.3,11.39,2.1a7.17,7.17,0,0,0,1.59.17,7.5,7.5,0,0,0,1.57-14.83c-4.05-.87-8.17-1.63-12.27-2.26A7.5,7.5,0,1,0,286,56.23Zm39.17,10.3c3.6,1.36,7.21,2.84,10.73,4.42A7.5,7.5,0,0,0,342,57.25c-3.79-1.69-7.67-3.29-11.55-4.76a7.5,7.5,0,0,0-5.3,14Zm36.22,18.16c3.24,2.07,6.47,4.26,9.59,6.52a7.5,7.5,0,1,0,8.8-12.15c-3.36-2.43-6.83-4.79-10.32-7a7.5,7.5,0,1,0-8.07,12.65ZM469.3,268.44c.23-4.11.35-8.3.35-12.44v-.48a7.5,7.5,0,0,0-7.5-7.48h0a7.49,7.49,0,0,0-7.47,7.52V256c0,3.86-.11,7.77-.32,11.61a7.49,7.49,0,0,0,7.07,7.9l.42,0A7.5,7.5,0,0,0,469.3,268.44ZM203.61,60.78a7.53,7.53,0,0,0,1.93-.26c3.71-1,7.51-1.88,11.28-2.64a7.5,7.5,0,0,0-3-14.7C209.77,44,205.68,45,201.68,46a7.5,7.5,0,0,0,1.93,14.75Zm41.52-6.55h.4C249,54,252.51,54,256,54h1.17a7.5,7.5,0,0,0,0-15H256c-3.75,0-7.54.1-11.26.29a7.5,7.5,0,0,0,.39,15ZM476,425.1a39.22,39.22,0,0,0,8.1-23.91v-39A26.27,26.27,0,0,0,457.83,336H431.37a26.27,26.27,0,0,0-26.24,26.24v39c0,.86,0,1.7.09,2.54a7.47,7.47,0,0,0-11.82-1.8c-2.76,2.68-5.63,5.32-8.54,7.85a7.5,7.5,0,0,0,9.83,11.33c3.13-2.71,6.21-5.55,9.18-8.44a7.45,7.45,0,0,0,2.05-3.64,39.42,39.42,0,0,0,7.31,16.07,67.42,67.42,0,0,0-36,59.65A27.28,27.28,0,0,0,404.45,512h80.3A27.23,27.23,0,0,0,512,484.75a67.42,67.42,0,0,0-36-59.65Zm-55.84-62.91A11.26,11.26,0,0,1,431.37,351h26.46a11.26,11.26,0,0,1,11.24,11.24v10.16A41.21,41.21,0,0,0,437.38,370l-17.25,5.68Zm0,29.27,21.94-7.23a26.4,26.4,0,0,1,23.13,3.19l3.87,2.61v11.16a24.47,24.47,0,1,1-48.94,0Zm73.29,102a12.22,12.22,0,0,1-8.67,3.59h-80.3a12.27,12.27,0,0,1-12.25-12.25,52.07,52.07,0,0,1,15.34-37.05,52.9,52.9,0,0,1,18.2-11.85,39.38,39.38,0,0,0,37.72,0,52.9,52.9,0,0,1,18.2,11.85A52.07,52.07,0,0,1,497,484.75,12.21,12.21,0,0,1,493.42,493.41ZM164.35,75.75a7.47,7.47,0,0,0,3.38-.81c3.44-1.74,7-3.39,10.47-4.91a7.5,7.5,0,0,0-6-13.77c-3.78,1.64-7.58,3.42-11.28,5.29a7.5,7.5,0,0,0,3.39,14.2ZM325.52,445.34c-3.59,1.36-7.27,2.63-10.95,3.79a7.5,7.5,0,0,0,2.24,14.66,7.33,7.33,0,0,0,2.25-.35c4-1.24,7.93-2.61,11.79-4.08a7.5,7.5,0,0,0-5.33-14ZM286.39,455.7c-3.79.6-7.66,1.08-11.5,1.45a7.5,7.5,0,0,0,.71,15,6.06,6.06,0,0,0,.73,0c4.12-.39,8.29-.92,12.37-1.56a7.5,7.5,0,1,0-2.31-14.82ZM404.45,176.05h34.07c0,.13.08.26.13.38,1.5,3.55,2.91,7.19,4.21,10.82a7.5,7.5,0,0,0,7.06,5,7.69,7.69,0,0,0,2.52-.44,7.5,7.5,0,0,0,4.55-9.58q-1.11-3.09-2.31-6.17h30.07A27.23,27.23,0,0,0,512,148.8a67.45,67.45,0,0,0-36-59.66,39.25,39.25,0,0,0,8.09-23.9v-39A26.27,26.27,0,0,0,457.83,0H431.37a26.27,26.27,0,0,0-26.24,26.24v39a39.25,39.25,0,0,0,8.09,23.9,67.63,67.63,0,0,0-16.28,12l-1,1.06a67.1,67.1,0,0,0-18.7,46.61A27.28,27.28,0,0,0,404.45,176.05ZM420.13,26.24A11.26,11.26,0,0,1,431.37,15h26.46a11.26,11.26,0,0,1,11.24,11.24V36.39A41.21,41.21,0,0,0,437.38,34l-17.25,5.68Zm0,29.27,21.94-7.23a26.4,26.4,0,0,1,23.13,3.19l3.87,2.61V65.24a24.47,24.47,0,1,1-48.94,0ZM406.71,112.6l.83-.86a52.58,52.58,0,0,1,18.2-11.84,39.38,39.38,0,0,0,37.72,0A52.39,52.39,0,0,1,497,148.8a12.24,12.24,0,0,1-12.25,12.25h-80.3A12.27,12.27,0,0,1,392.2,148.8,52.11,52.11,0,0,1,406.71,112.6ZM460,233.06a7.82,7.82,0,0,0,1.07-.08,7.49,7.49,0,0,0,6.36-8.48c-.58-4.1-1.29-8.23-2.11-12.28a7.5,7.5,0,1,0-14.7,3c.76,3.78,1.42,7.62,2,11.44A7.51,7.51,0,0,0,460,233.06Zm-6.51,83.77a7.22,7.22,0,0,0,1.89.25,7.52,7.52,0,0,0,7.25-5.62c1-4,2-8.09,2.78-12.15a7.5,7.5,0,0,0-14.71-2.93c-.75,3.78-1.62,7.58-2.59,11.31A7.5,7.5,0,0,0,453.47,316.83ZM129,98.45a7.46,7.46,0,0,0,4.67-1.63c3-2.4,6.13-4.74,9.28-7a7.5,7.5,0,0,0-8.65-12.26c-3.38,2.39-6.73,4.9-10,7.48A7.5,7.5,0,0,0,129,98.45ZM52,320.68a7.5,7.5,0,0,0,7.17,5.3,7.29,7.29,0,0,0,2.2-.33,7.49,7.49,0,0,0,5-9.37c-1.13-3.68-2.17-7.44-3.08-11.18a7.5,7.5,0,1,0-14.57,3.57C49.67,312.69,50.79,316.73,52,320.68Zm302.33,34.95a16.41,16.41,0,0,0,10-7.68l25.45-44.09a16.52,16.52,0,0,0-6-22.54l-9.13-5.27a1.49,1.49,0,0,1-.73-1.5,120.2,120.2,0,0,0,0-37.1,1.49,1.49,0,0,1,.73-1.5l9.13-5.27a16.52,16.52,0,0,0,6-22.54l-25.45-44.09a16.52,16.52,0,0,0-22.54-6l-9.14,5.28a1.48,1.48,0,0,1-1.67-.12,119,119,0,0,0-32.12-18.56,1.48,1.48,0,0,1-.93-1.38V132.7a16.52,16.52,0,0,0-16.5-16.5h-50.9a16.52,16.52,0,0,0-16.5,16.5v10.53a1.48,1.48,0,0,1-.93,1.38A119,119,0,0,0,181,163.17a1.48,1.48,0,0,1-1.67.12L170.19,158a16.52,16.52,0,0,0-22.54,6L122.2,208.14a16.52,16.52,0,0,0,6,22.54l9.13,5.27a1.49,1.49,0,0,1,.73,1.5,120.2,120.2,0,0,0,0,37.1,1.49,1.49,0,0,1-.73,1.5l-9.13,5.27a16.52,16.52,0,0,0-6,22.54L147.65,348a16.52,16.52,0,0,0,22.54,6l9.14-5.28a1.48,1.48,0,0,1,1.67.12,118.89,118.89,0,0,0,32.12,18.56,1.48,1.48,0,0,1,.93,1.38V379.3a16.52,16.52,0,0,0,16.5,16.5h50.9A16.52,16.52,0,0,0,298,379.3V368.77a1.48,1.48,0,0,1,.93-1.38A119,119,0,0,0,331,348.83a1.48,1.48,0,0,1,1.67-.12l9.14,5.28A16.4,16.4,0,0,0,354.33,355.63Zm-14.16-19.91a16.57,16.57,0,0,0-18.6,1.44,104.15,104.15,0,0,1-28.08,16.24A16.56,16.56,0,0,0,283,368.77V379.3a1.5,1.5,0,0,1-1.5,1.5h-50.9a1.5,1.5,0,0,1-1.5-1.5V368.77a16.56,16.56,0,0,0-10.54-15.37,104.15,104.15,0,0,1-28.08-16.24,16.55,16.55,0,0,0-18.6-1.44L162.69,341a1.51,1.51,0,0,1-2.05-.55l-25.45-44.09a1.5,1.5,0,0,1,.55-2.05l9.13-5.27a16.59,16.59,0,0,0,8-16.81,105.16,105.16,0,0,1,0-32.46,16.59,16.59,0,0,0-8-16.81l-9.13-5.27a1.5,1.5,0,0,1-.55-2.05l25.45-44.09a1.51,1.51,0,0,1,2.05-.55l9.14,5.28a16.57,16.57,0,0,0,18.6-1.44,104.15,104.15,0,0,1,28.08-16.24,16.56,16.56,0,0,0,10.54-15.37V132.7a1.5,1.5,0,0,1,1.5-1.5h50.9a1.5,1.5,0,0,1,1.5,1.5v10.53a16.56,16.56,0,0,0,10.54,15.37,104.15,104.15,0,0,1,28.08,16.24,16.57,16.57,0,0,0,18.6,1.44l9.14-5.28a1.51,1.51,0,0,1,2.05.55l25.45,44.09a1.5,1.5,0,0,1-.55,2.05L367.13,223a16.59,16.59,0,0,0-8.05,16.81,105.16,105.16,0,0,1,0,32.46A16.59,16.59,0,0,0,367.13,289l9.13,5.27a1.5,1.5,0,0,1,.55,2.05l-25.45,44.09a1.51,1.51,0,0,1-2.05.55ZM256,170.44A85.56,85.56,0,1,0,341.56,256,85.65,85.65,0,0,0,256,170.44Zm0,156.12A70.56,70.56,0,1,1,326.56,256,70.64,70.64,0,0,1,256,326.56Zm-50.06,125c-3.72-1-7.46-2.08-11.11-3.29a7.5,7.5,0,1,0-4.68,14.25c3.93,1.3,7.95,2.49,12,3.55a7.5,7.5,0,1,0,3.83-14.51Zm-72-36.17c-3-2.4-6-4.91-8.87-7.47a7.5,7.5,0,1,0-10,11.19c3.08,2.75,6.29,5.45,9.53,8a7.5,7.5,0,0,0,9.33-11.75Zm34.15,21.82c-3.44-1.73-6.87-3.58-10.21-5.52a7.5,7.5,0,0,0-7.51,13c3.59,2.08,7.28,4.07,11,5.93a7.5,7.5,0,0,0,6.74-13.4ZM98.77,425.1a39.22,39.22,0,0,0,8.1-23.91v-39A26.27,26.27,0,0,0,80.63,336H54.17a26.27,26.27,0,0,0-26.24,26.24v39A39.22,39.22,0,0,0,36,425.1,67.42,67.42,0,0,0,0,484.75,27.28,27.28,0,0,0,27.25,512h80.3a27.23,27.23,0,0,0,27.25-27.25,67.42,67.42,0,0,0-36-59.65ZM42.93,362.19A11.26,11.26,0,0,1,54.17,351H80.63a11.26,11.26,0,0,1,11.24,11.24v10.16A41.21,41.21,0,0,0,60.18,370l-17.25,5.68Zm0,29.27,21.94-7.23A26.4,26.4,0,0,1,88,387.42L91.87,390v11.16a24.47,24.47,0,1,1-48.94,0Zm73.29,102a12.22,12.22,0,0,1-8.67,3.59H27.25A12.27,12.27,0,0,1,15,484.75,52.07,52.07,0,0,1,30.34,447.7a52.9,52.9,0,0,1,18.2-11.85,39.38,39.38,0,0,0,37.72,0,52.9,52.9,0,0,1,18.2,11.85,52.07,52.07,0,0,1,15.34,37.05A12.21,12.21,0,0,1,116.22,493.41Zm245.44-66.28c-3.24,2.08-6.58,4.08-9.93,6a7.5,7.5,0,1,0,7.33,13.08c3.61-2,7.2-4.17,10.69-6.41a7.5,7.5,0,1,0-8.09-12.63ZM245.94,457.8c-3.85-.2-7.74-.51-11.55-.93a7.5,7.5,0,0,0-1.64,14.91c4.1.45,8.29.79,12.43,1h.39a7.5,7.5,0,0,0,.37-15Zm40.85-244.93a7.5,7.5,0,0,0-7.5-7.5H232.71a7.5,7.5,0,0,0,0,15h8.47a17.93,17.93,0,0,1,16.24,10.4H232.71a7.5,7.5,0,0,0,0,15h24.71a17.93,17.93,0,0,1-16.24,10.4h-8.47a7.5,7.5,0,0,0-5.42,12.68l33.87,35.47A7.5,7.5,0,0,0,272,294l-22.73-23.79a33,33,0,0,0,23.94-24.39h6.07a7.5,7.5,0,0,0,0-15h-6.08a32.77,32.77,0,0,0-4.44-10.4h10.52A7.5,7.5,0,0,0,286.79,212.87ZM27.25,176.05H59.14A7.48,7.48,0,0,0,55.83,180c-1.43,3.88-2.77,7.85-4,11.81a7.5,7.5,0,0,0,14.35,4.37c1.12-3.68,2.36-7.38,3.7-11a7.51,7.51,0,0,0-3.33-9.1h41A27.23,27.23,0,0,0,134.8,148.8a67.12,67.12,0,0,0-18.73-46.64c-.34-.35-.67-.69-1-1a67.41,67.41,0,0,0-16.28-12,39.25,39.25,0,0,0,8.09-23.9v-39A26.27,26.27,0,0,0,80.63,0H54.17A26.27,26.27,0,0,0,27.93,26.24v39A39.25,39.25,0,0,0,36,89.14,67.45,67.45,0,0,0,0,148.8,27.28,27.28,0,0,0,27.25,176.05ZM42.93,26.24A11.26,11.26,0,0,1,54.17,15H80.63A11.26,11.26,0,0,1,91.87,26.24V36.39A41.21,41.21,0,0,0,60.18,34L42.93,39.72Zm0,29.27,21.94-7.23A26.4,26.4,0,0,1,88,51.47l3.87,2.61V65.24a24.47,24.47,0,1,1-48.94,0ZM30.34,111.74A52.58,52.58,0,0,1,48.54,99.9a39.38,39.38,0,0,0,37.72,0,52.47,52.47,0,0,1,18.2,11.85l.8.82A52.13,52.13,0,0,1,119.8,148.8a12.24,12.24,0,0,1-12.25,12.25H27.25A12.27,12.27,0,0,1,15,148.8,52.1,52.1,0,0,1,30.34,111.74ZM50.13,242.67a6.06,6.06,0,0,0,.73,0,7.51,7.51,0,0,0,7.46-6.78c.37-3.84.86-7.71,1.44-11.52a7.5,7.5,0,0,0-14.82-2.29c-.63,4.09-1.15,8.25-1.55,12.36A7.5,7.5,0,0,0,50.13,242.67ZM43.44,278a7.49,7.49,0,0,0,7.45,6.76,6.28,6.28,0,0,0,.75,0,7.5,7.5,0,0,0,6.72-8.2c-.38-3.83-.65-7.73-.82-11.58a7.5,7.5,0,1,0-15,.64C42.73,269.72,43,273.89,43.44,278Z"/></svg>