<?xml version="1.0" encoding="UTF-8" standalone="no"?>
<svg xmlns:dc="http://purl.org/dc/elements/1.1/" xmlns:cc="http://creativecommons.org/ns#" xmlns:rdf="http://www.w3.org/1999/02/22-rdf-syntax-ns#" xmlns:svg="http://www.w3.org/2000/svg" xmlns="http://www.w3.org/2000/svg" xmlns:sodipodi="http://sodipodi.sourceforge.net/DTD/sodipodi-0.dtd" xmlns:inkscape="http://www.inkscape.org/namespaces/inkscape" width="32" height="32" viewBox="0 0 32 32.000001" id="svg6826" version="1.1" inkscape:version="0.91 r13725" sodipodi:docname="metro-train-ticket-pass-public-transport.svg">
  <defs id="defs6828"/>
  <sodipodi:namedview id="base" pagecolor="#ffffff" bordercolor="#666666" borderopacity="1.0" inkscape:pageopacity="0.0" inkscape:pageshadow="2" inkscape:zoom="2.0989931" inkscape:cx="-19.898433" inkscape:cy="4.7094448" inkscape:document-units="px" inkscape:current-layer="layer1" showgrid="true" units="px" inkscape:window-width="1366" inkscape:window-height="716" inkscape:window-x="-8" inkscape:window-y="-8" inkscape:window-maximized="1" inkscape:object-nodes="true">
    <inkscape:grid type="xygrid" id="grid6888"/>
  </sodipodi:namedview>
  
  <g inkscape:label="Layer 1" inkscape:groupmode="layer" id="layer1" transform="translate(0,-1020.3622)">
    <g id="g32221" transform="translate(-1757.8436,-177.0262)">
      <path style="opacity:1;fill:#8be1fc;fill-opacity:1;stroke:none;stroke-width:1;stroke-linecap:round;stroke-linejoin:round;stroke-miterlimit:4;stroke-dasharray:none;stroke-dashoffset:0;stroke-opacity:1" d="m 1789.5221,1213.3884 a 12.375,12.375 0 0 1 -12.375,12.375 12.375,12.375 0 0 1 -12.375,-12.375 12.375,12.375 0 0 1 12.375,-12.375 12.375,12.375 0 0 1 12.375,12.375 z" id="path32185" inkscape:connector-curvature="0"/>
      <g transform="translate(1756.665,175.25005)" id="g32219" style="stroke:#3a3640;stroke-opacity:1">
        <path inkscape:connector-curvature="0" id="path32187" d="m 2.000001,1028.8622 27.999998,0 0,15 -27.999998,0 z" style="opacity:1;fill:none;fill-opacity:0.25098039;stroke:#3a3640;stroke-width:0.99999994;stroke-linecap:round;stroke-linejoin:miter;stroke-miterlimit:4;stroke-dasharray:none;stroke-dashoffset:0;stroke-opacity:1"/>
        <path sodipodi:nodetypes="ccccc" inkscape:connector-curvature="0" id="path32189" d="m 23.5,1032.3622 4.000001,0 0,2 -4.000001,0 z" style="opacity:1;fill:none;fill-opacity:0.25098039;stroke:#3a3640;stroke-width:1;stroke-linecap:round;stroke-linejoin:round;stroke-miterlimit:4;stroke-dasharray:none;stroke-dashoffset:0;stroke-opacity:1"/>
        <path sodipodi:nodetypes="sssccss" inkscape:connector-curvature="0" id="path32191" d="m 8.7500002,1031.3622 5.4999998,0 c 0.552285,0 1,0.4477 1,1 l 0,6.5 -7.4999998,0 0,-6.5 c 0,-0.5523 0.4477152,-1 1,-1 z" style="opacity:1;fill:none;fill-opacity:0.25098039;stroke:#3a3640;stroke-width:1;stroke-linecap:round;stroke-linejoin:round;stroke-miterlimit:4;stroke-dasharray:none;stroke-dashoffset:0;stroke-opacity:1"/>
        <path inkscape:connector-curvature="0" id="path32193" d="m 9.9963117,1038.8683 -1.4963115,2.9939" style="fill:none;fill-rule:evenodd;stroke:#3a3640;stroke-width:0.99999988;stroke-linecap:round;stroke-linejoin:miter;stroke-miterlimit:4;stroke-dasharray:none;stroke-opacity:1" sodipodi:nodetypes="cc"/>
        <path sodipodi:nodetypes="cc" inkscape:connector-curvature="0" id="path32195" d="m 8.0000002,1035.3622 6.9999998,0" style="fill:none;fill-rule:evenodd;stroke:#3a3640;stroke-width:0.99999994;stroke-linecap:butt;stroke-linejoin:miter;stroke-miterlimit:4;stroke-dasharray:none;stroke-opacity:1"/>
        <path inkscape:connector-curvature="0" id="path32197" d="m 11.5,1035.3622 0,-4" style="fill:none;fill-rule:evenodd;stroke:#3a3640;stroke-width:1;stroke-linecap:butt;stroke-linejoin:miter;stroke-miterlimit:4;stroke-dasharray:none;stroke-opacity:1" sodipodi:nodetypes="cc"/>
        <path sodipodi:nodetypes="cc" style="fill:none;fill-rule:evenodd;stroke:#3a3640;stroke-width:0.99999994;stroke-linecap:butt;stroke-linejoin:miter;stroke-miterlimit:4;stroke-dasharray:none;stroke-opacity:1" d="m 9.0000002,1040.8622 4.9999998,0" id="path32199" inkscape:connector-curvature="0"/>
        <path id="path32201" d="m 10,1037.3622 a 0.5,0.5 0 0 1 -0.5,0.5 0.5,0.5 0 0 1 -0.5,-0.5 0.5,0.5 0 0 1 0.5,-0.5 0.5,0.5 0 0 1 0.5,0.5 z" style="opacity:1;fill:#3a3640;fill-opacity:1;stroke:none;stroke-width:1;stroke-linecap:butt;stroke-linejoin:miter;stroke-miterlimit:4;stroke-dasharray:none;stroke-opacity:1" inkscape:connector-curvature="0"/>
        <path id="path32203" d="m 14,1037.3622 a 0.5,0.5 0 0 1 -0.5,0.5 0.5,0.5 0 0 1 -0.5,-0.5 0.5,0.5 0 0 1 0.5,-0.5 0.5,0.5 0 0 1 0.5,0.5 z" style="opacity:1;fill:#3a3640;fill-opacity:1;stroke:none;stroke-width:1;stroke-linecap:butt;stroke-linejoin:miter;stroke-miterlimit:4;stroke-dasharray:none;stroke-opacity:1" inkscape:connector-curvature="0"/>
        <path sodipodi:nodetypes="cc" style="fill:none;fill-rule:evenodd;stroke:#3a3640;stroke-width:0.99999988;stroke-linecap:round;stroke-linejoin:miter;stroke-miterlimit:4;stroke-dasharray:none;stroke-opacity:1" d="M 13.003688,1038.8683 14.5,1041.8622" id="path32205" inkscape:connector-curvature="0"/>
        <path style="opacity:1;fill:none;fill-opacity:0.25098039;stroke:#3a3640;stroke-width:1;stroke-linecap:round;stroke-linejoin:round;stroke-miterlimit:4;stroke-dasharray:none;stroke-dashoffset:0;stroke-opacity:1" d="m 23.5,1038.3622 4.000001,0 0,2 -4.000001,0 z" id="path32207" inkscape:connector-curvature="0" sodipodi:nodetypes="ccccc"/>
        <path inkscape:connector-curvature="0" id="path32209" d="m 20,1035.3622 0,2" style="fill:none;fill-rule:evenodd;stroke:#3a3640;stroke-width:1px;stroke-linecap:butt;stroke-linejoin:miter;stroke-opacity:1" sodipodi:nodetypes="cc"/>
        <path sodipodi:nodetypes="cc" style="fill:none;fill-rule:evenodd;stroke:#3a3640;stroke-width:1px;stroke-linecap:butt;stroke-linejoin:miter;stroke-opacity:1" d="m 20,1038.8622 0,2" id="path32211" inkscape:connector-curvature="0"/>
        <path inkscape:connector-curvature="0" id="path32213" d="m 20,1042.3622 0,2" style="fill:none;fill-rule:evenodd;stroke:#3a3640;stroke-width:1px;stroke-linecap:butt;stroke-linejoin:miter;stroke-opacity:1" sodipodi:nodetypes="cc"/>
        <path sodipodi:nodetypes="cc" style="fill:none;fill-rule:evenodd;stroke:#3a3640;stroke-width:1px;stroke-linecap:butt;stroke-linejoin:miter;stroke-opacity:1" d="m 20,1031.8622 0,2" id="path32215" inkscape:connector-curvature="0"/>
        <path inkscape:connector-curvature="0" id="path32217" d="m 20,1028.3622 0,2" style="fill:none;fill-rule:evenodd;stroke:#3a3640;stroke-width:1px;stroke-linecap:butt;stroke-linejoin:miter;stroke-opacity:1" sodipodi:nodetypes="cc"/>
      </g>
    </g>
  </g>

	
	<metadata>
		<rdf:RDF xmlns:rdf="http://www.w3.org/1999/02/22-rdf-syntax-ns#" xmlns:rdfs="http://www.w3.org/2000/01/rdf-schema#" xmlns:dc="http://purl.org/dc/elements/1.1/">
			<rdf:Description about="https://iconscout.com/legal#licenses" dc:title="Metro" dc:description="Metro" dc:publisher="Iconscout" dc:date="2017-06-19" dc:format="image/svg+xml" dc:language="en">
				<dc:creator>
					<rdf:Bag>
						<rdf:li/>
					</rdf:Bag>
				</dc:creator>
			</rdf:Description>
		</rdf:RDF>
    </metadata></svg>
