<svg id="SvgjsSvg1031" width="288" height="288" xmlns="http://www.w3.org/2000/svg" version="1.1" xmlns:xlink="http://www.w3.org/1999/xlink" xmlns:svgjs="http://svgjs.com/svgjs"><defs id="SvgjsDefs1032"></defs><g id="SvgjsG1033" transform="matrix(1,0,0,1,0,0)"><svg xmlns="http://www.w3.org/2000/svg" width="288" height="288" viewBox="0 0 32 32"><g transform="translate(0 -1019.362)" fill="#ff8066" class="color000 svgShape"><path fill="none" stroke="#767fad" d="M9 1030.8622l18.2 0M9.5 1033.8622l17.3 0M9.8 1036.8622l16.4 0M12.5 1027.8627l1 12" class="colorStroked2dce9 svgStroke"></path><path fill="none" stroke="#767fad" stroke-linecap="round" stroke-linejoin="round" d="m 8.499743,1027.8623 19.000176,0 -1.900018,12 0,0" class="colorStroked2dce9 svgStroke"></path><path fill="none" stroke="#767fad" d="M16.5 1028.3622l0 12M19.5 1027.8622l0 12M23.5 1027.8622l-1 12" class="colorStroked2dce9 svgStroke"></path><path fill="none" stroke="#ffbf66" stroke-linecap="round" stroke-linejoin="round" d="m 4.5071212,1023.8622 3,0 2.9999998,16 5,0 0,0" class="colorStrokef9b536 svgStroke"></path><path fill="none" stroke="#ffbf66" stroke-dashoffset="1.3" stroke-linecap="round" stroke-linejoin="round" d="m 11.59375,1039.8622 14.21875,0 c 0.934875,0 1.6875,0.669 1.6875,1.5 0,0.831 -0.752625,1.5 -1.6875,1.5 l -15.40625,0" class="colorStrokef9b536 svgStroke"></path><circle cx="13.5" cy="1044.862" r="1" fill="#0c5286" stroke="#767fad" stroke-dashoffset="1.3" stroke-linecap="round" stroke-linejoin="round" class="color0c5286 svgShape colorStroke406b95 svgStroke"></circle><circle cx="23.5" cy="1044.862" r="1" fill="#0c5286" stroke="#767fad" stroke-dashoffset="1.3" stroke-linecap="round" stroke-linejoin="round" class="color0c5286 svgShape colorStroke406b95 svgStroke"></circle></g></svg></g></svg>