<svg id="SvgjsSvg1001" width="288" height="288" xmlns="http://www.w3.org/2000/svg" version="1.1" xmlns:xlink="http://www.w3.org/1999/xlink" xmlns:svgjs="http://svgjs.com/svgjs"><defs id="SvgjsDefs1002"></defs><g id="SvgjsG1008" transform="matrix(1,0,0,1,0,0)"><svg xmlns="http://www.w3.org/2000/svg" data-name="Layer 1" viewBox="0 0 32 32" width="288" height="288"><path fill="#346277" d="M16,3a7,7,0,1,0,7,7A7,7,0,0,0,16,3Zm0,13.09A6.06,6.06,0,1,1,22.06,10,6.06,6.06,0,0,1,16,16.09Z" class="color2b2e63 svgShape"></path><path fill="#346277" d="M19.09,24.67C22.36,19.74,26,13.45,26,10A10,10,0,0,0,6,10c0,3.42,3.67,9.71,6.94,14.64-3.78.35-7.82,1.48-7.82,3.59C5.09,30.69,10.71,32,16,32s10.91-1.31,10.91-3.74C26.91,26.15,22.87,25,19.09,24.67ZM6.94,10a9.06,9.06,0,0,1,18.12,0c0,3.51-4.53,10.77-7.23,14.78C17.05,26,16.39,26.9,16,27.44l-.16-.22c-.39-.56-1-1.39-1.65-2.39l0,0C11.47,20.8,6.94,13.54,6.94,10ZM16,31c-6.16,0-9.94-1.61-9.94-2.77s2.85-2.32,7.47-2.68c.18.27.35.53.52.77l.21.3h0l.19.26,0,0c0,.09.11.17.16.25h0c.59.84,1,1.35,1,1.36a.5.5,0,0,0,.78,0S17,27.69,18,26.35h0l.52-.76c4.62.36,7.47,1.66,7.47,2.68S22.16,31,16,31Z" class="color2b2e63 svgShape"></path><path fill="#66ccff" d="M16,1A9.06,9.06,0,0,0,6.94,10c0,3.51,4.53,10.77,7.23,14.78l0,0c.68,1,1.26,1.83,1.65,2.39l.16.22c.39-.54,1.05-1.47,1.83-2.63,2.7-4,7.23-11.27,7.23-14.78A9.06,9.06,0,0,0,16,1Zm0,16.1a7,7,0,1,1,7-7A7,7,0,0,1,16,17.07Z" class="colorf26e61 svgShape"></path><path fill="#ffbf66" d="M16,4a6.06,6.06,0,1,0,6.06,6A6.06,6.06,0,0,0,16,4Zm4.12,6.58h-.73v2.58a.49.49,0,0,1-.49.49H16.77a.49.49,0,0,1-.49-.49V11.6h-.57v1.54a.48.48,0,0,1-.48.49H13.1a.49.49,0,0,1-.49-.49V10.56h-.73a.49.49,0,0,1-.45-.3.5.5,0,0,1,.11-.53l4.12-4.12a.48.48,0,0,1,.68,0l1.85,1.85V7a.48.48,0,0,1,.49-.48.47.47,0,0,1,.48.48V8.43l1.3,1.3a.5.5,0,0,1,.11.53A.49.49,0,0,1,20.12,10.56Z" class="colord7e9f2 svgShape"></path><path fill="#bf5151" d="M25.94,28.26C25.94,29.42,22.16,31,16,31s-9.94-1.61-9.94-2.77,2.85-2.32,7.47-2.68c.18.27.35.53.52.77l.21.3h0l.19.26,0,0c0,.09.11.17.16.25h0c.59.84,1,1.35,1,1.36a.5.5,0,0,0,.78,0S17,27.69,18,26.35h0l.52-.76C23.09,25.94,25.94,27.24,25.94,28.26Z" class="color51bf9f svgShape"></path><path fill="#66ccff" d="M16,1A9.06,9.06,0,0,0,6.94,10c0,3.51,4.53,10.77,7.23,14.78l0,0c.68,1,1.26,1.83,1.65,2.39l.16.22c.39-.54,1.05-1.47,1.83-2.63,2.7-4,7.23-11.27,7.23-14.78A9.06,9.06,0,0,0,16,1Zm1.41,23.55c-.56.84-1.05,1.55-1.41,2.06l-1.39-2v0C10,17.78,7.44,12.5,7.44,10a8.56,8.56,0,0,1,17.12,0C24.56,12.5,22,17.78,17.41,24.52Z" class="colore15e5a svgShape"></path><path fill="#ffbf66" d="M16,4a6.06,6.06,0,1,0,6.06,6A6.06,6.06,0,0,0,16,4Zm0,11.61A5.56,5.56,0,1,1,21.56,10,5.56,5.56,0,0,1,16,15.59Z" class="colorb7dae7 svgShape"></path><path fill="#8a1111" d="M25.94,28.26C25.94,29.42,22.16,31,16,31s-9.94-1.61-9.94-2.77,2.85-2.32,7.47-2.68c.1.15.19.3.29.43-4.57.43-7.26,1.82-7.26,2.25s3,2.27,9.44,2.27,9.44-1.74,9.44-2.27S22.75,26.44,18.18,26l.29-.43C23.09,25.94,25.94,27.24,25.94,28.26Z" class="color3da580 svgShape"></path><path fill="#346277" d="M20.46,9.73l-1.3-1.3V7a.47.47,0,0,0-.48-.48.48.48,0,0,0-.49.48v.51L16.34,5.61a.48.48,0,0,0-.68,0L11.54,9.73a.5.5,0,0,0-.11.53.49.49,0,0,0,.45.3h.73v2.58a.49.49,0,0,0,.49.49h2.13a.48.48,0,0,0,.48-.49V11.6h.57v1.54a.49.49,0,0,0,.49.49H18.9a.49.49,0,0,0,.49-.49V10.56h.73a.49.49,0,0,0,.45-.3A.5.5,0,0,0,20.46,9.73ZM18.9,9.59a.49.49,0,0,0-.48.49v2.58H17.25V11.11a.47.47,0,0,0-.48-.48H15.23a.48.48,0,0,0-.49.48v1.55H13.58V10.08a.49.49,0,0,0-.48-.49h0L16,6.64l2.95,3Z" class="color2b2e63 svgShape"></path><path fill="#ffffff" d="M19,9.59H18.9a.49.49,0,0,0-.48.49v2.58H17.25V11.11a.47.47,0,0,0-.48-.48H15.23a.48.48,0,0,0-.49.48v1.55H13.58V10.08a.49.49,0,0,0-.48-.49h0L16,6.64Z" class="colorffdc7c svgShape"></path><path fill="#f4f4f4" d="M16,6.64l-2.95,3h0a.49.49,0,0,1,.48.49v2.58h1.16V11.11a.48.48,0,0,1,.49-.48h1.54a.47.47,0,0,1,.48.48v1.55h1.17V10.08a.49.49,0,0,1,.48-.49H19Zm2.17,3.44v2.33H17.5v-1.3a.73.73,0,0,0-.73-.73H15.23a.74.74,0,0,0-.74.73v1.3h-.66V10.08a.71.71,0,0,0-.31-.6L16,7l2.48,2.48A.71.71,0,0,0,18.17,10.08Z" class="colorecc25d svgShape"></path></svg></g></svg>