<svg xmlns="http://www.w3.org/2000/svg" viewBox="0 0 64 64"><polygon fill="#e0e0e2" points="48 10 48 49 16 49 16 3 41 3 48 10"/><circle cx="46" cy="47" r="14" fill="#ff5023"/><circle cx="46" cy="47" r="11" fill="#ffda44"/><path fill="#ffdaaa" d="M23,43v3l1,2v5l-1,2-2,2-1,3v1H7V60L5,51,4.08,38.1a3.993,3.993,0,0,1,.42-2.09L12.8,19.6A4,4,0,0,1,16,18V36.6a3.979,3.979,0,0,0,1.18-.86l7.71-6.86A3,3,0,0,1,29,29l.26.26a3.013,3.013,0,0,1,.38,3.79Z"/><polygon fill="#898890" points="41 3 41 10 48 10 41 3"/><path fill="#fff" d="M48,46H47V42h1a2,2,0,0,1,2,2h2a4,4,0,0,0-4-4H47V38H45v2H44a4,4,0,0,0,0,8h1v4H44a2,2,0,0,1-2-2H40a4,4,0,0,0,4,4h1v2h2V54h1a4,4,0,0,0,0-8Zm-4,0a2,2,0,0,1,0-4h1v4Zm4,6H47V48h1a2,2,0,0,1,0,4Z"/><rect width="10" height="2" x="34" y="27" fill="#003f8a"/><rect width="16" height="2" x="22" y="9" fill="#003f8a"/><rect width="24" height="2" x="20" y="13" fill="#003f8a"/><rect width="24" height="2" x="20" y="17" fill="#003f8a"/><rect width="4" height="2" x="20" y="21" fill="#003f8a"/><rect width="18" height="2" x="26" y="21" fill="#003f8a"/><rect width="19" height="2" x="4" y="60" fill="#6a563d"/><rect width="6" height="1" x="42" y="10" fill="#d8d7da"/><rect width="2" height="10" x="8" y="42" fill="#ffe6c6" rx="1"/></svg>