<svg id="SvgjsSvg1374" width="288" height="288" xmlns="http://www.w3.org/2000/svg" version="1.1" xmlns:xlink="http://www.w3.org/1999/xlink" xmlns:svgjs="http://svgjs.com/svgjs"><defs id="SvgjsDefs1375"></defs><g id="SvgjsG1376" transform="matrix(1,0,0,1,0,0)"><svg xmlns="http://www.w3.org/2000/svg" viewBox="0 0 64 64" width="288" height="288"><polygon fill="#66ccff" points="48 10 48 49 16 49 16 3 41 3 48 10" class="colore0e0e2 svgShape"></polygon><circle cx="46" cy="47" r="14" fill="#ff5023" class="colorff5023 svgShape"></circle><circle cx="46" cy="47" r="11" fill="#ffbf66" class="colorffda44 svgShape"></circle><path fill="#ffbf66" d="M23,43v3l1,2v5l-1,2-2,2-1,3v1H7V60L5,51,4.08,38.1a3.993,3.993,0,0,1,.42-2.09L12.8,19.6A4,4,0,0,1,16,18V36.6a3.979,3.979,0,0,0,1.18-.86l7.71-6.86A3,3,0,0,1,29,29l.26.26a3.013,3.013,0,0,1,.38,3.79Z" class="colorffdaaa svgShape"></path><polygon fill="#898890" points="41 3 41 10 48 10 41 3" class="color898890 svgShape"></polygon><path fill="#ffffff" d="M48,46H47V42h1a2,2,0,0,1,2,2h2a4,4,0,0,0-4-4H47V38H45v2H44a4,4,0,0,0,0,8h1v4H44a2,2,0,0,1-2-2H40a4,4,0,0,0,4,4h1v2h2V54h1a4,4,0,0,0,0-8Zm-4,0a2,2,0,0,1,0-4h1v4Zm4,6H47V48h1a2,2,0,0,1,0,4Z" class="colorfff svgShape"></path><rect width="10" height="2" x="34" y="27" fill="#003f8a" class="color003f8a svgShape"></rect><rect width="16" height="2" x="22" y="9" fill="#003f8a" class="color003f8a svgShape"></rect><rect width="24" height="2" x="20" y="13" fill="#003f8a" class="color003f8a svgShape"></rect><rect width="24" height="2" x="20" y="17" fill="#003f8a" class="color003f8a svgShape"></rect><rect width="4" height="2" x="20" y="21" fill="#003f8a" class="color003f8a svgShape"></rect><rect width="18" height="2" x="26" y="21" fill="#003f8a" class="color003f8a svgShape"></rect><rect width="19" height="2" x="4" y="60" fill="#6a563d" class="color6a563d svgShape"></rect><rect width="6" height="1" x="42" y="10" fill="#d8d7da" class="colord8d7da svgShape"></rect><rect width="2" height="10" x="8" y="42" fill="#ffe6c6" rx="1" class="colorffe6c6 svgShape"></rect></svg></g></svg>