<?xml version="1.0" encoding="UTF-8"?><svg xmlns="http://www.w3.org/2000/svg" xmlns:xlink="http://www.w3.org/1999/xlink" version="1.1" id="Layer_1" x="0px" y="0px" viewBox="0 0 24 24" xml:space="preserve"><g fill="none" stroke="#303C42" stroke-linecap="round" stroke-linejoin="round" stroke-miterlimit="10"><path id="XMLID_1395_" d="M5.5 17.5v-7.343l7.343 7.343z"/><path id="XMLID_1374_" d="M4.5 21.5V20"/><path id="XMLID_1373_" d="M7.5 21.5v-1"/><path id="XMLID_1312_" d="M10.5 21.5V20"/><path id="XMLID_1306_" d="M13.5 21.5v-1"/><path d="M14.5 6.5h6"/><path d="M17.5 6.5v13"/><path d="M14.5 19.5h6"/><path d="M20.5 19.5l-3 4-3-4V4A1.5 1.5 0 0 1 16 2.5h3A1.5 1.5 0 0 1 20.5 4v15.5z"/><path d="M19 21.5h3.5l-2-2"/><path d="M14.5 13.5L1.5.5v21H16"/></g><metadata><rdf:RDF xmlns:rdf="http://www.w3.org/1999/02/22-rdf-syntax-ns#" xmlns:rdfs="http://www.w3.org/2000/01/rdf-schema#" xmlns:dc="http://purl.org/dc/elements/1.1/"><rdf:Description about="https://iconscout.com/legal#licenses" dc:title="ruler,rencil,tool,school,math,measure" dc:description="ruler,rencil,tool,school,math,measure" dc:publisher="Iconscout" dc:date="2017-08-16" dc:format="image/svg+xml" dc:language="en"><dc:creator><rdf:Bag><rdf:li>Those Icons</rdf:li></rdf:Bag></dc:creator></rdf:Description></rdf:RDF></metadata></svg>