<svg id="SvgjsSvg1042" width="288" height="288" xmlns="http://www.w3.org/2000/svg" version="1.1" xmlns:xlink="http://www.w3.org/1999/xlink" xmlns:svgjs="http://svgjs.com/svgjs"><defs id="SvgjsDefs1043"></defs><g id="SvgjsG1044" transform="matrix(0.9167,0,0,0.9167,12.059711074638386,12.077430484867108)"><svg xmlns="http://www.w3.org/2000/svg" viewBox="0 0 64 64" width="288" height="288"><g data-name="Plane shipping" fill="#000000" class="color000 svgShape"><rect width="15.39" height="15.66" x="44.03" y="43.86" fill="#b3bcc0" class="colorffcb74 svgShape"></rect><polygon fill="#96a3a9" points="54.46 48.91 51.72 46.98 48.96 48.91 48.96 43.85 54.46 43.85 54.46 48.91" class="colorffab40 svgShape"></polygon><path fill="#8f9ca3" d="M22.67,24.58,29,30.92l4.61-2.75,8.22-.09L56.1,14.42S63.75,9.06,57.42,5s-12.34,5.26-12.34,5.26L32,23.42l-6.64-2Z" class="color999 svgShape"></path><path fill="#394246" d="M57.42,5l-5.61,5s-4.75-1.71-3.5-3.07S53.08,2.23,57.42,5Z" class="color393e46 svgShape"></path><polygon fill="#d2d7da" points="46.56 14.22 56.88 31.25 51.75 36.25 41.05 20 46.56 14.22" class="colord6d6d6 svgShape"></polygon><polygon fill="#d2d7da" points="23.82 12.48 27.92 8.25 43.88 11.46 38.75 17 23.82 12.48" class="colord6d6d6 svgShape"></polygon><path d="M44.59 26.73l7 9.89a1 1 0 0 0 .74.42h.08a1 1 0 0 0 .71-.29l4.48-4.48A1 1 0 0 0 57.74 31l-6.6-10.92 8.16-8.23a4.79 4.79 0 0 0 0-6.76c-3.21-3.2-7.73-2.83-11.52 1h0l-.56.56h0l-3.69 3.68L28.11 7.28a1 1 0 0 0-.9.28L22.76 12a1 1 0 0 0-.26 1 1 1 0 0 0 .71.71l13.41 3.57-4.69 4.69-6.2-1.55a1 1 0 0 0-.95.26l-3.09 3.08a1 1 0 0 0-.29.71 1 1 0 0 0 .29.71l6.66 6.66a1 1 0 0 0 1.27.12L34 29l7.8.18a1 1 0 0 0 .73-.3zM56 5.29l-3 3a1.92 1.92 0 0 1-2.7 0l-.94-1C51.17 5.6 53.66 4.4 56 5.29zm-30.6 6.9l2.84-2.84 13.59 2.7-3.57 3.57zm16 15L33.68 27a1.09 1.09 0 0 0-.58.17l-3.92 2.68-5.36-5.37 2-2L32 24a1 1 0 0 0 1-.26l15-15 1 1a3.91 3.91 0 0 0 5.52 0L57.72 6.4c.06 0 .12.09.18.15a2.72 2.72 0 0 1 .8 2 2.77 2.77 0 0 1-.81 2l-7.81 7.87-3-4.89a1 1 0 1 0-1.71 1L55.63 31.41l-3.1 3.09L42.1 19.72a1 1 0 1 0-1.64 1.16l3 4.19zM9.74 43.91a1 1 0 0 0 .71-.29L23.11 31a1 1 0 0 0-1.42-1.42L9 42.2a1 1 0 0 0 0 1.42A1 1 0 0 0 9.74 43.91zM18.53 50.13a1 1 0 0 0 .71.29 1 1 0 0 0 .7-.29L32.6 37.47a1 1 0 1 0-1.41-1.41L18.53 48.71A1 1 0 0 0 18.53 50.13zM28.21 32.13a1 1 0 0 0-1.42 0L3.22 55.69a1 1 0 0 0 0 1.42 1 1 0 0 0 .71.29 1 1 0 0 0 .71-.29L28.21 33.54A1 1 0 0 0 28.21 32.13zM39 37.61L18.41 58.16a1 1 0 0 0 0 1.42 1 1 0 0 0 .71.29 1 1 0 0 0 .71-.29L40.38 39A1 1 0 0 0 39 37.61zM58.7 41.86h-14A2.71 2.71 0 0 0 42 44.57V58.51a3 3 0 0 0 3 3H58.42a3 3 0 0 0 3-3V44.57A2.71 2.71 0 0 0 58.7 41.86zm-8.72 2h3.69V47l-1.24-.88a1 1 0 0 0-1.15 0L50 47zm9.44 14.65a1 1 0 0 1-1 1H45a1 1 0 0 1-1-1V44.57a.71.71 0 0 1 .71-.71H48v5a1 1 0 0 0 1.58.82l2.29-1.6 2.24 1.59a1 1 0 0 0 1 .08 1 1 0 0 0 .54-.89v-5h3a.71.71 0 0 1 .72.71z" fill="#000000" class="color000 svgShape"></path></g></svg></g></svg>