<svg xmlns="http://www.w3.org/2000/svg" data-name="Layer 1" viewBox="0 0 32 32"><path d="M9.707,20.00049a1.001,1.001,0,0,1,1,1,.5.5,0,0,0,1,0,1.998,1.998,0,0,0-1.5-1.929v-.571a.5.5,0,0,0-1,0v.571a1.99576,1.99576,0,0,0,.5,3.929,1,1,0,1,1-1,1,.5.5,0,0,0-1,0,1.998,1.998,0,0,0,1.5,1.929v.571a.5.5,0,0,0,1,0v-.571a1.99576,1.99576,0,0,0-.5-3.929,1,1,0,0,1,0-2Zm21.13562-6.60608.43079-.431A2.45983,2.45983,0,0,0,32,11.19775a2.49066,2.49066,0,0,0-.73633-1.76123l-8.501-8.501a1.51147,1.51147,0,0,0-.20215-.18213A2.1959,2.1959,0,0,0,19.48047.73486a1.112,1.112,0,0,0-.23437.21191L7.21509,13H2.5A2.50263,2.50263,0,0,0,0,15.5v14A2.50263,2.50263,0,0,0,2.5,32h27A2.50263,2.50263,0,0,0,32,29.5v-14A2.48407,2.48407,0,0,0,30.84265,13.39441ZM19.95313,1.65283c.00977-.00928.07715-.07812.08594-.08789a1.24863,1.24863,0,0,0,.11426-.10156,1.24254,1.24254,0,0,1,1.76563.05322,1.37169,1.37169,0,0,1,.14746.13672l8.49023,8.49023A1.4992,1.4992,0,0,1,31,11.20215a1.47143,1.47143,0,0,1-.43359,1.0542l-.7804.78A2.3122,2.3122,0,0,0,29.5,13H28.397l.80615-.80664a.49993.49993,0,0,0,.09375-.57666.9353.9353,0,0,1-.09668-.4165,1.00859,1.00859,0,0,1,.10156-.436.50155.50155,0,0,0-.09863-.56787l-7.21-7.21a.49948.49948,0,0,0-.57812-.09326.98256.98256,0,0,1-.83984.001.49744.49744,0,0,0-.55859.10254L10.0127,13H8.62683Zm8.31641,10.06055L26.98334,13H21.761a2.986,2.986,0,0,0-5.96155,0H11.42676L20.502,3.9248a1.94679,1.94679,0,0,0,1.01172-.00391l6.75684,6.75684a1.96993,1.96993,0,0,0-.07031.52246A1.93515,1.93515,0,0,0,28.26953,11.71338ZM20.761,13H16.7995A1.98882,1.98882,0,0,1,20.761,13ZM31,25H21.5a2.48949,2.48949,0,0,1-1.95605-.93848A2.54341,2.54341,0,0,1,19,22.5c0-.09509.00879-.19019.01758-.28528a2.49858,2.49858,0,0,1,2.20026-2.19678C21.31287,20.00922,21.40594,20,21.5,20H31Zm0-6H21.5c-.126,0-.251.01025-.376.022l-.0022.00067-.00171-.00018a3.49816,3.49816,0,0,0-3.09766,3.09766l.00018.00165-.00116.00372C18.01074,22.25,18,22.37549,18,22.5a3.54583,3.54583,0,0,0,.75977,2.18164A3.4833,3.4833,0,0,0,21.5,26H31v3.5A1.50164,1.50164,0,0,1,29.5,31H2.5A1.50164,1.50164,0,0,1,1,29.5v-14A1.50164,1.50164,0,0,1,2.5,14h27a1.32249,1.32249,0,0,1,.33984.043l.01367.00342A1.48924,1.48924,0,0,1,31,15.5ZM20,22.5A1.5,1.5,0,1,0,21.5,21,1.50164,1.50164,0,0,0,20,22.5Zm2,0a.5.5,0,1,1-.5-.5A.50065.50065,0,0,1,22,22.5ZM9.5,16A6.5,6.5,0,1,0,16,22.5,6.50753,6.50753,0,0,0,9.5,16Zm0,12A5.5,5.5,0,1,1,15,22.5,5.50654,5.50654,0,0,1,9.5,28Z"/></svg>