<?xml version="1.0" encoding="UTF-8" standalone="no"?><svg xmlns:dc="http://purl.org/dc/elements/1.1/" xmlns:cc="http://creativecommons.org/ns#" xmlns:rdf="http://www.w3.org/1999/02/22-rdf-syntax-ns#" xmlns:svg="http://www.w3.org/2000/svg" xmlns="http://www.w3.org/2000/svg" xmlns:xlink="http://www.w3.org/1999/xlink" xmlns:sodipodi="http://sodipodi.sourceforge.net/DTD/sodipodi-0.dtd" xmlns:inkscape="http://www.inkscape.org/namespaces/inkscape" sodipodi:docname="Bag-cart-star-complete-ecommerce-shopping.svg" inkscape:version="0.91 r" version="1.1" id="svg6485" viewBox="0 0 32 32" height="32" width="32"><sodipodi:namedview inkscape:snap-bbox-edge-midpoints="true" inkscape:bbox-nodes="true" inkscape:snap-bbox="true" inkscape:guide-bbox="true" showguides="false" inkscape:snap-global="true" inkscape:window-maximized="1" inkscape:window-y="24" inkscape:window-x="57" inkscape:window-height="744" inkscape:window-width="1309" units="px" showgrid="true" inkscape:current-layer="layer1" inkscape:document-units="px" inkscape:cy="16" inkscape:cx="10.833608" inkscape:zoom="18.96875" inkscape:pageshadow="2" inkscape:pageopacity="0.0" borderopacity="1.0" bordercolor="#666666" pagecolor="#ffffff" id="base" inkscape:lockguides="false" inkscape:showpageshadow="false"><inkscape:grid empspacing="4" id="grid4145" type="xygrid"/></sodipodi:namedview><defs id="defs6487"><linearGradient inkscape:collect="always" id="linearGradient8079"><stop offset="0" id="stop8081" stop-color="#dc00e6" stop-opacity="1"/><stop offset="1" id="stop8083" stop-color="#1582d5" stop-opacity="1"/></linearGradient><inkscape:path-effect effect="spiro" id="path-effect5218" is_visible="true"/><inkscape:path-effect effect="spiro" id="path-effect5214" is_visible="true"/><inkscape:path-effect effect="spiro" id="path-effect5206" is_visible="true"/><inkscape:path-effect effect="spiro" id="path-effect5190" is_visible="true"/><inkscape:path-effect effect="spiro" id="path-effect5191" is_visible="true"/><inkscape:path-effect effect="spiro" id="path-effect5187" is_visible="true"/><inkscape:path-effect is_visible="true" id="path-effect7721" effect="spiro"/><inkscape:path-effect is_visible="true" id="path-effect7716" effect="spiro"/><inkscape:path-effect effect="spiro" id="path-effect7712" is_visible="true"/><inkscape:path-effect is_visible="true" id="path-effect7708" effect="spiro"/><inkscape:path-effect is_visible="true" id="path-effect7704" effect="spiro"/><inkscape:path-effect is_visible="true" id="path-effect7605" effect="spiro"/><inkscape:path-effect effect="spiro" id="path-effect7601" is_visible="true"/><inkscape:path-effect effect="spiro" id="path-effect7597" is_visible="true"/><inkscape:path-effect is_visible="true" id="path-effect7593" effect="spiro"/><inkscape:path-effect is_visible="true" id="path-effect7589" effect="spiro"/><inkscape:path-effect effect="spiro" id="path-effect7585" is_visible="true"/><inkscape:path-effect is_visible="true" id="path-effect7581" effect="spiro"/><inkscape:path-effect effect="spiro" id="path-effect7577" is_visible="true"/><inkscape:path-effect effect="spiro" id="path-effect7573" is_visible="true"/><inkscape:path-effect is_visible="true" id="path-effect7569" effect="spiro"/><inkscape:path-effect is_visible="true" id="path-effect7565" effect="spiro"/><inkscape:path-effect effect="spiro" id="path-effect7561" is_visible="true"/><inkscape:path-effect effect="spiro" id="path-effect7557" is_visible="true"/><inkscape:path-effect is_visible="true" id="path-effect7553" effect="spiro"/><inkscape:path-effect is_visible="true" id="path-effect7545" effect="spiro"/><inkscape:path-effect effect="spiro" id="path-effect7541" is_visible="true"/><inkscape:path-effect effect="spiro" id="path-effect7537" is_visible="true"/><inkscape:path-effect is_visible="true" id="path-effect7533" effect="spiro"/><inkscape:path-effect effect="spiro" id="path-effect7529" is_visible="true"/><inkscape:path-effect effect="spiro" id="path-effect7525" is_visible="true"/><inkscape:path-effect is_visible="true" id="path-effect7521" effect="spiro"/><inkscape:path-effect effect="spiro" id="path-effect7403" is_visible="true"/><inkscape:path-effect is_visible="true" id="path-effect7399" effect="spiro"/><inkscape:path-effect effect="spiro" id="path-effect7395" is_visible="true"/><inkscape:path-effect is_visible="true" id="path-effect7391" effect="spiro"/><inkscape:path-effect effect="spiro" id="path-effect7387" is_visible="true"/><inkscape:path-effect is_visible="true" id="path-effect7383" effect="spiro"/><inkscape:path-effect effect="spiro" id="path-effect7379" is_visible="true"/><inkscape:path-effect is_visible="true" id="path-effect7375" effect="spiro"/><inkscape:path-effect effect="spiro" id="path-effect7335" is_visible="true"/><inkscape:path-effect is_visible="true" id="path-effect7331" effect="spiro"/><inkscape:path-effect effect="spiro" id="path-effect7326" is_visible="true"/><inkscape:path-effect is_visible="true" id="path-effect7322" effect="spiro"/><inkscape:path-effect effect="spiro" id="path-effect7318" is_visible="true"/><inkscape:path-effect is_visible="true" id="path-effect7314" effect="spiro"/><inkscape:path-effect is_visible="true" id="path-effect7290" effect="spiro"/><inkscape:path-effect effect="spiro" id="path-effect7286" is_visible="true"/><inkscape:path-effect is_visible="true" id="path-effect7282" effect="spiro"/><inkscape:path-effect effect="spiro" id="path-effect7278" is_visible="true"/><inkscape:path-effect is_visible="true" id="path-effect7274" effect="spiro"/><inkscape:path-effect is_visible="true" id="path-effect7241" effect="spiro"/><inkscape:path-effect is_visible="true" id="path-effect7237" effect="spiro"/><inkscape:path-effect is_visible="true" id="path-effect7233" effect="spiro"/><inkscape:path-effect is_visible="true" id="path-effect7219" effect="spiro"/><inkscape:path-effect is_visible="true" id="path-effect7192" effect="spiro"/><inkscape:path-effect effect="spiro" id="path-effect7091" is_visible="true"/><inkscape:path-effect is_visible="true" id="path-effect7087" effect="spiro"/><inkscape:path-effect effect="spiro" id="path-effect7083" is_visible="true"/><inkscape:path-effect effect="spiro" id="path-effect7079" is_visible="true"/><inkscape:path-effect is_visible="true" id="path-effect7075" effect="spiro"/><inkscape:path-effect effect="spiro" id="path-effect6990" is_visible="true"/><inkscape:path-effect is_visible="true" id="path-effect6986" effect="spiro"/><inkscape:path-effect is_visible="true" id="path-effect6982" effect="spiro"/><inkscape:path-effect effect="spiro" id="path-effect6978" is_visible="true"/><inkscape:path-effect effect="spiro" id="path-effect6974" is_visible="true"/><inkscape:path-effect is_visible="true" id="path-effect6970" effect="spiro"/><inkscape:path-effect is_visible="true" id="path-effect6854" effect="spiro"/><inkscape:path-effect effect="spiro" id="path-effect6850" is_visible="true"/><inkscape:path-effect is_visible="true" id="path-effect6846" effect="spiro"/><inkscape:path-effect is_visible="true" id="path-effect6842" effect="spiro"/><inkscape:path-effect effect="spiro" id="path-effect6838" is_visible="true"/><inkscape:path-effect is_visible="true" id="path-effect6834" effect="spiro"/><inkscape:path-effect effect="spiro" id="path-effect6830" is_visible="true"/><inkscape:path-effect is_visible="true" id="path-effect6826" effect="spiro"/><inkscape:path-effect effect="spiro" id="path-effect6822" is_visible="true"/><inkscape:path-effect is_visible="true" id="path-effect6818" effect="spiro"/><inkscape:path-effect effect="spiro" id="path-effect6814" is_visible="true"/><inkscape:path-effect is_visible="true" id="path-effect6810" effect="spiro"/><inkscape:path-effect is_visible="true" id="path-effect6733" effect="spiro"/><inkscape:path-effect effect="spiro" id="path-effect6729" is_visible="true"/><inkscape:path-effect is_visible="true" id="path-effect6725" effect="spiro"/><inkscape:path-effect is_visible="true" id="path-effect6709" effect="spiro"/><inkscape:path-effect is_visible="true" id="path-effect6705" effect="spiro"/><inkscape:path-effect effect="spiro" id="path-effect6701" is_visible="true"/><inkscape:path-effect is_visible="true" id="path-effect6697" effect="spiro"/><inkscape:path-effect effect="spiro" id="path-effect6693" is_visible="true"/><inkscape:path-effect is_visible="true" id="path-effect6689" effect="spiro"/><inkscape:path-effect effect="spiro" id="path-effect6685" is_visible="true"/><inkscape:path-effect is_visible="true" id="path-effect6681" effect="spiro"/><inkscape:path-effect effect="spiro" id="path-effect6654" is_visible="true"/><inkscape:path-effect is_visible="true" id="path-effect6649" effect="spiro"/><inkscape:path-effect effect="spiro" id="path-effect6644" is_visible="true"/><inkscape:path-effect is_visible="true" id="path-effect6641" effect="spiro"/><inkscape:path-effect is_visible="true" id="path-effect6638" effect="spiro"/><inkscape:path-effect effect="spiro" id="path-effect6634" is_visible="true"/><inkscape:path-effect is_visible="true" id="path-effect6630" effect="spiro"/><inkscape:path-effect is_visible="true" id="path-effect6568" effect="spiro"/><inkscape:path-effect effect="spiro" id="path-effect6564" is_visible="true"/><inkscape:path-effect is_visible="true" id="path-effect6560" effect="spiro"/><inkscape:path-effect effect="spiro" id="path-effect6556" is_visible="true"/><inkscape:path-effect is_visible="true" id="path-effect6552" effect="spiro"/><inkscape:path-effect is_visible="true" id="path-effect6547" effect="spiro"/><inkscape:path-effect is_visible="true" id="path-effect6527" effect="spiro"/><inkscape:path-effect effect="spiro" id="path-effect6481" is_visible="true"/><inkscape:path-effect is_visible="true" id="path-effect6477" effect="spiro"/><inkscape:path-effect effect="spiro" id="path-effect6473" is_visible="true"/><inkscape:path-effect is_visible="true" id="path-effect6469" effect="spiro"/><inkscape:path-effect effect="spiro" id="path-effect6465" is_visible="true"/><inkscape:path-effect is_visible="true" id="path-effect6461" effect="spiro"/><inkscape:path-effect effect="spiro" id="path-effect6457" is_visible="true"/><inkscape:path-effect is_visible="true" id="path-effect6453" effect="spiro"/><inkscape:path-effect is_visible="true" id="path-effect6441" effect="spiro"/><inkscape:path-effect is_visible="true" id="path-effect6397" effect="spiro"/><inkscape:path-effect effect="spiro" id="path-effect6393" is_visible="true"/><inkscape:path-effect effect="spiro" id="path-effect6389" is_visible="true"/><inkscape:path-effect is_visible="true" id="path-effect6385" effect="spiro"/><inkscape:path-effect is_visible="true" id="path-effect6381" effect="spiro"/><inkscape:path-effect effect="spiro" id="path-effect6377" is_visible="true"/><inkscape:path-effect effect="spiro" id="path-effect6373" is_visible="true"/><inkscape:path-effect is_visible="true" id="path-effect6369" effect="spiro"/><inkscape:path-effect is_visible="true" id="path-effect6353" effect="spiro"/><inkscape:path-effect effect="spiro" id="path-effect6349" is_visible="true"/><inkscape:path-effect is_visible="true" id="path-effect6345" effect="spiro"/><inkscape:path-effect effect="spiro" id="path-effect6337" is_visible="true"/><inkscape:path-effect is_visible="true" id="path-effect6333" effect="spiro"/><inkscape:path-effect effect="spiro" id="path-effect6329" is_visible="true"/><inkscape:path-effect effect="spiro" id="path-effect6320" is_visible="true"/><inkscape:path-effect is_visible="true" id="path-effect6316" effect="spiro"/><inkscape:path-effect effect="spiro" id="path-effect6312" is_visible="true"/><inkscape:path-effect is_visible="true" id="path-effect6308" effect="spiro"/><inkscape:path-effect effect="spiro" id="path-effect6260" is_visible="true"/><inkscape:path-effect is_visible="true" id="path-effect6256" effect="spiro"/><inkscape:path-effect effect="spiro" id="path-effect6252" is_visible="true"/><inkscape:path-effect is_visible="true" id="path-effect6248" effect="spiro"/><inkscape:path-effect is_visible="true" id="path-effect6203" effect="spiro"/><inkscape:path-effect is_visible="true" id="path-effect6200" effect="spiro"/><inkscape:path-effect is_visible="true" id="path-effect6197" effect="spiro"/><inkscape:path-effect effect="spiro" id="path-effect6157" is_visible="true"/><inkscape:path-effect effect="spiro" id="path-effect6154" is_visible="true"/><inkscape:path-effect effect="spiro" id="path-effect6151" is_visible="true"/><inkscape:path-effect is_visible="true" id="path-effect6024" effect="spiro"/><inkscape:path-effect effect="spiro" id="path-effect6016" is_visible="true"/><inkscape:path-effect is_visible="true" id="path-effect6009" effect="spiro"/><inkscape:path-effect is_visible="true" id="path-effect5903" effect="spiro"/><inkscape:path-effect effect="spiro" id="path-effect5899" is_visible="true"/><inkscape:path-effect effect="spiro" id="path-effect5861" is_visible="true"/><inkscape:path-effect is_visible="true" id="path-effect5857" effect="spiro"/><inkscape:path-effect is_visible="true" id="path-effect5720" effect="spiro"/><inkscape:path-effect effect="spiro" id="path-effect5714" is_visible="true"/><inkscape:path-effect is_visible="true" id="path-effect5708" effect="spiro"/><inkscape:path-effect is_visible="true" id="path-effect5702" effect="spiro"/><inkscape:path-effect effect="spiro" id="path-effect5698" is_visible="true"/><inkscape:path-effect effect="spiro" id="path-effect5690" is_visible="true"/><inkscape:path-effect effect="spiro" id="path-effect5684" is_visible="true"/><inkscape:path-effect is_visible="true" id="path-effect5680" effect="spiro"/><inkscape:path-effect effect="spiro" id="path-effect5551" is_visible="true"/><inkscape:path-effect is_visible="true" id="path-effect5545" effect="spiro"/><inkscape:path-effect effect="spiro" id="path-effect5539" is_visible="true"/><inkscape:path-effect effect="spiro" id="path-effect5535" is_visible="true"/><inkscape:path-effect is_visible="true" id="path-effect5531" effect="spiro"/><inkscape:path-effect is_visible="true" id="path-effect5527" effect="spiro"/><inkscape:path-effect effect="spiro" id="path-effect5521" is_visible="true"/><inkscape:path-effect effect="spiro" id="path-effect5515" is_visible="true"/><inkscape:path-effect is_visible="true" id="path-effect5511" effect="spiro"/><inkscape:path-effect effect="spiro" id="path-effect5507" is_visible="true"/><inkscape:path-effect is_visible="true" id="path-effect5503" effect="spiro"/><inkscape:path-effect effect="spiro" id="path-effect5499" is_visible="true"/><inkscape:path-effect is_visible="true" id="path-effect5495" effect="spiro"/><inkscape:path-effect effect="spiro" id="path-effect5491" is_visible="true"/><inkscape:path-effect is_visible="true" id="path-effect5487" effect="spiro"/><inkscape:path-effect is_visible="true" id="path-effect5483" effect="spiro"/><inkscape:path-effect effect="spiro" id="path-effect5479" is_visible="true"/><inkscape:path-effect is_visible="true" id="path-effect5475" effect="spiro"/><inkscape:path-effect effect="spiro" id="path-effect5471" is_visible="true"/><inkscape:path-effect effect="spiro" id="path-effect5467" is_visible="true"/><inkscape:path-effect is_visible="true" id="path-effect5463" effect="spiro"/><inkscape:path-effect is_visible="true" id="path-effect5346" effect="spiro"/><inkscape:path-effect effect="spiro" id="path-effect5342" is_visible="true"/><inkscape:path-effect is_visible="true" id="path-effect5338" effect="spiro"/><inkscape:path-effect effect="spiro" id="path-effect5334" is_visible="true"/><inkscape:path-effect effect="spiro" id="path-effect5330" is_visible="true"/><inkscape:path-effect is_visible="true" id="path-effect5326" effect="spiro"/><inkscape:path-effect effect="spiro" id="path-effect5322" is_visible="true"/><inkscape:path-effect is_visible="true" id="path-effect5318" effect="spiro"/><inkscape:path-effect effect="spiro" id="path-effect5201" is_visible="true"/><inkscape:path-effect is_visible="true" id="path-effect5195" effect="spiro"/><inkscape:path-effect effect="spiro" id="path-effect5189" is_visible="true"/><inkscape:path-effect effect="spiro" id="path-effect5185" is_visible="true"/><inkscape:path-effect is_visible="true" id="path-effect5181" effect="spiro"/><inkscape:path-effect effect="spiro" id="path-effect5173" is_visible="true"/><inkscape:path-effect is_visible="true" id="path-effect5165" effect="spiro"/><inkscape:path-effect is_visible="true" id="path-effect5105" effect="spiro"/><inkscape:path-effect effect="spiro" id="path-effect5101" is_visible="true"/><inkscape:path-effect is_visible="true" id="path-effect5097" effect="spiro"/><inkscape:path-effect effect="spiro" id="path-effect5093" is_visible="true"/><inkscape:path-effect is_visible="true" id="path-effect5089" effect="spiro"/><inkscape:path-effect effect="spiro" id="path-effect5085" is_visible="true"/><inkscape:path-effect is_visible="true" id="path-effect5081" effect="spiro"/><inkscape:path-effect effect="spiro" id="path-effect5077" is_visible="true"/><inkscape:path-effect effect="spiro" id="path-effect5073" is_visible="true"/><inkscape:path-effect is_visible="true" id="path-effect5067" effect="spiro"/><inkscape:path-effect effect="spiro" id="path-effect5061" is_visible="true"/><inkscape:path-effect effect="spiro" id="path-effect5055" is_visible="true"/><inkscape:path-effect is_visible="true" id="path-effect5047" effect="spiro"/><inkscape:path-effect effect="spiro" id="path-effect5043" is_visible="true"/><inkscape:path-effect effect="spiro" id="path-effect5036" is_visible="true"/><inkscape:path-effect is_visible="true" id="path-effect5033" effect="spiro"/><inkscape:path-effect effect="spiro" id="path-effect5030" is_visible="true"/><inkscape:path-effect is_visible="true" id="path-effect5027" effect="spiro"/><inkscape:path-effect effect="spiro" id="path-effect5024" is_visible="true"/><inkscape:path-effect is_visible="true" id="path-effect5021" effect="spiro"/><inkscape:path-effect effect="spiro" id="path-effect5018" is_visible="true"/><inkscape:path-effect is_visible="true" id="path-effect5015" effect="spiro"/><inkscape:path-effect effect="spiro" id="path-effect5012" is_visible="true"/><inkscape:path-effect is_visible="true" id="path-effect5009" effect="spiro"/><inkscape:path-effect effect="spiro" id="path-effect5006" is_visible="true"/><inkscape:path-effect is_visible="true" id="path-effect5003" effect="spiro"/><inkscape:path-effect effect="spiro" id="path-effect5000" is_visible="true"/><inkscape:path-effect is_visible="true" id="path-effect4992" effect="spiro"/><inkscape:path-effect effect="spiro" id="path-effect4989" is_visible="true"/><inkscape:path-effect is_visible="true" id="path-effect4986" effect="spiro"/><inkscape:path-effect effect="spiro" id="path-effect4983" is_visible="true"/><inkscape:path-effect is_visible="true" id="path-effect4980" effect="spiro"/><inkscape:path-effect effect="spiro" id="path-effect4977" is_visible="true"/><inkscape:path-effect is_visible="true" id="path-effect4889" effect="spiro"/><inkscape:path-effect effect="spiro" id="path-effect4885" is_visible="true"/><inkscape:path-effect is_visible="true" id="path-effect4881" effect="spiro"/><inkscape:path-effect effect="spiro" id="path-effect4877" is_visible="true"/><inkscape:path-effect is_visible="true" id="path-effect4873" effect="spiro"/><inkscape:path-effect effect="spiro" id="path-effect4869" is_visible="true"/><inkscape:path-effect is_visible="true" id="path-effect4855" effect="spiro"/><inkscape:path-effect effect="spiro" id="path-effect4851" is_visible="true"/><inkscape:path-effect is_visible="true" id="path-effect4847" effect="spiro"/><inkscape:path-effect effect="spiro" id="path-effect4843" is_visible="true"/><inkscape:path-effect is_visible="true" id="path-effect4839" effect="spiro"/><inkscape:path-effect effect="spiro" id="path-effect4835" is_visible="true"/><inkscape:path-effect is_visible="true" id="path-effect4831" effect="spiro"/><inkscape:path-effect effect="spiro" id="path-effect4827" is_visible="true"/><inkscape:path-effect is_visible="true" id="path-effect4823" effect="spiro"/><inkscape:path-effect effect="spiro" id="path-effect4819" is_visible="true"/><inkscape:path-effect is_visible="true" id="path-effect4815" effect="spiro"/><inkscape:path-effect effect="spiro" id="path-effect4811" is_visible="true"/><inkscape:path-effect is_visible="true" id="path-effect4806" effect="spiro"/><inkscape:path-effect is_visible="true" id="path-effect4751" effect="spiro"/><inkscape:path-effect effect="spiro" id="path-effect4747" is_visible="true"/><inkscape:path-effect is_visible="true" id="path-effect4743" effect="spiro"/><inkscape:path-effect effect="spiro" id="path-effect4739" is_visible="true"/><inkscape:path-effect is_visible="true" id="path-effect4735" effect="spiro"/><inkscape:path-effect effect="spiro" id="path-effect4642" is_visible="true"/><inkscape:path-effect is_visible="true" id="path-effect4638" effect="spiro"/><inkscape:path-effect effect="spiro" id="path-effect4407" is_visible="true"/><inkscape:path-effect is_visible="true" id="path-effect4403" effect="spiro"/><inkscape:path-effect effect="spiro" id="path-effect4399" is_visible="true"/><inkscape:path-effect is_visible="true" id="path-effect4395" effect="spiro"/><inkscape:path-effect effect="spiro" id="path-effect4391" is_visible="true"/><inkscape:path-effect is_visible="true" id="path-effect4387" effect="spiro"/><inkscape:path-effect effect="spiro" id="path-effect4383" is_visible="true"/><inkscape:path-effect is_visible="true" id="path-effect4379" effect="spiro"/><inkscape:path-effect effect="spiro" id="path-effect4374" is_visible="true"/><inkscape:path-effect is_visible="true" id="path-effect4370" effect="spiro"/><inkscape:path-effect effect="spiro" id="path-effect4366" is_visible="true"/><inkscape:path-effect is_visible="true" id="path-effect4362" effect="spiro"/><inkscape:path-effect effect="spiro" id="path-effect4358" is_visible="true"/><inkscape:path-effect is_visible="true" id="path-effect4354" effect="spiro"/><inkscape:path-effect effect="spiro" id="path-effect4350" is_visible="true"/><inkscape:path-effect is_visible="true" id="path-effect4346" effect="spiro"/><inkscape:path-effect effect="spiro" id="path-effect4342" is_visible="true"/><inkscape:path-effect is_visible="true" id="path-effect4338" effect="spiro"/><inkscape:path-effect effect="spiro" id="path-effect4334" is_visible="true"/><inkscape:path-effect is_visible="true" id="path-effect4330" effect="spiro"/><inkscape:path-effect effect="spiro" id="path-effect4326" is_visible="true"/><inkscape:path-effect is_visible="true" id="path-effect4322" effect="spiro"/><inkscape:path-effect effect="spiro" id="path-effect4816" is_visible="true"/><inkscape:path-effect is_visible="true" id="path-effect4813" effect="spiro"/><inkscape:path-effect is_visible="true" id="path-effect4810" effect="spiro"/><inkscape:path-effect effect="spiro" id="path-effect4807" is_visible="true"/><inkscape:path-effect effect="spiro" id="path-effect4804" is_visible="true"/><inkscape:path-effect is_visible="true" id="path-effect4801" effect="spiro"/><inkscape:path-effect is_visible="true" id="path-effect4798" effect="spiro"/><inkscape:path-effect effect="spiro" id="path-effect4795" is_visible="true"/><inkscape:path-effect effect="spiro" id="path-effect4792" is_visible="true"/><inkscape:path-effect is_visible="true" id="path-effect4789" effect="spiro"/><inkscape:path-effect is_visible="true" id="path-effect4786" effect="spiro"/><inkscape:path-effect effect="spiro" id="path-effect4783" is_visible="true"/><inkscape:path-effect is_visible="true" id="path-effect4728" effect="spiro"/><inkscape:path-effect effect="spiro" id="path-effect4724" is_visible="true"/><inkscape:path-effect effect="spiro" id="path-effect4720" is_visible="true"/><inkscape:path-effect is_visible="true" id="path-effect4716" effect="spiro"/><inkscape:path-effect is_visible="true" id="path-effect4712" effect="spiro"/><inkscape:path-effect effect="spiro" id="path-effect4708" is_visible="true"/><inkscape:path-effect effect="spiro" id="path-effect4704" is_visible="true"/><inkscape:path-effect is_visible="true" id="path-effect4700" effect="spiro"/><inkscape:path-effect is_visible="true" id="path-effect4696" effect="spiro"/><inkscape:path-effect effect="spiro" id="path-effect4692" is_visible="true"/><inkscape:path-effect effect="spiro" id="path-effect4688" is_visible="true"/><inkscape:path-effect is_visible="true" id="path-effect4684" effect="spiro"/><inkscape:path-effect effect="spiro" id="path-effect4680" is_visible="true"/><inkscape:path-effect effect="spiro" id="path-effect4676" is_visible="true"/><inkscape:path-effect is_visible="true" id="path-effect4672" effect="spiro"/><inkscape:path-effect is_visible="true" id="path-effect4668" effect="spiro"/><inkscape:path-effect effect="spiro" id="path-effect4664" is_visible="true"/><inkscape:path-effect effect="spiro" id="path-effect4660" is_visible="true"/><inkscape:path-effect is_visible="true" id="path-effect4656" effect="spiro"/><inkscape:path-effect is_visible="true" id="path-effect4652" effect="spiro"/><inkscape:path-effect effect="spiro" id="path-effect4648" is_visible="true"/><inkscape:path-effect effect="spiro" id="path-effect4644" is_visible="true"/><inkscape:path-effect is_visible="true" id="path-effect4624" effect="spiro"/><inkscape:path-effect effect="spiro" id="path-effect4620" is_visible="true"/><inkscape:path-effect effect="spiro" id="path-effect4616" is_visible="true"/><inkscape:path-effect is_visible="true" id="path-effect4612" effect="spiro"/><inkscape:path-effect effect="spiro" id="path-effect4603" is_visible="true"/><inkscape:path-effect is_visible="true" id="path-effect4600" effect="spiro"/><inkscape:path-effect effect="spiro" id="path-effect4597" is_visible="true"/><inkscape:path-effect is_visible="true" id="path-effect4594" effect="spiro"/><inkscape:path-effect effect="spiro" id="path-effect4591" is_visible="true"/><inkscape:path-effect is_visible="true" id="path-effect4588" effect="spiro"/><inkscape:path-effect effect="spiro" id="path-effect4585" is_visible="true"/><inkscape:path-effect is_visible="true" id="path-effect4542" effect="spiro"/><inkscape:path-effect effect="spiro" id="path-effect4538" is_visible="true"/><inkscape:path-effect is_visible="true" id="path-effect4534" effect="spiro"/><inkscape:path-effect effect="spiro" id="path-effect4530" is_visible="true"/><inkscape:path-effect is_visible="true" id="path-effect4526" effect="spiro"/><inkscape:path-effect effect="spiro" id="path-effect4522" is_visible="true"/><inkscape:path-effect is_visible="true" id="path-effect4518" effect="spiro"/><inkscape:path-effect effect="spiro" id="path-effect4295" is_visible="true"/><inkscape:path-effect is_visible="true" id="path-effect4291" effect="spiro"/><inkscape:path-effect is_visible="true" id="path-effect4287" effect="spiro"/><inkscape:path-effect effect="spiro" id="path-effect4283" is_visible="true"/><inkscape:path-effect effect="spiro" id="path-effect4279" is_visible="true"/><inkscape:path-effect is_visible="true" id="path-effect4275" effect="spiro"/><inkscape:path-effect is_visible="true" id="path-effect4157" effect="spiro"/><inkscape:path-effect is_visible="true" id="path-effect4153" effect="spiro"/><inkscape:path-effect effect="spiro" id="path-effect4239" is_visible="true"/><inkscape:path-effect is_visible="true" id="path-effect4223" effect="spiro"/><inkscape:path-effect effect="spiro" id="path-effect4217" is_visible="true"/><inkscape:path-effect is_visible="true" id="path-effect4213" effect="spiro"/><inkscape:path-effect is_visible="true" id="path-effect5296" effect="spiro"/><inkscape:path-effect is_visible="true" id="path-effect7060" effect="spiro"/><inkscape:path-effect effect="spiro" id="path-effect6771" is_visible="true"/><inkscape:path-effect is_visible="true" id="path-effect6833" effect="spiro"/><inkscape:path-effect effect="spiro" id="path-effect6839" is_visible="true"/><inkscape:path-effect is_visible="true" id="path-effect6848" effect="spiro"/><inkscape:path-effect effect="spiro" id="path-effect6856" is_visible="true"/><linearGradient inkscape:collect="always" xlink:href="#linearGradient8079" id="linearGradient8085" x1="1.5" y1="1036.2535" x2="30.5" y2="1036.2535" gradientUnits="userSpaceOnUse"/></defs><g transform="translate(0,-1020.3622)" id="layer1" inkscape:groupmode="layer" inkscape:label="Layer 1"><path inkscape:connector-curvature="0" style="line-height:normal;text-indent:0;text-align:start;text-decoration-line:none;text-decoration-style:solid;text-decoration-color:#000000;text-transform:none;block-progression:tb;isolation:auto;mix-blend-mode:normal" d="M17.83 1022.145a1.82 1.82 0 0 0-.676.157 1.756 1.756 0 0 0-.869 2.316l2.322 5.115a6.48 6.48 0 0 0-.789 1.627h-6.164l3.06-6.742a1.757 1.757 0 0 0-.87-2.316 1.76 1.76 0 0 0-2.317.869l-3.718 8.19H3.5c-1.1 0-2 .9-2 2 0 .865.562 1.6 1.336 1.876l2.684 13.082c.103.503.287.984.605 1.371.318.388.807.672 1.371.672h16.008c.564 0 1.053-.284 1.371-.672.318-.387.502-.868.605-1.37l1.938-9.444c1.846-1.148 3.082-3.187 3.082-5.516 0-3.584-2.916-6.5-6.5-6.5-.927 0-1.807.196-2.605.547l-1.922-4.236a1.746 1.746 0 0 0-.98-.912 1.76 1.76 0 0 0-.663-.114zm-4.691.997c.097 0 .196.026.293.07a.737.737 0 0 1 .373.992l-3.928 8.65a.739.739 0 0 1-.994.373.737.737 0 0 1-.373-.992l3.927-8.65a.74.74 0 0 1 .702-.444zm4.722 0a.74.74 0 0 1 .701.443l1.952 4.299c-.44.28-.843.61-1.201.984l-2.118-4.664a.737.737 0 0 1 .373-.992.76.76 0 0 1 .293-.07zM24 1027.86c3.043 0 5.5 2.457 5.5 5.5 0 3.044-2.457 5.5-5.5 5.5a5.492 5.492 0 0 1-5.5-5.5c0-1.188.378-2.285 1.016-3.183a.5.5 0 0 0 .125-.168c.438-.57.984-1.051 1.611-1.412a.5.5 0 0 0 .273-.147 5.482 5.482 0 0 1 2.475-.59zm.002 1.381c-.349 0-.437.188-.514.29a1.93 1.93 0 0 0-.19.314c-.113.226-.22.5-.33.773-.108.273-.215.544-.302.748-.032.076-.058.13-.082.18-.055.01-.112.017-.195.025-.22.019-.512.032-.805.05a9.748 9.748 0 0 0-.834.08c-.125.02-.24.04-.36.08-.119.043-.323.069-.43.401-.109.333.042.476.114.58.073.105.15.188.24.278.18.178.404.368.63.556.225.188.452.372.619.518.063.055.105.096.144.135-.01.054-.02.111-.039.193-.05.216-.126.498-.2.783-.072.285-.14.57-.18.82-.021.126-.039.239-.036.366.003.127-.036.33.246.537.282.206.465.109.586.072.121-.037.224-.086.336-.145.225-.116.473-.272.72-.43.248-.157.497-.315.686-.43.072-.042.123-.068.172-.093.049.026.1.053.172.096.19.114.432.274.68.432.247.157.496.31.72.427.113.058.217.11.338.147.121.037.304.133.586-.072.283-.206.244-.408.246-.535a1.94 1.94 0 0 0-.031-.368c-.04-.25-.111-.535-.184-.82-.072-.285-.148-.567-.197-.783-.019-.082-.028-.139-.037-.193.04-.04.08-.082.143-.137.166-.145.395-.328.62-.516.227-.187.45-.374.63-.552.09-.09.17-.176.242-.28.072-.104.22-.243.113-.576-.107-.333-.31-.36-.43-.402a1.917 1.917 0 0 0-.359-.08c-.25-.038-.54-.061-.832-.08-.293-.02-.585-.035-.805-.055-.084-.01-.144-.015-.199-.023a3.82 3.82 0 0 1-.08-.18c-.086-.204-.19-.475-.299-.748a10.108 10.108 0 0 0-.33-.773 1.952 1.952 0 0 0-.19-.315c-.076-.101-.164-.29-.513-.291zm0 1.498c.037.09.068.152.105.248.105.266.211.542.31.774.048.115.095.221.146.316.05.095.056.172.246.31.19.14.267.122.373.141.105.02.217.032.341.043.25.022.544.038.829.057.101.01.172.016.267.023-.072.062-.123.113-.201.178-.22.183-.448.366-.637.531-.094.083-.18.161-.254.238-.074.077-.148.109-.22.332-.073.224-.033.292-.018.399.015.107.038.217.066.34.056.245.133.53.204.808.025.1.036.17.058.264-.082-.05-.144-.083-.23-.139-.241-.153-.49-.314-.705-.443a3.844 3.844 0 0 0-.301-.168c-.097-.047-.15-.107-.385-.107-.235 0-.284.058-.38.105a3.998 3.998 0 0 0-.305.168c-.215.13-.462.29-.704.443-.086.055-.146.09-.228.14.023-.095.031-.167.057-.267.07-.277.146-.561.203-.806.028-.123.053-.233.068-.34.015-.107.057-.175-.016-.398-.072-.225-.146-.257-.22-.334a3.843 3.843 0 0 0-.252-.237c-.189-.165-.42-.35-.639-.533-.08-.066-.129-.116-.203-.18.097-.01.166-.017.27-.023.284-.018.578-.034.828-.055.124-.01.24-.023.345-.04.106-.02.182 0 .371-.137.19-.139.196-.218.247-.313.05-.095.099-.2.148-.316.098-.232.205-.508.31-.774.038-.095.069-.158.106-.248zm-14.52.623a.5.5 0 0 0-.433.293.5.5 0 0 0 .248.66.5.5 0 0 0 .662-.248.5.5 0 0 0-.248-.662.5.5 0 0 0-.229-.043zm-5.982.998h3.963a1.752 1.752 0 0 0 1.008 1.778c.875.397 1.919.01 2.316-.87l.412-.908h6.387a6.49 6.49 0 0 0-.086 1c0 .342.035.673.086 1H11.3a.5.5 0 1 0 0 1h6.517c.205.632.506 1.22.883 1.75a.5.5 0 0 0-.058.244v2a.5.5 0 1 0 1 0v-1.185c.429.39.908.722 1.43.986v.2a.5.5 0 0 0 .96.199c.62.197 1.282.306 1.967.306.804 0 1.57-.154 2.281-.422l-1.781 8.68c-.08.388-.225.728-.398.94-.174.21-.338.304-.598.304H7.496c-.26 0-.424-.093-.598-.305-.134-.163-.24-.417-.324-.697H13.2a.5.5 0 1 0 0-1H6.344l-2.463-12H7a.5.5 0 1 0 0-1H3.5c-.563 0-1-.437-1-1 0-.562.437-1 1-1zm3.492 4.487a.5.5 0 0 0-.492.507v2a.5.5 0 1 0 1 0v-2a.5.5 0 0 0-.508-.507zm2.43 0a.5.5 0 0 0-.494.507v2a.5.5 0 1 0 1 0v-2a.5.5 0 0 0-.506-.507zm2.428 0a.5.5 0 0 0-.493.507v2a.5.5 0 1 0 1 0v-2a.5.5 0 0 0-.507-.507zm2.427 0a.5.5 0 0 0-.492.507v2a.5.5 0 1 0 1 0v-2a.5.5 0 0 0-.508-.507zm2.43 0a.5.5 0 0 0-.492.507v2a.5.5 0 1 0 1 0v-2a.5.5 0 0 0-.508-.507zm-1.07 10.513a.5.5 0 0 0 .05 1H17.5a.5.5 0 1 0 0-1h-1.812a.5.5 0 0 0-.051 0z" id="path18130" color="#000" font-style="normal" font-variant="normal" font-weight="normal" font-stretch="normal" font-size="medium" font-family="sans-serif" text-decoration="none" letter-spacing="normal" word-spacing="normal" direction="ltr" writing-mode="lr-tb" baseline-shift="baseline" text-anchor="start" white-space="normal" clip-rule="nonzero" display="inline" overflow="visible" visibility="visible" opacity="1" color-interpolation="sRGB" color-interpolation-filters="linearRGB" solid-color="#000000" solid-opacity="1" fill="url(#linearGradient8085)" fill-opacity="1" fill-rule="nonzero" stroke="none" stroke-width="0.99999994" stroke-linecap="round" stroke-linejoin="round" stroke-miterlimit="4" stroke-dasharray="none" stroke-dashoffset="0" stroke-opacity="1" paint-order="fill markers stroke" color-rendering="auto" image-rendering="auto" shape-rendering="auto" text-rendering="auto"/></g><style type="text/css" id="style5178">.st0{fill:#030102;}</style><metadata><rdf:RDF xmlns:rdf="http://www.w3.org/1999/02/22-rdf-syntax-ns#" xmlns:rdfs="http://www.w3.org/2000/01/rdf-schema#" xmlns:dc="http://purl.org/dc/elements/1.1/"><rdf:Description about="https://iconscout.com/legal#licenses" dc:title="bag,cart,star,complete,ecommerce,shopping" dc:description="bag,cart,star,complete,ecommerce,shopping" dc:publisher="Iconscout" dc:date="2017-09-30" dc:format="image/svg+xml" dc:language="en"><dc:creator><rdf:Bag><rdf:li>Devendra Karkar</rdf:li></rdf:Bag></dc:creator></rdf:Description></rdf:RDF></metadata></svg>